<svg xmlns:xlink="http://www.w3.org/1999/xlink" xmlns="http://www.w3.org/2000/svg" width="400" height="400" fill="none"><path d="M383.5 251c0-39-19.5-79.833-25.5-95.5C355.167 117.333 345.5 41 329.5 41c-38.5 0-88 30.5-88 64-25-15-48.6-5-63 5-9.333-29-34-87-58-87-48 0-78 72.5-91 132.5C28.374 160.697 17 198.2 17 251c0 80.5 98 132.5 208 132.5 120 0 158.5-99.5 158.5-132.5Z" fill="#2E004B" stroke="#2E004B" stroke-width="24" stroke-linecap="round"/><mask id="mask0" mask-type="alpha" maskUnits="userSpaceOnUse" x="25" y="34" width="359" height="346"><path d="M383.5 252c0-39-19.5-79.833-25.5-95.5C355.167 118.333 345.5 42 329.5 42c-20 0-88 50.5-88 69-15-4.167-48.6-10-63 0-9.333-29-34-77-58-77-30 0-74 71-87 131-1.126 5.197-8.5 26.7-8.5 79.5 0 66 90 135 200 135S383.5 285 383.5 252Z" fill="#8CCFF4"/></mask><g mask="url('#mask0')"><path d="M383.5 252c0-39-19.5-79.833-25.5-95.5C355.167 118.333 345.5 42 329.5 42c-20 0-88 50.5-88 69-15-4.167-48.6-10-63 0-9.333-29-34-87-58-87-30 0-74 81-87 141-1.126 5.197-8.5 26.7-8.5 79.5 0 66 90 135 200 135S383.5 285 383.5 252Z" fill="#fff"/><path d="M170.5 191c-74 0-108.167 77.667-124 113.5C-18.5 221 8.5 0 198 0c171 0 196.333 214 189.5 263.5 0-46.5-26.5-82.5-82-72.5-35.824 6.455-41.167 51.667-26 87.5 0 6-29.133 17.725-42-34.5-8.5-34.5-17-53-67-53Z" fill="#FF9034"/><path d="M332.5 38.5c26.863 0 32.211 70.828 31.48 117.35-.122 7.745-7.619 13.083-15.06 10.928l-115.601-33.473c-8.488-2.458-11.717-13.122-6.532-20.277C249.444 81.761 274.598 38.5 332.5 38.5Z" fill="#FF9034"/><path opacity=".2" d="M158.5 376.5C42.314 347.182 42.097 236.639 62.865 147.709c1.832-7.845-7.444-13.388-12.797-7.367C18.91 175.383 9.337 212.451 27 281c14.497 56.262 90.833 87.667 131.5 95.5Z" fill="#6B4220"/><path d="M180.5 122.5c0-1.2-1.667-10.833-2-11.5l-.5-1.5 9.5-2.5c1.5 7-7 16.7-7 15.5ZM267 120c-3.2-2-22-7.833-31-10.5-2.5-7.167-4-20.4 10-16 17.5 5.5 25 29 21 26.5Z" fill="#2E004B"/></g><path d="M267.304 259c-2.795 0-8.862 2.275-13.933 4.858-5.42 2.762-6.741 8.856-3.13 13.752 6.394 8.67 17.155 18.39 23.129 18.39 10.108 0 15.13-21.926 15.13-26.722 0-8.778-15.13-10.278-21.196-10.278Z" fill="#2E004B"/><mask id="mask1" mask-type="alpha" maskUnits="userSpaceOnUse" x="188" y="292" width="148" height="59"><path d="M318.982 301.212c3.604 1.474 6.44 4.215 8.385 8.105 4.544 9.089-.261 18.426-7.22 24.37C312.945 339.839 302.019 344 289.5 344h-1.711c-21.765.001-43.53.003-65.579-2.002-5.532-.059-12.141-1.806-17.545-5.229C199.114 333.254 194 327.355 194 319l124.982-17.788Zm0 0c-3.428-1.402-6.975-1.419-10.03-1.042m10.03 1.042-10.03-1.042m0 0c-3.05.377-6.13 1.221-8.789 1.985m8.789-1.985-8.789 1.985m0 0-1.313.38m1.313-.38-1.313.38m0 0c-2.251.652-4.188 1.214-6.027 1.582m6.027-1.582-6.027 1.582m0 0c-10.765 2.153-21.38.848-32.743-1.227-1.978-.361-3.992-.75-6.038-1.144C244.656 299.935 234.62 298 224.5 298c-9.971 0-17.639 1.508-22.906 5.22m91.229.897-91.229-.897m0 0C195.81 307.296 194 313.195 194 319l7.594-15.78Z" fill="#2E004B" stroke="#2E004B" stroke-width="12" stroke-linecap="round"/></mask><g mask="url('#mask1')"><path d="M318.982 301.212c3.604 1.474 6.44 4.215 8.385 8.105 4.544 9.089-.261 18.426-7.22 24.37C312.945 339.839 302.019 344 289.5 344h-1.711c-21.765.001-43.53.003-65.579-2.002-5.532-.059-12.141-1.806-17.545-5.229C199.114 333.254 194 327.355 194 319l124.982-17.788Zm0 0c-3.428-1.402-6.975-1.419-10.03-1.042m10.03 1.042-10.03-1.042m0 0c-3.05.377-6.13 1.221-8.789 1.985m8.789-1.985-8.789 1.985m0 0-1.313.38m1.313-.38-1.313.38m0 0c-2.251.652-4.188 1.214-6.027 1.582m6.027-1.582-6.027 1.582m0 0c-10.765 2.153-21.38.848-32.743-1.227-1.978-.361-3.992-.75-6.038-1.144C244.656 299.935 234.62 298 224.5 298c-9.971 0-17.639 1.508-22.906 5.22m91.229.897-91.229-.897m0 0C195.81 307.296 194 313.195 194 319l7.594-15.78Z" fill="#2E004B" stroke="#2E004B" stroke-width="12" stroke-linecap="round"/><mask id="mask2" mask-type="alpha" maskUnits="userSpaceOnUse" x="196" y="321" width="93" height="49"><path d="M226.5 321.5c-16.4 0-27.167 1.333-30.5 2l20 46c27.5-10.667 80.2-32.2 71-33-11.5-1-40-15-60.5-15Z" fill="#FCA0A1"/></mask><g mask="url('#mask2')"><path d="M226.5 321.5c-16.4 0-27.167 1.333-30.5 2l20 46c27.5-10.667 80.2-32.2 71-33-11.5-1-40-15-60.5-15Z" fill="#FCA0A1"/><path d="M218 337c-1.2-11.6 15.833-13.833 24.5-13.5-13.6-13.6-45.333-8.667-59.5-4.5 12.167 10.833 36.2 29.6 35 18Z" fill="#D7859B"/></g><path d="M318.982 301.212c3.604 1.474 6.44 4.215 8.385 8.105 4.544 9.089-.261 18.426-7.22 24.37C312.945 339.839 302.019 344 289.5 344h-1.711c-21.765.001-43.53.003-65.579-2.002-5.532-.059-12.141-1.806-17.545-5.229C199.114 333.254 194 327.355 194 319l124.982-17.788Zm0 0c-3.428-1.402-6.975-1.419-10.03-1.042m10.03 1.042-10.03-1.042m0 0c-3.05.377-6.13 1.221-8.789 1.985m8.789-1.985-8.789 1.985m0 0-1.313.38m1.313-.38-1.313.38m0 0c-2.251.652-4.188 1.214-6.027 1.582m6.027-1.582-6.027 1.582m0 0c-10.765 2.153-21.38.848-32.743-1.227-1.978-.361-3.992-.75-6.038-1.144C244.656 299.935 234.62 298 224.5 298c-9.971 0-17.639 1.508-22.906 5.22m91.229.897-91.229-.897m0 0C195.81 307.296 194 313.195 194 319l7.594-15.78Z" stroke="#2E004B" stroke-width="12" stroke-linecap="round"/></g><path d="M210 230c0 10.996-1.91 21.574-5.338 29.559-3.428 7.986-8.113 12.773-13.092 13.376-4.979.604-9.873-3.022-13.677-10.131-3.805-7.109-6.229-17.162-6.776-28.091-.546-10.93.827-21.906 3.837-30.672 3.011-8.766 7.429-14.656 12.348-16.459 4.919-1.803 9.965.618 14.099 6.765 4.135 6.146 7.044 15.553 8.131 26.284L190.5 230H210ZM326.802 204.722c-14.877 4.103-27.6 19.054-33.658 29.942-3.96 7.117 2.154 10.351 14.813 5.444 14.043-5.444 39.043-5.444 37.024-8.847-1.616-2.722-16.159-6.805-16.159-6.805 14.806-4.083 22.895-17.021 20.871-21.095-.677-1.361-8.085-2.722-22.891 1.361Z" fill="#2E004B"/></svg>