<svg xmlns:xlink="http://www.w3.org/1999/xlink" width="25" height="24" viewBox="0 0 25 24" fill="none" xmlns="http://www.w3.org/2000/svg"><rect x="0.333496" width="24" height="24" rx="12" fill="#0A0E11"></rect><path d="M10.4232 4.20896C10.0999 3.88563 10.0873 3.69314 10.3637 3.29861C10.5616 3.01612 10.6668 3 12.3202 3C13.2814 3 14.1847 3.0626 14.3276 3.13903C14.4968 3.22957 14.5874 3.42018 14.5874 3.68561C14.5874 4.03876 14.0661 4.62403 10.6732 8.08016C8.34304 10.4536 6.67938 12.2558 6.56211 12.5333C6.2639 13.2389 6.39528 14.2861 6.85818 14.893C7.23738 15.3902 8.10998 15.8877 8.60981 15.8918C9.59941 15.9 9.88164 15.6846 12.8412 12.6625C15.2129 10.2407 15.7948 9.71373 16.0955 9.71494C16.588 9.71695 16.9691 10.2716 16.7695 10.6958C16.6928 10.859 15.3937 12.2619 13.8827 13.8134C10.8415 16.9364 10.3983 17.2568 8.99144 17.3488C7.47568 17.4478 6.14368 16.7305 5.35974 15.3929C5.06986 14.8981 4.8955 14.5705 4.84862 13.6791C4.75412 11.8775 4.99707 11.6321 8.70082 7.89083L8.74052 7.85073C10.4787 6.09492 11.9009 4.61772 11.9009 4.56802C11.9009 4.51831 11.6288 4.47761 11.2964 4.47761C10.871 4.47761 10.6122 4.39796 10.4232 4.20896Z" fill="#257CFF"></path><path d="M10.7611 10.2907C13.5624 7.4053 14.0375 7.00366 15.0339 6.67804C16.1941 6.29884 17.8167 6.72466 18.7769 7.66012C19.535 8.39866 19.8879 9.3141 19.8805 10.5224C19.8707 12.1277 19.6961 12.3811 16.025 16.1156L12.8082 19.3881H13.3993C14.1534 19.3881 14.5874 19.6825 14.5874 20.194C14.5874 20.8655 14.2125 21 12.3411 21C10.871 21 10.6628 20.9708 10.4232 20.7313C10.2755 20.5836 10.1546 20.3379 10.1546 20.1854C10.1546 20.0031 11.4922 18.5437 14.0633 15.9205C16.2131 13.7273 18.068 11.7515 18.1855 11.5299C18.4651 11.0026 18.4585 9.89601 18.1725 9.354C17.6138 8.29482 16.1455 7.79875 15.0741 8.30718C14.7869 8.44339 13.4845 9.68149 11.9324 11.2933C10.4744 12.8077 9.13732 14.1017 8.96108 14.1687C8.50651 14.3419 8.00534 13.9921 8.00534 13.5017C8.00534 13.1986 8.52035 12.5984 10.7611 10.2907Z" fill="#257CFF"></path></svg>