<svg width="278" height="278" viewBox="0 0 278 278" fill="none" xmlns="http://www.w3.org/2000/svg">
<circle cx="139" cy="139" r="139" fill="#3C69F7"/>
<path d="M144.612 52H100.576L67.3732 123.215C58.3756 142.513 53.8768 152.163 55.2399 159.534C56.4389 166.018 60.7179 171.289 67.4637 174.593C75.1326 178.349 87.4641 178.349 112.127 178.349H144.42L158.344 148.484C159.094 146.876 159.469 146.072 159.355 145.458C159.255 144.918 158.898 144.478 158.336 144.203C157.697 143.89 156.67 143.89 154.614 143.89H125.257C117.036 143.89 112.925 143.89 110.369 142.638C108.12 141.537 106.694 139.78 106.294 137.618C105.84 135.161 107.34 131.945 110.339 125.512L144.612 52Z" fill="white"/>
<path d="M131.444 226.69H175.944L209.495 155.476C218.588 136.177 223.134 126.528 221.757 119.157C220.545 112.673 216.221 107.401 209.404 104.097C201.655 100.342 189.193 100.342 164.271 100.342H131.637L117.567 130.206C116.81 131.814 116.431 132.618 116.546 133.233C116.646 133.773 117.007 134.212 117.575 134.488C118.221 134.801 119.259 134.801 121.336 134.801H151.003C159.31 134.801 163.464 134.801 166.047 136.052C168.319 137.154 169.761 138.911 170.165 141.072C170.624 143.529 169.109 146.746 166.078 153.179L131.444 226.69Z" fill="white"/>
</svg>
