<svg xmlns="http://www.w3.org/2000/svg" xmlns:xlink="http://www.w3.org/1999/xlink" width="200" zoomAndPan="magnify" viewBox="0 0 150 44.999999" height="60" preserveAspectRatio="xMidYMid meet" version="1.0"><defs><g/><clipPath id="4c4f26749a"><path d="M 4.96875 9.878906 L 28.96875 9.878906 L 28.96875 34.628906 L 4.96875 34.628906 Z M 4.96875 9.878906 " clip-rule="nonzero"/></clipPath><clipPath id="4ee929aa3e"><path d="M 27.820312 21.03125 L 19.992188 21.03125 C 19.878906 20.726562 19.71875 20.449219 19.519531 20.191406 C 19.320312 19.9375 19.089844 19.71875 18.820312 19.535156 C 18.554688 19.347656 18.269531 19.207031 17.957031 19.113281 C 17.648438 19.015625 17.332031 18.96875 17.007812 18.96875 C 16.683594 18.96875 16.367188 19.015625 16.058594 19.113281 C 15.75 19.207031 15.460938 19.347656 15.195312 19.535156 C 14.929688 19.71875 14.695312 19.9375 14.496094 20.191406 C 14.296875 20.449219 14.140625 20.726562 14.027344 21.03125 L 10.050781 21.03125 C 10.160156 20.328125 10.371094 19.65625 10.683594 19.015625 C 10.992188 18.378906 11.390625 17.796875 11.871094 17.273438 C 12.355469 16.75 12.902344 16.308594 13.515625 15.949219 C 14.125 15.585938 14.777344 15.324219 15.46875 15.152344 C 16.160156 14.984375 16.859375 14.921875 17.570312 14.957031 C 18.28125 14.996094 18.96875 15.136719 19.636719 15.378906 C 20.308594 15.621094 20.925781 15.953125 21.496094 16.378906 C 22.066406 16.804688 22.5625 17.300781 22.988281 17.875 C 23.082031 18.003906 23.203125 18.113281 23.339844 18.195312 C 23.480469 18.277344 23.632812 18.332031 23.792969 18.355469 C 23.953125 18.378906 24.113281 18.371094 24.269531 18.332031 C 24.429688 18.292969 24.574219 18.226562 24.703125 18.128906 C 24.835938 18.03125 24.941406 17.914062 25.027344 17.773438 C 25.109375 17.632812 25.164062 17.484375 25.1875 17.324219 C 25.210938 17.160156 25.203125 17.003906 25.164062 16.84375 C 25.125 16.6875 25.058594 16.542969 24.960938 16.410156 C 24.164062 15.339844 23.191406 14.472656 22.039062 13.804688 C 20.886719 13.132812 19.652344 12.71875 18.328125 12.558594 L 18.328125 11.167969 C 18.328125 11.007812 18.296875 10.847656 18.234375 10.699219 C 18.171875 10.546875 18.085938 10.414062 17.96875 10.300781 C 17.855469 10.183594 17.722656 10.097656 17.570312 10.035156 C 17.417969 9.972656 17.261719 9.941406 17.101562 9.941406 C 16.9375 9.941406 16.78125 9.972656 16.628906 10.035156 C 16.480469 10.097656 16.347656 10.183594 16.230469 10.300781 C 16.117188 10.414062 16.027344 10.546875 15.964844 10.699219 C 15.902344 10.847656 15.871094 11.007812 15.871094 11.167969 L 15.871094 12.578125 C 15.34375 12.648438 14.828125 12.765625 14.320312 12.925781 C 13.8125 13.082031 13.320312 13.28125 12.847656 13.519531 C 12.371094 13.757812 11.917969 14.035156 11.488281 14.351562 C 11.058594 14.664062 10.660156 15.011719 10.285156 15.390625 C 9.914062 15.769531 9.574219 16.175781 9.269531 16.613281 C 8.964844 17.046875 8.695312 17.503906 8.46875 17.984375 C 8.238281 18.460938 8.046875 18.957031 7.898438 19.46875 C 7.75 19.980469 7.644531 20.496094 7.582031 21.027344 L 6.191406 21.027344 C 6.027344 21.027344 5.871094 21.058594 5.71875 21.121094 C 5.570312 21.183594 5.4375 21.269531 5.320312 21.386719 C 5.207031 21.5 5.117188 21.632812 5.054688 21.785156 C 4.992188 21.9375 4.960938 22.09375 4.960938 22.257812 C 4.960938 22.417969 4.992188 22.578125 5.054688 22.726562 C 5.117188 22.878906 5.207031 23.011719 5.320312 23.125 C 5.4375 23.242188 5.570312 23.332031 5.71875 23.394531 C 5.871094 23.457031 6.027344 23.488281 6.191406 23.488281 L 14.105469 23.488281 C 14.367188 24.058594 14.757812 24.511719 15.285156 24.851562 C 15.808594 25.191406 16.386719 25.363281 17.011719 25.363281 C 17.640625 25.363281 18.214844 25.191406 18.742188 24.851562 C 19.269531 24.511719 19.660156 24.058594 19.917969 23.488281 L 24.324219 23.488281 C 23.78125 26.875 20.847656 29.390625 17.195312 29.390625 C 16.074219 29.394531 15.007812 29.148438 14 28.652344 C 12.996094 28.15625 12.152344 27.464844 11.46875 26.574219 C 11.371094 26.445312 11.25 26.339844 11.109375 26.257812 C 10.964844 26.175781 10.816406 26.125 10.652344 26.105469 C 10.492188 26.085938 10.332031 26.09375 10.175781 26.136719 C 10.019531 26.179688 9.875 26.25 9.746094 26.351562 C 9.617188 26.449219 9.511719 26.570312 9.429688 26.710938 C 9.347656 26.851562 9.296875 27.003906 9.277344 27.167969 C 9.257812 27.328125 9.265625 27.488281 9.308594 27.644531 C 9.351562 27.800781 9.421875 27.945312 9.523438 28.074219 C 10.296875 29.082031 11.230469 29.90625 12.332031 30.542969 C 13.429688 31.179688 14.609375 31.585938 15.871094 31.753906 L 15.871094 33.160156 C 15.871094 33.324219 15.902344 33.480469 15.964844 33.632812 C 16.027344 33.78125 16.117188 33.914062 16.230469 34.03125 C 16.347656 34.144531 16.480469 34.234375 16.628906 34.296875 C 16.78125 34.359375 16.9375 34.390625 17.101562 34.390625 C 17.261719 34.390625 17.417969 34.359375 17.570312 34.296875 C 17.722656 34.234375 17.855469 34.144531 17.96875 34.03125 C 18.085938 33.914062 18.171875 33.78125 18.234375 33.632812 C 18.296875 33.480469 18.328125 33.324219 18.328125 33.160156 L 18.328125 31.785156 C 22.820312 31.289062 26.28125 27.894531 26.800781 23.488281 L 27.820312 23.488281 C 27.984375 23.488281 28.140625 23.457031 28.292969 23.394531 C 28.441406 23.335938 28.574219 23.246094 28.691406 23.128906 C 28.804688 23.015625 28.894531 22.882812 28.957031 22.730469 C 29.019531 22.582031 29.050781 22.425781 29.050781 22.261719 C 29.050781 22.097656 29.019531 21.941406 28.957031 21.792969 C 28.894531 21.640625 28.804688 21.507812 28.691406 21.394531 C 28.574219 21.277344 28.441406 21.1875 28.292969 21.125 C 28.140625 21.066406 27.984375 21.035156 27.820312 21.035156 Z M 27.820312 21.03125 " clip-rule="nonzero"/></clipPath><linearGradient x1="146.939137" gradientTransform="matrix(0.15296, 0, 0, 0.15296, 4.967891, 9.945324)" y1="-7.714545" x2="11.183871" gradientUnits="userSpaceOnUse" y2="168.434254" id="dbe3daddd7"><stop stop-opacity="1" stop-color="rgb(79.598999%, 42.399597%, 90.19928%)" offset="0"/><stop stop-opacity="1" stop-color="rgb(79.598999%, 42.399597%, 90.19928%)" offset="0.125"/><stop stop-opacity="1" stop-color="rgb(79.286194%, 42.457581%, 90.220642%)" offset="0.128906"/><stop stop-opacity="1" stop-color="rgb(78.973389%, 42.51709%, 90.242004%)" offset="0.132812"/><stop stop-opacity="1" stop-color="rgb(78.543091%, 42.597961%, 90.272522%)" offset="0.136719"/><stop stop-opacity="1" stop-color="rgb(78.114319%, 42.678833%, 90.30304%)" offset="0.140625"/><stop stop-opacity="1" stop-color="rgb(77.684021%, 42.759705%, 90.332031%)" offset="0.144531"/><stop stop-opacity="1" stop-color="rgb(77.253723%, 42.840576%, 90.362549%)" offset="0.148437"/><stop stop-opacity="1" stop-color="rgb(76.823425%, 42.921448%, 90.391541%)" offset="0.152344"/><stop stop-opacity="1" stop-color="rgb(76.393127%, 43.002319%, 90.422058%)" offset="0.15625"/><stop stop-opacity="1" stop-color="rgb(75.96283%, 43.083191%, 90.45105%)" offset="0.160156"/><stop stop-opacity="1" stop-color="rgb(75.534058%, 43.164062%, 90.481567%)" offset="0.164062"/><stop stop-opacity="1" stop-color="rgb(75.10376%, 43.244934%, 90.510559%)" offset="0.167969"/><stop stop-opacity="1" stop-color="rgb(74.673462%, 43.325806%, 90.541077%)" offset="0.171875"/><stop stop-opacity="1" stop-color="rgb(74.243164%, 43.406677%, 90.570068%)" offset="0.175781"/><stop stop-opacity="1" stop-color="rgb(73.812866%, 43.487549%, 90.600586%)" offset="0.179687"/><stop stop-opacity="1" stop-color="rgb(73.382568%, 43.56842%, 90.629578%)" offset="0.183594"/><stop stop-opacity="1" stop-color="rgb(72.952271%, 43.649292%, 90.660095%)" offset="0.1875"/><stop stop-opacity="1" stop-color="rgb(72.521973%, 43.730164%, 90.690613%)" offset="0.191406"/><stop stop-opacity="1" stop-color="rgb(72.093201%, 43.811035%, 90.72113%)" offset="0.195312"/><stop stop-opacity="1" stop-color="rgb(71.662903%, 43.891907%, 90.750122%)" offset="0.199219"/><stop stop-opacity="1" stop-color="rgb(71.232605%, 43.972778%, 90.78064%)" offset="0.203125"/><stop stop-opacity="1" stop-color="rgb(70.802307%, 44.05365%, 90.809631%)" offset="0.207031"/><stop stop-opacity="1" stop-color="rgb(70.372009%, 44.134521%, 90.840149%)" offset="0.210938"/><stop stop-opacity="1" stop-color="rgb(69.941711%, 44.215393%, 90.869141%)" offset="0.214844"/><stop stop-opacity="1" stop-color="rgb(69.512939%, 44.296265%, 90.899658%)" offset="0.21875"/><stop stop-opacity="1" stop-color="rgb(69.082642%, 44.377136%, 90.92865%)" offset="0.222656"/><stop stop-opacity="1" stop-color="rgb(68.652344%, 44.458008%, 90.959167%)" offset="0.226562"/><stop stop-opacity="1" stop-color="rgb(68.222046%, 44.538879%, 90.988159%)" offset="0.230469"/><stop stop-opacity="1" stop-color="rgb(67.791748%, 44.621277%, 91.018677%)" offset="0.234375"/><stop stop-opacity="1" stop-color="rgb(67.36145%, 44.702148%, 91.047668%)" offset="0.238281"/><stop stop-opacity="1" stop-color="rgb(66.931152%, 44.78302%, 91.078186%)" offset="0.242187"/><stop stop-opacity="1" stop-color="rgb(66.500854%, 44.863892%, 91.108704%)" offset="0.246094"/><stop stop-opacity="1" stop-color="rgb(66.072083%, 44.944763%, 91.139221%)" offset="0.25"/><stop stop-opacity="1" stop-color="rgb(65.641785%, 45.025635%, 91.168213%)" offset="0.253906"/><stop stop-opacity="1" stop-color="rgb(65.211487%, 45.106506%, 91.19873%)" offset="0.257812"/><stop stop-opacity="1" stop-color="rgb(64.781189%, 45.187378%, 91.227722%)" offset="0.261719"/><stop stop-opacity="1" stop-color="rgb(64.350891%, 45.26825%, 91.25824%)" offset="0.265625"/><stop stop-opacity="1" stop-color="rgb(63.920593%, 45.349121%, 91.287231%)" offset="0.269531"/><stop stop-opacity="1" stop-color="rgb(63.490295%, 45.429993%, 91.317749%)" offset="0.273438"/><stop stop-opacity="1" stop-color="rgb(63.059998%, 45.510864%, 91.346741%)" offset="0.277344"/><stop stop-opacity="1" stop-color="rgb(62.631226%, 45.591736%, 91.377258%)" offset="0.28125"/><stop stop-opacity="1" stop-color="rgb(62.200928%, 45.672607%, 91.40625%)" offset="0.285156"/><stop stop-opacity="1" stop-color="rgb(61.77063%, 45.753479%, 91.436768%)" offset="0.289062"/><stop stop-opacity="1" stop-color="rgb(61.340332%, 45.834351%, 91.467285%)" offset="0.292969"/><stop stop-opacity="1" stop-color="rgb(60.910034%, 45.915222%, 91.497803%)" offset="0.296875"/><stop stop-opacity="1" stop-color="rgb(60.479736%, 45.996094%, 91.526794%)" offset="0.300781"/><stop stop-opacity="1" stop-color="rgb(60.050964%, 46.076965%, 91.557312%)" offset="0.304688"/><stop stop-opacity="1" stop-color="rgb(59.620667%, 46.157837%, 91.586304%)" offset="0.308594"/><stop stop-opacity="1" stop-color="rgb(59.190369%, 46.238708%, 91.616821%)" offset="0.3125"/><stop stop-opacity="1" stop-color="rgb(58.760071%, 46.31958%, 91.645813%)" offset="0.316406"/><stop stop-opacity="1" stop-color="rgb(58.329773%, 46.400452%, 91.676331%)" offset="0.320312"/><stop stop-opacity="1" stop-color="rgb(57.899475%, 46.481323%, 91.705322%)" offset="0.324219"/><stop stop-opacity="1" stop-color="rgb(57.469177%, 46.562195%, 91.73584%)" offset="0.328125"/><stop stop-opacity="1" stop-color="rgb(57.038879%, 46.643066%, 91.764832%)" offset="0.332031"/><stop stop-opacity="1" stop-color="rgb(56.610107%, 46.723938%, 91.795349%)" offset="0.335937"/><stop stop-opacity="1" stop-color="rgb(56.17981%, 46.80481%, 91.824341%)" offset="0.339844"/><stop stop-opacity="1" stop-color="rgb(55.749512%, 46.885681%, 91.854858%)" offset="0.34375"/><stop stop-opacity="1" stop-color="rgb(55.319214%, 46.966553%, 91.885376%)" offset="0.347656"/><stop stop-opacity="1" stop-color="rgb(54.888916%, 47.047424%, 91.915894%)" offset="0.351562"/><stop stop-opacity="1" stop-color="rgb(54.458618%, 47.128296%, 91.944885%)" offset="0.355469"/><stop stop-opacity="1" stop-color="rgb(54.029846%, 47.209167%, 91.975403%)" offset="0.359375"/><stop stop-opacity="1" stop-color="rgb(53.599548%, 47.290039%, 92.004395%)" offset="0.363281"/><stop stop-opacity="1" stop-color="rgb(53.16925%, 47.370911%, 92.034912%)" offset="0.367188"/><stop stop-opacity="1" stop-color="rgb(52.738953%, 47.451782%, 92.063904%)" offset="0.371094"/><stop stop-opacity="1" stop-color="rgb(52.308655%, 47.53418%, 92.094421%)" offset="0.375"/><stop stop-opacity="1" stop-color="rgb(51.878357%, 47.615051%, 92.123413%)" offset="0.378906"/><stop stop-opacity="1" stop-color="rgb(51.448059%, 47.695923%, 92.153931%)" offset="0.382812"/><stop stop-opacity="1" stop-color="rgb(51.017761%, 47.776794%, 92.182922%)" offset="0.386719"/><stop stop-opacity="1" stop-color="rgb(50.588989%, 47.857666%, 92.21344%)" offset="0.390625"/><stop stop-opacity="1" stop-color="rgb(50.158691%, 47.938538%, 92.242432%)" offset="0.394531"/><stop stop-opacity="1" stop-color="rgb(49.728394%, 48.019409%, 92.272949%)" offset="0.398438"/><stop stop-opacity="1" stop-color="rgb(49.298096%, 48.100281%, 92.303467%)" offset="0.402344"/><stop stop-opacity="1" stop-color="rgb(48.867798%, 48.181152%, 92.333984%)" offset="0.40625"/><stop stop-opacity="1" stop-color="rgb(48.4375%, 48.262024%, 92.362976%)" offset="0.410156"/><stop stop-opacity="1" stop-color="rgb(48.008728%, 48.342896%, 92.393494%)" offset="0.414062"/><stop stop-opacity="1" stop-color="rgb(47.57843%, 48.423767%, 92.422485%)" offset="0.417969"/><stop stop-opacity="1" stop-color="rgb(47.148132%, 48.504639%, 92.453003%)" offset="0.421875"/><stop stop-opacity="1" stop-color="rgb(46.717834%, 48.58551%, 92.481995%)" offset="0.425781"/><stop stop-opacity="1" stop-color="rgb(46.287537%, 48.666382%, 92.512512%)" offset="0.429687"/><stop stop-opacity="1" stop-color="rgb(45.857239%, 48.747253%, 92.541504%)" offset="0.433594"/><stop stop-opacity="1" stop-color="rgb(45.426941%, 48.828125%, 92.572021%)" offset="0.4375"/><stop stop-opacity="1" stop-color="rgb(44.996643%, 48.908997%, 92.601013%)" offset="0.441406"/><stop stop-opacity="1" stop-color="rgb(44.567871%, 48.989868%, 92.631531%)" offset="0.445312"/><stop stop-opacity="1" stop-color="rgb(44.137573%, 49.07074%, 92.660522%)" offset="0.449219"/><stop stop-opacity="1" stop-color="rgb(43.707275%, 49.151611%, 92.69104%)" offset="0.453125"/><stop stop-opacity="1" stop-color="rgb(43.276978%, 49.232483%, 92.721558%)" offset="0.457031"/><stop stop-opacity="1" stop-color="rgb(42.84668%, 49.313354%, 92.752075%)" offset="0.460938"/><stop stop-opacity="1" stop-color="rgb(42.416382%, 49.394226%, 92.781067%)" offset="0.464844"/><stop stop-opacity="1" stop-color="rgb(41.986084%, 49.475098%, 92.811584%)" offset="0.46875"/><stop stop-opacity="1" stop-color="rgb(41.555786%, 49.555969%, 92.840576%)" offset="0.472656"/><stop stop-opacity="1" stop-color="rgb(41.127014%, 49.636841%, 92.871094%)" offset="0.476562"/><stop stop-opacity="1" stop-color="rgb(40.696716%, 49.717712%, 92.900085%)" offset="0.480469"/><stop stop-opacity="1" stop-color="rgb(40.266418%, 49.798584%, 92.930603%)" offset="0.484375"/><stop stop-opacity="1" stop-color="rgb(39.836121%, 49.879456%, 92.959595%)" offset="0.488281"/><stop stop-opacity="1" stop-color="rgb(39.405823%, 49.960327%, 92.990112%)" offset="0.492188"/><stop stop-opacity="1" stop-color="rgb(38.975525%, 50.041199%, 93.019104%)" offset="0.496094"/><stop stop-opacity="1" stop-color="rgb(38.546753%, 50.12207%, 93.049622%)" offset="0.5"/><stop stop-opacity="1" stop-color="rgb(38.116455%, 50.202942%, 93.078613%)" offset="0.503906"/><stop stop-opacity="1" stop-color="rgb(37.686157%, 50.283813%, 93.109131%)" offset="0.507813"/><stop stop-opacity="1" stop-color="rgb(37.255859%, 50.364685%, 93.139648%)" offset="0.511719"/><stop stop-opacity="1" stop-color="rgb(36.825562%, 50.445557%, 93.170166%)" offset="0.515625"/><stop stop-opacity="1" stop-color="rgb(36.395264%, 50.526428%, 93.199158%)" offset="0.519531"/><stop stop-opacity="1" stop-color="rgb(35.964966%, 50.608826%, 93.229675%)" offset="0.523438"/><stop stop-opacity="1" stop-color="rgb(35.534668%, 50.689697%, 93.258667%)" offset="0.527344"/><stop stop-opacity="1" stop-color="rgb(35.105896%, 50.770569%, 93.289185%)" offset="0.53125"/><stop stop-opacity="1" stop-color="rgb(34.675598%, 50.85144%, 93.318176%)" offset="0.535156"/><stop stop-opacity="1" stop-color="rgb(34.2453%, 50.932312%, 93.348694%)" offset="0.539062"/><stop stop-opacity="1" stop-color="rgb(33.815002%, 51.013184%, 93.377686%)" offset="0.542969"/><stop stop-opacity="1" stop-color="rgb(33.384705%, 51.094055%, 93.408203%)" offset="0.546875"/><stop stop-opacity="1" stop-color="rgb(32.954407%, 51.174927%, 93.437195%)" offset="0.550781"/><stop stop-opacity="1" stop-color="rgb(32.525635%, 51.255798%, 93.467712%)" offset="0.554688"/><stop stop-opacity="1" stop-color="rgb(32.095337%, 51.33667%, 93.49823%)" offset="0.558594"/><stop stop-opacity="1" stop-color="rgb(31.665039%, 51.417542%, 93.528748%)" offset="0.5625"/><stop stop-opacity="1" stop-color="rgb(31.234741%, 51.498413%, 93.557739%)" offset="0.566406"/><stop stop-opacity="1" stop-color="rgb(30.804443%, 51.579285%, 93.588257%)" offset="0.570312"/><stop stop-opacity="1" stop-color="rgb(30.374146%, 51.660156%, 93.617249%)" offset="0.574219"/><stop stop-opacity="1" stop-color="rgb(29.943848%, 51.741028%, 93.647766%)" offset="0.578125"/><stop stop-opacity="1" stop-color="rgb(29.51355%, 51.821899%, 93.676758%)" offset="0.582031"/><stop stop-opacity="1" stop-color="rgb(29.084778%, 51.902771%, 93.707275%)" offset="0.585937"/><stop stop-opacity="1" stop-color="rgb(28.65448%, 51.983643%, 93.736267%)" offset="0.589844"/><stop stop-opacity="1" stop-color="rgb(28.224182%, 52.064514%, 93.766785%)" offset="0.59375"/><stop stop-opacity="1" stop-color="rgb(27.793884%, 52.145386%, 93.795776%)" offset="0.597656"/><stop stop-opacity="1" stop-color="rgb(27.363586%, 52.226257%, 93.826294%)" offset="0.601563"/><stop stop-opacity="1" stop-color="rgb(26.933289%, 52.307129%, 93.855286%)" offset="0.605469"/><stop stop-opacity="1" stop-color="rgb(26.504517%, 52.388%, 93.885803%)" offset="0.609375"/><stop stop-opacity="1" stop-color="rgb(26.074219%, 52.468872%, 93.916321%)" offset="0.613281"/><stop stop-opacity="1" stop-color="rgb(25.643921%, 52.549744%, 93.946838%)" offset="0.617188"/><stop stop-opacity="1" stop-color="rgb(25.213623%, 52.630615%, 93.97583%)" offset="0.621094"/><stop stop-opacity="1" stop-color="rgb(24.783325%, 52.711487%, 94.006348%)" offset="0.625"/><stop stop-opacity="1" stop-color="rgb(24.353027%, 52.792358%, 94.035339%)" offset="0.628906"/><stop stop-opacity="1" stop-color="rgb(23.922729%, 52.87323%, 94.065857%)" offset="0.632812"/><stop stop-opacity="1" stop-color="rgb(23.492432%, 52.954102%, 94.094849%)" offset="0.636719"/><stop stop-opacity="1" stop-color="rgb(23.06366%, 53.034973%, 94.125366%)" offset="0.640625"/><stop stop-opacity="1" stop-color="rgb(22.633362%, 53.115845%, 94.154358%)" offset="0.644531"/><stop stop-opacity="1" stop-color="rgb(22.203064%, 53.196716%, 94.184875%)" offset="0.648438"/><stop stop-opacity="1" stop-color="rgb(21.772766%, 53.277588%, 94.213867%)" offset="0.652344"/><stop stop-opacity="1" stop-color="rgb(21.342468%, 53.358459%, 94.244385%)" offset="0.65625"/><stop stop-opacity="1" stop-color="rgb(20.91217%, 53.439331%, 94.273376%)" offset="0.660156"/><stop stop-opacity="1" stop-color="rgb(20.481873%, 53.520203%, 94.303894%)" offset="0.664062"/><stop stop-opacity="1" stop-color="rgb(20.051575%, 53.601074%, 94.334412%)" offset="0.667969"/><stop stop-opacity="1" stop-color="rgb(19.622803%, 53.683472%, 94.364929%)" offset="0.671875"/><stop stop-opacity="1" stop-color="rgb(19.192505%, 53.764343%, 94.393921%)" offset="0.675781"/><stop stop-opacity="1" stop-color="rgb(18.762207%, 53.845215%, 94.424438%)" offset="0.679687"/><stop stop-opacity="1" stop-color="rgb(18.331909%, 53.926086%, 94.45343%)" offset="0.683594"/><stop stop-opacity="1" stop-color="rgb(17.901611%, 54.006958%, 94.483948%)" offset="0.6875"/><stop stop-opacity="1" stop-color="rgb(17.471313%, 54.08783%, 94.512939%)" offset="0.691406"/><stop stop-opacity="1" stop-color="rgb(17.042542%, 54.168701%, 94.543457%)" offset="0.695313"/><stop stop-opacity="1" stop-color="rgb(16.612244%, 54.249573%, 94.572449%)" offset="0.699219"/><stop stop-opacity="1" stop-color="rgb(16.181946%, 54.330444%, 94.602966%)" offset="0.703125"/><stop stop-opacity="1" stop-color="rgb(15.751648%, 54.411316%, 94.631958%)" offset="0.707031"/><stop stop-opacity="1" stop-color="rgb(15.32135%, 54.492188%, 94.662476%)" offset="0.710938"/><stop stop-opacity="1" stop-color="rgb(14.891052%, 54.573059%, 94.691467%)" offset="0.714844"/><stop stop-opacity="1" stop-color="rgb(14.460754%, 54.653931%, 94.721985%)" offset="0.71875"/><stop stop-opacity="1" stop-color="rgb(14.030457%, 54.734802%, 94.752502%)" offset="0.722656"/><stop stop-opacity="1" stop-color="rgb(13.601685%, 54.815674%, 94.78302%)" offset="0.726562"/><stop stop-opacity="1" stop-color="rgb(13.171387%, 54.896545%, 94.812012%)" offset="0.730469"/><stop stop-opacity="1" stop-color="rgb(12.741089%, 54.977417%, 94.842529%)" offset="0.734375"/><stop stop-opacity="1" stop-color="rgb(12.310791%, 55.058289%, 94.871521%)" offset="0.738281"/><stop stop-opacity="1" stop-color="rgb(11.880493%, 55.13916%, 94.902039%)" offset="0.742188"/><stop stop-opacity="1" stop-color="rgb(11.450195%, 55.220032%, 94.93103%)" offset="0.746094"/><stop stop-opacity="1" stop-color="rgb(11.021423%, 55.300903%, 94.961548%)" offset="0.75"/><stop stop-opacity="1" stop-color="rgb(10.591125%, 55.381775%, 94.99054%)" offset="0.753906"/><stop stop-opacity="1" stop-color="rgb(10.160828%, 55.462646%, 95.021057%)" offset="0.757812"/><stop stop-opacity="1" stop-color="rgb(9.73053%, 55.543518%, 95.050049%)" offset="0.761719"/><stop stop-opacity="1" stop-color="rgb(9.300232%, 55.62439%, 95.080566%)" offset="0.765625"/><stop stop-opacity="1" stop-color="rgb(8.869934%, 55.705261%, 95.109558%)" offset="0.769531"/><stop stop-opacity="1" stop-color="rgb(8.439636%, 55.786133%, 95.140076%)" offset="0.773437"/><stop stop-opacity="1" stop-color="rgb(8.009338%, 55.867004%, 95.170593%)" offset="0.777344"/><stop stop-opacity="1" stop-color="rgb(7.580566%, 55.947876%, 95.201111%)" offset="0.78125"/><stop stop-opacity="1" stop-color="rgb(7.150269%, 56.028748%, 95.230103%)" offset="0.785156"/><stop stop-opacity="1" stop-color="rgb(6.719971%, 56.109619%, 95.26062%)" offset="0.789062"/><stop stop-opacity="1" stop-color="rgb(6.289673%, 56.190491%, 95.289612%)" offset="0.792969"/><stop stop-opacity="1" stop-color="rgb(5.859375%, 56.271362%, 95.320129%)" offset="0.796875"/><stop stop-opacity="1" stop-color="rgb(5.429077%, 56.352234%, 95.349121%)" offset="0.800781"/><stop stop-opacity="1" stop-color="rgb(4.998779%, 56.433105%, 95.379639%)" offset="0.804687"/><stop stop-opacity="1" stop-color="rgb(4.568481%, 56.513977%, 95.40863%)" offset="0.808594"/><stop stop-opacity="1" stop-color="rgb(4.139709%, 56.594849%, 95.439148%)" offset="0.8125"/><stop stop-opacity="1" stop-color="rgb(3.709412%, 56.67572%, 95.46814%)" offset="0.816406"/><stop stop-opacity="1" stop-color="rgb(3.279114%, 56.758118%, 95.498657%)" offset="0.820312"/><stop stop-opacity="1" stop-color="rgb(2.848816%, 56.838989%, 95.529175%)" offset="0.824219"/><stop stop-opacity="1" stop-color="rgb(2.418518%, 56.919861%, 95.559692%)" offset="0.828125"/><stop stop-opacity="1" stop-color="rgb(1.98822%, 57.000732%, 95.588684%)" offset="0.832031"/><stop stop-opacity="1" stop-color="rgb(1.559448%, 57.081604%, 95.619202%)" offset="0.835938"/><stop stop-opacity="1" stop-color="rgb(1.12915%, 57.162476%, 95.648193%)" offset="0.839844"/><stop stop-opacity="1" stop-color="rgb(0.698853%, 57.243347%, 95.678711%)" offset="0.84375"/><stop stop-opacity="1" stop-color="rgb(0.549316%, 57.270813%, 95.687866%)" offset="0.875"/><stop stop-opacity="1" stop-color="rgb(0.39978%, 57.299805%, 95.698547%)" offset="1"/></linearGradient></defs><g clip-path="url(#4c4f26749a)"><g clip-path="url(#4ee929aa3e)"><path fill="url(#dbe3daddd7)" d="M 4.96875 9.941406 L 4.96875 34.390625 L 28.96875 34.390625 L 28.96875 9.941406 Z M 4.96875 9.941406 " fill-rule="nonzero"/></g></g><g fill="#ff00ff" fill-opacity="1"><g transform="translate(34.196638, 30.406613)"><g><path d="M 15.019531 0 L 17.460938 -2.441406 L 17.460938 -8.058594 L 15.019531 -10.5 L 5.128906 -10.5 L 5.128906 -13.1875 L 17.460938 -13.1875 L 17.460938 -17.09375 L 3.664062 -17.09375 L 1.222656 -14.652344 L 1.222656 -9.035156 L 3.664062 -6.59375 L 13.554688 -6.59375 L 13.554688 -3.90625 L 1.222656 -3.90625 L 1.222656 0 Z M 15.019531 0 "/></g></g></g><g fill="#ff00ff" fill-opacity="1"><g transform="translate(54.92194, 30.406613)"><g><path d="M 17.339844 0 L 17.339844 -17.09375 L 13.429688 -17.09375 L 13.429688 -6.59375 L 5.859375 -17.09375 L 0.121094 -17.09375 L 0.121094 -13.1875 L 1.953125 -13.1875 L 1.953125 0 L 5.859375 0 L 5.859375 -10.476562 L 13.429688 0 Z M 17.339844 0 "/></g></g></g><g fill="#ff00ff" fill-opacity="1"><g transform="translate(75.525191, 30.406613)"><g><path d="M 5.128906 0 L 5.128906 -17.09375 L 1.222656 -17.09375 L 1.222656 0 Z M 5.128906 0 "/></g></g></g><g fill="#ff00ff" fill-opacity="1"><g transform="translate(83.923411, 30.406613)"><g><path d="M 14.894531 -4.152344 L 17.339844 -6.59375 L 17.339844 -14.652344 L 14.894531 -17.09375 L 0.121094 -17.09375 L 0.121094 -13.1875 L 13.429688 -13.1875 L 13.429688 -8.058594 L 5.859375 -8.058594 L 5.859375 -11.964844 L 1.953125 -11.964844 L 1.953125 0 L 5.859375 0 L 5.859375 -4.152344 Z M 14.894531 -4.152344 "/></g></g></g><g fill="#ff00ff" fill-opacity="1"><g transform="translate(104.038456, 30.406613)"><g><path d="M 16.851562 0 L 16.851562 -3.90625 L 5.859375 -3.90625 L 5.859375 -6.59375 L 14.40625 -6.59375 L 14.40625 -10.5 L 5.859375 -10.5 L 5.859375 -13.1875 L 16.851562 -13.1875 L 16.851562 -17.09375 L 0.121094 -17.09375 L 0.121094 -13.1875 L 1.953125 -13.1875 L 1.953125 0 Z M 16.851562 0 "/></g></g></g><g fill="#ff00ff" fill-opacity="1"><g transform="translate(124.1535, 30.406613)"><g><path d="M 14.894531 -4.152344 L 17.339844 -6.59375 L 17.339844 -14.652344 L 14.894531 -17.09375 L 0.121094 -17.09375 L 0.121094 -13.1875 L 13.429688 -13.1875 L 13.429688 -8.058594 L 5.859375 -8.058594 L 5.859375 -11.964844 L 1.953125 -11.964844 L 1.953125 0 L 5.859375 0 L 5.859375 -4.152344 L 9.9375 -4.152344 C 11.160156 -2.757812 12.355469 -1.367188 13.601562 0 L 18.558594 0 C 17.3125 -1.367188 16.117188 -2.757812 14.894531 -4.152344 Z M 14.894531 -4.152344 "/></g></g></g><g fill="#00ffff" fill-opacity="1"><g transform="translate(37.171369, 31.093383)"><g><path d="M 15.019531 0 L 17.460938 -2.441406 L 17.460938 -8.058594 L 15.019531 -10.5 L 5.128906 -10.5 L 5.128906 -13.1875 L 17.460938 -13.1875 L 17.460938 -17.09375 L 3.664062 -17.09375 L 1.222656 -14.652344 L 1.222656 -9.035156 L 3.664062 -6.59375 L 13.554688 -6.59375 L 13.554688 -3.90625 L 1.222656 -3.90625 L 1.222656 0 Z M 15.019531 0 "/></g></g></g><g fill="#00ffff" fill-opacity="1"><g transform="translate(57.896671, 31.093383)"><g><path d="M 17.339844 0 L 17.339844 -17.09375 L 13.429688 -17.09375 L 13.429688 -6.59375 L 5.859375 -17.09375 L 0.121094 -17.09375 L 0.121094 -13.1875 L 1.953125 -13.1875 L 1.953125 0 L 5.859375 0 L 5.859375 -10.476562 L 13.429688 0 Z M 17.339844 0 "/></g></g></g><g fill="#00ffff" fill-opacity="1"><g transform="translate(78.499922, 31.093383)"><g><path d="M 5.128906 0 L 5.128906 -17.09375 L 1.222656 -17.09375 L 1.222656 0 Z M 5.128906 0 "/></g></g></g><g fill="#00ffff" fill-opacity="1"><g transform="translate(86.898143, 31.093383)"><g><path d="M 14.894531 -4.152344 L 17.339844 -6.59375 L 17.339844 -14.652344 L 14.894531 -17.09375 L 0.121094 -17.09375 L 0.121094 -13.1875 L 13.429688 -13.1875 L 13.429688 -8.058594 L 5.859375 -8.058594 L 5.859375 -11.964844 L 1.953125 -11.964844 L 1.953125 0 L 5.859375 0 L 5.859375 -4.152344 Z M 14.894531 -4.152344 "/></g></g></g><g fill="#00ffff" fill-opacity="1"><g transform="translate(107.013187, 31.093383)"><g><path d="M 16.851562 0 L 16.851562 -3.90625 L 5.859375 -3.90625 L 5.859375 -6.59375 L 14.40625 -6.59375 L 14.40625 -10.5 L 5.859375 -10.5 L 5.859375 -13.1875 L 16.851562 -13.1875 L 16.851562 -17.09375 L 0.121094 -17.09375 L 0.121094 -13.1875 L 1.953125 -13.1875 L 1.953125 0 Z M 16.851562 0 "/></g></g></g><g fill="#00ffff" fill-opacity="1"><g transform="translate(127.128232, 31.093383)"><g><path d="M 14.894531 -4.152344 L 17.339844 -6.59375 L 17.339844 -14.652344 L 14.894531 -17.09375 L 0.121094 -17.09375 L 0.121094 -13.1875 L 13.429688 -13.1875 L 13.429688 -8.058594 L 5.859375 -8.058594 L 5.859375 -11.964844 L 1.953125 -11.964844 L 1.953125 0 L 5.859375 0 L 5.859375 -4.152344 L 9.9375 -4.152344 C 11.160156 -2.757812 12.355469 -1.367188 13.601562 0 L 18.558594 0 C 17.3125 -1.367188 16.117188 -2.757812 14.894531 -4.152344 Z M 14.894531 -4.152344 "/></g></g></g><g fill="#000000" fill-opacity="1"><g transform="translate(35.684003, 30.749998)"><g><path d="M 15.019531 0 L 17.460938 -2.441406 L 17.460938 -8.058594 L 15.019531 -10.5 L 5.128906 -10.5 L 5.128906 -13.1875 L 17.460938 -13.1875 L 17.460938 -17.09375 L 3.664062 -17.09375 L 1.222656 -14.652344 L 1.222656 -9.035156 L 3.664062 -6.59375 L 13.554688 -6.59375 L 13.554688 -3.90625 L 1.222656 -3.90625 L 1.222656 0 Z M 15.019531 0 "/></g></g></g><g fill="#000000" fill-opacity="1"><g transform="translate(56.409305, 30.749998)"><g><path d="M 17.339844 0 L 17.339844 -17.09375 L 13.429688 -17.09375 L 13.429688 -6.59375 L 5.859375 -17.09375 L 0.121094 -17.09375 L 0.121094 -13.1875 L 1.953125 -13.1875 L 1.953125 0 L 5.859375 0 L 5.859375 -10.476562 L 13.429688 0 Z M 17.339844 0 "/></g></g></g><g fill="#000000" fill-opacity="1"><g transform="translate(77.012556, 30.749998)"><g><path d="M 5.128906 0 L 5.128906 -17.09375 L 1.222656 -17.09375 L 1.222656 0 Z M 5.128906 0 "/></g></g></g><g fill="#000000" fill-opacity="1"><g transform="translate(85.410777, 30.749998)"><g><path d="M 14.894531 -4.152344 L 17.339844 -6.59375 L 17.339844 -14.652344 L 14.894531 -17.09375 L 0.121094 -17.09375 L 0.121094 -13.1875 L 13.429688 -13.1875 L 13.429688 -8.058594 L 5.859375 -8.058594 L 5.859375 -11.964844 L 1.953125 -11.964844 L 1.953125 0 L 5.859375 0 L 5.859375 -4.152344 Z M 14.894531 -4.152344 "/></g></g></g><g fill="#000000" fill-opacity="1"><g transform="translate(105.525821, 30.749998)"><g><path d="M 16.851562 0 L 16.851562 -3.90625 L 5.859375 -3.90625 L 5.859375 -6.59375 L 14.40625 -6.59375 L 14.40625 -10.5 L 5.859375 -10.5 L 5.859375 -13.1875 L 16.851562 -13.1875 L 16.851562 -17.09375 L 0.121094 -17.09375 L 0.121094 -13.1875 L 1.953125 -13.1875 L 1.953125 0 Z M 16.851562 0 "/></g></g></g><g fill="#000000" fill-opacity="1"><g transform="translate(125.640866, 30.749998)"><g><path d="M 14.894531 -4.152344 L 17.339844 -6.59375 L 17.339844 -14.652344 L 14.894531 -17.09375 L 0.121094 -17.09375 L 0.121094 -13.1875 L 13.429688 -13.1875 L 13.429688 -8.058594 L 5.859375 -8.058594 L 5.859375 -11.964844 L 1.953125 -11.964844 L 1.953125 0 L 5.859375 0 L 5.859375 -4.152344 L 9.9375 -4.152344 C 11.160156 -2.757812 12.355469 -1.367188 13.601562 0 L 18.558594 0 C 17.3125 -1.367188 16.117188 -2.757812 14.894531 -4.152344 Z M 14.894531 -4.152344 "/></g></g></g></svg>