<svg xmlns:xlink="http://www.w3.org/1999/xlink" xmlns="http://www.w3.org/2000/svg" width="1152" height="254" viewBox="0 0 1152 254" fill="none">
<path d="M320.125 166.745H351.885C351.885 176.09 360.044 184.851 374.322 184.851C387.726 184.851 396.463 178.718 396.463 169.957C396.463 162.364 390.636 158.86 380.437 156.529L362.371 151.855C331.775 143.68 323.908 127.326 323.908 110.097C323.908 88.7796 344.887 70.0898 374.61 70.0898C398.793 70.0898 426.185 82.063 425.894 112.725H393.553C393.553 103.088 385.104 97.2499 375.488 97.2499C364.998 97.2499 357.713 103.09 357.713 111.559C357.713 118.568 364.413 122.656 372.283 124.408L394.136 130.248C424.732 138.134 430.269 157.407 430.269 169.959C430.269 197.703 402.587 212.302 374.905 212.302C347.806 212.298 320.707 195.948 320.125 166.745Z" fill="white"/>
<path d="M456.19 140.76C456.19 97.5382 489.698 70.0898 528.454 70.0898C567.209 70.0898 601.01 97.5382 601.01 140.76C601.01 183.981 567.209 212.303 528.454 212.303C489.698 212.303 456.19 183.978 456.19 140.76ZM566.917 140.76C566.917 117.396 549.433 101.629 528.454 101.629C507.474 101.629 490.282 117.396 490.282 140.76C490.282 164.704 507.473 180.764 528.454 180.764C549.434 180.764 566.917 164.704 566.917 140.76Z" fill="white"/>
<path d="M635.694 0H669.495V209.381H635.694V0Z" fill="white"/>
<path d="M703.281 166.745H735.043C735.043 176.09 743.201 184.851 757.48 184.851C770.879 184.851 779.621 178.718 779.621 169.957C779.621 162.364 773.794 158.86 763.595 156.529L745.529 151.855C714.934 143.68 707.066 127.326 707.066 110.097C707.066 88.7796 728.046 70.0898 757.767 70.0898C781.951 70.0898 809.343 82.063 809.051 112.725H776.707C776.707 103.088 768.257 97.2499 758.641 97.2499C748.152 97.2499 740.867 103.09 740.867 111.559C740.867 118.568 747.567 122.656 755.435 124.408L777.291 130.248C807.886 138.134 813.422 157.407 813.422 169.959C813.422 197.703 785.74 212.302 758.058 212.302C730.963 212.298 703.864 195.948 703.281 166.745Z" fill="white"/>
<path d="M979.51 153.015H874.319C878.107 171.998 892.676 181.632 912.782 181.632C927.643 181.632 941.63 175.793 949.792 164.696L972.229 181.926C959.7 201.784 935.806 212.295 911.035 212.295C870.241 212.295 839.355 183.678 839.355 141.042C839.355 97.5302 871.989 70.0818 910.744 70.0818C949.79 70.0818 980.386 97.2395 980.386 139.876C980.347 144.269 980.054 148.656 979.51 153.015V153.015ZM946.584 129.362C944.541 110.673 930.267 99.8686 911.327 99.8686C892.97 99.8686 878.402 108.63 874.316 129.362H946.584Z" fill="white"/>
<path d="M1152 73.0088V209.384H1118.2V190.985C1108.87 205.587 1089.64 212.303 1073.03 212.303C1037.19 212.303 1006.01 184.562 1006.01 141.05C1006.01 97.2451 1036.9 70.0898 1072.74 70.0898C1089.93 70.0898 1108.87 76.8039 1118.2 91.1148V73.0088H1152ZM1117.61 140.76C1117.61 116.813 1097.8 101.629 1078.28 101.629C1057.3 101.629 1040.11 117.98 1040.11 140.76C1040.11 163.539 1057.3 180.471 1078.28 180.471C1098.97 180.474 1117.62 164.704 1117.62 140.76H1117.61Z" fill="white"/>
<path d="M117.5 242C174.661 242 221 195.438 221 138C221 80.5624 174.661 34 117.5 34C60.3385 34 14 80.5624 14 138C14 195.438 60.3385 242 117.5 242Z" fill="url(#paint0_radial_2835_1937)"/>
<path d="M140.286 141.848C128.677 141.848 117.7 146.378 108.607 152.217C113.733 149.118 119.742 147.333 126.169 147.333C144.938 147.333 160.153 162.549 160.153 181.317C160.153 200.086 141.126 215.301 121.361 215.301C91.5048 215.301 62.1315 197.064 45.4417 169.754C49.2566 207.54 66.4155 237.832 99.9587 252.181C107.435 254.22 112.193 253.992 116.495 253.992C146.177 253.992 173.253 242.843 193.768 224.505C196.827 217.416 199.87 209.418 199.87 201.206C199.87 168.952 172.539 141.848 140.286 141.848Z" fill="url(#paint1_radial_2835_1937)"/>
<path d="M232.494 137.991C232.494 120.226 227.283 98.8026 219.354 84.303C200.701 64.8779 176.366 56.21 147.309 56.21C138.578 56.21 130.214 57.9213 122.122 59.9752C139.546 61.3728 155.829 69.0719 168.379 79.7718C203.078 88.0428 227.963 118.663 227.963 155.895C227.963 164.434 227.099 172.46 224.589 180.161C229.692 167.091 232.494 152.868 232.494 137.991Z" fill="url(#paint2_radial_2835_1937)"/>
<path d="M147.309 107.185C135.396 107.185 125.804 110.799 115.779 115.703C122.814 112.596 130.594 110.867 138.778 110.867C162.019 110.867 181.939 125.069 190.808 145.02C202.003 155.249 207.347 169.667 207.347 186.027C207.347 200.925 203.27 214.473 193.775 224.498C207.249 212.452 217.892 197.306 224.581 180.179C228.19 141.622 189.957 107.185 149.348 107.185H147.309Z" fill="url(#paint3_radial_2835_1937)"/>
<path d="M140.123 142.985C172.377 142.985 198.523 169.132 198.523 201.385C198.523 209.598 196.825 217.412 193.766 224.502C203.264 214.476 209.092 200.937 209.092 186.036C209.092 155.142 184.047 130.097 153.152 130.097C134.964 130.097 118.806 138.779 108.589 152.223C117.685 146.377 128.508 142.985 140.123 142.985Z" fill="url(#paint4_linear_2835_1937)"/>
<path d="M148.984 108.044C189.594 108.044 222.73 140.031 224.581 180.183C227.095 172.478 228.459 164.253 228.459 155.708C228.459 112.158 193.155 76.8542 149.605 76.8542C106.055 76.8542 70.7506 112.158 70.7506 155.708C70.7506 163.027 71.752 170.112 73.618 176.837C77.0989 138.268 109.509 108.044 148.984 108.044H148.984Z" fill="url(#paint5_linear_2835_1937)"/>
<path d="M44.9147 159.333C44.9147 102.724 90.8059 56.8328 147.415 56.8328C176.473 56.8328 202.704 68.9246 221.357 88.3499C202.754 49.1253 162.793 22 116.495 22C52.4332 22 0.500488 73.9328 0.500488 137.995C0.500488 198.908 47.4527 248.852 107.14 253.616C70.5524 237.967 44.915 201.645 44.915 159.333H44.9147Z" fill="url(#paint6_linear_2835_1937)"/>
<defs>
<radialGradient id="paint0_radial_2835_1937" cx="0" cy="0" r="1" gradientUnits="userSpaceOnUse" gradientTransform="translate(-10.4213 -11.573) rotate(51.9164) scale(365.952 365.534)">
<stop offset="0.458333" stop-color="#4A2207"/>
<stop offset="1" stop-color="#DA6929"/>
</radialGradient>
<radialGradient id="paint1_radial_2835_1937" cx="0" cy="0" r="1" gradientUnits="userSpaceOnUse" gradientTransform="translate(94.9717 170.218) rotate(36.8699) scale(134.683 99.0059)">
<stop offset="0.223958" stop-color="#4A2207"/>
<stop offset="0.463542" stop-color="#DA6929"/>
<stop offset="0.770833" stop-color="#F6B657"/>
<stop offset="1" stop-color="#FDEE9C"/>
</radialGradient>
<radialGradient id="paint2_radial_2835_1937" cx="0" cy="0" r="1" gradientUnits="userSpaceOnUse" gradientTransform="translate(101.549 53.1854) rotate(52.8773) scale(163.58 146.39)">
<stop stop-color="#4A2207"/>
<stop offset="0.338542" stop-color="#DA6929"/>
<stop offset="0.697917" stop-color="#F6B657"/>
<stop offset="1" stop-color="#FDEE9C"/>
</radialGradient>
<radialGradient id="paint3_radial_2835_1937" cx="0" cy="0" r="1" gradientUnits="userSpaceOnUse" gradientTransform="translate(132.736 130.133) rotate(44.109) scale(117.213 109.509)">
<stop stop-color="#4A2207"/>
<stop offset="0.322917" stop-color="#DA6929"/>
<stop offset="0.734375" stop-color="#F6B657"/>
<stop offset="1" stop-color="#FDEE9C"/>
</radialGradient>
<linearGradient id="paint4_linear_2835_1937" x1="87.4952" y1="134.366" x2="214.365" y2="217.737" gradientUnits="userSpaceOnUse">
<stop stop-color="#5ED9F8"/>
<stop offset="0.598958" stop-color="#E7F4C0"/>
<stop offset="1" stop-color="#F6B657"/>
</linearGradient>
<linearGradient id="paint5_linear_2835_1937" x1="47.6245" y1="123.496" x2="239.741" y2="163.369" gradientUnits="userSpaceOnUse">
<stop stop-color="#5ED9F8"/>
<stop offset="0.572917" stop-color="#E7F4C0"/>
<stop offset="1" stop-color="#F6B657"/>
</linearGradient>
<linearGradient id="paint6_linear_2835_1937" x1="26.9216" y1="193.801" x2="225.531" y2="62.7271" gradientUnits="userSpaceOnUse">
<stop stop-color="#5ED9F8"/>
<stop offset="0.46875" stop-color="#E7F4C0"/>
<stop offset="1" stop-color="#F6B657"/>
</linearGradient>
</defs>
</svg>