<svg width="233" height="232" viewBox="0 0 233 232" fill="none" xmlns="http://www.w3.org/2000/svg">
<path d="M117.5 220C174.661 220 221 173.438 221 116C221 58.5624 174.661 12 117.5 12C60.3385 12 14 58.5624 14 116C14 173.438 60.3385 220 117.5 220Z" fill="url(#paint0_radial_12696_144292)"/>
<path d="M140.286 119.848C128.677 119.848 117.7 124.378 108.607 130.217C113.733 127.118 119.742 125.333 126.169 125.333C144.938 125.333 160.153 140.549 160.153 159.317C160.153 178.086 141.126 193.301 121.361 193.301C91.5045 193.301 62.1312 175.064 45.4414 147.754C49.2563 185.54 66.4152 215.832 99.9584 230.181C107.435 232.22 112.193 231.992 116.495 231.992C146.177 231.992 173.253 220.843 193.768 202.505C196.827 195.416 199.87 187.418 199.87 179.206C199.87 146.952 172.539 119.848 140.286 119.848Z" fill="url(#paint1_radial_12696_144292)"/>
<path d="M232.493 115.992C232.493 98.2269 227.282 76.8035 219.353 62.3039C200.7 42.8788 176.365 34.2109 147.308 34.2109C138.577 34.2109 130.213 35.9222 122.121 37.9761C139.545 39.3737 155.828 47.0728 168.378 57.7727C203.077 66.0437 227.962 96.6639 227.962 133.896C227.962 142.435 227.098 150.461 224.588 158.162C229.691 145.092 232.493 130.869 232.493 115.992Z" fill="url(#paint2_radial_12696_144292)"/>
<path d="M147.309 85.1855C135.396 85.1855 125.804 88.7996 115.779 93.7036C122.814 90.5966 130.594 88.8675 138.778 88.8675C162.019 88.8675 181.939 103.07 190.808 123.021C202.003 133.25 207.347 147.668 207.347 164.028C207.347 178.926 203.27 192.474 193.775 202.499C207.249 190.453 217.892 175.307 224.581 158.18C228.19 119.623 189.957 85.1855 149.348 85.1855H147.309Z" fill="url(#paint3_radial_12696_144292)"/>
<path d="M140.124 120.986C172.378 120.986 198.524 147.133 198.524 179.386C198.524 187.599 196.826 195.413 193.767 202.503C203.265 192.477 209.093 178.938 209.093 164.037C209.093 133.143 184.048 108.098 153.153 108.098C134.965 108.098 118.807 116.78 108.59 130.224C117.686 124.378 128.509 120.986 140.124 120.986Z" fill="url(#paint4_linear_12696_144292)"/>
<path d="M148.983 86.0433C189.593 86.0433 222.729 118.03 224.58 158.182C227.094 150.477 228.458 142.252 228.458 133.707C228.458 90.1573 193.154 54.8535 149.604 54.8535C106.054 54.8535 70.75 90.1573 70.75 133.707C70.75 141.026 71.7514 148.111 73.6174 154.836C77.0983 116.267 109.508 86.0433 148.983 86.0433Z" fill="url(#paint5_linear_12696_144292)"/>
<path d="M44.9142 137.333C44.9142 80.724 90.8054 34.8328 147.415 34.8328C176.473 34.8328 202.704 46.9246 221.357 66.3499C202.754 27.1253 162.793 0 116.495 0C52.4327 0 0.5 51.9328 0.5 115.995C0.5 176.908 47.4522 226.852 107.14 231.616C70.5519 215.967 44.9142 179.645 44.9142 137.333Z" fill="url(#paint6_linear_12696_144292)"/>
<defs>
<radialGradient id="paint0_radial_12696_144292" cx="0" cy="0" r="1" gradientUnits="userSpaceOnUse" gradientTransform="translate(-10.4213 -33.573) rotate(51.9164) scale(365.952 365.534)">
<stop offset="0.458333" stop-color="#4A2207"/>
<stop offset="1" stop-color="#DA6929"/>
</radialGradient>
<radialGradient id="paint1_radial_12696_144292" cx="0" cy="0" r="1" gradientUnits="userSpaceOnUse" gradientTransform="translate(94.9714 148.218) rotate(36.8699) scale(134.683 99.0059)">
<stop offset="0.223958" stop-color="#4A2207"/>
<stop offset="0.463542" stop-color="#DA6929"/>
<stop offset="0.770833" stop-color="#F6B657"/>
<stop offset="1" stop-color="#FDEE9C"/>
</radialGradient>
<radialGradient id="paint2_radial_12696_144292" cx="0" cy="0" r="1" gradientUnits="userSpaceOnUse" gradientTransform="translate(101.548 31.1863) rotate(52.8773) scale(163.58 146.39)">
<stop stop-color="#4A2207"/>
<stop offset="0.338542" stop-color="#DA6929"/>
<stop offset="0.697917" stop-color="#F6B657"/>
<stop offset="1" stop-color="#FDEE9C"/>
</radialGradient>
<radialGradient id="paint3_radial_12696_144292" cx="0" cy="0" r="1" gradientUnits="userSpaceOnUse" gradientTransform="translate(132.736 108.134) rotate(44.109) scale(117.213 109.509)">
<stop stop-color="#4A2207"/>
<stop offset="0.322917" stop-color="#DA6929"/>
<stop offset="0.734375" stop-color="#F6B657"/>
<stop offset="1" stop-color="#FDEE9C"/>
</radialGradient>
<linearGradient id="paint4_linear_12696_144292" x1="87.496" y1="112.367" x2="214.366" y2="195.738" gradientUnits="userSpaceOnUse">
<stop stop-color="#5ED9F8"/>
<stop offset="0.598958" stop-color="#E7F4C0"/>
<stop offset="1" stop-color="#F6B657"/>
</linearGradient>
<linearGradient id="paint5_linear_12696_144292" x1="47.6239" y1="101.495" x2="239.74" y2="141.368" gradientUnits="userSpaceOnUse">
<stop stop-color="#5ED9F8"/>
<stop offset="0.572917" stop-color="#E7F4C0"/>
<stop offset="1" stop-color="#F6B657"/>
</linearGradient>
<linearGradient id="paint6_linear_12696_144292" x1="26.9211" y1="171.801" x2="225.531" y2="40.7271" gradientUnits="userSpaceOnUse">
<stop stop-color="#5ED9F8"/>
<stop offset="0.46875" stop-color="#E7F4C0"/>
<stop offset="1" stop-color="#F6B657"/>
</linearGradient>
</defs>
</svg>
