<svg width="32" height="32" viewBox="0 0 32 32" fill="none" xmlns="http://www.w3.org/2000/svg">
<path d="M0 12C0 5.37258 5.37258 0 12 0H20C26.6274 0 32 5.37258 32 12V20C32 26.6274 26.6274 32 20 32H12C5.37258 32 0 26.6274 0 20V12Z" fill="#111922"/>
<path d="M21.6666 12.8518L16 16M16 16L10.3333 12.8518M16 16L16 22.3333M22 18.7057V13.2943C22 13.0659 22 12.9516 21.9663 12.8498C21.9366 12.7597 21.8879 12.6769 21.8236 12.6071C21.7509 12.5282 21.651 12.4728 21.4514 12.3618L16.518 9.62111C16.329 9.51607 16.2344 9.46355 16.1343 9.44296C16.0457 9.42473 15.9543 9.42473 15.8657 9.44296C15.7656 9.46355 15.6711 9.51607 15.482 9.62111L10.5486 12.3618C10.349 12.4728 10.2491 12.5283 10.1764 12.6071C10.1121 12.6769 10.0634 12.7597 10.0337 12.8498C10 12.9516 10 13.0659 10 13.2943V18.7057C10 18.9341 10 19.0483 10.0337 19.1502C10.0634 19.2403 10.1121 19.323 10.1764 19.3928C10.2491 19.4717 10.349 19.5272 10.5486 19.6381L15.482 22.3789C15.6711 22.4839 15.7656 22.5364 15.8657 22.557C15.9543 22.5752 16.0457 22.5752 16.1343 22.557C16.2344 22.5364 16.329 22.4839 16.518 22.3789L21.4514 19.6381C21.651 19.5272 21.7509 19.4717 21.8236 19.3928C21.8879 19.323 21.9366 19.2403 21.9663 19.1502C22 19.0483 22 18.9341 22 18.7057Z" stroke="#E8F9FF" stroke-opacity="0.5" stroke-width="1.33333" stroke-linecap="round" stroke-linejoin="round"/>
<path d="M19 14.3333L13 11" stroke="#E8F9FF" stroke-opacity="0.5" stroke-width="1.33333" stroke-linecap="round" stroke-linejoin="round"/>
</svg>
