<svg width="33" height="32" viewBox="0 0 33 32" fill="none" xmlns="http://www.w3.org/2000/svg">
<path d="M0.5 12C0.5 5.37258 5.87258 0 12.5 0H20.5C27.1274 0 32.5 5.37258 32.5 12V20C32.5 26.6274 27.1274 32 20.5 32H12.5C5.87258 32 0.5 26.6274 0.5 20V12Z" fill="#111922"/>
<path d="M11 12.8695C11 13.3538 11.1924 13.8183 11.5348 14.1608C11.8773 14.5032 12.3418 14.6956 12.8261 14.6956C13.3104 14.6956 13.7749 14.5032 14.1173 14.1608C14.4598 13.8183 14.6522 13.3538 14.6522 12.8695C14.6522 12.3852 14.4598 11.9208 14.1173 11.5783C13.7749 11.2358 13.3104 11.0435 12.8261 11.0435C12.3418 11.0435 11.8773 11.2358 11.5348 11.5783C11.1924 11.9208 11 12.3852 11 12.8695Z" fill="#E8F9FF" fill-opacity="0.5"/>
<path d="M18.3044 20.1737C18.3044 20.658 18.4968 21.1225 18.8393 21.465C19.1817 21.8074 19.6462 21.9998 20.1305 21.9998C20.6148 21.9998 21.0793 21.8074 21.4218 21.465C21.7642 21.1225 21.9566 20.658 21.9566 20.1737C21.9566 19.6894 21.7642 19.225 21.4218 18.8825C21.0793 18.54 20.6148 18.3477 20.1305 18.3477C19.6462 18.3477 19.1817 18.54 18.8393 18.8825C18.4968 19.225 18.3044 19.6894 18.3044 20.1737Z" fill="#E8F9FF" fill-opacity="0.5"/>
<path d="M22.6087 10H18.4348C18.3577 9.99949 18.2822 10.0221 18.218 10.0648C18.1538 10.1076 18.104 10.1686 18.0748 10.24C18.044 10.3114 18.0355 10.3905 18.0504 10.4668C18.0653 10.5432 18.1029 10.6132 18.1583 10.6678L19.6087 12.1078C19.6213 12.12 19.6313 12.1346 19.6382 12.1507C19.6451 12.1669 19.6486 12.1842 19.6486 12.2017C19.6486 12.2193 19.6451 12.2366 19.6382 12.2528C19.6313 12.2689 19.6213 12.2835 19.6087 12.2957L11.7148 20.1739C11.5695 20.3213 11.488 20.52 11.488 20.727C11.488 20.9339 11.5695 21.1326 11.7148 21.28C11.8624 21.4254 12.0607 21.5077 12.2678 21.5096C12.3711 21.5111 12.4737 21.4921 12.5695 21.4536C12.6654 21.4151 12.7526 21.3578 12.8261 21.2852L20.7043 13.3913C20.7165 13.3787 20.7311 13.3686 20.7472 13.3618C20.7634 13.3549 20.7807 13.3514 20.7982 13.3514C20.8158 13.3514 20.8331 13.3549 20.8493 13.3618C20.8654 13.3686 20.88 13.3787 20.8922 13.3913L22.3322 14.8313C22.3868 14.8867 22.4568 14.9243 22.5332 14.9392C22.6095 14.9541 22.6886 14.9456 22.76 14.9148C22.8314 14.8856 22.8924 14.8357 22.9351 14.7716C22.9779 14.7074 23.0005 14.6319 23 14.5548V10.3809C22.996 10.2793 22.9532 10.1832 22.8803 10.1124C22.8075 10.0415 22.7103 10.0013 22.6087 10Z" fill="#E8F9FF" fill-opacity="0.5"/>
</svg>
