<svg width="32" height="32" viewBox="0 0 32 32" fill="none" xmlns="http://www.w3.org/2000/svg">
<path d="M0 12C0 5.37258 5.37258 0 12 0H20C26.6274 0 32 5.37258 32 12V20C32 26.6274 26.6274 32 20 32H12C5.37258 32 0 26.6274 0 20V12Z" fill="#111922"/>
<path d="M13.2 18.1333C13.2 19.1643 14.0357 20 15.0667 20H16.8C17.9046 20 18.8 19.1046 18.8 18C18.8 16.8954 17.9046 16 16.8 16H15.2C14.0954 16 13.2 15.1046 13.2 14C13.2 12.8954 14.0954 12 15.2 12H16.9333C17.9643 12 18.8 12.8357 18.8 13.8667M16 10.8V12M16 20V21.2M24 16C24 20.4183 20.4183 24 16 24C11.5817 24 8 20.4183 8 16C8 11.5817 11.5817 8 16 8C20.4183 8 24 11.5817 24 16Z" stroke="#E8F9FF" stroke-opacity="0.5" stroke-width="1.6" stroke-linecap="round" stroke-linejoin="round"/>
</svg>
