<svg width="33" height="32" viewBox="0 0 33 32" fill="none" xmlns="http://www.w3.org/2000/svg">
<path d="M0.5 12C0.5 5.37258 5.87258 0 12.5 0H20.5C27.1274 0 32.5 5.37258 32.5 12V20C32.5 26.6274 27.1274 32 20.5 32H12.5C5.87258 32 0.5 26.6274 0.5 20V12Z" fill="#111922"/>
<path fill-rule="evenodd" clip-rule="evenodd" d="M12.7928 16.3971L14.5802 18.1851H10.1001V13.7051L11.8881 15.4925L17.7799 9.6001L18.6852 10.5055L12.7928 16.3971ZM22.9001 13.0649V17.545L21.1121 15.7576L15.2203 21.6499L14.315 20.7446L20.2073 14.8528L18.42 13.0648L22.9001 13.0649Z" fill="#E8F9FF" fill-opacity="0.5"/>
</svg>
