<svg width="147" height="28" viewBox="0 0 147 28" fill="none" xmlns="http://www.w3.org/2000/svg">
<path fill-rule="evenodd" clip-rule="evenodd" d="M18.0404 2.53819L17.9181 2.8743L17.5154 3.94966L17.2481 4.64312C15.2186 9.84063 13.6396 12.3074 11.9614 12.3074C10.9942 12.3074 10.4218 12.0188 9.68074 11.3415L9.46684 11.1405C8.93365 10.6314 8.70912 10.5063 8.19621 10.5063C7.92886 10.5063 7.45052 10.8606 6.84524 11.6876C6.21754 12.5452 5.52919 13.8122 4.78942 15.4809L4.72053 15.6371L11.9207 15.6374L11.0242 17.5614H4.30057V25.4619H2.32422V2.53819H18.0404ZM15.2389 4.46282L4.30045 4.46212V12.102C5.61104 9.75056 6.8564 8.57003 8.19621 8.57003C9.23789 8.57003 9.85165 8.87341 10.626 9.57947L10.847 9.7869C11.3448 10.2621 11.5366 10.3712 11.9614 10.3712C12.4312 10.3712 13.6752 8.32894 15.2389 4.46282ZM26.3181 2.53883L27.8944 2.53819C31.0728 2.53819 35.3515 4.05279 35.3515 10.1521C35.3515 13.7738 33.5412 16.0798 31.2687 17.108L31.0728 17.193L35.3515 25.4619H32.988L28.9946 17.7252C28.8418 17.7559 28.6661 17.7636 28.5018 17.7654L23.8195 17.7661V25.4619H21.7413V2.57914L23.1077 2.55802C24.2082 2.54449 25.2317 2.54017 26.3181 2.53883ZM27.7722 4.50307H23.8195V15.8421H28.0166C30.7061 15.8421 33.3141 14 33.3141 10.0703C33.3141 6.10389 31.0111 4.56869 27.9714 4.50511L27.7722 4.50307ZM129.653 2.5404L131.968 2.53819C135.147 2.53819 139.425 4.05279 139.425 10.1521C139.425 13.7738 137.615 16.0798 135.342 17.108L135.147 17.193L139.425 25.4619H137.062L133.069 17.7252C132.916 17.7559 132.74 17.7636 132.575 17.7654L127.893 17.7661V25.4619H125.815V2.57914L126.986 2.56094C127.924 2.54863 128.781 2.54297 129.653 2.5404ZM131.846 4.50307H127.893V15.8421H132.09C134.78 15.8421 137.388 14 137.388 10.0703C137.388 6.10389 135.085 4.56869 132.045 4.50511L131.846 4.50307ZM48.9212 2.3335C53.4949 2.3335 58.0692 5.90521 58.2086 13.283L58.2121 13.6316V14.3685C58.2121 21.9824 53.5663 25.6666 48.9212 25.6666C44.307 25.6666 39.7719 22.0949 39.6335 14.7171L39.6302 14.3685V13.6316C39.6302 6.01768 44.2349 2.3335 48.9212 2.3335ZM48.9212 4.25743C45.435 4.25743 41.7913 6.90947 41.6708 13.3033L41.6677 13.6316V14.3685C41.6677 20.959 45.3759 23.7017 48.8805 23.7017C52.4056 23.7017 56.0487 21.0512 56.1713 14.7003L56.1742 14.3685V13.6316C56.1742 7.00012 52.466 4.25743 48.9212 4.25743ZM92.1969 25.4621V4.50301H97.168L98.0644 2.53795H84.2921V4.50301H90.1595V25.4621H92.1969ZM104.178 2.41545V25.4622H102.14V2.41545H104.178ZM120.843 25.4621L121.74 23.5376H110.778V15.5558H118.073L118.969 13.6313H110.778V4.46247H120.843L121.74 2.53795H108.782V25.4621H120.843ZM80.3202 2.61909V25.4913H79.9211L66.4178 9.67438C65.7858 8.90591 64.8545 7.73913 64.8545 7.73913V10.1555V25.4913L62.7928 25.478V2.5243H63.1919L76.6952 18.4746C77.3272 19.2431 78.2004 20.2036 78.2004 20.2036V18.0069V2.61909H80.3202Z" fill="#12100C"/>
</svg>
