<svg xmlns:xlink="http://www.w3.org/1999/xlink" xmlns="http://www.w3.org/2000/svg" viewBox="0 0 81 38" width="81"  height="38" ><g fill="#FFFFFF"><path d="M.78 30.975h4.401c.631 1.782 2.581 2.971 5.069 2.971 3.436 0 5.46-1.95 5.46-4.884v-3.51h-.074c-1.207 2.321-3.714 3.844-6.76 3.844C3.51 29.396 0 25.218 0 18.551 0 11.829 3.491 7.595 8.988 7.595c3.027 0 5.496 1.523 6.796 3.993h.075v-3.64h4.271v20.984c0 5.107-3.937 8.43-10.028 8.43-5.051 0-8.784-2.692-9.322-6.387zM15.747 18.57c0-4.383-2.247-7.279-5.682-7.279-3.38 0-5.571 2.822-5.571 7.279 0 4.475 2.191 7.186 5.571 7.186 3.417 0 5.682-2.785 5.682-7.186zM22.749 0h4.382v29.303h-4.382V0zM47.833 26.405a10.846 10.846 0 0 1-7.63 3.124 10.838 10.838 0 0 1-7.616-3.111c4.455-3.509 10.786-3.513 15.246-.013zm.125-.125a10.846 10.846 0 0 0 3.124-7.63c0-2.965-1.186-5.652-3.109-7.615-3.511 4.468-3.515 10.786-.015 15.245zm-.109-15.369c-4.466 3.518-10.817 3.513-15.279-.013a10.844 10.844 0 0 1 7.633-3.127c2.98 0 5.681 1.199 7.646 3.14zm-15.398.106a10.844 10.844 0 0 0-3.127 7.633c0 2.981 1.199 5.681 3.14 7.646 3.518-4.466 3.513-10.817-.013-15.279zM74.971 29.303h-4.568l-4.494-16.007h-.093L61.36 29.303h-4.531L50.96 7.948h4.383l3.9 16.824h.074l4.457-16.824h4.233l4.476 16.824h.093l3.899-16.824h4.346l-5.85 21.355z" fill="#FFFFFF"></path></g></svg>