<?xml version="1.0" encoding="UTF-8"?> <svg xmlns="http://www.w3.org/2000/svg" width="83" height="32" viewBox="0 0 83 32" fill="none"> <rect y="3.29712" width="41" height="22.7029" fill="#DDFA2B"></rect> <path d="M53.5832 22.64L52.1091 18.7325H46.0957L44.6216 22.64H41.4395L47.4762 6.51855H50.7052L56.742 22.64H53.5832ZM49.0907 9.95811L47.1019 16.1119H51.1264L49.0907 9.95811Z" fill="#2B2B2B"></path> <path d="M60.671 11.713V13.1871C60.9518 12.6567 61.4042 12.2434 62.0281 11.947C62.6677 11.635 63.354 11.479 64.0872 11.479C65.5535 11.479 66.8092 12.0094 67.8543 13.0701C68.8994 14.1308 69.422 15.4957 69.422 17.1648C69.422 18.8651 68.8994 20.2456 67.8543 21.3063C66.8248 22.3515 65.5691 22.874 64.0872 22.874C63.354 22.874 62.6677 22.7258 62.0281 22.4294C61.4042 22.1331 60.9518 21.7197 60.671 21.1893V27.9515H57.8164V11.713H60.671ZM60.7178 17.2116C60.7178 18.1163 60.9986 18.8339 61.5601 19.3643C62.1373 19.8946 62.8237 20.1598 63.6192 20.1598C64.4303 20.1598 65.1089 19.8868 65.6549 19.3409C66.2164 18.7949 66.4972 18.0851 66.4972 17.2116C66.4972 16.3381 66.2164 15.6205 65.6549 15.059C65.0933 14.4974 64.4147 14.2166 63.6192 14.2166C62.8081 14.2166 62.1217 14.4974 61.5601 15.059C60.9986 15.6049 60.7178 16.3225 60.7178 17.2116Z" fill="#2B2B2B"></path> <path d="M73.7843 11.713V13.1871C74.0651 12.6567 74.5174 12.2434 75.1414 11.947C75.781 11.635 76.4673 11.479 77.2005 11.479C78.6668 11.479 79.9225 12.0094 80.9676 13.0701C82.0127 14.1308 82.5353 15.4957 82.5353 17.1648C82.5353 18.8651 82.0127 20.2456 80.9676 21.3063C79.9381 22.3515 78.6823 22.874 77.2005 22.874C76.4673 22.874 75.781 22.7258 75.1414 22.4294C74.5174 22.1331 74.0651 21.7197 73.7843 21.1893V27.9515H70.9297V11.713H73.7843ZM73.8311 17.2116C73.8311 18.1163 74.1119 18.8339 74.6734 19.3643C75.2506 19.8946 75.9369 20.1598 76.7325 20.1598C77.5436 20.1598 78.2222 19.8868 78.7681 19.3409C79.3297 18.7949 79.6105 18.0851 79.6105 17.2116C79.6105 16.3381 79.3297 15.6205 78.7681 15.059C78.2066 14.4974 77.528 14.2166 76.7325 14.2166C75.9213 14.2166 75.235 14.4974 74.6734 15.059C74.1119 15.6049 73.8311 16.3225 73.8311 17.2116Z" fill="#2B2B2B"></path> <path fill-rule="evenodd" clip-rule="evenodd" d="M13.0585 22.6391L7.71755 15.3916H6.24778V22.6391H3.41605V6.18359H6.24778V13.0649H7.71935L12.9845 6.18359H16.3295L10.1897 14.1255L16.485 22.6391H13.0585Z" fill="#2B2B2B"></path> <path d="M26.952 16.9808C26.952 17.2927 26.9364 17.6203 26.9052 17.9635H18.5753C18.6689 18.681 18.9887 19.2504 19.5347 19.6716C20.0962 20.0928 20.7826 20.3033 21.5937 20.3033C22.1709 20.3033 22.7091 20.1863 23.2082 19.9524C23.7074 19.7028 24.0818 19.3518 24.3313 18.8994C24.6745 19.0866 25.3999 19.4766 26.5074 20.0694C26.0394 20.9585 25.3453 21.6214 24.4249 22.0582C23.5046 22.495 22.4985 22.7134 21.4065 22.7134C19.8155 22.7134 18.474 22.183 17.382 21.1223C16.2901 20.046 15.7441 18.6654 15.7441 16.9808C15.7441 15.2961 16.2901 13.9312 17.382 12.8861C18.474 11.8409 19.8155 11.3184 21.4065 11.3184C22.9976 11.3184 24.3157 11.8409 25.3609 12.8861C26.4216 13.9312 26.952 15.2961 26.952 16.9808ZM18.5519 16.0214H24.1676C24.0584 15.2883 23.7542 14.7189 23.255 14.3134C22.7559 13.9078 22.1475 13.705 21.4299 13.705C20.6656 13.705 20.0182 13.9156 19.4879 14.3367C18.9731 14.7423 18.6611 15.3039 18.5519 16.0214Z" fill="#2B2B2B"></path> <path d="M38.5276 11.5525L31.7655 27.8144H28.7471L31.2507 21.6372L26.9922 11.5525H30.034L32.7482 18.3614L35.4858 11.5525H38.5276Z" fill="#2B2B2B"></path> </svg> 