<svg width="200" height="50" fill="none" xmlns="http://www.w3.org/2000/svg"><path d="M20.814 49.298s3.074 0 5.136-2.17c2.399-2.355 1.319-5.095 4.718-7.943 3.252-2.697 7.35-.779 7.35-.779 2.829-5.848 1.289-12.651 1.289-12.651 4.816-13.038.81-22.367-.24-25.07-3.448 4.97-7.767 8.412-12.872 10.716-1.773-.5-3.59-.766-5.381-.747-1.785-.019-3.608.247-5.381.747C10.334 9.09 6.009 5.654 2.56.686c-1.049 2.702-5.055 12.031-.239 25.069 0 0-1.54 6.803 1.289 12.651 0 0 4.098-1.917 7.35.779 3.405 2.848 2.32 5.588 4.718 7.942 2.062 2.171 5.136 2.171 5.136 2.171Z" fill="#F7F7F7"/><path d="M17.004 34.818c-.13-4.33-4.265-5.722-7.087-3.899 0 0 .442 1.86 2.503 2.797 1.681.766 2.405-.26 4.584 1.102ZM3.21 4.768c-1.662 6.02-.944 13.633 1.682 19.177 2.687-1.962 5.51-4.994 7.013-8.202-3.54-2.703-6.51-5.272-8.694-10.975Zm21.414 30.05c.13-4.33 4.265-5.722 7.087-3.899 0 0-.442 1.86-2.503 2.797-1.682.766-2.406-.26-4.584 1.102Zm13.793-30.05c1.663 6.02.945 13.633-1.681 19.177-2.687-1.962-5.51-4.994-7.013-8.202 3.54-2.703 6.51-5.272 8.694-10.975ZM20.814 49.065c1.477 0 2.675-1.089 2.675-2.43 0-1.343-1.198-2.431-2.675-2.431-1.477 0-2.675 1.088-2.675 2.43s1.198 2.43 2.675 2.43Z" fill="#202137"/><path d="M56.628 10.067h6.16l12.156 19.096V10.067h6.328v29.53h-6.12L62.955 20.502v19.095h-6.327v-29.53Zm32.44 6.126c-.971 0-1.79-.324-2.456-.972-.666-.648-.999-1.464-.999-2.45 0-.958.333-1.76 1-2.408.665-.676 1.484-1.014 2.455-1.014.972 0 1.79.338 2.456 1.014.666.648 1 1.45 1 2.408 0 .986-.334 1.802-1 2.45-.666.648-1.484.972-2.456.972Zm-3.163 3.126h6.327v20.278h-6.328V19.32Zm21.668 29.995a22 22 0 0 1-4.038-.38c-1.332-.254-2.456-.592-3.372-1.014v-4.69c2.137.958 4.607 1.437 7.41 1.437 2.248 0 3.858-.465 4.829-1.394.971-.93 1.457-2.324 1.457-4.183v-1.267c-.86.789-1.915 1.38-3.164 1.774a12.391 12.391 0 0 1-3.996.634c-2.054 0-3.899-.45-5.537-1.352a10.01 10.01 0 0 1-3.788-3.844c-.915-1.634-1.373-3.493-1.373-5.577 0-2.14.444-4.027 1.332-5.66.916-1.634 2.164-2.888 3.746-3.76 1.61-.902 3.441-1.353 5.495-1.353 1.554 0 2.928.226 4.121.676 1.194.451 2.318 1.17 3.372 2.155v-2.197h6.078v18.969c0 3.52-1.027 6.238-3.081 8.153-2.053 1.915-5.217 2.873-9.491 2.873Zm.625-14.026c1.304 0 2.469-.352 3.496-1.056 1.055-.732 1.776-1.69 2.165-2.873v-3.802a5.833 5.833 0 0 0-2.206-2.83c-.999-.704-2.151-1.056-3.455-1.056-1.693 0-3.081.52-4.163 1.563-1.055 1.042-1.582 2.436-1.582 4.182 0 1.774.527 3.197 1.582 4.267 1.082 1.07 2.47 1.605 4.163 1.605Zm16.319-26.911h6.286v13.266c.944-.986 2.012-1.718 3.206-2.197a9.686 9.686 0 0 1 3.829-.76c2.72 0 4.746.746 6.078 2.238 1.36 1.465 2.04 3.45 2.04 5.957v12.716h-6.286V27.6c0-2.619-1.193-3.928-3.58-3.928a5.76 5.76 0 0 0-2.956.802c-.915.507-1.693 1.268-2.331 2.282v12.842h-6.286V8.377Zm33.979 31.854c-2.332 0-4.108-.648-5.329-1.943-1.193-1.324-1.79-3.155-1.79-5.492v-8.872h-2.914v-4.605h2.914v-6.083h6.286v6.083h4.704v4.605h-4.704v8.027c0 1.183.222 2.042.666 2.577.444.507 1.235.76 2.373.76a5.43 5.43 0 0 0 2.622-.676v4.774c-1.276.563-2.886.845-4.828.845Zm7.731-31.854h6.285v31.22h-6.285V8.377Zm16.145 39.585c-.832 0-1.692-.056-2.581-.169-.86-.112-1.512-.267-1.956-.465v-4.773c.805.31 1.693.464 2.664.464.999 0 1.749-.225 2.248-.676.527-.45.958-1.154 1.291-2.112l.666-1.732-8.659-19.18h6.327l5.662 13.984 5.37-13.984h6.286l-8.492 21.673c-.944 2.394-2.11 4.154-3.497 5.28-1.388 1.127-3.164 1.69-5.329 1.69Z" fill="#000"/></svg>