<svg width="200" height="200" viewBox="0 0 200 200" fill="none" xmlns="http://www.w3.org/2000/svg">
<g clip-path="url(#clip0_2901_141950)">
<mask id="mask0_2901_141950" style="mask-type:luminance" maskUnits="userSpaceOnUse" x="0" y="0" width="200" height="200">
<path d="M200 0H0V200H200V0Z" fill="white"/>
</mask>
<g mask="url(#mask0_2901_141950)">
<path d="M50.8599 10.8597C36.38 25.3394 36.38 48.8156 50.8599 63.295L81.2474 93.6825L91.7344 83.1955L61.3469 52.808C52.6589 44.1203 52.6589 30.0346 61.3469 21.3468C70.0344 12.659 84.1204 12.659 92.8079 21.3468L155.73 84.2695C164.418 92.957 164.418 107.043 155.73 115.73C147.043 124.418 132.957 124.418 124.269 115.73L114.711 106.173L104.224 116.66L113.782 126.218C128.262 140.698 151.738 140.698 166.218 126.218C180.697 111.738 180.697 88.262 166.218 73.7825L103.295 10.8597C88.8154 -3.61992 65.3394 -3.61992 50.8599 10.8597Z" fill="#007CBF"/>
<path d="M87.5645 100L50.8596 136.705C36.3802 151.184 36.3802 174.66 50.8596 189.14C65.3395 203.62 88.8156 203.62 103.295 189.14L145.268 147.167C138.846 147.881 132.306 147.285 126.08 145.381L92.8081 178.653C84.1206 187.341 70.0345 187.341 61.347 178.653C52.659 169.965 52.659 155.88 61.347 147.192L124.27 84.2695C127.354 81.185 131.119 79.1955 135.081 78.3015L123.543 66.7635C120.02 68.5085 116.717 70.848 113.783 73.7825L98.0516 89.513L98.0266 89.488L87.5396 99.975L87.5645 100Z" fill="#007CBF"/>
</g>
</g>
<defs>
<clipPath id="clip0_2901_141950">
<rect width="200" height="200" fill="white"/>
</clipPath>
</defs>
</svg>
