<svg width="2640" height="800" viewBox="0 0 2640 800" fill="none" xmlns="http://www.w3.org/2000/svg">
<path d="M997.138 194.082V249.254H887.269V606.384H819.565V249.254H709.102V194.082H997.138Z" fill="#007CBF"/>
<path d="M1088.27 236.202C1076 236.202 1065.7 232.05 1057.39 223.744C1049.08 215.439 1044.92 205.156 1044.92 192.896C1044.92 180.636 1049.08 170.353 1057.39 162.047C1065.7 153.742 1076 149.589 1088.27 149.589C1100.15 149.589 1110.25 153.742 1118.56 162.047C1126.87 170.353 1131.03 180.636 1131.03 192.896C1131.03 205.156 1126.87 215.439 1118.56 223.744C1110.25 232.05 1100.15 236.202 1088.27 236.202ZM1121.53 279.509V606.384H1053.83V279.509H1121.53Z" fill="#007CBF"/>
<path d="M1266.24 327.561C1277.73 312.533 1293.36 299.877 1313.16 289.594C1332.96 279.311 1355.33 274.17 1380.27 274.17C1408.78 274.17 1434.71 281.289 1458.07 295.526C1481.82 309.369 1500.43 328.946 1513.89 354.257C1527.36 379.569 1534.09 408.637 1534.09 441.463C1534.09 474.289 1527.36 503.753 1513.89 529.856C1500.43 555.563 1481.82 575.733 1458.07 590.366C1434.71 604.604 1408.78 611.723 1380.27 611.723C1355.33 611.723 1333.15 606.779 1313.75 596.892C1294.35 586.609 1278.52 573.953 1266.24 558.925V761.813H1198.54V279.509H1266.24V327.561ZM1465.2 441.463C1465.2 418.92 1460.44 399.541 1450.94 383.326C1441.84 366.715 1429.56 354.257 1414.12 345.952C1399.08 337.251 1382.84 332.9 1365.42 332.9C1348.4 332.9 1332.17 337.251 1316.72 345.952C1301.68 354.653 1289.41 367.308 1279.9 383.919C1270.8 400.53 1266.24 420.107 1266.24 442.65C1266.24 465.193 1270.8 484.968 1279.9 501.974C1289.41 518.584 1301.68 531.24 1316.72 539.941C1332.17 548.642 1348.4 552.992 1365.42 552.992C1382.84 552.992 1399.08 548.642 1414.12 539.941C1429.56 530.845 1441.84 517.793 1450.94 500.787C1460.44 483.781 1465.2 464.006 1465.2 441.463Z" fill="#007CBF"/>
<path d="M1656.86 551.806H1796.43V606.384H1589.16V194.082H1656.86V551.806Z" fill="#007CBF"/>
<path d="M1875.61 236.202C1863.34 236.202 1853.05 232.05 1844.73 223.744C1836.42 215.439 1832.26 205.156 1832.26 192.896C1832.26 180.636 1836.42 170.353 1844.73 162.047C1853.05 153.742 1863.34 149.589 1875.61 149.589C1887.49 149.589 1897.59 153.742 1905.9 162.047C1914.22 170.353 1918.37 180.636 1918.37 192.896C1918.37 205.156 1914.22 215.439 1905.9 223.744C1897.59 232.05 1887.49 236.202 1875.61 236.202ZM1908.87 279.509V606.384H1841.17V279.509H1908.87Z" fill="#007CBF"/>
<path d="M2150.98 274.17C2176.72 274.17 2199.68 279.509 2219.87 290.187C2240.46 300.865 2256.5 316.685 2267.98 337.646C2279.46 358.607 2285.2 383.919 2285.2 413.581V606.384H2218.09V423.666C2218.09 394.4 2210.77 372.054 2196.12 356.63C2181.47 340.81 2161.48 332.9 2136.14 332.9C2110.8 332.9 2090.61 340.81 2075.56 356.63C2060.91 372.054 2053.59 394.4 2053.59 423.666V606.384H1985.88V279.509H2053.59V316.883C2064.67 303.436 2078.73 292.956 2095.75 285.441C2113.17 277.927 2131.58 274.17 2150.98 274.17Z" fill="#007CBF"/>
<path d="M2489.15 443.243L2640 606.384H2548.54L2427.39 465.786V606.384H2359.68V167.387H2427.39V422.48L2546.17 279.509H2640L2489.15 443.243Z" fill="#007CBF"/>
<path d="M43.4865 43.439C-14.4954 101.358 -14.4954 195.262 43.4865 253.181L165.17 374.731L207.164 332.783L85.4807 211.232C50.6916 176.481 50.6916 120.138 85.4807 85.3873C120.27 50.6362 176.674 50.6362 211.463 85.3873L463.429 337.078C498.218 371.829 498.218 428.171 463.429 462.923C428.64 497.674 372.235 497.674 337.446 462.923L299.172 424.691L257.178 466.639L295.452 504.871C353.434 562.79 447.441 562.79 505.423 504.871C563.405 446.952 563.405 353.048 505.423 295.129L253.458 43.439C195.476 -14.4797 101.468 -14.4797 43.4865 43.439Z" fill="#007CBF"/>
<path d="M190.466 400L43.4865 546.82C-14.4955 604.738 -14.4955 698.643 43.4865 756.561C101.468 814.48 195.476 814.48 253.458 756.561L421.532 588.671C395.814 591.523 369.626 589.142 344.695 581.527L211.463 714.613C176.674 749.364 120.27 749.364 85.4807 714.613C50.6915 679.862 50.6915 623.519 85.4807 588.768L337.446 337.078C349.797 324.74 364.873 316.783 380.739 313.205L334.538 267.055C320.43 274.035 307.201 283.393 295.452 295.129L232.461 358.052L232.36 357.952L190.366 399.9L190.466 400Z" fill="#007CBF"/>
</svg>
