<svg width="173" height="89" viewBox="0 0 173 89" fill="none" xmlns="http://www.w3.org/2000/svg">
<g clip-path="url(#clip0_4770_10418)">
<g clip-path="url(#clip1_4770_10418)">
<rect x="60" width="54" height="54" rx="20" fill="#2D5BE6"/>
<path d="M87 41L105 27.1333H69L87 41Z" fill="white" fill-opacity="0.7"/>
<path d="M87 41L96 15H78L87 41Z" fill="white" fill-opacity="0.5"/>
<path d="M78 15H96L105 27.1333H69L78 15Z" fill="white" fill-opacity="0.8"/>
<path fill-rule="evenodd" clip-rule="evenodd" d="M82.1988 27.1334H91.8012L96 15.0065H78L82.1988 27.1334Z" fill="white" fill-opacity="0.9"/>
</g>
<path d="M23.8196 88.5H19.7236L19.4036 86.196C18.4116 87.636 16.2676 88.98 13.0356 88.98C6.73162 88.98 1.54762 84.34 1.54762 77.172C1.54762 70.036 6.95562 65.332 13.3556 65.332C19.8516 65.332 22.8596 69.172 23.8516 72.34L18.9876 74.036C18.6356 72.628 17.1316 70.068 13.3556 70.068C10.2836 70.068 6.66762 72.116 6.66762 77.172C6.66762 81.908 9.80362 84.372 13.4836 84.372C17.2276 84.372 18.7956 81.94 19.0836 80.66H12.2676V76.372H23.8196V88.5ZM30.7984 78.644H37.1664C37.1024 77.428 36.2704 75.956 33.9664 75.956C31.9184 75.956 30.8944 77.46 30.7984 78.644ZM37.5184 82.772L41.5824 83.924C40.8144 86.676 38.2864 88.98 34.2544 88.98C29.8704 88.98 25.9664 85.844 25.9664 80.5C25.9664 75.38 29.7744 72.116 33.9024 72.116C38.8304 72.116 41.8704 75.156 41.8704 80.276C41.8704 80.948 41.8064 81.684 41.7744 81.78H30.7024C30.7984 83.572 32.4304 84.852 34.3184 84.852C36.0784 84.852 37.0704 84.02 37.5184 82.772ZM49.2174 88.5H44.3534V72.596H48.9934V74.42C49.7934 73.012 51.8414 72.116 53.5694 72.116C55.8414 72.116 57.4734 73.044 58.2734 74.612C59.5214 72.82 61.0574 72.116 63.2014 72.116C66.2094 72.116 69.0894 73.876 69.0894 78.196V88.5H64.3854V79.284C64.3854 77.78 63.5854 76.596 61.8574 76.596C60.1294 76.596 59.2014 77.908 59.2014 79.316V88.5H54.4014V79.284C54.4014 77.78 53.6014 76.596 51.8414 76.596C50.1454 76.596 49.2174 77.908 49.2174 79.348V88.5ZM101.712 80.372L105.392 65.812H110.576L104.4 88.5H99.1841L94.3521 73.46L89.4881 88.5H84.1761L78.0001 65.812H83.3761L87.1201 80.34L91.8241 65.812H97.0081L101.712 80.372ZM110.473 84.116C110.473 81.3 112.553 79.7 115.177 79.316L118.921 78.74C119.785 78.612 120.073 78.196 120.073 77.652C120.073 76.724 119.273 75.924 117.737 75.924C116.041 75.924 115.113 77.076 115.017 78.26L110.793 77.396C110.985 75.124 113.097 72.116 117.769 72.116C122.921 72.116 124.809 74.996 124.809 78.26V86.036C124.809 87.284 124.969 88.34 125.001 88.5H120.617C120.585 88.372 120.457 87.796 120.457 86.708C119.625 88.052 118.089 88.948 115.977 88.948C112.489 88.948 110.473 86.644 110.473 84.116ZM117.161 85.428C118.601 85.428 120.073 84.724 120.073 82.26V81.556L117.065 82.036C116.041 82.196 115.273 82.676 115.273 83.796C115.273 84.628 115.817 85.428 117.161 85.428ZM133.126 88.5H128.262V65.332H133.126V88.5ZM141.642 88.5H136.778V65.332H141.642V88.5ZM148.975 78.644H155.343C155.279 77.428 154.447 75.956 152.143 75.956C150.095 75.956 149.071 77.46 148.975 78.644ZM155.695 82.772L159.759 83.924C158.991 86.676 156.463 88.98 152.431 88.98C148.047 88.98 144.143 85.844 144.143 80.5C144.143 75.38 147.951 72.116 152.079 72.116C157.007 72.116 160.047 75.156 160.047 80.276C160.047 80.948 159.983 81.684 159.951 81.78H148.879C148.975 83.572 150.607 84.852 152.495 84.852C154.255 84.852 155.247 84.02 155.695 82.772ZM168.354 67.956V72.596H171.458V76.852H168.354V82.804C168.354 84.116 169.058 84.468 170.114 84.468C170.626 84.468 171.106 84.372 171.394 84.308V88.34C171.202 88.436 170.402 88.788 168.866 88.788C165.57 88.788 163.554 86.836 163.554 83.668V76.852H160.738V72.596H161.538C163.202 72.596 164.002 71.476 164.002 70.004V67.956H168.354Z" fill="black"/>
</g>
<defs>
<clipPath id="clip0_4770_10418">
<rect width="173" height="89" fill="white"/>
</clipPath>
<clipPath id="clip1_4770_10418">
<rect x="60" width="54" height="54" rx="20" fill="white"/>
</clipPath>
</defs>
</svg>
