<svg xmlns:xlink="http://www.w3.org/1999/xlink" xmlns="http://www.w3.org/2000/svg" width="178" height="31" viewBox="0 0 178 31" fill="none">
<path d="M17.4188 22.0106C17.4661 21.9967 17.5133 21.9822 17.5603 21.9673L24.0341 28.4411C23.1163 29.0476 22.1302 29.5591 21.0897 29.9615C19.3557 30.6322 17.4708 31 15.5 31C14.965 31 14.4363 30.9729 13.9152 30.92C9.48108 30.4697 5.59947 28.1504 3.07059 24.7622C2.0819 23.4376 1.29997 21.9497 0.772631 20.3461C0.772627 20.3461 0.772635 20.3461 0.772631 20.3461C0.271236 18.8215 0 17.1924 0 15.5C0 6.93959 6.93959 0 15.5 0C24.0604 0 31 6.93959 31 15.5C31 18.2688 30.274 20.868 29.002 23.1177C28.3017 24.3563 27.4359 25.489 26.4346 26.4857C26.4157 26.5045 26.3967 26.5233 26.3777 26.542L20.2153 20.3797C21.3323 19.3001 22.0797 17.8404 22.2491 16.209C22.2733 15.976 22.2857 15.7394 22.2857 15.5C22.2857 15.1947 22.2656 14.8941 22.2265 14.5995C22.1756 14.216 22.0928 13.8426 21.9806 13.4821C21.9365 13.3402 21.8878 13.2003 21.8348 13.0625C20.8555 10.5191 18.3886 8.71429 15.5 8.71429C11.7524 8.71429 8.71429 11.7524 8.71429 15.5C8.71429 17.9672 10.031 20.1269 12 21.3146C12.7415 21.7619 13.5755 22.0714 14.4666 22.2075C14.8036 22.259 15.1487 22.2857 15.5 22.2857C16.1664 22.2857 16.8104 22.1897 17.4188 22.0106Z" fill="#8B55FF"/>
<path d="M39.6646 14.0045C39.6646 12.2245 40.0528 10.6414 40.8293 9.25505C41.6057 7.8516 42.6842 6.76478 44.0646 5.9946C45.4622 5.20729 47.041 4.81364 48.801 4.81364C50.9579 4.81364 52.8042 5.37845 54.3398 6.50805C55.8755 7.63766 56.9022 9.17803 57.4198 11.1292H52.554C52.1916 10.3761 51.674 9.80274 51.001 9.40909C50.3453 9.01544 49.5947 8.81861 48.7493 8.81861C47.3861 8.81861 46.2818 9.28928 45.4363 10.2306C44.5908 11.172 44.1681 12.4299 44.1681 14.0045C44.1681 15.5791 44.5908 16.8371 45.4363 17.7784C46.2818 18.7198 47.3861 19.1905 48.7493 19.1905C49.5947 19.1905 50.3453 18.9936 51.001 18.6C51.674 18.2063 52.1916 17.633 52.554 16.8799H57.4198C56.9022 18.831 55.8755 20.3714 54.3398 21.501C52.8042 22.6135 50.9579 23.1698 48.801 23.1698C47.041 23.1698 45.4622 22.7847 44.0646 22.0145C42.6842 21.2272 41.6057 20.1404 40.8293 18.754C40.0528 17.3677 39.6646 15.7845 39.6646 14.0045Z" fill="#213356"/>
<path d="M59.2502 15.853C59.2502 14.3811 59.5263 13.0889 60.0784 11.9764C60.6479 10.8639 61.4157 10.0081 62.382 9.40909C63.3482 8.81005 64.4267 8.51054 65.6173 8.51054C66.6353 8.51054 67.5239 8.71592 68.2832 9.12669C69.0596 9.53745 69.6549 10.0766 70.069 10.7441V8.71592H74.4949V23.0414H70.069V21.0132C69.6377 21.6807 69.0337 22.2199 68.2573 22.6306C67.4981 23.0414 66.6094 23.2468 65.5914 23.2468C64.4181 23.2468 63.3482 22.9473 62.382 22.3482C61.4157 21.7321 60.6479 20.8677 60.0784 19.7553C59.5263 18.6257 59.2502 17.3249 59.2502 15.853ZM70.069 15.8787C70.069 14.7833 69.7584 13.919 69.1373 13.2857C68.5333 12.6524 67.7914 12.3358 66.9114 12.3358C66.0314 12.3358 65.2808 12.6524 64.6596 13.2857C64.0557 13.9018 63.7537 14.7576 63.7537 15.853C63.7537 16.9484 64.0557 17.8212 64.6596 18.4716C65.2808 19.1049 66.0314 19.4215 66.9114 19.4215C67.7914 19.4215 68.5333 19.1049 69.1373 18.4716C69.7584 17.8383 70.069 16.974 70.069 15.8787Z" fill="#213356"/>
<path d="M86.4968 8.56188C88.1878 8.56188 89.5337 9.10957 90.5345 10.2049C91.5525 11.2832 92.0616 12.7722 92.0616 14.672V23.0414H87.6615V15.2625C87.6615 14.304 87.4114 13.5595 86.911 13.029C86.4106 12.4984 85.7376 12.2331 84.8921 12.2331C84.0466 12.2331 83.3737 12.4984 82.8733 13.029C82.3729 13.5595 82.1227 14.304 82.1227 15.2625V23.0414H77.6968V8.71592H82.1227V10.6157C82.5714 9.98245 83.1753 9.48611 83.9345 9.12669C84.6937 8.75015 85.5478 8.56188 86.4968 8.56188Z" fill="#213356"/>
<path d="M94.2571 15.853C94.2571 14.3811 94.5332 13.0889 95.0853 11.9764C95.6548 10.8639 96.4226 10.0081 97.3889 9.40909C98.3551 8.81005 99.4336 8.51054 100.624 8.51054C101.573 8.51054 102.436 8.70736 103.212 9.10101C104.006 9.49466 104.627 10.0252 105.076 10.6927V4.04346H109.502V23.0414H105.076V20.9876C104.662 21.6722 104.067 22.2199 103.29 22.6306C102.531 23.0414 101.642 23.2468 100.624 23.2468C99.4336 23.2468 98.3551 22.9473 97.3889 22.3482C96.4226 21.7321 95.6548 20.8677 95.0853 19.7553C94.5332 18.6257 94.2571 17.3249 94.2571 15.853ZM105.076 15.8787C105.076 14.7833 104.765 13.919 104.144 13.2857C103.54 12.6524 102.798 12.3358 101.918 12.3358C101.038 12.3358 100.288 12.6524 99.6665 13.2857C99.0626 13.9018 98.7606 14.7576 98.7606 15.853C98.7606 16.9484 99.0626 17.8212 99.6665 18.4716C100.288 19.1049 101.038 19.4215 101.918 19.4215C102.798 19.4215 103.54 19.1049 104.144 18.4716C104.765 17.8383 105.076 16.974 105.076 15.8787Z" fill="#213356"/>
<path d="M127.457 8.71592L118.398 29.8447H113.635L116.948 22.5536L111.073 8.71592H116.017L119.356 17.6758L122.668 8.71592H127.457Z" fill="#213356"/>
<path d="M142.904 10.8211C142.904 11.8651 142.663 12.8236 142.179 13.6965C141.696 14.5522 140.954 15.2454 139.954 15.776C138.953 16.3065 137.71 16.5718 136.227 16.5718H133.483V23.0414H129.057V5.01903H136.227C137.676 5.01903 138.901 5.2672 139.902 5.76354C140.903 6.25988 141.653 6.94449 142.154 7.81737C142.654 8.69025 142.904 9.69149 142.904 10.8211ZM135.89 13.0803C136.736 13.0803 137.365 12.8835 137.779 12.4898C138.194 12.0962 138.401 11.5399 138.401 10.8211C138.401 10.1023 138.194 9.54601 137.779 9.15236C137.365 8.75871 136.736 8.56188 135.89 8.56188H133.483V13.0803H135.89Z" fill="#213356"/>
<path d="M144.328 15.853C144.328 14.3811 144.604 13.0889 145.157 11.9764C145.726 10.8639 146.494 10.0081 147.46 9.40909C148.426 8.81005 149.505 8.51054 150.695 8.51054C151.713 8.51054 152.602 8.71592 153.361 9.12669C154.138 9.53745 154.733 10.0766 155.147 10.7441V8.71592H159.573V23.0414H155.147V21.0132C154.716 21.6807 154.112 22.2199 153.335 22.6306C152.576 23.0414 151.688 23.2468 150.67 23.2468C149.496 23.2468 148.426 22.9473 147.46 22.3482C146.494 21.7321 145.726 20.8677 145.157 19.7553C144.604 18.6257 144.328 17.3249 144.328 15.853ZM155.147 15.8787C155.147 14.7833 154.837 13.919 154.215 13.2857C153.611 12.6524 152.87 12.3358 151.99 12.3358C151.11 12.3358 150.359 12.6524 149.738 13.2857C149.134 13.9018 148.832 14.7576 148.832 15.853C148.832 16.9484 149.134 17.8212 149.738 18.4716C150.359 19.1049 151.11 19.4215 151.99 19.4215C152.87 19.4215 153.611 19.1049 154.215 18.4716C154.837 17.8383 155.147 16.974 155.147 15.8787Z" fill="#213356"/>
<path d="M177.528 8.71592L168.469 29.8447H163.707L167.02 22.5536L161.144 8.71592H166.088L169.427 17.6758L172.74 8.71592H177.528Z" fill="#213356"/>
</svg>