<svg width="497" height="497" viewBox="0 0 497 497" fill="none" xmlns="http://www.w3.org/2000/svg">
<rect width="497" height="497" fill="#8B55FF"/>
<g clip-path="url(#clip0_39_3048)">
<path fill-rule="evenodd" clip-rule="evenodd" d="M267.94 312.266C268.408 312.129 268.873 311.986 269.337 311.838L333.24 375.742C324.18 381.728 314.446 386.777 304.176 390.749C287.059 397.369 268.454 401 249 401C243.719 401 238.5 400.732 233.357 400.21C189.587 395.765 151.272 372.871 126.31 339.427C116.55 326.352 108.832 311.664 103.627 295.836C103.627 295.836 103.627 295.836 103.627 295.836C98.6775 280.787 96 264.706 96 248C96 163.5 164.5 95 249 95C333.5 95 402 163.5 402 248C402 275.331 394.834 300.987 382.278 323.194C375.365 335.421 366.818 346.601 356.935 356.439C356.748 356.625 356.561 356.81 356.374 356.995L295.544 296.168C306.57 285.511 313.948 271.102 315.62 254.999C315.859 252.699 315.982 250.364 315.982 248C315.982 244.986 315.783 242.019 315.397 239.111C314.895 235.326 314.077 231.64 312.97 228.082C312.535 226.681 312.054 225.3 311.531 223.94C301.864 198.834 277.513 181.018 249 181.018C212.007 181.018 182.018 211.007 182.018 248C182.018 272.354 195.015 293.672 214.452 305.396V305.395C221.771 309.811 230.004 312.866 238.799 314.21C242.125 314.718 245.532 314.982 249 314.982C255.578 314.982 261.935 314.034 267.94 312.266Z" fill="white"/>
</g>
<defs>
<clipPath id="clip0_39_3048">
<rect width="306" height="306" fill="white" transform="translate(96 95)"/>
</clipPath>
</defs>
</svg>
