<svg width="143" height="32" viewBox="0 0 143 32" fill="none" xmlns="http://www.w3.org/2000/svg">
<path fill-rule="evenodd" clip-rule="evenodd" d="M16.1473 26.8426C10.1018 26.8426 5.19825 21.9867 5.19825 16C5.19825 10.0133 10.1018 5.15743 16.1473 5.15743C20.8459 5.15743 24.8833 8.16967 26.3895 12.3425C26.4013 12.3753 26.413 12.4082 26.4246 12.4412H30.8243C29.2122 5.88913 23.2339 1 16.1473 1C7.78437 1 1 7.75166 1 16C1 24.2483 7.78437 31 16.1473 31C23.2339 31 29.2122 26.1109 30.8243 19.5588H26.4582C24.9804 23.7827 20.9165 26.8426 16.1473 26.8426ZM13.8988 13H18.1037C18.6001 13 19.0026 13.4044 19.0029 13.9032L19.0046 18.0968C19.0048 18.5956 18.6026 19 18.1062 19H13.9013C13.4049 19 13.0023 18.5956 13.0021 18.0968L13.0004 13.9032C13.0002 13.4044 13.4024 13 13.8988 13Z" fill="url(#paint0_linear_1236_12549)"/>
<path d="M45.5433 25.6782C42.8068 25.6782 40.5322 24.7717 38.7193 22.9589C36.9064 21.146 36 18.9141 36 16.2632C36 13.6123 36.9064 11.3804 38.7193 9.56753C40.5322 7.75466 42.8068 6.84822 45.5433 6.84822C47.6127 6.84822 49.4683 7.45536 51.1101 8.66965C52.7691 9.86683 53.8551 11.4317 54.3682 13.3643H50.3405C49.9814 12.475 49.3486 11.7652 48.4421 11.235C47.5528 10.7049 46.5865 10.4398 45.5433 10.4398C43.833 10.4398 42.4391 10.9956 41.3617 12.1073C40.2842 13.2189 39.7455 14.6043 39.7455 16.2632C39.7455 17.9222 40.2842 19.3075 41.3617 20.4191C42.4391 21.5308 43.833 22.0866 45.5433 22.0866C46.5865 22.0866 47.5528 21.8215 48.4421 21.2914C49.3486 20.7612 49.9814 20.0514 50.3405 19.1621H54.3682C53.8551 21.0947 52.7691 22.6681 51.1101 23.8824C49.4683 25.0796 47.6127 25.6782 45.5433 25.6782Z" fill="black"/>
<path d="M67.4074 23.7285C66.0905 25.0112 64.4999 25.6525 62.6358 25.6525C60.7716 25.6525 59.181 25.0112 57.8641 23.7285C56.5472 22.4287 55.8888 20.8381 55.8888 18.9569C55.8888 17.0927 56.5472 15.5107 57.8641 14.2109C59.181 12.9111 60.7716 12.2612 62.6358 12.2612C64.4999 12.2612 66.0905 12.9111 67.4074 14.2109C68.7243 15.5107 69.3827 17.0927 69.3827 18.9569C69.3827 20.8381 68.7243 22.4287 67.4074 23.7285ZM62.6358 22.3688C63.5422 22.3688 64.2947 22.0524 64.8933 21.4196C65.509 20.7697 65.8168 19.9488 65.8168 18.9569C65.8168 17.9649 65.509 17.1525 64.8933 16.5197C64.2947 15.8698 63.5422 15.5449 62.6358 15.5449C61.7122 15.5449 60.9426 15.8698 60.3269 16.5197C59.7283 17.1525 59.429 17.9649 59.429 18.9569C59.429 19.9488 59.7283 20.7697 60.3269 21.4196C60.9426 22.0524 61.7122 22.3688 62.6358 22.3688Z" fill="black"/>
<path d="M75.4318 30.732H71.9173V12.5434H75.4318V13.98C75.7568 13.5182 76.2528 13.1163 76.9198 12.7743C77.5868 12.4322 78.3307 12.2612 79.1517 12.2612C80.8448 12.2612 82.2729 12.9196 83.4359 14.2365C84.5988 15.5534 85.1803 17.1269 85.1803 18.9569C85.1803 20.7868 84.5988 22.3603 83.4359 23.6772C82.2729 24.9941 80.8448 25.6525 79.1517 25.6525C78.3307 25.6525 77.5868 25.4815 76.9198 25.1395C76.2528 24.7974 75.7568 24.3955 75.4318 23.9337V30.732ZM76.0219 21.4709C76.6205 22.1208 77.4072 22.4458 78.382 22.4458C79.3569 22.4458 80.1351 22.1208 80.7166 21.4709C81.3151 20.821 81.6144 19.983 81.6144 18.9569C81.6144 17.9307 81.3151 17.0927 80.7166 16.4428C80.1351 15.7929 79.3569 15.4679 78.382 15.4679C77.4072 15.4679 76.6205 15.7929 76.0219 16.4428C75.4404 17.0927 75.1497 17.9307 75.1497 18.9569C75.1497 19.983 75.4404 20.821 76.0219 21.4709Z" fill="black"/>
<path d="M91.2651 30.732H87.7505V12.5434H91.2651V13.98C91.5901 13.5182 92.086 13.1163 92.753 12.7743C93.42 12.4322 94.164 12.2612 94.9849 12.2612C96.6781 12.2612 98.1062 12.9196 99.2691 14.2365C100.432 15.5534 101.014 17.1269 101.014 18.9569C101.014 20.7868 100.432 22.3603 99.2691 23.6772C98.1062 24.9941 96.6781 25.6525 94.9849 25.6525C94.164 25.6525 93.42 25.4815 92.753 25.1395C92.086 24.7974 91.5901 24.3955 91.2651 23.9337V30.732ZM91.8552 21.4709C92.4537 22.1208 93.2405 22.4458 94.2153 22.4458C95.1902 22.4458 95.9683 22.1208 96.5498 21.4709C97.1484 20.821 97.4477 19.983 97.4477 18.9569C97.4477 17.9307 97.1484 17.0927 96.5498 16.4428C95.9683 15.7929 95.1902 15.4679 94.2153 15.4679C93.2405 15.4679 92.4537 15.7929 91.8552 16.4428C91.2737 17.0927 90.9829 17.9307 90.9829 18.9569C90.9829 19.983 91.2737 20.821 91.8552 21.4709Z" fill="black"/>
<path d="M109.484 25.6525C107.517 25.6525 105.901 25.0197 104.636 23.7541C103.387 22.4886 102.763 20.8809 102.763 18.9312C102.763 17.0157 103.396 15.4252 104.661 14.1596C105.944 12.894 107.56 12.2612 109.51 12.2612C111.477 12.2612 113.11 12.9367 114.41 14.2879C115.71 15.6219 116.308 17.4518 116.206 19.7778H106.2C106.269 20.5816 106.602 21.2572 107.201 21.8044C107.8 22.3346 108.621 22.5997 109.664 22.5997C110.297 22.5997 110.852 22.48 111.331 22.2406C111.827 21.984 112.178 21.6334 112.383 21.1888H116.052C115.675 22.5057 114.889 23.5831 113.691 24.4211C112.494 25.2421 111.092 25.6525 109.484 25.6525ZM109.407 15.1088C108.603 15.1088 107.928 15.3226 107.381 15.7501C106.85 16.1606 106.5 16.7335 106.329 17.4689H112.357C112.169 16.6651 111.793 16.0751 111.229 15.6988C110.681 15.3055 110.074 15.1088 109.407 15.1088Z" fill="black"/>
<path d="M118.766 25.3703V12.5434H122.28V14.5957C122.503 13.9629 122.905 13.4413 123.486 13.0308C124.085 12.6032 124.743 12.3895 125.461 12.3895C125.906 12.3895 126.299 12.4408 126.641 12.5434V16.1093C126.077 15.9212 125.547 15.8271 125.051 15.8271C124.213 15.8271 123.537 16.1349 123.024 16.7506C122.528 17.3492 122.28 18.1787 122.28 19.2391V25.3703H118.766Z" fill="black"/>
<path d="M137.455 25.3703L134.48 21.5992L131.504 25.3703H127.271L132.248 19.0851L127.399 12.5434H131.555L134.454 16.4684L137.353 12.5434H141.534L136.686 19.0851L141.663 25.3703H137.455Z" fill="black"/>
<defs>
<linearGradient id="paint0_linear_1236_12549" x1="18.8825" y1="28.4892" x2="4.74034" y2="6.8122" gradientUnits="userSpaceOnUse">
<stop stop-color="#2954FF"/>
<stop offset="1" stop-color="#849DFF"/>
</linearGradient>
</defs>
</svg>
