<svg width="260" height="260" viewBox="0 0 260 260" fill="none" xmlns="http://www.w3.org/2000/svg">
<path fill-rule="evenodd" clip-rule="evenodd" d="M101.176 83.8488C98.5245 83.8486 95.9816 82.7952 94.1067 80.9204L36.3291 23.1441C33.8282 20.6432 34.6441 16.4072 37.8951 15.0142L71.0384 0.812664C74.7961 -0.797464 79.1555 0.0422018 82.0462 2.93288L126.464 47.35C128.417 49.3023 131.582 49.3023 133.534 47.35L177.957 2.92817C180.848 0.0371161 185.208 -0.802355 188.966 0.808527L222.11 15.016C225.36 16.4094 226.176 20.6449 223.675 23.1455L165.896 80.9236C164.021 82.7987 161.477 83.8521 158.826 83.852L101.176 83.8488ZM176.15 101.177C176.15 98.5251 177.204 95.9821 179.079 94.1071L236.858 36.3291C239.359 33.8283 243.594 34.644 244.988 37.8945L259.192 71.033C260.802 74.7907 259.963 79.1505 257.072 82.0415L212.649 126.464C210.697 128.416 210.697 131.581 212.649 133.533L257.071 177.955C259.962 180.845 260.802 185.205 259.192 188.962L244.99 222.105C243.597 225.356 239.361 226.172 236.86 223.671L179.078 165.89C177.203 164.015 176.15 161.472 176.15 158.821L176.15 101.177ZM165.894 179.074C164.019 177.199 161.475 176.146 158.823 176.146L101.174 176.15C98.5224 176.151 95.9796 177.204 94.1048 179.079L36.3258 236.856C33.8249 239.357 34.6408 243.593 37.8918 244.986L71.0347 259.187C74.7923 260.797 79.1516 259.957 82.0424 257.067L126.462 212.649C128.414 210.696 131.579 210.696 133.531 212.649L177.954 257.07C180.845 259.961 185.204 260.8 188.962 259.19L222.11 244.984C225.361 243.591 226.177 239.356 223.676 236.855L165.894 179.074ZM83.85 158.826C83.85 161.478 82.7966 164.021 80.9216 165.896L23.1427 223.673C20.6418 226.174 16.4058 225.358 15.0127 222.108L0.807853 188.961C-0.802471 185.203 0.0371727 180.844 2.928 177.953L47.347 133.535C49.2993 131.583 49.2993 128.418 47.347 126.465L2.92913 82.0484C0.038273 79.1576 -0.801347 74.798 0.809054 71.0404L15.0147 37.8931C16.4079 34.6424 20.6438 33.8266 23.1446 36.3274L80.9222 94.1037C82.7973 95.9788 83.8507 98.5218 83.8506 101.174L83.85 158.826Z" fill="#6C27FF"/>
</svg>
