<svg width="1144" height="260" viewBox="0 0 1144 260" fill="none" xmlns="http://www.w3.org/2000/svg">
<path fill-rule="evenodd" clip-rule="evenodd" d="M101.176 83.8488C98.5247 83.8486 95.9818 82.7952 94.1069 80.9204L36.3293 23.1441C33.8284 20.6432 34.6443 16.4072 37.8953 15.0142L71.0386 0.812667C74.7963 -0.797461 79.1557 0.0422047 82.0464 2.93289L126.465 47.35C128.417 49.3023 131.582 49.3023 133.534 47.35L177.957 2.92817C180.848 0.037119 185.208 -0.802352 188.966 0.80853L222.11 15.016C225.361 16.4094 226.176 20.6449 223.676 23.1455L165.896 80.9236C164.021 82.7987 161.478 83.8521 158.826 83.852L101.176 83.8488ZM176.15 101.177C176.15 98.5251 177.204 95.9821 179.079 94.1071L236.858 36.3291C239.359 33.8283 243.595 34.644 244.988 37.8945L259.192 71.033C260.803 74.7907 259.963 79.1505 257.072 82.0415L212.649 126.464C210.697 128.416 210.697 131.581 212.649 133.533L257.072 177.955C259.962 180.845 260.802 185.205 259.192 188.962L244.99 222.105C243.597 225.356 239.361 226.172 236.86 223.671L179.078 165.89C177.203 164.015 176.15 161.472 176.15 158.821L176.15 101.177ZM165.894 179.074C164.019 177.199 161.476 176.146 158.824 176.146L101.174 176.15C98.5227 176.151 95.9799 177.204 94.105 179.079L36.326 236.856C33.8251 239.357 34.6411 243.593 37.8921 244.986L71.0349 259.187C74.7925 260.797 79.1519 259.957 82.0426 257.067L126.462 212.649C128.414 210.696 131.579 210.696 133.532 212.649L177.954 257.07C180.845 259.961 185.204 260.8 188.962 259.19L222.11 244.984C225.361 243.591 226.177 239.356 223.676 236.855L165.894 179.074ZM83.8503 158.826C83.8502 161.478 82.7968 164.021 80.9218 165.896L23.1429 223.673C20.642 226.174 16.4061 225.358 15.013 222.108L0.808097 188.961C-0.802227 185.203 0.0374166 180.844 2.92824 177.953L47.3473 133.535C49.2995 131.583 49.2995 128.418 47.3473 126.465L2.92938 82.0484C0.0385169 79.1576 -0.801103 74.798 0.809298 71.0404L15.015 37.8931C16.4081 34.6424 20.644 33.8266 23.1449 36.3274L80.9224 94.1037C82.7975 95.9788 83.8509 98.5218 83.8509 101.174L83.8503 158.826Z" fill="#6C27FF"/>
<path d="M344 236.643C344 238.44 345.456 239.896 347.253 239.896H474.946C476.743 239.896 478.199 238.44 478.199 236.643V213.478C478.199 211.681 476.743 210.225 474.946 210.225H376.437V142.045H458.092C459.888 142.045 461.345 140.588 461.345 138.791V115.942C461.345 114.146 459.888 112.689 458.092 112.689H376.437V48.6123H471.766C473.563 48.6123 475.019 47.1558 475.019 45.3591V22.1943C475.019 20.3976 473.563 18.9412 471.766 18.9412H347.253C345.456 18.9412 344 20.3976 344 22.1943V236.643Z" fill="white"/>
<path d="M497.128 236.643C497.128 238.44 498.585 239.896 500.381 239.896H589.913C591.71 239.896 593.167 238.44 593.167 236.643V216.003C593.167 214.207 591.71 212.75 589.913 212.75H561.048V22.1951C561.048 20.3985 559.591 18.942 557.795 18.942H500.381C498.585 18.942 497.128 20.3985 497.128 22.1951V45.3591C497.128 47.1558 498.585 48.6123 500.381 48.6123H529.565V212.75H500.381C498.585 212.75 497.128 214.207 497.128 216.003V236.643Z" fill="white"/>
<path d="M668.048 244C692.217 244 708.753 232.32 715.749 218.432H718.294V236.643C718.294 238.44 719.75 239.896 721.547 239.896H746.523C748.32 239.896 749.776 238.44 749.776 236.643V78.38C749.776 76.5833 748.32 75.1268 746.523 75.1268H721.547C719.75 75.1268 718.294 76.5833 718.294 78.38V172.663C718.294 196.652 700.167 214.328 676.952 214.328C655.964 214.328 638.792 198.862 638.792 175.504V78.38C638.792 76.5833 637.335 75.1268 635.538 75.1268H610.562C608.765 75.1268 607.309 76.5833 607.309 78.38V180.87C607.309 216.222 630.523 244 668.048 244Z" fill="white"/>
<path d="M832.14 244C871.891 244 897.968 222.535 897.968 190.655C897.968 123.421 801.93 155.302 801.93 119.318C801.93 107.323 813.378 98.8006 831.504 98.8006C848.898 98.8006 861.645 106.667 865.693 121.143C866.214 123.008 868.111 124.22 869.972 123.689L891.344 117.593C892.942 117.138 893.949 115.548 893.586 113.928C887.335 86.0867 861.682 71.0234 832.458 71.0234C796.205 71.0234 771.719 90.9093 771.719 119.002C771.719 184.973 866.167 153.408 866.167 193.18C866.167 207.068 854.719 216.222 833.412 216.222C813.4 216.222 800.121 207.59 796.21 190.324C795.791 188.475 793.99 187.225 792.14 187.644L769.201 192.841C767.564 193.212 766.469 194.77 766.758 196.423C772.016 226.513 796.704 244 832.14 244Z" fill="white"/>
<path d="M950.227 47.6653C962.629 47.6653 971.534 38.5115 971.534 26.5168C971.534 15.1534 962.629 5.99951 950.227 5.99951C938.143 5.99951 929.239 15.1534 929.239 26.5168C929.239 38.5115 938.143 47.6653 950.227 47.6653ZM934.327 236.643C934.327 238.44 935.783 239.896 937.58 239.896H962.557C964.353 239.896 965.81 238.44 965.81 236.643V78.38C965.81 76.5833 964.353 75.1268 962.557 75.1268H907.369C905.573 75.1268 904.116 76.5833 904.116 78.38V99.0196C904.116 100.816 905.573 102.273 907.369 102.273H934.327V236.643Z" fill="white"/>
<path d="M1041.78 237.747C1042.25 239.037 1043.47 239.896 1044.84 239.896H1082.56C1083.93 239.896 1085.16 239.034 1085.62 237.742L1142.44 79.4791C1143.2 77.3597 1141.63 75.1268 1139.38 75.1268H1112C1110.6 75.1268 1109.36 76.0227 1108.91 77.3509L1064.5 210.541H1061.95L1017.22 77.3443C1016.78 76.0195 1015.54 75.1268 1014.14 75.1268H987.721C985.466 75.1268 983.895 77.364 984.661 79.4844L1041.78 237.747Z" fill="white"/>
</svg>
