<svg width="580" height="580" viewBox="0 0 580 580" fill="none" xmlns="http://www.w3.org/2000/svg">
<g clip-path="url(#clip0_12696_144221)">
<path d="M92.6531 389.651V304.948C92.6531 285.63 82.7235 279.583 67.1408 279.583C61.0527 279.721 55.0801 281.272 49.6944 284.115C44.278 286.981 39.5923 291.053 35.9987 296.016V389.651H0V197.463H35.9987V268.632C42.004 261.746 49.4275 256.241 57.7603 252.493C66.054 248.766 75.0623 246.897 84.1541 247.018C114.175 247.018 128.629 263.729 128.629 290.835V389.667H92.6531V389.651ZM221.653 392.025C179.97 392.025 149.679 362.755 149.679 317.275C149.679 271.803 179.197 242.548 221.653 242.548C263.08 242.548 292.335 271.037 292.335 314.135C292.374 318.868 292.026 323.585 291.299 328.256H186.451C188.26 349.678 202.768 361.711 220.972 361.711C236.509 361.711 245.054 353.869 249.709 344.288H288.809C281.037 370.859 257.211 392.025 221.653 392.025ZM186.698 303.711H254.883C254.365 284.625 239.347 272.6 220.702 272.6C203.356 272.6 189.637 283.844 186.791 303.703L186.698 303.711ZM311.05 197.463H346.129V389.651H311.05V197.463ZM369.514 206.944C369.514 194.972 378.833 185.6 391.778 185.6C404.716 185.6 413.95 194.88 413.95 206.944C413.95 219.008 404.376 228.288 391.693 228.288C379.011 228.288 369.514 218.83 369.514 206.944ZM373.396 245.471H409.635V389.651H373.396V245.471Z" fill="black"/>
<path d="M547.558 313.727C546.931 302.779 542.184 292.473 534.272 284.881C526.424 277.357 515.974 273.151 505.102 273.142C494.232 273.153 483.785 277.359 475.939 284.881C468.027 292.473 463.28 302.779 462.653 313.727H430.32C430.297 293.649 438.169 274.367 452.237 260.042C459.141 253.01 467.376 247.422 476.461 243.604C485.547 239.786 495.301 237.813 505.156 237.801C515.011 237.813 524.765 239.786 533.85 243.605C542.935 247.423 551.17 253.01 558.075 260.042C572.146 274.366 580.02 293.648 579.999 313.727H547.558ZM506.733 394.401C492.678 394.392 478.922 390.338 467.108 382.723C455.19 375.033 445.682 364.138 439.678 351.287L468.755 337.453C472.122 344.551 477.376 350.587 483.943 354.899C490.453 359.169 498.03 361.527 505.813 361.704C513.591 361.871 521.26 359.85 527.946 355.873C534.689 351.858 540.195 346.062 543.861 339.123L572.985 352.981C566.778 365.37 557.286 375.817 545.547 383.18C533.91 390.47 520.465 394.357 506.733 394.401Z" fill="#F76C1B"/>
</g>
<defs>
<clipPath id="clip0_12696_144221">
<rect width="580" height="580" fill="white"/>
</clipPath>
</defs>
</svg>
