<svg xmlns:xlink="http://www.w3.org/1999/xlink"   viewBox="0 0 75 27" fill="none" xmlns="http://www.w3.org/2000/svg" class="h-[27px] w-[75px] hover:cursor-pointer" width="1"  height="1" ><path d="M11.981 26.386V15.433c0-2.498-1.284-3.28-3.299-3.28a5.081 5.081 0 0 0-2.256.586 5.174 5.174 0 0 0-1.771 1.539v12.108H0V1.534h4.655v9.203A8.193 8.193 0 0 1 7.469 8.65a8.066 8.066 0 0 1 3.413-.708c3.882 0 5.751 2.161 5.751 5.666v12.78h-4.652ZM28.662 26.693c-5.39 0-9.307-3.785-9.307-9.666 0-5.88 3.817-9.663 9.307-9.663 5.357 0 9.14 3.684 9.14 9.257.005.612-.04 1.222-.134 1.826H24.11c.234 2.77 2.11 4.326 4.464 4.326 2.009 0 3.114-1.014 3.716-2.253h5.056c-1.005 3.436-4.085 6.173-8.683 6.173Zm-4.52-11.42h8.817c-.067-2.468-2.009-4.023-4.42-4.023-2.243 0-4.017 1.454-4.385 4.022h-.012ZM40.222 1.534h4.536v24.852h-4.536V1.534ZM47.782 2.76c0-1.548 1.205-2.76 2.879-2.76 1.673 0 2.867 1.2 2.867 2.76 0 1.56-1.238 2.76-2.878 2.76-1.64 0-2.868-1.223-2.868-2.76Zm.502 4.982h4.686v18.644h-4.686V7.742Z" fill="#000"></path><path d="M70.805 16.568a5.614 5.614 0 0 0-1.718-3.73 5.457 5.457 0 0 0-3.772-1.518 5.457 5.457 0 0 0-3.771 1.518 5.614 5.614 0 0 0-1.718 3.73h-4.181a9.891 9.891 0 0 1 2.834-6.942 9.607 9.607 0 0 1 6.843-2.876 9.608 9.608 0 0 1 6.843 2.876A9.891 9.891 0 0 1 75 16.568h-4.195ZM65.526 27a9.469 9.469 0 0 1-5.124-1.51 9.75 9.75 0 0 1-3.547-4.065l3.76-1.789a5.538 5.538 0 0 0 1.964 2.256 5.38 5.38 0 0 0 2.828.88 5.374 5.374 0 0 0 2.862-.754 5.524 5.524 0 0 0 2.058-2.166l3.766 1.792a9.782 9.782 0 0 1-3.548 3.905A9.51 9.51 0 0 1 65.526 27Z" fill="#F76C1B"></path></svg>