<?xml version="1.0" encoding="utf-8"?>
<!-- Generator: Adobe Illustrator 26.2.1, SVG Export Plug-In . SVG Version: 6.00 Build 0)  -->
<svg version="1.1" id="Layer_1" xmlns="http://www.w3.org/2000/svg" xmlns:xlink="http://www.w3.org/1999/xlink" x="0px" y="0px"
	 viewBox="0 0 775 191" style="enable-background:new 0 0 775 191;" xml:space="preserve">
<style type="text/css">
	.st0{clip-path:url(#SVGID_00000152239658445997173640000000388047095909288074_);}
	.st1{fill:url(#SVGID_00000077293744768741268670000016446476003049634196_);}
	.st2{fill:#FFFFFF;}
	.st3{fill:url(#SVGID_00000026860828655193131970000011612522113147677096_);}
	.st4{fill:url(#SVGID_00000176732352298493122580000008890682304535616926_);}
	.st5{fill:#0F2A43;}
</style>
<g>
	<defs>
		<rect id="SVGID_1_" x="17" y="17" width="156.7" height="156.7"/>
	</defs>
	<clipPath id="SVGID_00000158750174527845070040000015258017979132226952_">
		<use xlink:href="#SVGID_1_"  style="overflow:visible;"/>
	</clipPath>
	<g style="clip-path:url(#SVGID_00000158750174527845070040000015258017979132226952_);">
		
			<linearGradient id="SVGID_00000058559094010476597900000012985339575450527136_" gradientUnits="userSpaceOnUse" x1="46.1986" y1="154.6918" x2="154.267" y2="27.0598" gradientTransform="matrix(1 0 0 -1 0 192)">
			<stop  offset="0" style="stop-color:#2C61F9"/>
			<stop  offset="1" style="stop-color:#1DCBFA"/>
		</linearGradient>
		<path style="fill:url(#SVGID_00000058559094010476597900000012985339575450527136_);" d="M95.3,17C52.1,17,17,52.1,17,95.3
			s35.1,78.3,78.3,78.3s78.3-35.1,78.3-78.3S138.5,17,95.3,17z"/>
		<path class="st2" d="M28.4,119.7c4,11.1,18.5,17,37.4,17c12.5,0,27-2.6,41.7-7.9c37-13.4,61.5-39.3,54.7-57.8h0
			c-10-27.3-36.2-46.9-66.9-46.9C56,24.1,24.1,56,24.1,95.3C24.1,103.9,25.6,112.1,28.4,119.7L28.4,119.7L28.4,119.7z"/>
		<path class="st2" d="M156.4,106.7c-11.1,11.7-27.6,21.9-46.5,28.8c-15,5.5-30.3,8.4-44.1,8.4c-10.4,0-19.4-1.7-26.6-4.7
			c13,16.7,33.3,27.4,56.1,27.4c39.3,0,71.2-31.9,71.2-71.2c0-0.9,0-1.7-0.1-2.6C164.1,97.4,160.7,102,156.4,106.7L156.4,106.7z"/>
		
			<linearGradient id="SVGID_00000051353674252110910320000017886435524783426959_" gradientUnits="userSpaceOnUse" x1="52.5281" y1="99.2349" x2="52.5281" y2="25.469" gradientTransform="matrix(1 0 0 -1 0 192)">
			<stop  offset="0" style="stop-color:#1DCBFA"/>
			<stop  offset="1" style="stop-color:#1DCBFA;stop-opacity:0"/>
		</linearGradient>
		<path style="fill:url(#SVGID_00000051353674252110910320000017886435524783426959_);" d="M65.8,136.7c4.8,0,9.9-0.4,15.1-1.2
			c-0.1,0-0.2-0.1-0.3-0.1c-18.9-6.9-35.4-17.1-46.5-28.8c-4.4-4.6-7.7-9.3-10-13.9c0,0.9-0.1,1.7-0.1,2.6c0,8.6,1.5,16.8,4.3,24.4
			h0C32.4,130.8,46.9,136.7,65.8,136.7L65.8,136.7z"/>
		
			<linearGradient id="SVGID_00000155840320372494869650000004483618876679647419_" gradientUnits="userSpaceOnUse" x1="95.3003" y1="99.2349" x2="95.3003" y2="25.469" gradientTransform="matrix(1 0 0 -1 0 192)">
			<stop  offset="0" style="stop-color:#1DCBFA"/>
			<stop  offset="1" style="stop-color:#1DCBFA;stop-opacity:0"/>
		</linearGradient>
		<path style="fill:url(#SVGID_00000155840320372494869650000004483618876679647419_);" d="M95.3,139.9c-10.1,2.6-20.1,3.9-29.5,3.9
			c-10.4,0-19.4-1.7-26.6-4.7c13,16.7,33.3,27.4,56.1,27.4c22.8,0,43.1-10.7,56.1-27.4c-7.2,3.1-16.2,4.7-26.6,4.7
			C115.4,143.8,105.4,142.5,95.3,139.9L95.3,139.9z"/>
	</g>
</g>
<path class="st5" d="M233.4,123.4l13.3-13.7c4.7,10,13.6,13.1,24.9,13.1c9.8,0,15.3-3,15.3-7.5c0-3.9-4.5-6.2-16.6-8.7
	c-25.9-5.2-34.6-13.2-34.6-27.1s12.8-27,37.4-27c19.1,0,29.4,5.7,37.1,17.8L296,82.2c-4.8-8.7-11.5-13.1-22.6-13.1
	c-9.3,0-15,3.7-15,8c0,4.4,4.2,7.4,18.1,10.2c24.3,4.9,33.3,12.2,33.3,26.1c0,15.1-13.1,26-37.9,26
	C254.8,139.5,241,134.8,233.4,123.4L233.4,123.4z"/>
<path class="st5" d="M507.4,82.8v54.9h-22.8V89.5c0-14.4-6.1-19.1-14.8-19.1c-9.6,0-19.1,6.4-19.1,23.1v44.2h-22.8V17.4h22.8v50.9
	c5.3-10.7,15-15.9,26.8-15.9C494.8,52.4,507.4,62.6,507.4,82.8L507.4,82.8z"/>
<path class="st5" d="M601.9,104.6h-58.9c2.3,12.1,9.6,17.8,20.8,17.8c9.6,0,16-3.7,18.3-10.4l18.6,6.9
	c-5.3,13.4-18.1,20.6-36.9,20.6c-27.6,0-43.2-16.1-43.2-43.6c0-27.5,15.1-43.6,41.9-43.6c26.8,0,40.1,15.7,40.1,43.2
	C602.6,97.9,602.2,102.5,601.9,104.6L601.9,104.6z M542.9,88.5h38.7c-1.8-12.6-8.8-19.3-19.3-19.3C551.9,69.3,544.7,75.8,542.9,88.5
	z"/>
<path class="st5" d="M672.1,54.2l-2.8,20.1c-2.3-1.5-6.1-2.5-10.5-2.5c-10,0-20,7.4-20,22.6v43.4H616V54h19.8v16.4
	c4.3-11.6,14.3-18.1,27.3-18.1C666.7,52.4,670.1,53,672.1,54.2z"/>
<path class="st5" d="M757.4,104.6h-58.9c2.3,12.1,9.6,17.8,20.8,17.8c9.6,0,16-3.7,18.3-10.4l18.6,6.9
	c-5.3,13.4-18.1,20.6-36.9,20.6c-27.6,0-43.2-16.1-43.2-43.6c0-27.5,15.1-43.6,41.9-43.6c26.8,0,40.1,15.7,40.1,43.2
	C758,97.9,757.7,102.5,757.4,104.6L757.4,104.6z M698.3,88.5h38.7c-1.8-12.6-8.8-19.3-19.3-19.3S700.2,75.8,698.3,88.5z"/>
<path class="st5" d="M414.3,95.8c0,27.5-18.3,43.7-40.3,43.7c-12.3,0-22.9-6.2-27.7-15.6V173h-22.8V54h22.8v14.3
	c4.7-10.7,14.4-16,27.7-16C396.1,52.4,414.3,68.4,414.3,95.8z M392.9,95.9c0-17.1-12-26-24.2-26c-12.1,0-22.4,8.9-22.4,25.1v1.7
	c0,15.9,10.4,25.1,22.4,25.1C380.7,121.9,392.9,113,392.9,95.9z"/>
</svg>
