<svg width="396" height="394" viewBox="0 0 396 394" fill="none" xmlns="http://www.w3.org/2000/svg">
<g filter="url(#filter0_d_7_1341)">
<path d="M93.7259 263.333C104.541 278.377 118.415 290.964 134.436 300.27C150.457 309.576 168.265 315.391 186.691 317.332C177.211 303.067 163.431 289.942 146.228 279.95C129.025 269.958 110.807 264.5 93.7259 263.333Z" fill="url(#paint0_linear_7_1341)"/>
<path d="M169.344 240.164C136.201 220.909 100.329 216.002 74.6613 224.671C77.1392 232.86 80.4071 240.79 84.419 248.347C106.72 247.831 131.069 253.887 153.725 267.047C176.382 280.206 193.71 298.367 204.314 318C212.871 317.737 221.383 316.648 229.73 314.746C224.541 288.159 202.479 259.423 169.344 240.164Z" fill="url(#paint1_linear_7_1341)"/>
<path d="M327.282 162.007C323.068 144.867 315.444 128.752 304.864 114.624C294.284 100.496 280.965 88.6454 265.703 79.7788C250.442 70.9123 233.55 65.212 216.036 63.0185C198.523 60.8249 180.747 62.183 163.77 67.0117C192.132 70.4827 223.614 81.1298 254.488 99.0659C285.362 117.002 310.227 139.073 327.282 162.007Z" fill="url(#paint2_linear_7_1341)"/>
<path d="M286.017 224.867C271.5 200.757 246.63 177.67 215.995 159.873C185.359 142.076 152.993 131.91 124.882 131.238C100.152 130.652 81.5911 137.841 73.9724 150.957C73.929 151.035 73.8683 151.109 73.8205 151.187C73.135 153.647 72.545 156.112 72.007 158.585C82.6454 154.385 94.9716 152.046 108.677 151.786C139.157 151.213 173.267 160.962 204.745 179.25C236.222 197.537 261.607 222.35 276.203 249.103C282.745 261.155 286.828 273.022 288.446 284.359C290.329 282.675 292.178 280.935 293.97 279.126C294.017 279.044 294.048 278.957 294.095 278.87C301.714 265.741 298.768 246.061 286.017 224.867Z" fill="url(#paint3_linear_7_1341)"/>
<path d="M192.687 199.988C145.773 172.733 93.9301 168.463 69 187.484C69.049 193.438 69.5041 199.381 70.3623 205.273C77.6959 203.05 85.2541 201.65 92.8974 201.099C120.756 199.003 151.47 206.765 179.341 222.966C207.213 239.167 229.184 262.014 241.168 287.235C244.48 294.144 247.006 301.403 248.7 308.876C254.244 306.702 259.635 304.156 264.835 301.253C269.009 270.171 239.614 227.248 192.687 199.988Z" fill="url(#paint4_linear_7_1341)"/>
<path d="M310.147 184.513C295.465 160.429 270.379 137.278 239.527 119.363C208.674 101.449 176.182 91.1226 147.981 90.2939C126.482 89.6735 109.831 94.8843 101.197 104.729C137.047 98.6546 184.334 108.863 230.168 135.49C276.002 162.116 308.308 198.145 320.777 232.295C325.051 219.925 321.333 202.878 310.147 184.513Z" fill="url(#paint5_linear_7_1341)"/>
</g>
<defs>
<filter id="filter0_d_7_1341" x="0.505081" y="0.354573" width="395.272" height="392.99" filterUnits="userSpaceOnUse" color-interpolation-filters="sRGB">
<feFlood flood-opacity="0" result="BackgroundImageFix"/>
<feColorMatrix in="SourceAlpha" type="matrix" values="0 0 0 0 0 0 0 0 0 0 0 0 0 0 0 0 0 0 127 0" result="hardAlpha"/>
<feOffset dy="6.84949"/>
<feGaussianBlur stdDeviation="34.2475"/>
<feComposite in2="hardAlpha" operator="out"/>
<feColorMatrix type="matrix" values="0 0 0 0 0 0 0 0 0 0 0 0 0 0 0 0 0 0 0.1 0"/>
<feBlend mode="normal" in2="BackgroundImageFix" result="effect1_dropShadow_7_1341"/>
<feBlend mode="normal" in="SourceGraphic" in2="effect1_dropShadow_7_1341" result="shape"/>
</filter>
<linearGradient id="paint0_linear_7_1341" x1="248.363" y1="112.221" x2="69" y2="363.329" gradientUnits="userSpaceOnUse">
<stop stop-color="#F9A43A"/>
<stop offset="0.25" stop-color="#FFC45E"/>
<stop offset="0.53125" stop-color="#6DDFE0"/>
<stop offset="0.760417" stop-color="#73E8F2"/>
<stop offset="1" stop-color="#39C7E3"/>
</linearGradient>
<linearGradient id="paint1_linear_7_1341" x1="248.363" y1="112.221" x2="69" y2="363.329" gradientUnits="userSpaceOnUse">
<stop stop-color="#F9A43A"/>
<stop offset="0.25" stop-color="#FFC45E"/>
<stop offset="0.53125" stop-color="#6DDFE0"/>
<stop offset="0.760417" stop-color="#73E8F2"/>
<stop offset="1" stop-color="#39C7E3"/>
</linearGradient>
<linearGradient id="paint2_linear_7_1341" x1="248.363" y1="112.221" x2="69" y2="363.329" gradientUnits="userSpaceOnUse">
<stop stop-color="#F9A43A"/>
<stop offset="0.25" stop-color="#FFC45E"/>
<stop offset="0.53125" stop-color="#6DDFE0"/>
<stop offset="0.760417" stop-color="#73E8F2"/>
<stop offset="1" stop-color="#39C7E3"/>
</linearGradient>
<linearGradient id="paint3_linear_7_1341" x1="248.363" y1="112.221" x2="69" y2="363.329" gradientUnits="userSpaceOnUse">
<stop stop-color="#F9A43A"/>
<stop offset="0.25" stop-color="#FFC45E"/>
<stop offset="0.53125" stop-color="#6DDFE0"/>
<stop offset="0.760417" stop-color="#73E8F2"/>
<stop offset="1" stop-color="#39C7E3"/>
</linearGradient>
<linearGradient id="paint4_linear_7_1341" x1="248.363" y1="112.221" x2="69" y2="363.329" gradientUnits="userSpaceOnUse">
<stop stop-color="#F9A43A"/>
<stop offset="0.25" stop-color="#FFC45E"/>
<stop offset="0.53125" stop-color="#6DDFE0"/>
<stop offset="0.760417" stop-color="#73E8F2"/>
<stop offset="1" stop-color="#39C7E3"/>
</linearGradient>
<linearGradient id="paint5_linear_7_1341" x1="248.363" y1="112.221" x2="69" y2="363.329" gradientUnits="userSpaceOnUse">
<stop stop-color="#F9A43A"/>
<stop offset="0.25" stop-color="#FFC45E"/>
<stop offset="0.53125" stop-color="#6DDFE0"/>
<stop offset="0.760417" stop-color="#73E8F2"/>
<stop offset="1" stop-color="#39C7E3"/>
</linearGradient>
</defs>
</svg>
