<svg width="98" height="28" viewBox="0 0 98 28" fill="none" xmlns="http://www.w3.org/2000/svg">
<g clip-path="url(#clip0_7924_398)">
<path fill-rule="evenodd" clip-rule="evenodd" d="M25.3123 10.0943C25.0668 11.3608 24.3866 12.1867 24.2482 12.7761C24.1947 13.0082 24.4685 14.5634 24.4968 15.0069C24.5399 15.7094 24.5325 16.4133 24.467 17.1187V17.1306C24.2974 19.8704 23.3776 22.0581 22.0457 23.6595C21.1111 24.7846 19.9711 25.6224 18.7448 26.1582C17.5229 26.6925 16.2148 26.9276 14.9409 26.8487C13.411 26.755 11.9302 26.2088 10.7039 25.1894L10.6801 25.17L10.6607 25.1581C9.34068 24.3515 8.24832 23.3082 7.27204 22.1444C6.28088 20.9613 5.41325 19.6606 4.55156 18.3539L4.47269 18.2334L4.33279 18.1992C2.48144 17.7467 1.1718 15.5962 0.743193 13.7375C0.601812 13.1243 0.558653 12.5498 0.628599 12.0855C0.688128 11.6837 0.828023 11.3786 1.05572 11.2387C1.33848 11.0646 1.80281 11.1137 2.47995 11.4947L2.91749 11.7417C2.94279 11.5661 3.14817 11.4009 3.16156 11.2432C3.33271 9.30849 3.40117 8.53908 5.28973 6.87673C6.37613 7.21753 7.62177 7.59852 7.94621 7.6134C8.25874 7.30236 8.63674 7.05829 9.08916 6.89012C8.09949 6.91989 4.41018 5.78884 3.73602 5.63406C3.25681 5.52393 2.86689 5.36618 2.57222 5.15783C2.71063 5.0224 2.84606 4.88102 2.98297 4.73815C4.16909 3.5059 5.57993 2.03999 10.5253 2.68142C11.0239 2.74541 10.9509 2.72011 11.5239 2.82875C12.9883 3.10854 13.1014 3.02669 12.1534 1.99088L10.7217 0.426758C13.4229 0.716962 15.9067 1.20361 17.9337 2.05041C19.2567 2.60403 20.3818 3.31243 21.2405 4.22322C21.879 4.89144 22.3537 5.65341 22.6573 6.54188L23.1246 6.62373C24.8897 7.05234 25.6561 8.33221 25.3138 10.0943H25.3123Z" fill="#09090B"/>
<path fill-rule="evenodd" clip-rule="evenodd" d="M19.7565 19.2888C24.9608 14.4104 17.5554 8.14946 14.948 14.8048C12.3883 11.1527 9.52788 12.7838 8.65727 15.473C7.85958 17.9375 8.7421 21.3515 12.802 21.1506C13.2633 28.117 21.4009 25.9129 19.7565 19.2888ZM18.4215 17.3407C17.7578 17.3646 17.1922 16.6264 17.1595 15.6918C17.1268 14.7587 17.6387 13.9833 18.3039 13.9595C18.9677 13.9357 19.5332 14.6738 19.566 15.6084C19.5987 16.5416 19.0868 17.3169 18.4215 17.3407ZM16.0032 19.335C16.8455 19.1073 17.6938 19.1698 17.8962 19.4734C18.1001 19.777 17.5807 20.2071 16.7383 20.4333C15.896 20.661 15.0477 20.5985 14.8453 20.2949C14.6414 19.9913 15.1608 19.5612 16.0032 19.335ZM12.0236 15.034C12.7871 15.0623 13.372 15.9552 13.3333 17.0267C13.2931 18.0982 12.6412 18.9451 11.8793 18.9168C11.1158 18.8885 10.5309 17.9956 10.5711 16.924C10.6113 15.8525 11.2632 15.0057 12.0251 15.034H12.0236Z" fill="#FBBF24"/>
<path fill-rule="evenodd" clip-rule="evenodd" d="M12.1992 9.3457C12.1367 9.00192 12.0742 8.65814 12.0117 8.31288C12.101 8.12982 12.2439 7.97951 12.5281 7.90808C12.9686 7.79051 13.4092 7.67294 13.8497 7.55686C14.119 7.50328 14.3229 7.52709 14.4762 7.61192C14.5402 7.96463 14.6027 8.31883 14.6667 8.67154C14.4852 8.74148 14.2872 8.76232 14.0804 8.75041C13.6145 8.6388 13.171 8.76679 12.738 9.02127C12.5728 9.17754 12.3927 9.27873 12.2007 9.3457H12.1992Z" fill="#FBBF24"/>
<path fill-rule="evenodd" clip-rule="evenodd" d="M14.992 5.07257L19.293 3.92068C19.7276 3.8046 20.1696 3.87604 20.5327 4.08588C20.8958 4.2972 21.1801 4.64396 21.2962 5.07703L22.0105 7.74245C22.1266 8.17701 22.0552 8.61901 21.8453 8.98214C21.6355 9.34527 21.2887 9.62803 20.8556 9.74411L16.5368 11.1133H16.5294C16.1216 11.2011 15.7094 11.1252 15.3685 10.9287C15.0054 10.7189 14.7227 10.3721 14.6066 9.93758L13.8387 7.07423C13.7226 6.63967 13.794 6.19767 14.0038 5.83454C14.2137 5.47141 14.5604 5.18865 14.995 5.07257H14.992ZM21.2217 8.51186C21.3006 8.33327 21.317 8.13087 21.2649 7.94038L20.5506 5.27497C20.491 5.05322 20.3452 4.86422 20.1458 4.74962C19.9463 4.63503 19.7112 4.60378 19.4894 4.66331L15.1885 5.81519C14.9667 5.87472 14.7777 6.02057 14.6631 6.21999C14.5485 6.41941 14.5173 6.65455 14.5768 6.8763L15.3447 9.73965C15.4043 9.96139 15.5486 10.1489 15.7466 10.2635L15.821 10.3067H15.8329C16.013 10.3855 16.2153 10.4019 16.4073 10.3498C17.8375 9.95395 19.2216 9.38545 20.6547 9C20.8765 8.94047 21.064 8.79611 21.1786 8.59818L21.2217 8.52377V8.51186Z" fill="#FBBF24"/>
<path fill-rule="evenodd" clip-rule="evenodd" d="M5.88172 7.42706L10.1827 6.27517C10.6173 6.15909 11.0593 6.23053 11.4224 6.44037C11.7855 6.65021 12.0683 6.99696 12.1844 7.43153L12.9701 10.3663V10.3738C13.0579 10.7815 12.9821 11.1938 12.7856 11.5346C12.5758 11.8977 12.229 12.1805 11.7959 12.2965C10.3628 12.6805 8.92812 13.063 7.49496 13.4499C7.0604 13.566 6.61839 13.4946 6.25527 13.2847C5.89214 13.0734 5.60938 12.7266 5.4933 12.2936L4.72537 9.43022C4.60929 8.99565 4.68072 8.55365 4.89056 8.19052C5.1004 7.82739 5.44716 7.54463 5.88172 7.42855V7.42706ZM12.165 11.0643C12.2439 10.8857 12.2603 10.6833 12.2082 10.4928L11.4417 7.62946C11.3822 7.40772 11.2364 7.21871 11.0369 7.10412C10.8375 6.98952 10.6024 6.95827 10.3806 7.0178L6.07966 8.16969C5.85791 8.22922 5.66891 8.37506 5.55431 8.57449C5.43972 8.77391 5.40847 9.00905 5.468 9.23079L6.23592 12.0941C6.29545 12.3159 6.43981 12.5034 6.63774 12.618L6.71215 12.6612H6.72406C6.90413 12.74 7.10653 12.7564 7.29702 12.7043C8.72721 12.3084 10.1634 11.9364 11.5965 11.5524C11.8168 11.4929 12.0058 11.3485 12.1204 11.1506L12.1635 11.0762V11.0643H12.165Z" fill="#FBBF24"/>
<path fill-rule="evenodd" clip-rule="evenodd" d="M25.2623 10.1444C25.0167 11.4109 24.3366 12.2369 24.1982 12.8262C24.1446 13.0584 24.4185 14.6136 24.4467 15.057C24.4899 15.7595 24.4825 16.4634 24.417 17.1688V17.1807C24.2473 19.9206 23.3276 22.1083 21.9956 23.7096C21.061 24.8347 19.921 25.6726 18.6947 26.2083C17.4729 26.7426 16.1648 26.9777 14.8908 26.8989C13.3609 26.8051 11.8802 26.2589 10.6539 25.2395L10.63 25.2201L10.6107 25.2082C9.29064 24.4016 8.19828 23.3584 7.222 22.1946C6.23085 21.0114 5.36321 19.7107 4.50153 18.4041L4.42265 18.2835L4.28276 18.2493C2.4314 17.7969 1.12176 15.6464 0.693156 13.7876C0.551774 13.1744 0.510103 12.6 0.578561 12.1357C0.638091 11.7338 0.777983 11.4287 1.00568 11.2889C1.28844 11.1147 1.75277 11.1638 2.42992 11.5448L2.86745 11.7919C2.89275 11.6163 3.09813 11.4511 3.11152 11.2933C3.28267 9.35863 3.35113 8.58921 5.23969 6.92687C6.32609 7.26767 7.57174 7.64866 7.89617 7.66354C8.2087 7.3525 8.58671 7.10843 9.03913 6.94026C8.04946 6.97002 4.35866 5.83897 3.68598 5.6842C3.20677 5.57407 2.81685 5.41631 2.52218 5.20796C2.66059 5.07253 2.79602 4.93115 2.93294 4.78828C4.11905 3.55603 5.52989 2.09013 10.4753 2.73155C10.9738 2.79555 10.9009 2.77025 11.4739 2.87889C12.9383 3.15868 13.0514 3.07682 12.1034 2.04102L10.6717 0.476893C13.3728 0.767097 15.8567 1.25375 17.8837 2.10055C19.2067 2.65417 20.3318 3.36256 21.1905 4.27336C21.8289 4.94157 22.3037 5.70354 22.6073 6.59201L23.0746 6.67387C24.8396 7.10248 25.6061 8.38235 25.2638 10.1444H25.2623ZM2.36146 10.6921C1.62776 10.3766 1.05033 10.4019 0.621721 10.6653C0.1946 10.9287 -0.0554222 11.4139 -0.146204 12.0285C-0.228056 12.5806 -0.180435 13.2489 -0.0197061 13.9498C0.447597 15.9768 1.89415 18.3252 3.96874 18.9205C4.82298 20.2137 5.68467 21.4981 6.66094 22.6634C7.6774 23.8763 8.82185 24.9686 10.2104 25.8214C11.5572 26.9331 13.1779 27.5269 14.8477 27.6296C16.2347 27.7144 17.6574 27.4599 18.9864 26.878C20.3124 26.2976 21.5447 25.3928 22.5567 24.1769C23.9824 22.461 24.9676 20.1304 25.1447 17.2239C25.2117 16.4798 25.2206 15.7431 25.176 15.0154C25.1477 14.5659 25.1001 14.118 25.0316 13.6715C24.917 12.9229 24.8947 13.0241 25.1581 12.6461C26.4871 10.7382 26.6463 8.08173 24.8486 6.67982C24.344 6.28693 23.911 6.11429 23.1431 5.94017C22.2501 3.8254 20.4851 2.3967 18.1649 1.42638C16.3716 0.676314 14.242 0.200083 11.9278 -0.106491C11.2313 -0.198761 10.7833 -0.252337 10.0571 -0.317819C8.64772 -0.444318 8.99002 -0.27615 9.88891 0.704591L11.1584 2.09013C5.3766 1.19868 3.75741 2.87889 2.4061 4.28229C1.18576 5.35381 1.092 5.67973 3.52227 6.39706C3.64431 6.42533 3.91368 6.50867 4.35122 6.64559C3.00735 7.52067 2.2171 9.11158 2.35997 10.6936L2.36146 10.6921Z" fill="#FBBF24"/>
<path fill-rule="evenodd" clip-rule="evenodd" d="M2.86822 11.7903C2.83548 11.4421 2.80423 10.9361 2.77148 10.5878C2.87715 10.4137 3.03341 10.4331 3.32064 10.3884C3.77008 10.311 4.21953 10.2321 4.66749 10.1548C4.93983 10.125 5.15711 9.99254 5.30147 10.0923C5.33421 10.4494 5.35058 10.9807 5.38183 11.3379C4.9562 11.4599 3.80134 11.5596 2.86524 11.7918L2.86822 11.7903Z" fill="#FBBF24"/>
<path fill-rule="evenodd" clip-rule="evenodd" d="M21.2327 7.18126C21.2 6.83301 20.9663 6.37613 20.9336 6.02788C21.0393 5.85376 21.1955 5.87311 21.4827 5.82846C21.9322 5.75107 21.8697 5.79125 22.3176 5.71238C22.59 5.68261 22.8073 5.55016 22.9516 5.64987C22.9844 6.00705 23.5439 6.37315 23.5752 6.73032C23.1496 6.85236 22.1658 6.95058 21.2312 7.18275L21.2327 7.18126Z" fill="#FBBF24"/>
<path fill-rule="evenodd" clip-rule="evenodd" d="M18.0349 4.3125L21.6305 6.38709L21.2093 7.11334L17.6152 5.03727L18.0349 4.3125Z" fill="#FBBF24"/>
<path fill-rule="evenodd" clip-rule="evenodd" d="M16.2825 4.89746L21.6729 8.01083L21.2532 8.7356L15.8613 5.62372L16.2825 4.89746Z" fill="#FBBF24"/>
<path fill-rule="evenodd" clip-rule="evenodd" d="M37.7437 21L37.2589 18.4685H34.0673L33.5825 21H30.4785L33.6479 7.00117H37.6537L40.9119 21H37.7425H37.7437ZM34.5077 16.1787H36.7974L35.6526 10.2582L34.5077 16.1787ZM41.9925 7H47.76C49.6093 7 50.5334 7.80724 50.5334 9.42173V13.6694C50.5334 15.2979 49.6093 16.1121 47.76 16.1121H45.1187V20.9988H41.9925V7ZM47.385 13.2512V9.86098C47.385 9.49416 47.1946 9.31075 46.8126 9.31075H45.1175V13.8014H46.8126C47.1946 13.8014 47.385 13.618 47.385 13.2512ZM55.1771 18.6881H59.6678V20.9988H52.0299V7H59.4914V9.31075H55.1771V12.722H58.8535V15.0327H55.1771V18.6869V18.6881Z" fill="#FBBF24"/>
</g>
<path d="M62.0406 21.0059V17.7499H65.2306V21.0059H62.0406ZM72.4191 13.2619V9.87386C72.4191 9.66853 72.3751 9.52919 72.2871 9.45586C72.2137 9.36786 72.0671 9.32386 71.8471 9.32386H67.9091V7.01386H72.7931C73.7904 7.01386 74.5017 7.23386 74.9271 7.67386C75.3524 8.09919 75.5651 8.69319 75.5651 9.45586V13.6799C75.5651 14.4425 75.3524 15.0439 74.9271 15.4839C74.5017 15.9092 73.7904 16.1219 72.7931 16.1219H68.1731V13.8119H71.8471C72.0671 13.8119 72.2137 13.7679 72.2871 13.6799C72.3751 13.5919 72.4191 13.4525 72.4191 13.2619ZM67.0071 7.01386H70.1531V21.0059H67.0071V7.01386ZM82.4523 13.0199V9.87386C82.4523 9.66853 82.4083 9.52919 82.3203 9.45586C82.2469 9.36786 82.1003 9.32386 81.8803 9.32386H77.9423V7.01386H82.8263C83.8236 7.01386 84.5349 7.23386 84.9603 7.67386C85.3856 8.09919 85.5983 8.69319 85.5983 9.45586V13.3499C85.5983 14.0979 85.3856 14.6919 84.9603 15.1319C84.5349 15.5572 83.8236 15.7699 82.8263 15.7699H78.2063V13.5479H81.8803C82.1003 13.5479 82.2469 13.5112 82.3203 13.4379C82.4083 13.3499 82.4523 13.2105 82.4523 13.0199ZM77.0403 7.01386H80.1863V21.0059H77.0403V7.01386ZM80.2083 14.5379H83.3323L86.3023 21.0059H82.9363L80.2083 14.5379ZM92.6548 14.3179V9.87386C92.6548 9.66853 92.6108 9.52919 92.5228 9.45586C92.4494 9.36786 92.3028 9.32386 92.0828 9.32386H91.3348V7.01386H93.0288C94.0261 7.01386 94.7374 7.23386 95.1628 7.67386C95.5881 8.09919 95.8008 8.69319 95.8008 9.45586V14.3179H92.6548ZM92.6548 18.1459V13.7899H95.8008V18.5639C95.8008 19.3265 95.5881 19.9279 95.1628 20.3679C94.7374 20.7932 94.0261 21.0059 93.0288 21.0059H91.2908V18.6959H92.0828C92.3028 18.6959 92.4494 18.6519 92.5228 18.5639C92.6108 18.4759 92.6548 18.3365 92.6548 18.1459ZM90.4328 9.87386V14.3179H87.2868V9.45586C87.2868 8.69319 87.4994 8.09919 87.9248 7.67386C88.3648 7.23386 89.0834 7.01386 90.0808 7.01386H91.7528V9.32386H91.0268C90.8068 9.32386 90.6528 9.36786 90.5648 9.45586C90.4768 9.52919 90.4328 9.66853 90.4328 9.87386ZM90.4328 13.7239V18.1459C90.4328 18.3365 90.4768 18.4759 90.5648 18.5639C90.6528 18.6519 90.8068 18.6959 91.0268 18.6959H91.7308V21.0059H90.0808C89.0834 21.0059 88.3648 20.7932 87.9248 20.3679C87.4994 19.9279 87.2868 19.3265 87.2868 18.5639V13.7239H90.4328Z" fill="#F0BC00"/>
<defs>
<clipPath id="clip0_7924_398">
<rect width="60" height="28" fill="white"/>
</clipPath>
</defs>
</svg>
