<svg width="3244" height="2000" viewBox="0 0 3244 2000" fill="none" xmlns="http://www.w3.org/2000/svg">
<g opacity="0.34">
<path fill-rule="evenodd" clip-rule="evenodd" d="M1821.22 501.159L1821.18 501.099C1816.35 509.431 1798.35 519.311 1762.5 538.973C1748.74 546.47 1732.59 555.328 1706.05 570.562H1705.94L1588.13 638.375H1588.12L1470.31 570.562H1470.18C1444.11 555.567 1427.6 546.49 1413.84 538.983C1377.83 519.282 1359.78 509.401 1355.08 501.258V501.099C1350.25 492.748 1350.64 472.322 1351.52 431.568C1351.78 419.185 1352.1 295.842 1352.28 238.375C1352.32 229.03 1356.94 221.047 1365.07 216.36L1588.13 88.0214L1811.18 216.36C1819.3 221.047 1823.93 229.03 1824 238.375C1824.15 296.03 1824.47 419.175 1824.72 431.518C1825.59 472.192 1826.02 492.699 1821.22 501.159ZM1681.71 782.543L1708.87 798.074V798.093C1733.32 812.155 1749.14 820.863 1762.39 828.083C1798.43 847.784 1816.46 857.675 1821.18 865.808V865.967C1826.02 874.298 1825.59 894.744 1824.72 935.528L1824.51 945.448C1824.36 953.958 1817.39 960.821 1808.83 960.821H1367.41C1358.88 960.821 1351.88 953.958 1351.72 945.448L1351.52 935.528C1351.49 934.238 1350.23 862.313 1355.08 865.967C1359.92 857.635 1377.9 847.755 1413.77 828.113C1427.49 820.615 1443.66 811.777 1470.18 796.514H1470.31L1542.88 754.758C1546.94 752.375 1549.27 748.362 1549.27 743.666C1549.25 739.009 1546.9 734.977 1542.83 732.633L1489.78 702.327C1485.71 700.022 1481.07 700.022 1477.02 702.356L1431 728.84L1431.04 728.89C1413.97 738.72 1393.31 750.041 1375.97 759.525C1327.32 786.127 1302.95 799.533 1287.16 826.782V826.95C1271.44 854.119 1272 881.806 1273.16 937.057C1273.44 951.098 1273.82 967.672 1273.82 1000.03C1273.82 1032.37 1273.44 1048.96 1273.16 1062.99C1272 1118.36 1271.42 1146.08 1287.16 1173.26H1287.22C1303.16 1200.65 1327.49 1214 1376.03 1240.58C1393.33 1250 1413.57 1261.12 1431.04 1271.13L1431 1271.2L1509.69 1316.52L1431 1361.84H1431.04C1413.97 1371.7 1393.31 1383.01 1375.97 1392.52C1327.32 1419.08 1302.95 1432.47 1287.16 1459.76V1459.9C1271.44 1487.11 1272 1514.8 1273.16 1570.05C1273.32 1577.9 1273.51 1667.17 1273.64 1731.1L1191.95 1684.06L1192.01 1684.02L795.879 1456.01V1000.03V544.008L1192.01 316.039L1191.95 315.99L1273.64 268.96C1273.51 332.008 1273.32 422.064 1273.16 430.039C1272 485.41 1271.42 513.105 1287.16 540.305L1287.22 540.284C1303.16 567.682 1327.49 581.028 1376.03 607.601C1393.33 617.045 1413.57 628.157 1431.04 638.197L1431 638.216C1514.71 686.428 1598.04 734.401 1681.71 782.543ZM1705.94 1429.49H1706.05C1732.12 1444.49 1748.66 1453.57 1762.39 1461.06C1798.43 1480.78 1816.46 1490.64 1821.18 1498.78V1498.92C1826.02 1507.27 1825.59 1527.72 1824.72 1568.47C1824.47 1580.68 1824.15 1702.16 1824 1761.66C1823.93 1770.99 1819.31 1779.01 1811.21 1783.66L1588.13 1912.03L1365.07 1783.66C1356.94 1779.01 1352.3 1770.99 1352.25 1761.66C1352.08 1702.16 1351.78 1580.71 1351.52 1568.54C1350.64 1527.87 1350.25 1507.34 1355.03 1498.89L1355.08 1498.92C1359.92 1490.61 1377.9 1480.71 1413.77 1461.06C1427.49 1453.57 1443.66 1444.71 1470.18 1429.49H1470.31L1588.13 1361.66L1705.94 1429.49ZM2437.95 488.985L2022.66 249.964H2022.48L1607.17 10.9821L1588.13 0L1569.06 10.9821L1153.76 249.964H1153.59L738.274 488.985L719.075 500.018V522.012V1000.03V1478.05V1500L738.274 1511.09L1153.59 1750.08H1153.76L1569.06 1989.06L1588.13 2000L1607.17 1989.06L2022.48 1750.08H2022.66L2437.95 1511.09L2457.17 1500V1478.05V1041.98V960.668H2004.65V1038.83L2380.39 1041.98V1456.01L1984.24 1684.02L1984.28 1684.06L1902.62 1731.1C1902.73 1667.17 1902.94 1577.83 1903.09 1569.98C1904.25 1514.62 1904.83 1486.93 1889.07 1459.76H1889C1873.08 1432.37 1848.77 1419.01 1800.24 1392.44L1798.79 1391.68L1798.64 1392.01L1780.73 1381.78L1780.7 1381.75L1779.83 1381.29C1768.13 1374.8 1756.14 1368.11 1745.23 1361.84H1745.27L1680.84 1324.73L1479.12 1209.54L1479.53 1208.86L1470.31 1203.53H1470.18C1444.11 1188.55 1427.6 1179.48 1413.84 1171.96C1408.03 1168.76 1355.08 1141.03 1355.08 1134.05C1350.25 1125.74 1350.64 1105.3 1351.52 1064.51L1351.72 1054.57C1351.88 1046.08 1358.87 1039.24 1367.41 1039.24H1808.83C1817.39 1039.24 1824.36 1046.08 1824.5 1054.57L1824.72 1064.51C1825.59 1105.15 1826.02 1125.63 1821.22 1134.12L1821.18 1134.05C1816.35 1142.4 1798.35 1152.27 1762.5 1171.93C1748.74 1179.44 1732.59 1188.26 1706.05 1203.53H1705.94L1632.62 1245.76C1628.55 1248.09 1626.24 1252.12 1626.24 1256.8C1626.24 1261.49 1628.62 1265.52 1632.66 1267.85L1685.75 1298.13C1689.8 1300.47 1694.42 1300.47 1698.47 1298.13L1745.27 1271.2L1745.23 1271.13C1762.24 1261.34 1782.94 1250 1800.28 1240.54C1848.91 1213.89 1873.29 1200.51 1889.07 1173.26V1173.15C1904.83 1145.93 1904.25 1118.21 1903.09 1062.99C1902.8 1048.88 1902.44 1032.37 1902.44 1000.03C1902.44 967.663 1902.8 951.079 1903.09 937.048C1904.25 881.666 1904.83 853.96 1889.07 826.782H1889C1873.08 799.394 1848.77 786.038 1800.24 759.475C1782.9 750.041 1762.68 738.928 1745.23 728.889L1745.27 728.84L1666.54 683.538L1745.27 638.216L1745.23 638.197C1762.24 628.346 1782.94 617.045 1800.28 607.562C1848.91 580.939 1873.29 567.552 1889.07 540.304V540.156C1904.83 512.946 1904.25 485.242 1903.09 430.008C1902.94 422.055 1902.73 332.057 1902.62 268.97L1984.28 315.99L1984.24 316.039L2380.39 544.008V686.931H2457.17V522.012V500.018L2437.95 488.985Z" fill="#00D9AA"/>
</g>
<g opacity="0.5">
<path d="M509.098 696.092C510.491 696.092 512.348 696.324 514.669 696.789C517.455 697.253 520.009 698.414 522.33 700.271C525.116 702.128 527.438 704.914 529.295 708.628C531.616 712.342 533.009 717.217 533.473 723.253H646.297V776.183H517.455V778.968C517.455 785.933 516.527 791.504 514.669 795.683C512.812 799.397 510.491 802.415 507.705 804.737C504.919 806.594 502.134 807.755 499.348 808.219C496.562 808.683 494.473 808.915 493.08 808.915H197.093C182.7 808.915 171.324 810.54 162.967 813.791C155.074 816.576 148.806 820.987 144.163 827.023C144.163 827.487 143.931 827.951 143.467 828.416C143.467 828.416 143.467 828.648 143.467 829.112H262.558L259.772 835.38C256.987 841.416 254.897 848.148 253.504 855.577C252.576 858.827 251.879 862.309 251.415 866.024C251.415 869.738 251.183 873.452 250.719 877.167V882.042H157.396C157.396 885.756 157.163 889.703 156.699 893.881C156.699 898.06 156.699 902.471 156.699 907.114V983.026H238.879V1007.4H209.629V1077.74H142.77C142.77 1084.24 143.002 1090.28 143.467 1095.85C143.931 1101.42 144.395 1106.76 144.86 1111.87H236.79L237.486 1120.22C238.879 1126.26 240.504 1131.83 242.361 1136.94C244.218 1141.58 246.308 1145.53 248.629 1148.78C253.272 1155.28 259.308 1159.92 266.737 1162.71C275.558 1165.49 287.166 1166.89 301.559 1166.89H496.562C500.741 1166.89 503.759 1166.42 505.616 1165.49C507.473 1164.1 508.866 1162.71 509.794 1161.31C510.723 1159.92 511.652 1156.9 512.58 1152.26C513.973 1147.62 514.669 1139.96 514.669 1129.28V1121.62H423.436L422.739 1067.99H489.598V1036.65H321.059C319.666 1036.65 317.577 1036.42 314.791 1035.95C312.47 1035.49 309.916 1034.33 307.13 1032.47C304.344 1030.15 302.023 1027.13 300.166 1023.42C298.309 1019.24 297.38 1013.67 297.38 1006.7V997.651H312.005V992.776H244.451V953.775C244.451 946.811 245.379 941.471 247.236 937.757C249.094 933.578 251.415 930.56 254.201 928.703C256.987 926.382 259.772 924.989 262.558 924.525C265.344 924.06 267.433 923.828 268.826 923.828H514.669C516.991 923.828 519.777 924.292 523.027 925.221C526.277 925.685 529.527 927.31 532.777 930.096C536.027 932.418 538.581 935.9 540.438 940.543C542.759 945.186 543.92 951.454 543.92 959.347V983.026H611.475V1007.4H596.849V1077.74H529.295V1111.87H621.225V1145.99C621.225 1159.46 620.528 1171.99 619.135 1183.6V1187.78H516.759V1192.65H628.886L628.189 1198.23C625.403 1216.8 620.528 1231.65 613.564 1242.8L612.171 1245.58H520.937C520.937 1246.05 520.473 1246.74 519.545 1247.67C504.687 1269.49 483.562 1280.41 456.168 1280.41H217.289C186.182 1280.41 159.485 1276.23 137.199 1267.87C122.806 1263.23 109.341 1255.33 96.8052 1244.19L87.055 1235.83H160.181C159.253 1234.44 158.092 1233.28 156.699 1232.35C155.771 1230.96 154.842 1229.57 153.913 1228.17C150.663 1224.46 147.645 1220.51 144.86 1216.33C142.538 1212.15 140.217 1207.51 137.895 1202.4H9.75016L8.35729 1199.62C7.4287 1197.3 6.26796 1194.98 4.87508 1192.65C3.9465 1189.87 3.01791 1187.08 2.08932 1184.3L0 1178.03H136.502C135.109 1174.31 133.949 1170.83 133.02 1167.58C132.556 1164.33 131.859 1161.08 130.931 1157.83C128.145 1147.62 126.056 1135.55 124.663 1121.62H33.4291L32.7327 1116.74C31.8041 1110.24 31.1077 1103.51 30.6434 1096.55C30.6434 1089.12 30.4112 1081.46 29.9469 1073.56V1067.99H96.8052V1007.4H4.87508V983.026H43.8758V918.953C43.8758 912.453 43.8758 905.721 43.8758 898.756C44.34 891.792 44.8043 884.363 45.2686 876.47L45.9651 872.292H90.5373C91.0015 866.256 91.4658 860.452 91.9301 854.881C92.3944 848.845 93.0909 843.273 94.0194 838.166H22.9825L24.3754 829.809C24.8397 827.951 25.0719 826.094 25.0719 824.237C25.5361 822.38 26.0004 820.523 26.4647 818.666C30.6434 800.558 36.9113 783.844 45.2686 768.522L46.6615 766.433H174.807C177.128 762.718 178.985 759.468 180.378 756.682C182.235 753.897 184.325 751.343 186.646 749.022C188.967 746.236 191.289 743.45 193.61 740.664C196.396 737.879 199.182 735.093 201.968 732.307H87.7515L100.287 723.95C104.93 720.7 109.573 717.914 114.216 715.592C119.323 712.807 124.431 710.485 129.538 708.628C151.824 700.271 178.521 696.092 209.629 696.092H509.098ZM523.723 723.253C523.259 716.289 521.402 711.646 518.152 709.324C515.366 707.003 512.348 705.842 509.098 705.842H209.629C179.914 705.842 154.378 709.789 133.02 717.682C130.699 718.61 128.609 719.539 126.752 720.468C124.895 721.396 122.806 722.325 120.484 723.253H523.723ZM456.168 1270.66C478.919 1270.66 496.562 1262.3 509.098 1245.58H114.216C118.395 1248.37 122.574 1250.92 126.752 1253.24C130.931 1255.57 135.574 1257.42 140.681 1258.82C162.038 1266.71 187.575 1270.66 217.289 1270.66H456.168ZM149.038 1202.4C152.753 1209.83 156.699 1216.33 160.878 1221.9C163.199 1224.23 165.289 1226.55 167.146 1228.87C169.467 1231.19 171.789 1233.51 174.11 1235.83H606.6C611.243 1227.48 614.957 1216.33 617.743 1202.4H149.038ZM506.312 1192.65C506.776 1191.26 507.009 1189.64 507.009 1187.78H13.9288C14.8574 1189.64 15.5538 1191.26 16.0181 1192.65H506.312ZM321.755 992.776V997.651H601.724V992.776H321.755ZM534.17 983.026V959.347C534.17 942.168 527.67 933.578 514.669 933.578H268.826C265.112 933.578 261.629 934.971 258.379 937.757C255.594 940.078 254.201 945.418 254.201 953.775V983.026H534.17ZM497.258 1026.9L498.651 1029.69C498.651 1029.69 498.651 1029.92 498.651 1030.38C499.116 1030.85 499.348 1032.47 499.348 1035.26C499.348 1037.58 499.348 1041.29 499.348 1046.4C499.348 1051.51 499.348 1058.71 499.348 1067.99H587.099V1007.4H306.434C306.898 1015.29 308.523 1020.63 311.309 1023.42C314.559 1025.74 317.809 1026.9 321.059 1026.9H497.258ZM520.241 1111.87V1077.74H432.489V1111.87H520.241ZM134.413 1121.62C135.342 1128.12 136.27 1134.15 137.199 1139.72C138.127 1145.3 139.056 1150.64 139.985 1155.74C140.913 1159.46 141.842 1163.17 142.77 1166.89C144.163 1170.6 145.556 1174.31 146.949 1178.03H610.082C610.546 1172.92 610.778 1167.81 610.778 1162.71C611.243 1157.14 611.475 1151.56 611.475 1145.99V1121.62H524.42V1129.28C524.42 1147.85 522.098 1160.39 517.455 1166.89C513.741 1173.39 506.776 1176.64 496.562 1176.64H301.559C285.773 1176.64 273.237 1175.01 263.951 1171.76C254.201 1168.05 246.54 1162.24 240.968 1154.35C234.933 1146.92 230.754 1136.01 228.432 1121.62H134.413ZM135.109 1111.87C134.645 1106.76 134.181 1101.42 133.717 1095.85C133.717 1090.28 133.484 1084.24 133.02 1077.74H39.6971C40.1614 1084.24 40.3935 1090.28 40.3935 1095.85C40.8578 1101.42 41.3221 1106.76 41.7864 1111.87H135.109ZM199.878 1007.4H106.555V1067.99H199.878V1007.4ZM14.6253 992.776V997.651H229.129V992.776H14.6253ZM146.949 907.114C146.949 902.471 146.949 898.06 146.949 893.881C147.413 889.703 147.878 885.756 148.342 882.042H55.0188C54.5545 888.542 54.0902 894.81 53.6259 900.846C53.6259 906.881 53.6259 912.917 53.6259 918.953V983.026H146.949V907.114ZM104.466 838.166C102.609 848.38 101.216 859.756 100.287 872.292H241.665C242.129 868.577 242.361 865.327 242.361 862.541C242.826 859.756 243.29 856.97 243.754 854.184C244.683 851.398 245.379 848.613 245.843 845.827C246.308 843.041 247.004 840.487 247.933 838.166H104.466ZM507.705 776.183H52.233C45.2686 789.647 39.9292 804.505 36.2149 820.755L34.1256 829.112H132.324C134.181 825.398 135.574 822.844 136.502 821.451C142.074 814.023 149.735 808.451 159.485 804.737C170.628 801.022 183.164 799.165 197.093 799.165H493.08C496.794 799.165 500.044 798.005 502.83 795.683C506.08 792.897 507.705 787.326 507.705 778.968V776.183ZM636.547 732.307H217.986C213.343 736.021 208.932 739.736 204.753 743.45C201.039 746.7 197.325 750.647 193.61 755.29C190.825 759.004 188.503 762.718 186.646 766.433H636.547V732.307Z" fill="#00FFC8"/>
<path d="M1002.85 807.523C1000.53 807.523 996.584 806.594 991.013 804.737C985.906 802.88 982.191 797.54 979.87 788.719H935.994V784.54C935.53 782.683 935.298 780.826 935.298 778.968V735.789H1013.3V731.611H935.298V724.646C935.298 717.682 936.226 712.342 938.083 708.628C940.405 704.449 942.726 701.431 945.048 699.574C947.834 697.253 950.619 695.86 953.405 695.396C956.191 694.931 958.28 694.699 959.673 694.699H1359.43C1360.82 694.699 1362.68 694.931 1365 695.396C1367.79 695.86 1370.57 697.021 1373.36 698.878C1376.14 700.735 1378.47 703.521 1380.32 707.235C1382.64 710.95 1383.81 715.825 1383.81 721.86H1461.81V745.539H1383.81V778.968H1427.68L1426.98 784.54C1426.06 793.362 1423.04 799.63 1417.93 803.344C1413.29 806.594 1408.41 808.219 1403.31 808.219L1002.85 807.523ZM989.62 788.719C991.013 792.433 992.87 794.987 995.191 796.38C997.977 797.308 1000.53 797.772 1002.85 797.772L1403.31 798.469C1405.63 798.469 1407.95 797.772 1410.27 796.38C1413.06 794.987 1414.91 792.433 1415.84 788.719H989.62ZM1023.05 731.611V735.789H1452.06V731.611H1023.05ZM1374.06 721.86C1373.59 714.896 1371.73 710.253 1368.48 707.932C1365.7 705.61 1362.68 704.449 1359.43 704.449H959.673C956.423 704.449 953.173 705.61 949.923 707.932C947.137 710.253 945.512 714.896 945.048 721.86H1374.06ZM1374.06 778.968V745.539H945.048V778.968H1374.06ZM1422.11 1160.62C1423.5 1164.33 1424.2 1169.21 1424.2 1175.24V1216.33H1482V1240.01H1425.59V1251.16C1425.59 1261.83 1422.81 1269.49 1417.23 1274.14C1412.13 1278.32 1406.56 1280.41 1400.52 1280.41H1153.28C1122.18 1280.41 1095.48 1276.23 1073.19 1267.87C1055.09 1261.37 1039.53 1251.62 1026.53 1238.62L1018.17 1230.26H1075.98L1073.89 1228.17C1073.89 1228.17 1073.42 1227.24 1072.5 1225.39H1014.69L1013.3 1223.3C1000.3 1205.19 991.013 1183.37 985.441 1157.83L984.048 1152.26L989.62 1150.87H1044.64C1043.71 1145.76 1042.78 1140.42 1041.85 1134.85C1041.39 1129.28 1040.92 1123.47 1040.46 1117.44H983.352L982.656 1113.26C982.191 1107.22 981.727 1101.42 981.263 1095.85C981.263 1089.81 981.031 1083.55 980.566 1077.04V1072.17H1048.82V1063.81H980.566L981.263 1038.04H1023.05V1033.87H980.566L981.263 982.329L1013.3 981.633C1013.76 980.24 1014.23 978.847 1014.69 977.454C1015.16 975.597 1015.62 973.972 1016.08 972.579H983.352L988.227 964.222C988.227 963.757 988.227 963.525 988.227 963.525C988.691 963.061 988.924 962.597 988.924 962.132C994.495 952.846 1001.69 945.418 1010.51 939.846C1019.8 934.275 1029.78 931.025 1040.46 930.096L1400.52 929.4C1401.91 929.4 1403.77 929.632 1406.09 930.096C1408.88 930.56 1411.66 931.953 1414.45 934.275C1417.23 936.132 1419.56 938.918 1421.41 942.632C1423.27 946.346 1424.2 951.686 1424.2 958.65V962.829H1456.93V992.079H1424.2V1013.67C1424.2 1018.31 1423.97 1021.79 1423.5 1024.12H1467.38L1463.2 1031.08C1460.41 1036.19 1456.93 1039.44 1452.75 1040.83C1448.57 1041.76 1445.32 1042.22 1443 1042.22H1136.57V1042.92L1135.87 1047.79H1094.09V1054.76H1351.07V1081.92H1093.39V1088.88C1093.85 1090.28 1094.09 1091.9 1094.09 1093.76C1094.09 1095.62 1094.32 1097.24 1094.78 1098.63C1095.25 1100.96 1095.94 1103.97 1096.87 1107.69H1153.28L1154.68 1111.17C1157 1119.06 1159.55 1124.64 1162.34 1127.89C1164.66 1131.14 1167.21 1133.92 1170 1136.24C1173.25 1138.56 1176.96 1140.42 1181.14 1141.81C1189.5 1144.6 1200.87 1145.99 1215.27 1145.99H1460.41C1462.74 1145.99 1465.29 1146.46 1468.07 1147.39C1470.86 1147.85 1473.88 1149.24 1477.13 1151.56L1486.88 1160.62H1422.11ZM1050.21 1117.44C1050.67 1123.94 1051.37 1129.97 1052.3 1135.55C1053.23 1140.65 1054.16 1145.76 1055.09 1150.87H1177.66C1167.91 1147.15 1160.25 1141.35 1154.68 1133.46C1151.43 1129.28 1148.64 1123.94 1146.32 1117.44H1050.21ZM1058.57 1063.81V1072.17H1341.32V1063.81H1058.57ZM1126.82 1038.04C1127.75 1035.72 1128.44 1034.33 1128.91 1033.87H1032.8V1038.04H1126.82ZM1026.53 972.579C1025.6 974.436 1024.91 976.061 1024.44 977.454C1023.98 978.847 1023.51 980.472 1023.05 982.329H1447.18V972.579H1026.53ZM1415.15 962.829V958.65C1415.15 950.757 1413.52 945.65 1410.27 943.328C1407.02 940.543 1403.77 939.15 1400.52 939.15L1041.16 939.846C1023.98 941.239 1010.28 948.9 1000.07 962.829H1415.15ZM1413.06 1024.12C1413.52 1022.72 1413.98 1021.33 1414.45 1019.94C1414.91 1018.08 1415.15 1015.99 1415.15 1013.67V992.079H991.013L990.316 1024.12H1413.06ZM1084.34 1054.76V1047.79H990.316V1054.76H1084.34ZM1087.12 1107.69C1086.66 1106.76 1086.19 1105.6 1085.73 1104.21C1085.73 1102.81 1085.5 1101.65 1085.03 1100.72C1084.57 1098.87 1084.34 1097.01 1084.34 1095.15C1084.34 1093.3 1084.1 1091.44 1083.64 1089.58V1081.92H990.316C990.781 1086.56 991.013 1090.97 991.013 1095.15C991.477 1099.33 991.941 1103.51 992.406 1107.69H1087.12ZM1415.84 1240.01H1042.55C1051.84 1247.91 1063.21 1254.17 1076.68 1258.82C1098.03 1266.71 1123.57 1270.66 1153.28 1270.66H1400.52C1404.23 1270.66 1407.72 1269.49 1410.97 1267.17C1414.22 1264.39 1415.84 1259.05 1415.84 1251.16V1240.01ZM1085.03 1225.39C1085.96 1226.78 1087.35 1228.4 1089.21 1230.26H1472.25V1225.39H1085.03ZM1415.15 1175.24C1415.15 1168.74 1413.52 1163.87 1410.27 1160.62H995.888C1001.92 1182.9 1009.82 1201.48 1019.57 1216.33H1415.15V1175.24Z" fill="#00FFC8"/>
<path d="M2379.87 778.272V822.844H2303.26V863.238H2351.32V992.079H2379.18V1018.54H2320.68V1100.03H2299.78V1141.12H2365.25V1184.99C2365.25 1192.42 2365.02 1199.39 2364.55 1205.89C2364.09 1211.92 2363.39 1217.73 2362.46 1223.3L2361.77 1227.48H2304.66C2303.73 1231.19 2303.26 1233.51 2303.26 1234.44H2310.93L2308.84 1240.71C2306.98 1248.14 2304.19 1253.94 2300.48 1258.12C2289.34 1272.51 2272.85 1279.71 2251.03 1279.71H2200.19C2195.08 1279.71 2190.44 1279.71 2186.26 1279.71C2182.55 1279.24 2179.07 1278.78 2175.82 1278.32C2167.92 1276.92 2160.96 1274.14 2154.92 1269.96C2149.35 1265.78 2143.78 1260.21 2138.21 1253.24C2137.28 1251.85 2136.12 1250.46 2134.73 1249.07C2133.8 1247.67 2132.87 1246.05 2131.94 1244.19H2093.64L2092.24 1242.1C2088.53 1237.46 2085.05 1232.35 2081.8 1226.78L2075.53 1217.73H2166.76L2128.46 1150.87H2062.99L2029.56 1090.97H2050.46L2004.49 1008.79H2049.76L2045.58 1001.83H2030.96L1958.53 872.988H1941.12V992.079H1991.96V1018.54H1910.47V1090.97H1949.47V1227.48H1900.72V1234.44H1957.13V1251.16C1957.13 1257.66 1955.97 1262.99 1953.65 1267.17C1951.79 1270.89 1949.47 1273.67 1946.69 1275.53C1944.37 1277.39 1941.81 1278.55 1939.03 1279.01C1936.24 1279.48 1934.15 1279.71 1932.76 1279.71H1870.77C1869.38 1279.71 1867.29 1279.48 1864.51 1279.01C1861.72 1278.55 1858.94 1277.39 1856.15 1275.53C1853.36 1273.67 1850.81 1270.89 1848.49 1267.17C1846.63 1262.99 1845.7 1257.66 1845.7 1251.16V1244.19H1789.29V1217.73H1838.04V1150.87H1776.06V1090.97H1799.04V1018.54H1785.81V992.079H1829.68V872.988H1781.63V813.094H1824.81V788.022H1785.11V783.147C1785.58 772.004 1786.27 762.254 1787.2 753.897C1788.59 745.075 1790.45 737.414 1792.77 730.914L1794.17 728.128H1845.7C1847.56 723.95 1849.65 720.467 1851.97 717.682C1863.11 703.289 1879.36 696.092 1900.72 696.092H1952.95C1958.06 696.092 1962.7 696.324 1966.88 696.789C1971.06 696.789 1975.01 697.021 1978.72 697.485C1986.62 698.878 1993.58 701.896 1999.62 706.539C2004.72 710.253 2010.3 716.057 2016.33 723.95L2020.51 730.218L2025.38 737.879H1973.15C1974.08 739.736 1975.01 741.593 1975.94 743.45C1977.33 744.843 1978.49 746.7 1979.42 749.022L1996.13 778.272H2035.83L2060.9 822.844H2017.72L2040.71 863.238H2088.76L2161.19 992.079H2175.82L2190.44 1018.54H2145.17L2189.05 1097.24V1090.97H2209.94V1018.54H2204.37V992.079H2241.28V872.988H2136.12V813.094H2235.71V788.022H2196.01V728.128H2247.55V724.646C2247.55 713.967 2250.1 706.539 2255.21 702.36C2260.32 698.181 2265.89 696.092 2271.92 696.092H2333.91C2339.94 696.092 2345.51 698.181 2350.62 702.36C2355.73 706.539 2358.28 713.967 2358.28 724.646V737.879H2306.75V778.272H2379.87ZM2271.92 705.842C2268.67 705.842 2265.42 707.003 2262.17 709.324C2258.92 711.646 2257.3 716.753 2257.3 724.646V728.128H2348.53V724.646C2348.53 716.753 2346.91 711.646 2343.66 709.324C2340.87 707.003 2337.62 705.842 2333.91 705.842H2271.92ZM2297 778.272V737.879H2205.76V778.272H2297ZM2189.05 1100.03H2170.24L2189.05 1134.15V1100.03ZM2056.72 1001.83L2060.9 1008.79H2173.73L2170.24 1001.83H2056.72ZM1834.56 788.022V813.094H2044.19L2030.26 788.022H1834.56ZM1900.72 705.842C1882.15 705.842 1868.45 711.646 1859.63 723.253C1859.17 724.182 1858.7 725.11 1858.24 726.039C1857.77 726.503 1857.31 727.2 1856.85 728.128H2007.28C2002.63 721.628 1998.22 716.985 1994.04 714.2C1989.4 710.949 1983.6 708.628 1976.63 707.235C1973.38 706.771 1969.9 706.539 1966.19 706.539C1962.47 706.074 1958.06 705.842 1952.95 705.842H1900.72ZM1984.99 778.272L1971.06 753.897C1969.21 750.647 1967.58 747.861 1966.19 745.539C1964.79 742.754 1963.4 740.2 1962.01 737.879H1801.13C1797.88 747.629 1795.79 761.093 1794.86 778.272H1984.99ZM1855.45 1244.19V1251.16C1855.45 1259.05 1857.08 1264.16 1860.33 1266.48C1863.58 1268.8 1867.06 1269.96 1870.77 1269.96H1932.76C1936.01 1269.96 1939.26 1268.8 1942.51 1266.48C1945.76 1264.16 1947.38 1259.05 1947.38 1251.16V1244.19H1855.45ZM1890.97 1234.44V1227.48H1799.04V1234.44H1890.97ZM1785.81 1100.03V1141.12H1847.79V1217.73H1939.72V1100.03H1785.81ZM1900.72 1018.54H1808.79V1090.97H1900.72V1018.54ZM1795.56 1001.83V1008.79H1982.21V1001.83H1795.56ZM1931.37 872.988H1839.43V992.079H1931.37V872.988ZM2029.56 863.238L2006.58 822.844H1791.38V863.238H2029.56ZM2150.05 992.079L2083.19 872.988H1969.67L2036.53 992.079H2150.05ZM2061.6 1090.97H2174.42L2134.03 1018.54H2020.51L2061.6 1090.97ZM2182.08 1141.12L2159.1 1100.03H2046.28L2068.56 1141.12H2182.08ZM2292.82 1252.55C2294.21 1250.69 2295.6 1247.91 2297 1244.19H2143.78C2144.24 1245.12 2144.48 1245.82 2144.48 1246.28C2144.94 1246.28 2145.4 1246.74 2145.87 1247.67C2150.51 1254.17 2155.39 1259.05 2160.49 1262.3C2162.82 1263.69 2165.37 1265.08 2168.15 1266.48C2170.94 1267.41 2173.96 1268.1 2177.21 1268.57C2180.46 1269.49 2183.94 1269.96 2187.66 1269.96C2191.37 1269.96 2195.55 1269.96 2200.19 1269.96H2251.03C2270.07 1269.96 2284 1264.16 2292.82 1252.55ZM2292.82 1234.44C2293.75 1231.65 2294.44 1229.33 2294.91 1227.48H2093.64C2095.03 1230.26 2096.65 1232.58 2098.51 1234.44H2292.82ZM2139.6 1150.87L2177.21 1217.73H2353.41C2354.8 1208.9 2355.5 1197.99 2355.5 1184.99V1150.87H2139.6ZM2290.03 1100.03H2198.8V1141.12H2290.03V1100.03ZM2310.93 1018.54H2219.69V1090.97H2310.93V1018.54ZM2214.12 1001.83V1008.79H2369.43V1001.83H2214.12ZM2250.33 872.988V992.079H2341.57V872.988H2250.33ZM2293.51 822.844H2145.17V863.238H2293.51V822.844ZM2245.46 788.022V813.094H2370.12V788.022H2245.46Z" fill="#00FFC8"/>
<path d="M3236.09 826.326C3238.88 839.791 3240.73 854.184 3241.66 869.506C3243.06 884.827 3243.75 901.31 3243.75 918.953V960.739H3206.14V967.704H3232.61V1049.88H3243.75V1056.85C3243.75 1065.21 3243.52 1073.56 3243.06 1081.92C3243.06 1089.81 3242.82 1097.71 3242.36 1105.6L3241.66 1109.78H3220.77C3219.84 1119.06 3218.68 1127.65 3217.29 1135.55C3216.36 1143.44 3215.2 1150.87 3213.81 1157.83C3212.88 1162.01 3211.72 1166.19 3210.32 1170.37C3209.39 1174.08 3208 1178.49 3206.14 1183.6L3205.45 1186.39H3178.29C3176.89 1188.71 3175.97 1191.26 3175.5 1194.05H3220.77L3217.98 1201.01C3215.2 1206.12 3212.41 1210.99 3209.63 1215.64C3207.31 1220.28 3204.52 1224.46 3201.27 1228.17C3194.77 1236.99 3185.95 1245.35 3174.81 1253.24L3173.41 1253.94H3135.8C3126.05 1259.98 3116.54 1264.62 3107.25 1267.87C3096.11 1272.05 3083.8 1275.07 3070.34 1276.92C3056.87 1278.78 3042.48 1279.71 3027.16 1279.71H2857.23C2841.44 1279.71 2826.82 1278.78 2813.35 1276.92C2800.35 1275.07 2788.28 1272.05 2777.14 1267.87C2766.46 1264.62 2756.71 1259.74 2747.89 1253.24L2735.35 1244.19H2774.35C2767.85 1238.62 2762.74 1233.28 2759.03 1228.17C2756.24 1224.46 2753.46 1220.74 2750.67 1217.03C2748.35 1212.85 2746.03 1208.44 2743.71 1203.8H2679.64L2678.24 1201.01C2677.31 1198.23 2676.15 1195.44 2674.76 1192.65C2673.37 1189.87 2672.21 1186.85 2671.28 1183.6L2669.19 1177.33H2714.46C2713.53 1173.62 2712.6 1170.37 2711.67 1167.58C2711.21 1164.33 2710.51 1161.08 2709.58 1157.83C2707.73 1150.87 2706.1 1143.44 2704.71 1135.55C2703.78 1127.65 2702.85 1119.06 2701.92 1109.78H2680.33V1105.6C2678.94 1089.81 2678.24 1073.56 2678.24 1056.85V1049.88H2703.31V977.454H2670.58V950.989H2720.73V918.953C2720.73 902.703 2721.19 887.381 2722.12 872.988C2723.51 858.595 2725.37 845.13 2727.69 832.594H2676.85L2678.94 823.541C2678.94 822.612 2678.94 821.916 2678.94 821.451C2679.4 820.523 2679.64 819.594 2679.64 818.666C2683.35 802.415 2688.46 787.79 2694.96 774.79L2696.35 772.701H2728.39C2733.03 763.415 2737.9 755.522 2743.01 749.022C2744.4 747.164 2745.8 745.539 2747.19 744.146C2748.58 742.289 2750.21 740.664 2752.07 739.271L2753.46 737.879H2791.76C2804.3 724.878 2819.39 715.128 2837.03 708.628C2859.32 700.271 2886.01 696.092 2917.12 696.092H3087.05C3118.16 696.092 3144.86 700.271 3167.14 708.628C3185.72 714.664 3201.73 724.878 3215.2 739.271L3222.86 747.629H3184.56C3184.56 747.629 3184.79 748.093 3185.25 749.022C3190.82 755.057 3196.16 763.647 3201.27 774.79L3204.75 781.754H3172.02C3174.81 787.79 3177.13 793.826 3178.98 799.862C3180.84 805.898 3182.47 812.165 3183.86 818.666C3184.32 819.594 3184.56 820.987 3184.56 822.844H3235.4L3236.09 826.326ZM2840.51 717.682C2834.01 720.003 2827.75 722.789 2821.71 726.039C2816.14 729.289 2810.8 733.236 2805.69 737.879H3199.18C3194.07 733.236 3188.5 729.289 3182.47 726.039C3176.89 722.789 3170.86 720.003 3164.36 717.682C3143.93 709.789 3118.16 705.842 3087.05 705.842H2917.12C2902.26 705.842 2888.34 706.771 2875.34 708.628C2862.8 710.485 2851.19 713.503 2840.51 717.682ZM2750.67 754.593C2748.35 756.915 2746.26 759.7 2744.4 762.95C2743.01 765.736 2741.39 768.986 2739.53 772.701H3189.43C3187.57 768.986 3185.72 765.736 3183.86 762.95C3182 760.165 3180.14 757.379 3178.29 754.593L3171.32 747.629H2757.64C2756.24 748.557 2754.85 749.718 2753.46 751.111C2752.53 752.504 2751.6 753.665 2750.67 754.593ZM2788.98 822.844C2788.98 822.38 2788.98 822.148 2788.98 822.148C2789.44 822.148 2789.67 821.916 2789.67 821.451C2795.24 814.023 2802.91 808.451 2812.66 804.737C2822.87 801.022 2835.41 799.165 2850.26 799.165H3013.23C3027.16 799.165 3039.7 801.022 3050.84 804.737C3060.59 808.451 3068.25 814.023 3073.82 821.451C3073.82 821.916 3073.82 822.148 3073.82 822.148C3074.29 822.148 3074.52 822.38 3074.52 822.844H3174.81V820.755C3171.09 806.826 3166.68 793.826 3161.57 781.754H2701.92C2696.81 793.826 2692.4 806.826 2688.69 820.755V822.844H2788.98ZM3075.91 977.454V950.989H3130.93V907.114C3130.93 896.899 3130.46 887.613 3129.54 879.256C3129.07 870.434 3128.38 862.773 3127.45 856.273C3126.52 851.166 3125.36 846.755 3123.96 843.041C3123.04 839.327 3121.64 835.844 3119.79 832.594H3068.95L3066.86 828.416C3066.39 828.416 3066.16 827.951 3066.16 827.023C3061.52 820.987 3055.25 816.576 3047.36 813.791C3039 810.54 3027.62 808.915 3013.23 808.915H2850.26C2835.41 808.915 2824.03 810.54 2816.14 813.791C2809.64 816.112 2804.76 819.13 2801.51 822.844H2850.96L2846.78 829.809C2842.14 837.702 2839.12 846.523 2837.73 856.273C2834.94 869.738 2833.55 886.685 2833.55 907.114V950.989H2972.84V977.454H2816.14V1059.63H2791.07V1069.38C2791.07 1074.49 2791.07 1079.6 2791.07 1084.71C2791.07 1089.81 2791.53 1094.92 2792.46 1100.03H2814.05L2814.75 1104.21C2814.75 1106.99 2814.75 1109.78 2814.75 1112.56C2815.21 1114.88 2815.67 1117.21 2816.14 1119.53C2818.92 1132.53 2822.64 1142.28 2827.28 1148.78C2831.46 1155.28 2837.5 1159.92 2845.39 1162.71C2854.21 1165.49 2865.82 1166.89 2880.21 1166.89H3042.48C3056.41 1166.89 3068.02 1165.49 3077.3 1162.71C3085.2 1159.92 3091.23 1155.28 3095.41 1148.78C3100.98 1140.89 3104.7 1131.14 3106.55 1119.53C3107.02 1117.21 3107.25 1114.88 3107.25 1112.56C3107.71 1109.78 3108.18 1106.99 3108.64 1104.21V1100.03H3129.54C3130.46 1095.38 3130.93 1090.51 3130.93 1085.4C3130.93 1080.3 3130.93 1074.96 3130.93 1069.38V1059.63H3093.32V977.454H3075.91ZM2713.07 1049.88H2806.39V977.454H2713.07V1049.88ZM2827.98 854.881C2829.37 846.059 2831.46 838.63 2834.25 832.594H2737.44C2735.12 844.666 2733.26 858.131 2731.87 872.988C2730.94 887.381 2730.48 902.703 2730.48 918.953V950.989H2824.5V907.114C2824.5 896.435 2824.73 886.917 2825.19 878.559C2825.66 869.738 2826.58 861.845 2827.98 854.881ZM2963.09 967.704V960.739H2680.33V967.704H2963.09ZM2782.71 1100.03C2782.24 1094.92 2781.78 1090.05 2781.32 1085.4C2781.32 1080.3 2781.32 1074.96 2781.32 1069.38V1059.63H2687.99C2687.99 1066.6 2687.99 1073.56 2687.99 1080.53C2687.99 1087.03 2688.46 1093.53 2689.39 1100.03H2782.71ZM3103.77 1258.82C3106.09 1257.89 3108.18 1257.19 3110.04 1256.73C3111.89 1255.8 3113.98 1254.87 3116.3 1253.94H2768.08C2770.41 1254.87 2772.49 1255.8 2774.35 1256.73C2776.21 1257.19 2778.3 1257.89 2780.62 1258.82C2801.05 1266.24 2826.58 1269.96 2857.23 1269.96H3027.16C3057.8 1269.96 3083.34 1266.24 3103.77 1258.82ZM2754.85 1203.8C2756.71 1207.05 2758.57 1210.3 2760.42 1213.55C2762.28 1216.8 2764.37 1219.58 2766.69 1221.9C2773.19 1230.73 2780.85 1238.15 2789.67 1244.19H3170.63C3179.45 1238.15 3187.11 1230.73 3193.61 1221.9C3195.93 1219.12 3198.02 1216.33 3199.88 1213.55C3201.73 1210.76 3203.59 1207.51 3205.45 1203.8H2754.85ZM3164.36 1194.05C3165.29 1192.65 3165.75 1191.49 3165.75 1190.56C3166.22 1189.17 3166.91 1187.78 3167.84 1186.39H2683.12C2683.58 1187.78 2684.05 1189.17 2684.51 1190.56C2684.98 1191.49 2685.44 1192.65 2685.9 1194.05H3164.36ZM3204.06 1155.74C3207.31 1143.67 3209.63 1128.35 3211.02 1109.78H3117.7C3117.23 1112.1 3116.77 1114.19 3116.3 1116.05C3116.3 1117.9 3116.07 1119.76 3115.61 1121.62C3113.75 1135.55 3109.8 1146.46 3103.77 1154.35C3097.73 1162.71 3089.84 1168.51 3080.09 1171.76C3074.98 1173.15 3069.41 1174.31 3063.37 1175.24C3057.34 1176.17 3050.37 1176.64 3042.48 1176.64H2880.21C2872.32 1176.64 2865.35 1176.17 2859.32 1175.24C2853.28 1174.31 2847.71 1173.15 2842.6 1171.76C2832.85 1168.05 2825.19 1162.24 2819.62 1154.35C2813.58 1146.92 2809.41 1136.01 2807.08 1121.62C2806.62 1119.76 2806.16 1117.9 2805.69 1116.05C2805.69 1114.19 2805.46 1112.1 2805 1109.78H2711.67C2712.6 1118.6 2713.53 1126.96 2714.46 1134.85C2715.85 1142.28 2717.24 1149.24 2718.64 1155.74C2720.03 1162.24 2722.12 1169.44 2724.9 1177.33H3198.48C3199.41 1173.62 3200.34 1170.14 3201.27 1166.89C3202.2 1163.17 3203.13 1159.46 3204.06 1155.74ZM3140.68 1059.63V1069.38C3140.68 1074.96 3140.45 1080.3 3139.98 1085.4C3139.98 1090.05 3139.75 1094.92 3139.29 1100.03H3232.61C3233.54 1093.53 3234 1087.03 3234 1080.53C3234 1073.56 3234 1066.6 3234 1059.63H3140.68ZM3103.07 977.454V1049.88H3222.86V977.454H3103.07ZM3197.09 960.739H3085.66V967.704H3197.09V960.739ZM3234 918.953C3234 885.988 3231.91 857.202 3227.73 832.594H3130.23C3131.63 835.844 3132.79 839.327 3133.72 843.041C3135.11 846.755 3136.27 850.702 3137.2 854.881C3138.13 861.845 3138.82 869.738 3139.29 878.559C3140.22 886.917 3140.68 896.435 3140.68 907.114V950.989H3234V918.953Z" fill="#00FFC8"/>
</g>
<path fill-rule="evenodd" clip-rule="evenodd" d="M981.204 787.092C983.236 803.346 994.749 805.377 1000.17 805.377L1380.78 806.055C1385.52 806.055 1397.03 803.346 1399.06 787.092H1365.2C1365.2 786.483 1365.34 785.874 1365.49 785.204C1365.67 784.383 1365.88 783.47 1365.88 782.351V745.103H1399.06V731.558H1365.88V728.849C1365.88 707.855 1352.33 705.146 1346.91 705.146H991.362C985.267 705.146 972.4 707.855 972.4 729.527V731.558H1014.39V745.103H972.4V782.351C972.4 783.706 972.4 785.737 973.077 787.092H981.204ZM641.229 985.523H537.612V957.756C537.612 932.021 522.712 927.957 513.908 927.957H307.35C301.932 927.957 288.387 930.666 288.387 952.338V985.523H320.895V999.745H306.673V1003.81C306.673 1025.48 319.54 1028.19 324.958 1028.19H475.983H493.591C493.591 1028.19 494.268 1047.15 494.268 1068.15H396.746C396.746 1076.64 396.947 1085.33 397.13 1093.24V1093.24V1093.24V1093.24V1093.24C397.283 1099.84 397.423 1105.88 397.423 1110.81H517.972C517.972 1118.26 518.649 1123 518.649 1123C518.649 1144 515.263 1152.8 512.554 1156.86C509.168 1162.28 503.75 1164.31 495.623 1164.31H454.311H305.996H264.684C250.462 1164.31 238.272 1162.96 229.468 1159.57C220.663 1156.86 214.568 1152.12 209.15 1144.67C204.41 1137.9 200.346 1127.74 198.314 1114.88C197.637 1113.52 197.637 1112.17 197.637 1110.81H150.23C148.199 1099.3 147.521 1085.08 147.521 1068.15H194.251V1064.08V985.523H161.066V906.963C161.066 896.127 161.066 886.646 161.744 877.842H331.731C332.408 869.715 333.085 862.942 334.44 856.17C335.794 848.043 337.826 841.271 340.535 835.853H144.813C145.738 833.539 146.98 831.225 148.106 829.127L148.106 829.126C148.628 828.154 149.124 827.229 149.553 826.371C154.971 819.599 161.744 814.858 169.87 811.472C179.352 808.763 190.865 806.731 205.087 806.731H264.684H492.914C498.332 806.731 511.877 804.7 511.877 783.028V774.901H571.474V732.912H526.776V730.203C526.776 709.209 513.908 706.5 508.49 706.5H261.298C231.499 706.5 205.764 710.563 184.77 718.013C174.611 722.076 165.807 726.817 157.68 732.912H223.372C213.891 739.007 205.087 747.134 198.314 755.938C193.574 762.033 189.51 768.129 186.124 774.901H120.432C112.982 788.446 106.887 804.022 102.824 822.308C102.146 826.371 101.469 831.112 100.792 835.853H110.273C108.242 848.72 106.21 862.265 105.533 877.842H95.374C94.6968 890.709 94.0195 904.254 94.0195 918.476V999.745H111.628V1052.57C111.628 1055.37 111.809 1058.17 111.983 1060.87C112.147 1063.41 112.305 1065.85 112.305 1068.15H94.0195C94.6968 1083.72 95.374 1097.27 96.7285 1110.81H138.717C140.072 1125.03 142.104 1137.9 144.813 1150.09C146.844 1158.9 149.553 1167.02 152.262 1175.15L152.262 1175.15H110.273L116.368 1189.37H150.23C154.971 1199.53 159.712 1208.33 166.484 1216.46C170.548 1221.88 175.288 1226.62 180.706 1231.36H146.844C157.68 1240.84 170.548 1248.29 184.77 1253.71C205.764 1261.16 231.499 1265.22 261.298 1265.22H456.343C481.401 1265.22 501.041 1255.06 514.586 1235.42C515.263 1234.07 515.94 1232.72 517.295 1231.36H610.076C616.171 1220.52 620.912 1206.98 623.621 1189.37H509.845L511.877 1175.15H568.765C570.119 1164.31 570.796 1152.8 570.796 1139.26V1110.81H523.39V1068.15H641.229V985.523ZM1392.97 1148.74C1397.03 1152.12 1400.42 1157.54 1400.42 1167.7V1212.4H1424.12V1225.94H1401.09V1241.52C1401.09 1256.42 1394.32 1261.84 1388.23 1263.87H1164.74C1134.94 1263.87 1109.2 1260.48 1088.21 1252.36C1071.95 1246.94 1057.73 1237.46 1045.54 1225.94H1076.69L1076.69 1225.94C1073.31 1222.56 1070.6 1219.85 1067.89 1216.46C1067.1 1215.67 1066.54 1214.64 1066.07 1213.79C1065.74 1213.19 1065.46 1212.68 1065.18 1212.4H1034.03C1021.84 1195.47 1012.36 1174.47 1006.94 1148.74H1041.48C1038.77 1135.87 1036.74 1122.33 1035.38 1106.75H968.336C968.131 1103.06 967.865 1099.31 967.592 1095.48V1095.48V1095.48C966.964 1086.65 966.305 1077.39 966.305 1067.47L965.627 1064.08L966.305 1039.02H1019.13V1025.48H998.812L999.489 978.75C1000.84 972.655 1002.88 967.237 1006.26 961.819C1015.07 946.92 1029.29 937.439 1045.54 934.053L1381.45 933.375C1386.87 933.375 1400.42 936.084 1400.42 957.079V1010.58C1400.42 1017.35 1399.06 1022.09 1397.03 1025.48H1416.67C1412.61 1031.58 1405.83 1032.93 1401.77 1032.93H1099.04V1039.02H1078.73C1078.73 1051.89 1078.05 1082.37 1078.05 1082.37C1078.39 1084.4 1078.56 1086.43 1078.73 1088.46C1078.9 1090.49 1079.06 1092.53 1079.4 1094.56C1080.08 1098.62 1081.44 1103.36 1082.79 1106.75H1103.11C1105.14 1113.52 1107.85 1118.94 1110.56 1123.68C1115.97 1130.45 1122.75 1135.19 1131.55 1138.58C1140.36 1141.29 1152.55 1143.32 1166.77 1143.32H1183.7C1189.12 1144 1195.21 1144 1201.31 1144H1411.25C1413.96 1144.67 1416.67 1146.03 1418.7 1148.74H1392.97ZM2297.08 737.653H2268.64V786.414H2328.23V820.276H2265.25V869.037H2297.08V1010.58H2282.18V1090.49H2261.86V1139.26H2297.08V1177.86C2297.08 1191.4 2296.4 1203.59 2295.05 1213.75H2267.96C2266.61 1219.85 2265.25 1225.27 2263.22 1230.01H2270.67C2268.64 1236.1 2266.61 1241.52 2263.22 1245.58C2253.74 1258.45 2238.84 1265.22 2219.2 1265.22H2190.08C2180.6 1265.22 2173.15 1264.55 2167.05 1263.19C2160.28 1261.84 2154.18 1259.8 2148.77 1255.74C2143.35 1252.36 2138.61 1247.61 2133.87 1240.84C2129.13 1234.75 2123.71 1226.62 2117.61 1215.78L2116.94 1213.75H2144.7L2102.71 1139.26H1999.1L1926.63 1010.58H2031.6L2022.12 994.327H2007.9L1937.47 869.037H1923.24L1903.6 835.175C1902.25 833.144 1901.57 833.144 1901.57 833.144H1898.19V834.498V1010.58H1883.29V1090.49H1898.19V1213.75H1873.81V1230.01H1898.19V1241.52C1898.19 1262.51 1884.64 1265.22 1879.22 1265.22H1849.43C1843.33 1265.22 1829.79 1262.51 1829.79 1241.52V1230.01H1799.31V1213.75H1822.34V1139.26H1799.31V994.327H1814.21V869.037H1799.31V820.276H1809.47V793.864V786.414H1799.31C1799.99 765.42 1802.7 749.166 1806.76 737.653H1828.43C1830.46 732.912 1832.49 728.849 1834.53 725.463C1844.68 713.272 1859.58 706.5 1879.22 706.5H1907.67C1917.15 706.5 1925.28 707.177 1932.05 707.854C1938.82 709.209 1945.59 711.918 1951.01 715.981C1955.75 719.367 1960.49 724.785 1965.23 731.558L1969.3 737.653H1940.85C1944.24 743.071 1947.63 748.489 1951.01 755.938L1968.62 786.414H2127.09L2146.06 820.276H1984.2L2011.96 869.037H2043.79L2123.03 1010.58H2108.13L2152.83 1090.49H2132.51L2158.25 1136.55C2158.92 1138.58 2159.6 1138.58 2160.28 1138.58H2163.66V1137.22V1090.49H2167.73L2193.46 1136.55C2194.82 1138.58 2195.5 1138.58 2195.5 1138.58H2199.56V1137.22V994.327H2214.46V869.037H2199.56V820.276H2209.04V786.414H2199.56V737.653H2220.55V730.203C2220.55 708.532 2234.1 706.5 2239.52 706.5H2278.8C2284.21 706.5 2297.08 708.532 2297.08 730.203V737.653ZM3182.23 954.37V970.623H3193.75V1052.57C3193.75 1090.49 3191.04 1123 3184.94 1149.41C3182.91 1158.22 3180.88 1166.35 3178.17 1174.47H3155.82L3149.73 1190.73H3171.4C3166.66 1200.21 3161.92 1208.33 3155.82 1216.46C3149.05 1225.27 3140.24 1232.72 3130.76 1239.49H3116.54C3108.41 1244.91 3098.93 1250.32 3088.77 1253.71C3067.78 1261.16 3042.04 1265.22 3012.25 1265.22H2861.9C2832.1 1265.22 2806.37 1261.16 2785.37 1253.71C2775.21 1250.32 2766.41 1244.91 2757.6 1239.49H2780.63C2771.15 1232.72 2762.34 1225.27 2755.57 1215.78C2749.48 1208.33 2744.74 1200.21 2740 1190.73H2717.65C2714.94 1185.31 2712.91 1179.89 2710.87 1174.47H2715.62C2712.91 1166.35 2710.2 1158.22 2708.17 1149.41C2704.78 1135.19 2702.75 1118.26 2700.72 1099.3H2696.65C2695.3 1085.08 2694.62 1069.5 2694.62 1052.57V1050.54H2702.07V970.623H2694.62V954.37H2719.68V918.476C2719.68 884.614 2722.39 854.815 2727.13 829.757H2702.07C2702.75 827.049 2703.43 824.34 2703.43 822.308C2707.49 806.731 2712.23 793.187 2718.32 780.996H2725.1C2729.16 771.515 2734.58 763.388 2740 755.938C2742.7 752.552 2745.41 749.843 2748.12 747.134H2785.37C2797.56 734.267 2812.46 724.785 2829.39 718.013C2850.39 710.563 2876.12 706.5 2905.92 706.5H3026.47C3056.27 706.5 3082 710.563 3103 718.013C3124.67 726.14 3142.28 739.007 3155.82 755.938C3161.92 763.388 3166.66 771.515 3170.72 780.996H3146.34C3152.44 793.187 3157.18 806.731 3160.56 822.308C3160.92 823.387 3161.09 824.657 3161.27 826.017C3161.43 827.217 3161.6 828.487 3161.92 829.757H3186.3C3191.04 854.815 3193.75 884.614 3193.75 918.476V954.37H3182.23ZM3114.51 856.847C3117.22 870.392 3118.57 887.323 3118.57 906.963V954.37H3096.22V1050.54H3118.57V1064.76C3118.57 1077.63 3117.9 1089.14 3116.54 1099.3H3096.22C3095.55 1104.72 3094.87 1110.14 3094.19 1114.88C3092.16 1127.07 3088.1 1137.9 3083.36 1144.67C3077.94 1152.12 3071.17 1156.86 3063.04 1159.57C3053.56 1162.96 3042.05 1164.31 3027.82 1164.31H3023.08H2870.03H2865.29C2851.06 1164.31 2838.87 1162.96 2830.07 1159.57C2821.27 1156.86 2815.17 1152.12 2809.75 1144.67C2805.01 1137.9 2800.95 1127.07 2798.92 1114.88C2797.56 1110.14 2796.88 1104.72 2796.88 1099.3H2748.12C2746.77 1089.14 2746.77 1077.63 2746.77 1064.76V1050.54H2794.85V906.963C2794.85 887.323 2796.21 870.392 2798.92 856.847C2800.95 845.334 2803.66 836.53 2808.4 829.758H2784.02C2784.02 828.766 2784.38 828.138 2784.84 827.341C2785.01 827.049 2785.19 826.734 2785.37 826.372C2790.79 819.599 2796.88 814.858 2805.69 811.472C2815.17 808.763 2826.68 806.732 2840.91 806.732H2865.29H2998.7H3023.08C3037.3 806.732 3049.5 808.763 3058.3 811.472C3067.1 814.858 3073.2 819.599 3078.62 826.372C3078.8 826.734 3078.98 827.049 3079.15 827.341C3079.61 828.138 3079.97 828.766 3079.97 829.758H3105.03C3109.77 836.53 3112.48 846.011 3114.51 856.847Z" fill="url(#paint0_linear)"/>
<path fill-rule="evenodd" clip-rule="evenodd" d="M2317.85 909.1C2329.84 908.22 2340.06 907.543 2348.66 907.069C2366.27 905.714 2375.08 905.714 2375.08 907.069C2375.55 907.543 2366.95 909.574 2349.34 913.164C2341.22 914.992 2331.19 916.889 2319.2 918.92C2307.22 920.952 2293.81 923.322 2278.91 926.031C2239.16 932.33 2200.69 938.56 2163.44 944.656C2126.19 950.751 2086.57 956.981 2044.58 963.28C2023.79 966.463 2003.61 969.375 1983.97 972.084C1964.33 974.793 1945.23 977.298 1926.74 979.533C1913.2 999.851 1901.14 1017.66 1890.51 1033.04C1879.88 1048.41 1872.77 1058.57 1869.18 1063.51C1852.45 1087.01 1835.66 1110.11 1818.72 1132.93C1806.54 1149.36 1794.28 1165.82 1781.98 1182.34C1777.19 1188.77 1772.39 1195.22 1767.59 1201.67C1753.17 1220.63 1738.95 1239.46 1724.93 1258.22C1710.91 1276.98 1697.16 1296.01 1683.62 1315.44C1699.39 1304.2 1715.45 1293.23 1731.7 1282.6C1735.25 1280.24 1738.91 1277.94 1742.55 1275.64C1744.88 1274.17 1747.21 1272.7 1749.51 1271.22C1750.53 1270.48 1751.41 1269.8 1752.36 1269.05C1770.64 1254.83 1789.4 1239.12 1808.57 1221.99C1827.73 1204.85 1843.24 1187.92 1854.96 1171.19C1859.02 1164.89 1863.08 1158.66 1867.15 1152.57C1871.21 1146.47 1875.75 1140.24 1880.69 1133.94C1885.64 1129 1891.19 1124.73 1897.28 1121.08C1903.38 1117.49 1910.02 1115.66 1917.26 1115.66C1923.56 1115.66 1928.98 1117.89 1933.52 1122.43C1938.05 1126.97 1940.49 1132.39 1940.97 1138.68C1941.37 1143.63 1940.49 1148.17 1938.26 1152.23C1936.02 1156.29 1933.18 1160.02 1929.79 1163.4C1926.41 1166.79 1922.82 1170.04 1918.96 1173.22C1915.1 1176.41 1912.05 1180 1909.81 1184.06C1905.28 1191.71 1901.35 1199.84 1897.96 1208.44C1894.58 1217.04 1891.53 1225.57 1888.82 1234.18C1887.24 1239.71 1885.7 1245.14 1884.2 1250.44C1883.13 1254.22 1882.07 1257.94 1881.03 1261.6C1878.52 1270.41 1876.15 1279.35 1873.92 1288.35C1869.38 1304.13 1862.41 1319.03 1852.93 1333.05C1843.44 1347.07 1831.46 1357.91 1817.03 1365.56C1799.9 1374.16 1782.97 1377.75 1766.24 1376.4C1757.23 1375.04 1749.78 1372.6 1743.89 1368.95C1743.48 1368.95 1742.06 1368.27 1739.83 1366.91C1737.59 1365.56 1735.22 1364.21 1732.72 1362.85C1730.21 1361.5 1728.18 1360.01 1726.62 1358.45C1725.06 1356.89 1724.45 1355.6 1724.93 1354.72C1725.4 1353.84 1727.84 1354.18 1732.38 1355.74C1736.91 1357.3 1739.62 1358.11 1740.5 1358.11C1746.4 1359.94 1752.9 1360.82 1760.14 1360.82C1773.21 1359.94 1784.73 1355.6 1794.68 1347.95C1803.28 1341.65 1811 1333.26 1818.05 1322.89C1825.02 1312.53 1829.22 1302.17 1830.58 1291.74C1832.4 1281.38 1834.1 1270.61 1835.66 1259.57C1837.21 1248.53 1838.7 1237.09 1840.06 1225.37C1828.75 1235.73 1814.8 1246.84 1798.07 1258.56C1781.34 1270.27 1765.02 1281.04 1748.97 1290.73C1746.19 1292.42 1743.62 1293.98 1740.98 1295.53C1736.71 1298.95 1732.46 1302.39 1728.21 1305.83C1723.96 1309.26 1719.71 1312.7 1715.45 1316.12C1703.73 1325.6 1691.95 1335.56 1680.23 1345.92C1675.69 1349.51 1671.29 1353.37 1667.02 1357.43C1662.76 1361.5 1658.35 1365.56 1653.82 1369.62C1650.23 1372.81 1646.37 1375.52 1642.3 1377.75C1638.24 1379.99 1633.5 1380.26 1628.08 1378.43C1621.78 1376.19 1617.79 1372.81 1616.23 1368.27C1614.67 1363.73 1614.54 1358.79 1615.89 1353.37C1617.25 1347.95 1619.41 1342.67 1622.32 1337.45C1625.24 1332.24 1627.88 1327.91 1630.11 1324.25C1634.65 1316.6 1639.12 1309.35 1643.66 1302.58C1648.2 1295.8 1652.94 1288.83 1657.88 1281.58C1658.69 1280.36 1659.52 1279.16 1660.35 1277.96C1661.18 1276.76 1662.01 1275.55 1662.82 1274.34C1646.84 1288.15 1630.52 1301.83 1613.86 1315.11C1594.9 1330.21 1574.11 1344.09 1551.55 1356.76C1540.72 1363.05 1529.41 1368.81 1517.69 1374.03C1505.98 1379.24 1493.78 1382.02 1481.12 1382.49C1470.28 1382.49 1460.67 1378.97 1452.34 1371.99C1444.01 1365.02 1440.49 1355.6 1441.84 1343.89C1444.08 1322.83 1450.17 1303.46 1459.92 1285.71C1450.37 1292.96 1440.76 1300 1431 1306.64C1409.33 1321.54 1387.8 1334.95 1366.33 1346.94C1344.86 1358.92 1325.15 1367.12 1307.07 1371.66C1303.48 1372.6 1299.42 1373.62 1294.88 1374.7C1290.34 1375.85 1285.94 1376.73 1281.67 1377.41C1277.41 1378.09 1273.55 1378.63 1270.16 1379.1C1266.77 1379.58 1264.4 1379.58 1263.05 1379.1C1259.46 1378.22 1257.16 1376.19 1256.28 1373.01C1255.4 1369.83 1256.07 1366.91 1258.31 1364.21C1259.19 1362.85 1262.24 1360.82 1267.45 1358.11C1268.88 1357.37 1270.17 1356.7 1271.33 1356.09C1274.43 1354.47 1276.62 1353.33 1277.95 1352.69C1278.42 1352.29 1279.84 1351.47 1282.35 1350.32C1284.86 1349.17 1287.57 1347.82 1290.48 1346.26C1291.93 1345.48 1293.41 1344.68 1294.88 1343.89C1296.35 1343.09 1297.83 1342.3 1299.28 1341.52C1302.19 1339.96 1304.56 1338.47 1306.39 1337.12C1314.99 1331.29 1323.8 1324.38 1332.8 1316.46C1341.81 1308.54 1350.55 1300.41 1358.88 1292.08C1367.21 1283.75 1375.34 1275.35 1383.26 1267.02C1391.18 1258.69 1398.29 1250.9 1404.59 1243.66C1414.95 1230.11 1425.11 1215.35 1435.07 1199.3C1445.02 1183.25 1453.15 1168.01 1459.45 1153.58C1447.73 1155.41 1434.59 1160.7 1420.17 1169.5C1405.74 1178.3 1390.57 1189.34 1374.79 1202.68C1359.01 1216.03 1342.96 1230.92 1326.71 1247.38C1310.46 1263.84 1295.01 1280.5 1280.32 1297.16C1265.62 1313.89 1252.01 1330.21 1239.35 1346.26C1226.68 1362.31 1216.12 1376.6 1207.52 1389.26C1189.03 1416.35 1170.74 1443.1 1152.66 1469.52C1134.58 1495.93 1116.09 1522.68 1097.13 1549.77C1078.16 1577.27 1058.86 1604.96 1039.22 1632.73C1019.58 1660.5 999.129 1687.45 977.931 1713.66C975.662 1716.37 973.411 1719.08 971.159 1721.79C968.907 1724.5 966.655 1727.21 964.386 1729.92C959.849 1735.33 954.905 1740.28 949.487 1744.81C948.133 1745.69 946.101 1746.98 943.392 1748.54C940.683 1750.1 938.854 1749.08 937.974 1745.49C937.5 1743.26 937.771 1740.75 938.651 1738.04C939.532 1735.33 940.48 1732.83 941.36 1730.59L941.893 1729.27C943.533 1725.2 945.128 1721.24 946.778 1717.39C948.607 1713.12 950.638 1708.92 952.873 1704.86C966.418 1677.77 981.182 1651.69 997.232 1626.64C1013.28 1601.58 1029.2 1576.38 1044.98 1551.12C1057.17 1532.16 1069.36 1513.47 1081.55 1494.91C1093.74 1476.36 1106.4 1457.66 1119.47 1438.7C1126.25 1429.22 1134.17 1417.91 1143.18 1404.84C1152.18 1391.77 1161.67 1378.29 1171.62 1364.54C1181.58 1350.8 1191.4 1337.25 1201.08 1323.91C1204.71 1318.91 1208.21 1314.11 1211.56 1309.51C1217.16 1301.82 1222.37 1294.66 1227.16 1288.02C1234.37 1278 1242.42 1266.9 1251.26 1254.71L1252.89 1252.46C1257.17 1247.06 1261.3 1241.84 1265.28 1236.82C1270.94 1229.68 1276.29 1222.93 1281.33 1216.57C1288.99 1207.56 1296.1 1198.82 1302.67 1190.49C1309.24 1182.16 1313.64 1176.81 1315.87 1174.58L1321.63 1168.82L1333.14 1157.31C1337.41 1153.04 1342.08 1148.84 1347.03 1144.78C1351.97 1140.72 1356.31 1137.8 1359.89 1135.98C1363.08 1134.15 1365.52 1133.74 1367.34 1134.62C1369.58 1135.5 1370.26 1137.53 1369.38 1140.72C1367.55 1148.37 1365.52 1155.14 1363.28 1161.03C1361.05 1166.93 1358.4 1172.55 1355.49 1177.96C1352.58 1183.38 1349.4 1188.8 1346.01 1194.22C1344.94 1195.93 1343.81 1197.74 1342.63 1199.64C1340.08 1203.75 1337.26 1208.27 1334.16 1213.18C1336.39 1210.95 1338.56 1208.98 1340.59 1207.42C1342.62 1205.87 1344.52 1204.17 1346.35 1202.35C1364.43 1185.69 1381.7 1172.14 1398.16 1161.71C1414.62 1151.35 1429.51 1143.43 1442.86 1138.01C1456.2 1132.59 1467.71 1129.34 1477.4 1128.19C1487.08 1127.04 1493.99 1127.37 1498.05 1129.2C1504.82 1132.39 1508.07 1137.87 1507.87 1145.8C1507.67 1153.72 1505.3 1162.73 1500.76 1172.89C1496.22 1183.04 1490.47 1193.88 1483.49 1205.39C1476.52 1216.91 1469.4 1227.74 1462.16 1237.9C1454.91 1248.06 1448.41 1256.86 1442.52 1264.31C1440.21 1267.24 1438.22 1269.76 1436.54 1271.89C1433.95 1275.18 1432.12 1277.52 1431 1278.87L1416.78 1295.8C1429.85 1286.8 1442.99 1277.86 1456.06 1269.05C1464.46 1263.43 1473.2 1258.08 1482.14 1252.94C1491.96 1239.93 1502.45 1227.27 1513.63 1215.21C1522.23 1206.21 1531.24 1197.74 1540.72 1189.82C1550.2 1181.89 1560.15 1174.38 1570.52 1167.13C1580.47 1159.88 1590.83 1153.45 1601.67 1147.83C1612.5 1142.21 1623.81 1137.53 1635.53 1133.94C1640.95 1132.12 1646.84 1131.1 1653.14 1130.9C1659.44 1130.69 1665.33 1131.91 1670.75 1134.62C1681.58 1140.92 1686.53 1149.66 1685.65 1160.7C1684.77 1171.73 1680.43 1183.18 1672.78 1194.9C1669.19 1199.84 1665.53 1204.58 1661.94 1209.12C1658.35 1213.66 1654.49 1218.12 1650.43 1222.66C1634.18 1240.27 1615.89 1255.17 1595.57 1267.36C1581.15 1275.49 1566.66 1282.6 1552.23 1288.69C1537.81 1294.79 1521.28 1300.34 1502.79 1305.29C1492.84 1318.42 1485.66 1332.85 1481.12 1348.63C1494.19 1348.63 1508.68 1345.58 1524.46 1339.49C1540.24 1333.39 1556.09 1325.74 1571.87 1316.46C1587.65 1307.18 1603.23 1297.5 1618.6 1287.34C1633.97 1277.18 1647.92 1268.04 1660.59 1259.91C1661.47 1259.44 1664.45 1257.47 1669.39 1253.82C1674.13 1250.36 1679.21 1246.57 1684.56 1242.51C1693.1 1230.32 1701.7 1218.26 1710.37 1206.41C1728.18 1182.03 1745.92 1157.17 1763.53 1131.91C1766.42 1127.95 1769.91 1123.23 1773.98 1117.73C1776.87 1113.82 1780.05 1109.52 1783.51 1104.82C1789.15 1097.16 1795.14 1089.09 1801.42 1080.62C1804.41 1076.59 1807.47 1072.47 1810.6 1068.25C1820.28 1055.18 1830.58 1041.5 1841.41 1027.28C1847.1 1019.82 1852.65 1012.51 1858.08 1005.36C1863.01 998.873 1867.83 992.52 1872.57 986.306C1862.2 987.186 1850.89 988.337 1838.7 989.692C1826.51 991.046 1814.32 992.198 1802.13 993.078C1789.94 993.959 1778.23 994.771 1766.92 995.449C1755.61 996.126 1745.72 996.464 1737.12 996.464C1719.03 996.464 1710.03 994.907 1710.03 991.724C1709.55 990.369 1711.59 988.812 1716.12 986.983C1720.66 985.154 1726.96 983.123 1735.09 980.888C1758.52 974.115 1784.52 968.901 1812.97 965.311C1841.41 961.722 1869.65 957.388 1897.62 952.444C1905.75 942.082 1912.52 933.278 1917.94 926.031C1923.36 918.785 1926.74 914.518 1928.1 913.164C1945.71 891.018 1963.45 868.94 1981.26 846.794C1999.07 824.649 2018.17 803.654 2038.49 783.811C2038.87 783.43 2039.73 782.656 2041.11 781.418C2041.45 781.115 2041.81 780.784 2042.21 780.425C2044.25 778.596 2046.28 777.174 2048.31 776.023C2050.34 774.871 2051.9 774.533 2053.05 775.007C2054.2 775.481 2054.07 777.242 2052.71 780.425C2046.82 793.496 2040.39 805.957 2033.41 817.673C2026.43 829.389 2018.71 841.715 2010.38 854.583C2002.05 867.45 1992.91 881.198 1982.96 895.894C1973 910.59 1961.96 927.183 1949.77 945.671C1964.2 943.843 1979.1 942.15 1994.47 940.592C2009.84 939.034 2025.42 937.341 2041.2 935.513C2083.19 931.449 2122.94 927.521 2160.39 923.661C2197.84 919.801 2236.72 916.076 2276.88 912.487C2292.25 911.132 2305.86 909.981 2317.85 909.1ZM1534.62 1262.62C1530.08 1267.56 1526.63 1271.9 1524.12 1275.49C1523.07 1277 1521.97 1278.59 1520.81 1280.26C1519.22 1282.57 1517.51 1285.05 1515.66 1287.68C1531.03 1283.62 1546 1277.66 1560.7 1269.73C1575.39 1261.81 1588.94 1252.46 1601.33 1241.63C1613.72 1230.79 1624.83 1218.6 1634.52 1205.06C1644.2 1191.51 1651.78 1176.81 1657.2 1161.03C1633.3 1172.34 1611.62 1186.97 1592.19 1205.06C1572.75 1223.14 1553.58 1242.3 1534.62 1262.62Z" fill="url(#paint1_linear)"/>
<path fill-rule="evenodd" clip-rule="evenodd" d="M2278.1 926.16C2278.37 926.117 2278.64 926.074 2278.91 926.031C2293.55 923.369 2306.75 921.034 2318.58 919.026C2318.79 918.991 2319 918.955 2319.21 918.92C2331.03 916.916 2340.94 915.045 2349.01 913.239C2349.05 913.229 2349.09 913.22 2349.14 913.21C2349.21 913.194 2349.27 913.179 2349.34 913.164C2352.39 912.543 2355.16 911.969 2357.67 911.442C2357.85 911.404 2358.02 911.367 2358.2 911.329C2358.2 911.329 2358.2 911.329 2358.2 911.329C2368.02 909.255 2373.57 907.919 2374.82 907.322C2375.05 907.213 2375.14 907.128 2375.08 907.069C2375.08 905.97 2369.28 905.762 2357.69 906.446C2355 906.606 2351.99 906.813 2348.67 907.069C2348.48 907.079 2348.29 907.089 2348.11 907.099C2348.06 907.102 2348.02 907.104 2347.98 907.107C2339.52 907.579 2329.52 908.243 2317.85 909.1C2317.75 909.108 2317.65 909.115 2317.55 909.123C2305.63 910 2292.12 911.143 2276.88 912.486C2276.84 912.49 2276.8 912.493 2276.77 912.497C2276.66 912.506 2276.56 912.515 2276.45 912.524C2257.74 914.198 2239.31 915.9 2221.17 917.632C2200.52 919.604 2180.26 921.613 2160.39 923.661C2122.94 927.521 2083.19 931.449 2041.2 935.513C2025.42 937.341 2009.84 939.034 1994.47 940.592C1987.01 941.347 1979.67 942.135 1972.43 942.954C1964.75 943.824 1957.2 944.73 1949.77 945.671C1954.12 939.068 1958.33 932.707 1962.39 926.587C1969.71 915.573 1976.56 905.341 1982.96 895.894C1992.91 881.198 2002.05 867.45 2010.38 854.582C2018.71 841.715 2026.43 829.389 2033.41 817.673C2035.31 814.477 2037.17 811.227 2039 807.923C2041.76 802.912 2044.43 797.779 2047.01 792.535C2047.03 792.489 2047.05 792.444 2047.08 792.399C2047.22 792.102 2047.37 791.805 2047.51 791.507C2047.83 790.867 2048.14 790.225 2048.45 789.582L2050.76 792.162C2050.76 792.162 2050.76 792.162 2050.76 792.162L2048.45 789.582C2048.68 789.097 2048.91 788.611 2049.14 788.124C2049.14 788.124 2049.14 788.124 2049.14 788.124C2050.06 786.195 2050.97 784.251 2051.86 782.294C2052.15 781.672 2052.43 781.049 2052.71 780.425C2054.07 777.242 2054.2 775.481 2053.05 775.007C2051.9 774.533 2050.34 774.871 2048.31 776.023C2047.56 776.449 2046.8 776.913 2046.05 777.422C2046 777.456 2045.95 777.49 2045.9 777.525C2044.67 778.363 2043.44 779.32 2042.21 780.425L2041.11 781.418C2039.73 782.656 2038.87 783.43 2038.49 783.811C2038.45 783.847 2038.42 783.883 2038.38 783.919C2033.81 788.381 2029.31 792.902 2024.86 797.481C2009.58 813.23 1995.04 829.668 1981.26 846.794C1963.45 868.94 1945.71 891.018 1928.1 913.164C1926.75 914.518 1923.36 918.785 1917.94 926.031C1912.52 933.278 1905.75 942.082 1897.62 952.444C1869.65 957.387 1841.41 961.722 1812.97 965.311C1787.2 968.563 1763.43 973.15 1741.76 979.02C1740.2 979.442 1738.65 979.871 1737.12 980.306C1736.44 980.499 1735.76 980.693 1735.09 980.888C1731.45 981.886 1728.19 982.845 1725.28 983.762C1721.68 984.898 1718.63 985.972 1716.12 986.983C1711.59 988.811 1709.55 990.369 1710.03 991.724C1710.03 993.62 1713.23 994.939 1719.63 995.696C1721.64 995.933 1723.97 996.115 1726.61 996.242C1729.68 996.39 1733.18 996.464 1737.12 996.464C1737.86 996.464 1738.61 996.462 1739.37 996.457C1739.44 996.456 1739.51 996.456 1739.59 996.455C1741.1 996.444 1742.65 996.423 1744.24 996.393C1751.07 996.261 1758.61 995.946 1766.92 995.448C1778.23 994.771 1789.94 993.958 1802.13 993.078C1814.32 992.198 1826.51 991.046 1838.7 989.692C1842.2 989.304 1845.62 988.932 1848.96 988.579C1857.3 987.7 1865.17 986.934 1872.57 986.306C1867.89 992.447 1863.12 998.722 1858.26 1005.12C1858.21 1005.19 1858.16 1005.25 1858.11 1005.32L1858.06 1005.39C1852.63 1012.53 1847.09 1019.83 1841.41 1027.28C1830.58 1041.5 1820.28 1055.18 1810.6 1068.25C1807.48 1072.47 1804.42 1076.59 1801.42 1080.62C1795.14 1089.09 1789.15 1097.16 1783.51 1104.82C1780.06 1109.51 1776.89 1113.79 1774.01 1117.69L1773.98 1117.73C1769.91 1123.23 1766.42 1127.95 1763.53 1131.91C1745.92 1157.17 1728.18 1182.03 1710.37 1206.41C1701.7 1218.26 1693.1 1230.32 1684.56 1242.51C1679.21 1246.57 1674.13 1250.36 1669.39 1253.82C1664.45 1257.47 1661.47 1259.44 1660.59 1259.91C1658.59 1261.2 1656.55 1262.51 1654.48 1263.85C1654.32 1263.95 1654.17 1264.05 1654.02 1264.15C1652.93 1264.85 1651.83 1265.56 1650.73 1266.27C1649.49 1267.08 1648.23 1267.89 1646.96 1268.72C1646.13 1269.26 1645.29 1269.81 1644.45 1270.35C1639.08 1273.86 1633.51 1277.51 1627.72 1281.32C1624.74 1283.29 1621.7 1285.29 1618.6 1287.34C1603.23 1297.5 1587.65 1307.18 1571.87 1316.46C1556.09 1325.74 1540.24 1333.39 1524.46 1339.49C1515.93 1342.78 1507.77 1345.19 1500.01 1346.7C1493.42 1347.99 1487.12 1348.63 1481.12 1348.63C1482.88 1342.53 1485.03 1336.62 1487.58 1330.92C1490.85 1323.62 1494.78 1316.65 1499.39 1309.99C1500.48 1308.4 1501.62 1306.84 1502.79 1305.29C1508.4 1303.79 1513.83 1302.23 1519.08 1300.62C1522.6 1299.54 1526.03 1298.43 1529.38 1297.3C1529.73 1297.19 1530.08 1297.07 1530.42 1296.95C1538.15 1294.33 1545.42 1291.57 1552.23 1288.69C1557.25 1286.57 1562.27 1284.33 1567.29 1281.97C1576.72 1277.53 1586.16 1272.66 1595.57 1267.36C1598.36 1265.69 1601.1 1263.97 1603.81 1262.2C1620.86 1251.04 1636.4 1237.86 1650.43 1222.66C1654.49 1218.12 1658.35 1213.66 1661.94 1209.12C1665.53 1204.58 1669.19 1199.84 1672.78 1194.9C1680.43 1183.18 1684.77 1171.73 1685.65 1160.69C1686.15 1154.39 1684.75 1148.83 1681.44 1144.06C1679.08 1140.65 1675.75 1137.64 1671.45 1135.04C1671.22 1134.9 1670.98 1134.76 1670.75 1134.62C1665.33 1131.91 1659.44 1130.69 1653.14 1130.9C1646.84 1131.1 1640.95 1132.12 1635.53 1133.94C1623.82 1137.53 1612.51 1142.21 1601.67 1147.83C1590.83 1153.45 1580.47 1159.88 1570.52 1167.13C1560.15 1174.38 1550.2 1181.89 1540.72 1189.82C1531.24 1197.74 1522.23 1206.21 1513.63 1215.21C1502.45 1227.27 1491.96 1239.93 1482.14 1252.93C1476.49 1256.18 1470.93 1259.52 1465.48 1262.94C1462.3 1264.95 1459.16 1266.98 1456.06 1269.05C1454.71 1269.97 1453.35 1270.88 1451.99 1271.8C1451.49 1272.13 1451 1272.47 1450.51 1272.8C1450.42 1272.86 1450.34 1272.91 1450.25 1272.97C1448.04 1274.47 1445.83 1275.96 1443.62 1277.46C1441.01 1279.23 1438.4 1281.01 1435.79 1282.79C1435.76 1282.8 1435.74 1282.82 1435.72 1282.83C1430.96 1286.07 1426.2 1289.33 1421.45 1292.6C1421.42 1292.61 1421.4 1292.63 1421.38 1292.64C1419.85 1293.69 1418.31 1294.75 1416.78 1295.8L1431.01 1278.87C1432.12 1277.52 1433.95 1275.18 1436.54 1271.89L1436.57 1271.86C1438.24 1269.74 1440.22 1267.22 1442.52 1264.31C1444.31 1262.05 1446.15 1259.67 1448.05 1257.16C1448.06 1257.15 1448.07 1257.14 1448.08 1257.12C1449.81 1254.85 1451.58 1252.47 1453.41 1249.98C1456.2 1246.19 1459.12 1242.17 1462.16 1237.9C1469.4 1227.74 1476.52 1216.91 1483.49 1205.39C1490.47 1193.88 1496.22 1183.04 1500.76 1172.89C1505.3 1162.73 1507.67 1153.72 1507.87 1145.8C1508.08 1137.87 1504.82 1132.39 1498.05 1129.2C1493.99 1127.37 1487.08 1127.04 1477.4 1128.19C1467.71 1129.34 1456.2 1132.59 1442.86 1138.01C1429.52 1143.43 1414.62 1151.35 1398.16 1161.71C1390.59 1166.51 1382.85 1171.97 1374.93 1178.08C1372.36 1180.07 1369.78 1182.12 1367.17 1184.24C1362.02 1188.44 1356.8 1192.91 1351.51 1197.66C1349.88 1199.12 1348.24 1200.6 1346.6 1202.11C1346.52 1202.19 1346.43 1202.27 1346.35 1202.35C1344.52 1204.17 1342.63 1205.87 1340.59 1207.42C1338.56 1208.98 1336.39 1210.95 1334.16 1213.18C1335.87 1210.47 1337.5 1207.87 1339.04 1205.4C1340.29 1203.4 1341.49 1201.48 1342.63 1199.64C1342.76 1199.43 1342.89 1199.22 1343.02 1199.02C1343.06 1198.96 1343.09 1198.9 1343.13 1198.85C1344.13 1197.24 1345.09 1195.69 1346.01 1194.22C1349.4 1188.8 1352.58 1183.38 1355.49 1177.96C1357.41 1174.4 1359.21 1170.75 1360.85 1166.99C1361.7 1165.04 1362.52 1163.05 1363.28 1161.03C1364.31 1158.33 1365.29 1155.43 1366.23 1152.36C1366.32 1152.08 1366.4 1151.8 1366.49 1151.52C1366.65 1150.98 1366.81 1150.42 1366.97 1149.87C1367.07 1149.52 1367.17 1149.17 1367.27 1148.82C1368 1146.24 1368.7 1143.54 1369.38 1140.72C1370.26 1137.53 1369.58 1135.5 1367.34 1134.62C1365.52 1133.74 1363.08 1134.15 1359.9 1135.98C1359.08 1136.39 1358.23 1136.86 1357.34 1137.39C1357.16 1137.49 1356.98 1137.6 1356.8 1137.71C1355.46 1138.53 1354.04 1139.46 1352.55 1140.53C1352.11 1140.84 1351.67 1141.16 1351.23 1141.49C1349.88 1142.49 1348.48 1143.58 1347.03 1144.78C1342.08 1148.84 1337.41 1153.04 1333.14 1157.31L1315.87 1174.58C1313.64 1176.81 1309.24 1182.16 1302.67 1190.49C1296.1 1198.82 1288.99 1207.56 1281.34 1216.57C1276.29 1222.93 1270.94 1229.68 1265.28 1236.82C1261.3 1241.84 1257.17 1247.06 1252.89 1252.46L1251.26 1254.71L1251.25 1254.72C1242.42 1266.9 1234.37 1278 1227.16 1288.02C1222.37 1294.66 1217.16 1301.82 1211.56 1309.51C1208.21 1314.11 1204.71 1318.91 1201.08 1323.91C1191.4 1337.25 1181.58 1350.8 1171.62 1364.54C1161.67 1378.29 1152.19 1391.77 1143.18 1404.84C1134.17 1417.91 1126.25 1429.22 1119.47 1438.7C1106.4 1457.66 1093.74 1476.36 1081.55 1494.91C1069.36 1513.47 1057.17 1532.16 1044.98 1551.12C1029.2 1576.38 1013.28 1601.58 997.233 1626.64C981.183 1651.69 966.419 1677.77 952.874 1704.86C950.639 1708.92 948.607 1713.12 946.779 1717.39C945.334 1720.76 943.931 1724.21 942.504 1727.75C942.301 1728.26 942.098 1728.76 941.894 1729.27L941.361 1730.59C941.223 1730.94 941.083 1731.3 940.941 1731.67C940.921 1731.72 940.901 1731.77 940.881 1731.82C940.647 1732.43 940.409 1733.05 940.172 1733.69C939.66 1735.07 939.145 1736.52 938.652 1738.04C938.487 1738.55 938.343 1739.05 938.221 1739.55C938.221 1739.55 938.221 1739.55 938.221 1739.55C937.696 1741.68 937.59 1743.68 937.975 1745.49C938.855 1749.08 940.684 1750.1 943.393 1748.54C946.102 1746.98 948.133 1745.69 949.488 1744.81C950.405 1744.05 951.309 1743.27 952.199 1742.47C952.207 1742.47 952.215 1742.46 952.224 1742.45C952.458 1742.24 952.691 1742.03 952.924 1741.82C953.469 1741.33 954.01 1740.83 954.545 1740.33C955.473 1739.46 956.386 1738.58 957.284 1737.68C959.759 1735.2 962.123 1732.62 964.387 1729.92C966.656 1727.21 968.908 1724.5 971.159 1721.79C973.411 1719.08 975.663 1716.37 977.932 1713.66C999.129 1687.45 1019.58 1660.5 1039.22 1632.73C1058.86 1604.96 1078.16 1577.27 1097.13 1549.77C1116.09 1522.68 1134.58 1495.93 1152.66 1469.52C1170.74 1443.1 1189.03 1416.35 1207.52 1389.26C1216.12 1376.6 1226.68 1362.31 1239.35 1346.26C1252.01 1330.21 1265.62 1313.89 1280.32 1297.16C1295.02 1280.5 1310.46 1263.84 1326.71 1247.38C1342.96 1230.92 1359.01 1216.03 1374.79 1202.68C1390.57 1189.34 1405.74 1178.3 1420.17 1169.5C1425.96 1165.96 1431.55 1162.99 1436.92 1160.59C1444.92 1157.01 1452.44 1154.68 1459.45 1153.58C1456.52 1160.29 1453.19 1167.18 1449.47 1174.24C1445.2 1182.36 1440.39 1190.71 1435.07 1199.3C1425.11 1215.35 1414.95 1230.11 1404.59 1243.66C1398.29 1250.9 1391.18 1258.69 1383.26 1267.02C1375.34 1275.35 1367.21 1283.75 1358.88 1292.08C1350.55 1300.41 1341.81 1308.54 1332.81 1316.46C1323.8 1324.38 1314.99 1331.29 1306.39 1337.12C1304.56 1338.47 1302.19 1339.96 1299.28 1341.52C1297.83 1342.3 1296.35 1343.09 1294.88 1343.89C1293.41 1344.68 1291.93 1345.48 1290.48 1346.26C1287.57 1347.82 1284.86 1349.17 1282.35 1350.32C1279.85 1351.47 1278.42 1352.29 1277.95 1352.69C1276.62 1353.33 1274.43 1354.47 1271.34 1356.09C1270.17 1356.7 1268.88 1357.37 1267.45 1358.11C1262.24 1360.82 1259.19 1362.85 1258.31 1364.21C1256.07 1366.91 1255.4 1369.83 1256.28 1373.01C1257.16 1376.19 1259.46 1378.22 1263.05 1379.1C1264.4 1379.58 1266.77 1379.58 1270.16 1379.1C1273.55 1378.63 1277.41 1378.09 1281.67 1377.41C1285.94 1376.73 1290.34 1375.85 1294.88 1374.7C1299.42 1373.62 1303.48 1372.6 1307.07 1371.66C1325.15 1367.12 1344.86 1358.92 1366.33 1346.94C1386.26 1335.81 1406.26 1323.45 1426.36 1309.81C1426.38 1309.8 1426.4 1309.79 1426.41 1309.78C1427.94 1308.74 1429.47 1307.69 1431.01 1306.64C1431.43 1306.35 1431.85 1306.06 1432.28 1305.77C1441.59 1299.39 1450.79 1292.65 1459.92 1285.71C1459.43 1286.62 1458.94 1287.53 1458.46 1288.44C1453.75 1297.43 1449.97 1306.84 1447.13 1316.66C1444.61 1325.4 1442.84 1334.48 1441.84 1343.89C1440.49 1355.6 1444.01 1365.02 1452.34 1371.99L1441.16 1385.34C1427.93 1374.26 1422.6 1358.9 1424.54 1341.98C1424.93 1338.26 1425.44 1334.59 1426.05 1330.96C1408.93 1342.23 1391.87 1352.62 1374.82 1362.14C1352.43 1374.64 1331.32 1383.51 1311.41 1388.52C1307.72 1389.49 1303.59 1390.52 1299.04 1391.61C1293.99 1392.89 1289.11 1393.86 1284.4 1394.61C1279.96 1395.31 1275.96 1395.87 1272.57 1396.35C1270.4 1396.65 1268.1 1396.87 1265.84 1396.87C1264 1396.87 1261.24 1396.74 1258.26 1395.85C1249.89 1393.6 1242.27 1387.66 1239.5 1377.65C1239.28 1376.86 1239.1 1376.08 1238.95 1375.3C1232.54 1383.84 1226.87 1391.75 1221.92 1399.05L1221.9 1399.08C1203.4 1426.17 1185.11 1452.93 1167.03 1479.35C1148.93 1505.79 1130.41 1532.58 1111.42 1559.7C1092.44 1587.23 1073.11 1614.97 1053.44 1642.79C1033.57 1670.87 1012.89 1698.12 991.469 1724.61L991.376 1724.73L991.28 1724.84C989.035 1727.52 986.804 1730.2 984.549 1732.92L984.536 1732.93C982.292 1735.63 980.024 1738.36 977.735 1741.09C972.54 1747.3 966.87 1752.97 960.667 1758.16L959.859 1758.84L958.976 1759.41C957.429 1760.42 955.121 1761.88 952.072 1763.63C948.29 1765.81 940.112 1768.97 931.482 1764.13C924.097 1759.99 921.834 1752.77 921.065 1749.64L921 1749.37L920.943 1749.1C919.64 1742.97 920.608 1737.23 922.093 1732.66C923.129 1729.47 924.221 1726.6 925.161 1724.21L925.186 1724.15L925.743 1722.77L925.779 1722.68C927.394 1718.67 929.049 1714.56 930.775 1710.53C932.768 1705.88 934.99 1701.27 937.45 1696.77C951.219 1669.26 966.236 1642.75 982.572 1617.24C998.583 1592.25 1014.46 1567.11 1030.21 1541.9L1030.27 1541.8L1030.33 1541.71C1042.56 1522.68 1054.79 1503.94 1067 1485.35C1079.28 1466.66 1092.02 1447.86 1105.14 1428.82L1105.22 1428.7L1105.31 1428.58C1112.01 1419.2 1119.88 1407.97 1128.84 1394.96C1137.92 1381.79 1147.48 1368.2 1157.52 1354.33C1167.48 1340.58 1177.3 1327.03 1186.99 1313.68C1190.63 1308.68 1194.13 1303.87 1197.48 1299.27L1197.49 1299.25C1203.09 1291.56 1208.27 1284.45 1213.02 1277.85C1220.25 1267.81 1228.31 1256.69 1237.14 1244.53L1239.02 1241.94L1239.25 1241.64C1243.53 1236.25 1247.66 1231.03 1251.64 1226.01L1251.65 1225.99C1257.3 1218.86 1262.65 1212.1 1267.7 1205.74L1267.88 1205.52L1268.07 1205.29C1275.57 1196.46 1282.55 1187.89 1289 1179.71C1295.34 1171.67 1300.44 1165.39 1303.56 1162.27L1320.83 1145C1325.55 1140.28 1330.65 1135.71 1335.97 1131.33C1341.4 1126.87 1346.67 1123.22 1351.63 1120.65C1356.23 1118.08 1364.97 1114.46 1374.35 1118.68C1379.36 1120.83 1383.95 1125.02 1386.05 1131.3C1387.86 1136.73 1387.11 1141.74 1386.25 1145.01C1385.9 1146.49 1385.53 1147.94 1385.16 1149.38C1386.39 1148.57 1387.62 1147.78 1388.84 1147L1388.88 1146.98C1405.91 1136.26 1421.74 1127.79 1436.31 1121.88C1450.51 1116.11 1463.59 1112.29 1475.34 1110.9C1485.24 1109.72 1496.41 1109.37 1505.2 1113.33L1505.33 1113.38L1505.46 1113.45C1511.45 1116.26 1516.86 1120.6 1520.56 1126.85C1524.22 1133.03 1525.44 1139.79 1525.28 1146.24C1525 1157.2 1521.78 1168.53 1516.66 1179.99C1514.54 1184.72 1512.2 1189.55 1509.63 1194.49C1516.04 1188.22 1522.68 1182.2 1529.55 1176.46C1539.43 1168.2 1549.75 1160.41 1560.4 1152.95C1571.01 1145.25 1582.07 1138.38 1593.65 1132.37C1605.31 1126.32 1617.52 1121.27 1630.21 1117.37C1637.33 1114.99 1644.85 1113.74 1652.58 1113.49C1661.57 1113.2 1670.35 1114.96 1678.53 1119.05L1679.02 1119.29L1679.5 1119.57C1686.93 1123.89 1693.39 1129.66 1697.72 1137.26C1702.12 1144.97 1703.69 1153.47 1703 1162.08C1701.84 1176.72 1696.17 1190.93 1687.36 1204.42L1687.12 1204.78L1686.87 1205.12C1683.09 1210.33 1679.27 1215.27 1675.6 1219.92C1671.7 1224.84 1667.59 1229.6 1663.4 1234.28L1663.31 1234.38L1663.22 1234.47C1660.83 1237.07 1658.39 1239.61 1655.92 1242.09C1656.82 1241.44 1657.86 1240.69 1659.04 1239.82L1659.09 1239.78L1659.14 1239.74C1663.13 1236.84 1667.39 1233.67 1671.87 1230.28C1679.95 1218.77 1688.09 1207.37 1696.31 1196.14C1714.04 1171.86 1731.71 1147.11 1749.25 1121.96L1749.36 1121.8L1749.47 1121.65C1752.39 1117.64 1755.92 1112.87 1759.97 1107.39L1760 1107.36C1762.88 1103.45 1766.05 1099.17 1769.49 1094.5C1775.16 1086.81 1781.16 1078.71 1787.44 1070.25L1787.49 1070.19C1790.46 1066.17 1793.51 1062.07 1796.61 1057.89C1806.35 1044.74 1816.69 1031 1827.56 1016.73C1829.88 1013.68 1832.18 1010.66 1834.46 1007.66C1824.13 1008.75 1813.77 1009.69 1803.39 1010.44C1791.17 1011.33 1779.37 1012.14 1767.96 1012.83C1756.41 1013.52 1746.16 1013.88 1737.12 1013.88C1727.85 1013.88 1719.85 1013.49 1713.8 1012.44C1710.94 1011.94 1707.14 1011.07 1703.6 1009.21C1700.77 1007.72 1694.15 1003.32 1692.84 994.772C1690.63 983.915 1698.92 977.02 1700.53 975.769C1703.5 973.464 1706.97 971.899 1709.62 970.834C1715.02 968.656 1722 966.43 1730.36 964.13C1754.76 957.085 1781.63 951.716 1810.79 948.037C1836.71 944.767 1862.47 940.868 1888.03 936.446C1894.3 928.41 1899.61 921.467 1904 915.606C1908.54 909.535 1912.4 904.522 1914.92 901.767C1932.41 879.766 1950.04 857.84 1967.7 835.882C1985.94 813.201 2005.49 791.705 2026.28 771.395C2027.02 770.67 2028.15 769.657 2029.14 768.762L2029.47 768.467L2030.57 767.483C2033.58 764.774 2036.64 762.621 2039.73 760.875C2042.56 759.271 2050.57 755.158 2059.68 758.907C2064.01 760.691 2067.54 764.043 2069.52 768.397C2071.26 772.224 2071.33 775.758 2071.19 777.847C2070.93 781.796 2069.57 785.264 2068.73 787.242L2068.66 787.412L2068.58 787.58C2062.45 801.196 2055.71 814.248 2048.37 826.58C2041.26 838.529 2033.42 851.045 2025 864.044C2016.59 877.038 2007.38 890.89 1997.37 905.659C1993.42 911.49 1989.3 917.626 1984.99 924.067C1987.55 923.798 1990.13 923.532 1992.71 923.27C2008 921.721 2023.5 920.037 2039.19 918.217L2039.36 918.198L2039.52 918.183C2081.49 914.121 2121.21 910.197 2158.61 906.342C2196.14 902.473 2235.1 898.74 2275.33 895.145L2275.35 895.143C2290.74 893.786 2304.46 892.626 2316.58 891.736C2328.54 890.857 2338.82 890.176 2347.52 889.694C2356.33 889.019 2363.41 888.642 2368.47 888.642C2370.88 888.642 2373.62 888.72 2376.07 889.098C2377.13 889.26 2379.46 889.659 2381.96 890.816C2383.21 891.391 2391.06 895.196 2392.32 904.5C2392.58 906.196 2392.59 908.01 2392.28 909.915C2391.44 915.1 2388.56 918.28 2387.45 919.406C2385.25 921.642 2382.91 922.755 2382.43 922.985L2382.38 923.007C2380.91 923.715 2379.49 924.16 2378.87 924.353C2377.27 924.847 2375.21 925.367 2373 925.891C2368.46 926.965 2361.75 928.404 2352.99 930.189C2344.47 932.101 2334.16 934.044 2322.12 936.086C2310.21 938.103 2296.88 940.461 2282.02 943.161L2281.83 943.197L2281.63 943.228C2241.92 949.52 2203.48 955.746 2166.25 961.838C2128.94 967.944 2089.25 974.185 2047.19 980.494C2047.18 980.495 2047.18 980.497 2047.17 980.498L2044.58 963.279M1926.75 979.533C1913.2 999.85 1901.15 1017.66 1890.51 1033.04C1879.88 1048.41 1872.77 1058.57 1869.18 1063.51C1852.45 1087.01 1835.66 1110.11 1818.73 1132.93C1806.56 1149.32 1794.33 1165.75 1782.06 1182.24L1781.98 1182.34C1777.19 1188.77 1772.39 1195.22 1767.59 1201.67C1753.17 1220.63 1738.95 1239.46 1724.93 1258.22C1721.05 1263.4 1717.2 1268.6 1713.37 1273.83C1703.33 1287.52 1693.42 1301.38 1683.62 1315.44C1695 1307.34 1706.52 1299.37 1718.16 1291.57C1720.63 1289.91 1723.1 1288.26 1725.58 1286.62C1727.38 1285.43 1729.18 1284.25 1730.98 1283.07C1731.22 1282.91 1731.46 1282.75 1731.7 1282.6C1732.09 1282.34 1732.49 1282.08 1732.89 1281.81C1735.41 1280.16 1737.97 1278.53 1740.54 1276.91C1740.57 1276.89 1740.59 1276.88 1740.61 1276.87C1741.26 1276.46 1741.9 1276.05 1742.55 1275.64C1744.88 1274.17 1747.21 1272.7 1749.51 1271.22C1750.53 1270.48 1751.41 1269.8 1752.36 1269.05C1754.38 1267.48 1756.41 1265.88 1758.45 1264.27C1774.8 1251.33 1791.52 1237.22 1808.57 1221.99C1827.73 1204.85 1843.24 1187.92 1854.96 1171.19C1859.02 1164.89 1863.08 1158.66 1867.15 1152.57C1871.21 1146.47 1875.75 1140.24 1880.69 1133.94C1885.64 1129 1891.19 1124.73 1897.29 1121.08C1903.38 1117.49 1910.02 1115.66 1917.26 1115.66C1923.56 1115.66 1928.98 1117.89 1933.52 1122.43C1938.05 1126.97 1940.49 1132.39 1940.97 1138.68C1941.37 1143.63 1940.49 1148.17 1938.26 1152.23C1936.02 1156.29 1933.18 1160.02 1929.79 1163.4C1926.41 1166.79 1922.82 1170.04 1918.96 1173.22C1915.1 1176.41 1912.05 1180 1909.81 1184.06C1905.28 1191.71 1901.35 1199.84 1897.96 1208.44C1894.58 1217.04 1891.53 1225.57 1888.82 1234.18C1887.24 1239.71 1885.7 1245.14 1884.2 1250.44L1884.19 1250.49C1883.12 1254.25 1882.07 1257.96 1881.03 1261.6C1878.53 1270.41 1876.16 1279.35 1873.92 1288.35C1869.38 1304.13 1862.41 1319.03 1852.93 1333.05C1843.44 1347.07 1831.46 1357.91 1817.03 1365.56C1802.08 1373.06 1787.29 1376.75 1772.65 1376.67C1770.51 1376.66 1768.37 1376.57 1766.24 1376.4C1764.48 1376.13 1762.77 1375.82 1761.13 1375.48C1760.8 1375.4 1760.47 1375.33 1760.14 1375.26C1753.81 1373.83 1748.4 1371.74 1743.89 1368.95C1743.53 1368.95 1742.35 1368.4 1740.5 1367.32C1740.29 1367.19 1740.06 1367.06 1739.83 1366.91C1739.3 1366.6 1738.77 1366.28 1738.23 1365.96C1738.18 1365.93 1738.14 1365.91 1738.09 1365.88C1736.38 1364.87 1734.58 1363.86 1732.72 1362.85C1731.9 1362.41 1731.13 1361.95 1730.41 1361.48C1728.93 1360.51 1727.67 1359.5 1726.62 1358.45C1725.06 1356.89 1724.45 1355.6 1724.93 1354.72C1725.31 1354.01 1727 1354.1 1730.07 1355C1730.77 1355.2 1731.54 1355.45 1732.38 1355.74C1733.72 1356.2 1734.9 1356.6 1735.92 1356.92C1738.36 1357.71 1739.88 1358.11 1740.5 1358.11C1740.96 1358.25 1741.42 1358.39 1741.88 1358.52C1742.54 1358.7 1743.21 1358.88 1743.89 1359.04C1744.1 1359.09 1744.3 1359.14 1744.51 1359.19C1746.09 1359.55 1747.72 1359.85 1749.39 1360.09C1752.78 1360.58 1756.36 1360.82 1760.14 1360.82C1762.68 1360.65 1765.16 1360.35 1767.57 1359.92C1767.97 1359.85 1768.36 1359.77 1768.75 1359.7C1769.49 1359.55 1770.22 1359.4 1770.94 1359.23C1779.65 1357.2 1787.57 1353.42 1794.68 1347.95C1803.28 1341.65 1811 1333.26 1818.05 1322.89C1825.02 1312.53 1829.22 1302.17 1830.58 1291.74C1832.41 1281.38 1834.1 1270.61 1835.66 1259.57C1836.05 1256.79 1836.44 1253.98 1836.82 1251.15C1837.96 1242.75 1839.05 1234.14 1840.06 1225.37C1834.24 1230.7 1827.72 1236.23 1820.48 1241.94C1813.65 1247.33 1806.19 1252.87 1798.07 1258.56C1788.11 1265.53 1778.3 1272.17 1768.6 1278.44C1766.63 1279.72 1764.66 1280.98 1762.7 1282.22C1762.68 1282.24 1762.66 1282.25 1762.63 1282.27C1761.49 1282.99 1760.34 1283.71 1759.2 1284.43C1758.92 1284.61 1758.64 1284.78 1758.35 1284.96C1755.97 1286.45 1753.59 1287.92 1751.21 1289.37C1750.46 1289.82 1749.72 1290.27 1748.97 1290.72C1746.19 1292.42 1743.62 1293.98 1740.98 1295.53C1740.82 1295.66 1740.67 1295.78 1740.52 1295.9C1740.49 1295.92 1740.47 1295.94 1740.44 1295.96C1736.45 1299.16 1732.48 1302.38 1728.5 1305.6C1728.4 1305.67 1728.31 1305.75 1728.21 1305.83C1723.96 1309.26 1719.71 1312.7 1715.45 1316.12C1703.73 1325.6 1691.95 1335.56 1680.23 1345.92C1675.69 1349.51 1671.29 1353.37 1667.02 1357.43C1662.76 1361.5 1658.35 1365.56 1653.82 1369.62C1650.23 1372.81 1646.37 1375.52 1642.3 1377.75C1638.24 1379.99 1633.5 1380.26 1628.08 1378.43C1621.78 1376.19 1617.79 1372.81 1616.23 1368.27C1614.67 1363.73 1614.54 1358.79 1615.89 1353.37C1617.25 1347.95 1619.41 1342.67 1622.33 1337.45C1625.16 1332.38 1627.74 1328.13 1629.94 1324.53C1630 1324.44 1630.06 1324.34 1630.11 1324.25C1634.65 1316.6 1639.12 1309.35 1643.66 1302.58C1647.89 1296.26 1652.3 1289.76 1656.89 1283.03C1657.22 1282.55 1657.55 1282.07 1657.88 1281.58C1658.69 1280.36 1659.52 1279.16 1660.35 1277.96C1661.18 1276.76 1662.01 1275.55 1662.82 1274.34C1661.68 1275.32 1660.54 1276.31 1659.39 1277.3C1658.24 1278.28 1657.09 1279.27 1655.94 1280.26C1655.93 1280.26 1655.93 1280.27 1655.92 1280.28C1650.03 1285.32 1644.1 1290.34 1638.12 1295.32C1637.33 1295.98 1636.55 1296.63 1635.76 1297.28C1629.42 1302.54 1623.03 1307.76 1616.59 1312.92C1615.68 1313.65 1614.77 1314.38 1613.86 1315.11C1594.9 1330.21 1574.11 1344.09 1551.55 1356.76C1540.72 1363.05 1529.41 1368.81 1517.69 1374.03C1505.98 1379.24 1493.79 1382.02 1481.12 1382.49C1470.29 1382.49 1460.67 1378.97 1452.34 1371.99L1441.16 1385.34C1452.6 1394.92 1466.16 1399.9 1481.12 1399.9H1481.45L1481.77 1399.89C1496.62 1399.33 1511 1396.06 1524.77 1389.93C1536.99 1384.49 1548.82 1378.48 1560.19 1371.87C1573.88 1364.18 1586.97 1356.04 1599.45 1347.44C1599.29 1348 1599.14 1348.57 1599 1349.15C1596.95 1357.37 1596.97 1365.78 1599.76 1373.92C1603.68 1385.33 1613.16 1391.61 1622.26 1394.84L1622.39 1394.88L1622.51 1394.92C1631.58 1397.98 1641.54 1398.04 1650.69 1393.01C1655.89 1390.15 1660.81 1386.69 1665.37 1382.65L1665.43 1382.59C1670.1 1378.42 1674.63 1374.23 1679.03 1370.04C1682.96 1366.3 1686.96 1362.8 1691.03 1359.58L1691.41 1359.28L1691.76 1358.96C1703.27 1348.78 1714.85 1339 1726.36 1329.69C1730.65 1326.25 1734.92 1322.79 1739.16 1319.37C1743.09 1316.19 1747 1313.03 1750.91 1309.89C1753.27 1308.49 1755.58 1307.08 1758 1305.61C1774.45 1295.68 1791.1 1284.7 1808.06 1272.82C1811.15 1270.65 1814.15 1268.5 1817.07 1266.37C1815.92 1274.01 1814.71 1281.47 1813.43 1288.72L1813.36 1289.11L1813.31 1289.5C1812.37 1296.74 1809.39 1304.57 1803.63 1313.14C1797.44 1322.23 1791.04 1329.04 1784.4 1333.9L1784.23 1334.02L1784.07 1334.15C1777.06 1339.54 1769.03 1342.67 1759.55 1343.41C1753.98 1343.36 1749.45 1342.66 1745.66 1341.48L1743.14 1340.7H1742.37C1741.39 1340.4 1739.98 1339.94 1738.03 1339.27C1735.5 1338.4 1732.46 1337.47 1729.49 1337.07C1728.1 1336.88 1725.5 1336.61 1722.49 1337.17C1719.51 1337.72 1713.24 1339.7 1709.6 1346.47C1705.8 1353.53 1707.64 1360.23 1709.19 1363.6C1710.71 1366.9 1712.86 1369.31 1714.31 1370.76C1717.27 1373.72 1720.73 1376.17 1724.44 1378.17C1726.71 1379.4 1728.83 1380.61 1730.8 1381.8C1732.17 1382.63 1733.54 1383.41 1734.84 1384.05C1735.29 1384.28 1735.87 1384.55 1736.53 1384.82C1744.6 1389.43 1753.85 1392.14 1763.65 1393.61L1764.24 1393.7L1764.83 1393.75C1785.15 1395.4 1805.25 1390.96 1824.84 1381.12L1825.02 1381.03L1825.19 1380.94C1842.21 1371.91 1856.32 1359.11 1867.35 1342.81C1877.84 1327.3 1885.6 1310.74 1890.65 1293.17L1890.74 1292.86L1890.82 1292.55C1893.01 1283.72 1895.33 1274.97 1897.78 1266.37C1898.82 1262.7 1899.88 1258.97 1900.95 1255.19C1902.43 1249.95 1903.94 1244.62 1905.5 1239.19C1908.05 1231.08 1910.94 1223.01 1914.16 1214.82C1917.24 1207.01 1920.76 1199.73 1924.79 1192.94L1924.93 1192.7L1925.07 1192.45C1926.14 1190.51 1927.69 1188.59 1930.03 1186.66C1934.3 1183.14 1938.3 1179.52 1942.1 1175.72C1946.56 1171.25 1950.43 1166.23 1953.51 1160.62C1957.55 1153.28 1958.97 1145.29 1958.32 1137.32C1957.53 1126.95 1953.34 1117.63 1945.83 1110.12C1938.05 1102.34 1928.21 1098.25 1917.26 1098.25C1906.92 1098.25 1897.23 1100.9 1888.45 1106.07L1888.39 1106.11L1888.33 1106.15C1881.1 1110.48 1874.4 1115.61 1868.38 1121.63L1867.64 1122.37L1867 1123.19C1861.81 1129.8 1857 1136.4 1852.66 1142.91C1848.6 1149.01 1844.54 1155.22 1840.51 1161.47C1829.76 1176.76 1815.29 1192.62 1796.96 1209C1784.33 1220.3 1771.9 1230.95 1759.68 1240.93C1766.89 1231.39 1774.14 1221.82 1781.45 1212.21L1781.51 1212.14L1781.56 1212.06C1786.36 1205.61 1791.16 1199.17 1795.95 1192.74L1795.98 1192.69C1808.27 1176.18 1820.52 1159.73 1832.71 1143.3C1849.69 1120.41 1866.54 1097.25 1883.31 1073.68C1887.05 1068.52 1894.26 1058.22 1904.83 1042.94C1914.36 1029.17 1924.99 1013.48 1936.79 995.845M1515.66 1287.68C1519.39 1286.69 1523.1 1285.6 1526.78 1284.39C1529.03 1283.65 1531.27 1282.86 1533.51 1282.04C1537.23 1280.67 1540.93 1279.18 1544.62 1277.57C1545.44 1277.21 1546.25 1276.85 1547.07 1276.48C1551.64 1274.41 1556.18 1272.17 1560.7 1269.73C1569.93 1264.76 1578.7 1259.22 1587.02 1253.1C1587.14 1253.01 1587.27 1252.92 1587.39 1252.83C1589.5 1251.28 1591.58 1249.68 1593.63 1248.05C1596.24 1245.97 1598.81 1243.83 1601.33 1241.63C1613.72 1230.79 1624.83 1218.6 1634.52 1205.06C1638.76 1199.12 1642.6 1192.96 1646.04 1186.58C1650.44 1178.41 1654.16 1169.9 1657.2 1161.03C1648.81 1165 1640.7 1169.38 1632.86 1174.17C1618.36 1183.04 1604.81 1193.32 1592.19 1205.06C1572.75 1223.14 1553.59 1242.3 1534.62 1262.62C1534.48 1262.77 1534.34 1262.93 1534.2 1263.08C1529.87 1267.83 1526.55 1272.01 1524.13 1275.49C1523.07 1277 1521.97 1278.59 1520.82 1280.26C1520.37 1280.91 1519.91 1281.58 1519.44 1282.25C1518.24 1283.98 1516.99 1285.79 1515.66 1287.68ZM1740.5 1348.44L1740.52 1348.42ZM1740.5 1348.44L1740.52 1348.42ZM2278.1 926.16C2278.09 926.16 2278.09 926.161 2278.08 926.162ZM2278.08 926.162C2259.57 929.096 2241.34 932.014 2223.39 934.911ZM2036.89 773.089C2036.89 773.087 2036.88 773.14 2036.83 773.253C2036.87 773.147 2036.89 773.09 2036.89 773.089ZM1552.5 1307.39C1541.03 1313.58 1529.57 1318.85 1518.19 1323.24C1515.24 1324.38 1512.38 1325.39 1509.59 1326.28C1510.77 1324.3 1512.01 1322.36 1513.32 1320.45C1527.45 1316.49 1540.54 1312.13 1552.5 1307.39ZM1269.12 1337.64C1268.88 1337.75 1268.64 1337.88 1268.38 1338.01C1276.34 1328.36 1284.67 1318.59 1293.39 1308.67C1307.89 1292.23 1323.1 1275.81 1339.1 1259.62C1355.02 1243.5 1370.69 1228.96 1386.04 1215.98C1397.95 1205.9 1409.4 1197.28 1420.32 1190.04C1420.31 1190.07 1420.29 1190.09 1420.27 1190.12C1410.7 1205.56 1400.97 1219.7 1391.09 1232.65C1385.08 1239.55 1378.27 1247 1370.64 1255.02C1362.79 1263.28 1354.77 1271.57 1346.57 1279.77C1338.54 1287.8 1330.07 1295.67 1321.31 1303.39C1312.74 1310.92 1304.52 1317.36 1296.63 1322.7L1296.33 1322.91L1296.03 1323.13C1295.03 1323.86 1293.41 1324.91 1291.07 1326.17C1289.58 1326.96 1288.07 1327.78 1286.6 1328.57C1285.13 1329.37 1283.69 1330.15 1282.27 1330.91M1269.12 1337.64C1269.93 1337.12 1270.62 1336.73 1271.04 1336.51C1272.22 1335.86 1273.58 1335.19 1275.08 1334.5C1277.21 1333.52 1279.61 1332.33 1282.27 1330.91" fill="#00FFC8" fill-opacity="0.2"/>
<defs>
<linearGradient id="paint0_linear" x1="-467.486" y1="844.434" x2="-189.582" y2="1805.85" gradientUnits="userSpaceOnUse">
<stop stop-color="#DA08F7"/>
<stop offset="1" stop-color="#FF0063"/>
</linearGradient>
<linearGradient id="paint1_linear" x1="1917.82" y1="1405.94" x2="1240.51" y2="987.016" gradientUnits="userSpaceOnUse">
<stop stop-color="#FB4DFF"/>
<stop offset="1" stop-color="#FF0063"/>
</linearGradient>
</defs>
</svg>
