<?xml version="1.0" encoding="UTF-8"?><svg id="Layer_2" xmlns="http://www.w3.org/2000/svg" xmlns:xlink="http://www.w3.org/1999/xlink" viewBox="0 0 96 96"><defs><clipPath id="clippath"><path d="M48,0h0c26.51,0,48,21.49,48,48h0c0,26.51-21.49,48-48,48h0C21.49,96,0,74.51,0,48h0C0,21.49,21.49,0,48,0Z" fill="none" stroke-width="0"/></clipPath></defs><g id="Layer_1-2"><g clip-path="url(#clippath)"><path d="M48,0h0c26.51,0,48,21.49,48,48h0c0,26.51-21.49,48-48,48h0C21.49,96,0,74.51,0,48h0C0,21.49,21.49,0,48,0Z" fill="#242424" stroke-width="0"/><path d="M48.42,44.75c-18.92,2.01-20.23,3.38-21.54,22.39-2.01-18.93-3.37-20.24-22.37-21.55,18.92-2.01,20.23-3.38,21.54-22.39,2.01,18.93,3.37,20.24,22.37,21.55Z" fill="#9bce7d" stroke-width="0"/><path d="M108.5,60.03c-3.8-12.43-26.64-17.52-58.93-15.28,21.15.86,35.4,6.08,38.33,15.67,6.43,21.07-44.32,55.25-113.36,76.36-28.3,8.64-55.3,13.77-77.74,15.34,25.37,1.03,60.67-4.21,98.33-15.73,69.04-21.11,119.79-55.29,113.36-76.36Z" fill="#9bce7d" stroke-width="0"/></g><path d="M48,.5h0c26.23,0,47.5,21.27,47.5,47.5h0c0,26.23-21.27,47.5-47.5,47.5h0C21.77,95.5.5,74.23.5,48h0C.5,21.77,21.77.5,48,.5Z" fill="none" stroke="#9bce7d"/></g></svg>