<svg width="57" height="57" viewBox="0 0 57 57" fill="none" xmlns="http://www.w3.org/2000/svg">
<path d="M27.6044 5.60742L27.6166 15.9886" stroke="#6868FC" stroke-width="0.5" stroke-linejoin="round"/>
<path d="M46.8093 38.8963L37.9838 33.7017" stroke="#6868FC" stroke-width="0.5" stroke-linejoin="round"/>
<path d="M8.48657 38.8963L17.3121 33.7017" stroke="#6868FC" stroke-width="0.5" stroke-linejoin="round"/>
<path d="M27.6032 27.8056L17.2852 21.8456L27.6032 15.8882L37.9075 21.8701L27.6032 27.8056Z" stroke="#77E3EF" stroke-width="0.5" stroke-linecap="round" stroke-linejoin="round"/>
<path d="M27.6032 39.6585L17.2984 33.7443L17.2852 21.8452L27.6032 27.8052V39.6585Z" stroke="#4ACBDC" stroke-width="0.5" stroke-linejoin="round"/>
<path d="M27.603 39.659L37.9073 33.7713V21.8701L27.603 27.8057V39.659Z" stroke="#07ABC5" stroke-width="0.5" stroke-linejoin="round"/>
<path d="M46.8101 38.8969V16.7261L27.6091 5.64014L8.40857 16.7261V38.8969L27.6091 49.9829L46.8101 38.8969Z" stroke="#7C7CFF" stroke-miterlimit="10"/>
<path d="M8.44006 16.7471L27.6096 27.8325L46.8416 16.7471" stroke="#7C7CFF" stroke-miterlimit="10" stroke-linecap="round"/>
<path d="M27.6412 27.832V49.9841" stroke="#7C7CFF" stroke-width="0.391564" stroke-miterlimit="10" stroke-linecap="round"/>
</svg>
