<svg width="101" height="28" viewBox="0 0 101 28" fill="none" xmlns="http://www.w3.org/2000/svg">
<g clip-path="url(#clip0_937_6731)">
<path d="M1.6508 13.8805C1.21475 13.6769 0.919434 13.2498 0.919434 12.7672C0.919434 11.6153 1.07229 10.4992 1.35875 9.43828C1.96211 7.20366 4.76497 7.26116 5.98487 9.22622L6.4328 9.94776C8.02711 12.5159 5.31411 15.5913 2.58046 14.3147L1.6508 13.8805Z" fill="url(#paint0_linear_937_6731)"/>
<path d="M5.84184 17.3116C3.87177 16.3916 1.87891 18.0924 3.10038 19.8958C3.47747 20.4525 3.89749 20.9776 4.35566 21.4663C4.91133 22.0589 5.77329 22.2108 6.5388 21.9425C8.45871 21.2695 8.59137 18.5957 6.74759 17.7346L5.84184 17.3116Z" fill="url(#paint1_linear_937_6731)"/>
<path d="M6.57799 2.18485C5.14529 3.14039 4.98701 5.09082 5.8966 6.55602L11.8321 16.1172C12.1412 16.615 12.907 16.3953 12.907 15.8086C12.907 15.5424 12.7241 15.316 12.4821 15.2069C11.5549 14.7887 10.9091 13.8537 10.9091 12.7674C10.9091 12.6266 10.92 12.4883 10.9409 12.3533C11.0685 11.5299 11.4877 10.7401 11.9065 9.95121C12.4071 9.00808 12.907 8.0663 12.907 7.07004V4.31016C12.907 2.01408 10.9375 0.133649 8.81738 0.997116C8.02812 1.31856 7.27853 1.71761 6.57799 2.18485Z" fill="url(#paint2_linear_937_6731)"/>
<path d="M14.2388 4.31016C14.2388 2.01407 16.2083 0.13365 18.3284 0.997116C19.1177 1.31855 19.8673 1.71761 20.5678 2.18485C22.0005 3.14038 22.1588 5.09082 21.2492 6.55602L15.3136 16.1172C15.0046 16.6151 14.2388 16.3953 14.2388 15.8087C14.2388 15.5424 14.4217 15.316 14.6636 15.2069C15.5909 14.7887 16.2366 13.8537 16.2366 12.7674C16.2366 12.6266 16.2258 12.4883 16.2049 12.3533C16.0773 11.5299 15.6581 10.7401 15.2393 9.95121C14.7387 9.00806 14.2388 8.0663 14.2388 7.07004V4.31016Z" fill="url(#paint3_linear_937_6731)"/>
<path d="M25.7867 9.43828C25.1834 7.20366 22.3805 7.26116 21.1606 9.22622L20.7127 9.94776C19.1184 12.5159 21.8314 15.5913 24.565 14.3147L25.4947 13.8805C25.9308 13.6769 26.226 13.2498 26.226 12.7672C26.226 11.6153 26.0732 10.4992 25.7867 9.43828Z" fill="url(#paint4_linear_937_6731)"/>
<path d="M21.3035 17.3116C23.2736 16.3916 25.2665 18.0924 24.045 19.8958C23.6679 20.4525 23.2479 20.9776 22.7897 21.4663C22.234 22.0589 21.3721 22.2108 20.6066 21.9425C18.6867 21.2695 18.554 18.5957 20.3978 17.7346L21.3035 17.3116Z" fill="url(#paint5_linear_937_6731)"/>
<path d="M17.0024 24.9926C18.5628 24.5527 18.3783 22.5771 16.8481 22.0407L16.5648 21.9414C15.4277 21.5428 14.2388 22.3899 14.2388 23.5985C14.2388 24.6037 15.083 25.4151 16.0653 25.2182C16.3821 25.1547 16.6946 25.0793 17.0024 24.9926Z" fill="url(#paint6_linear_937_6731)"/>
<path d="M12.907 23.5985C12.907 24.6037 12.0627 25.4151 11.0805 25.2182C10.7637 25.1547 10.4512 25.0793 10.1434 24.9926C8.583 24.5527 8.76753 22.5771 10.2977 22.0407L10.581 21.9414C11.7181 21.5428 12.907 22.3899 12.907 23.5985Z" fill="url(#paint7_linear_937_6731)"/>
<g filter="url(#filter0_i_937_6731)">
<path d="M8.18262 22.2727C8.18262 21.5698 8.75046 21 9.45091 21H17.6948C18.3953 21 18.9631 21.5698 18.9631 22.2727V24.1818C18.9631 24.8847 18.3953 25.4546 17.6948 25.4546H9.45091C8.75046 25.4546 8.18262 24.8847 8.18262 24.1818V22.2727Z" fill="#27AE60"/>
<path d="M9.54492 24.1822H9.87934L10.0304 23.7186H10.6955L10.8466 24.1822H11.1823L10.5432 22.3887H10.184L9.54492 24.1822ZM10.3599 22.7081H10.3673L10.615 23.4712H10.1109L10.3599 22.7081ZM11.373 24.1822H12.5038V23.9124H11.6926V22.3887H11.373V24.1822ZM12.733 24.1822H13.0525V23.5893H13.4216C13.7833 23.5893 14.0298 23.3482 14.0298 22.9902V22.9877C14.0298 22.6286 13.7833 22.3887 13.4216 22.3887H12.733V24.1822ZM13.3423 22.6509C13.5715 22.6509 13.7053 22.774 13.7053 22.989V22.9915C13.7053 23.2065 13.5715 23.3308 13.3423 23.3308H13.0525V22.6509H13.3423ZM14.2639 24.1822H14.5834V23.4041H15.4529V24.1822H15.7712V22.3887H15.4529V23.1344H14.5834V22.3887H14.2639V24.1822ZM15.9632 24.1822H16.2976L16.4487 23.7186H17.1138L17.2649 24.1822H17.6005L16.9615 22.3887H16.6023L15.9632 24.1822ZM16.7782 22.7081H16.7856L17.0333 23.4712H16.5292L16.7782 22.7081Z" fill="#F2F3FD"/>
</g>
</g>
<path d="M35.3313 18.5V9.77273H37.1764V13.3736H40.9222V9.77273H42.7631V18.5H40.9222V14.8949H37.1764V18.5H35.3313ZM47.2333 18.6278C46.56 18.6278 45.9804 18.4915 45.4946 18.2188C45.0117 17.9432 44.6395 17.554 44.3782 17.0511C44.1168 16.5455 43.9861 15.9474 43.9861 15.2571C43.9861 14.5838 44.1168 13.9929 44.3782 13.4844C44.6395 12.9759 45.0074 12.5795 45.4818 12.2955C45.9591 12.0114 46.5188 11.8693 47.1608 11.8693C47.5926 11.8693 47.9946 11.9389 48.3668 12.0781C48.7418 12.2145 49.0685 12.4205 49.3469 12.696C49.6282 12.9716 49.8469 13.3182 50.0032 13.7358C50.1594 14.1506 50.2375 14.6364 50.2375 15.1932V15.6918H44.7105V14.5668H48.5287C48.5287 14.3054 48.4719 14.0739 48.3583 13.8722C48.2446 13.6705 48.087 13.5128 47.8853 13.3991C47.6864 13.2827 47.4549 13.2244 47.1907 13.2244C46.9151 13.2244 46.6708 13.2884 46.4577 13.4162C46.2475 13.5412 46.0827 13.7102 45.9634 13.9233C45.8441 14.1335 45.783 14.3679 45.7801 14.6264V15.696C45.7801 16.0199 45.8398 16.2997 45.9591 16.5355C46.0813 16.7713 46.2532 16.9531 46.4747 17.081C46.6963 17.2088 46.9591 17.2727 47.2631 17.2727C47.4648 17.2727 47.6495 17.2443 47.8171 17.1875C47.9847 17.1307 48.1282 17.0455 48.2475 16.9318C48.3668 16.8182 48.4577 16.679 48.5202 16.5142L50.1992 16.625C50.1139 17.0284 49.9392 17.3807 49.675 17.6818C49.4137 17.9801 49.0756 18.2131 48.6608 18.3807C48.2489 18.5455 47.773 18.6278 47.2333 18.6278ZM53.2375 9.77273V18.5H51.4222V9.77273H53.2375ZM56.5071 9.77273V18.5H54.6917V9.77273H56.5071ZM60.9186 18.6278C60.2567 18.6278 59.6843 18.4872 59.2013 18.206C58.7212 17.9219 58.3505 17.527 58.0891 17.0213C57.8277 16.5128 57.697 15.9233 57.697 15.2528C57.697 14.5767 57.8277 13.9858 58.0891 13.4801C58.3505 12.9716 58.7212 12.5767 59.2013 12.2955C59.6843 12.0114 60.2567 11.8693 60.9186 11.8693C61.5806 11.8693 62.1516 12.0114 62.6317 12.2955C63.1147 12.5767 63.4868 12.9716 63.7482 13.4801C64.0095 13.9858 64.1402 14.5767 64.1402 15.2528C64.1402 15.9233 64.0095 16.5128 63.7482 17.0213C63.4868 17.527 63.1147 17.9219 62.6317 18.206C62.1516 18.4872 61.5806 18.6278 60.9186 18.6278ZM60.9272 17.2216C61.2283 17.2216 61.4797 17.1364 61.6814 16.9659C61.8831 16.7926 62.0351 16.5568 62.1374 16.2585C62.2425 15.9602 62.2951 15.6207 62.2951 15.2401C62.2951 14.8594 62.2425 14.5199 62.1374 14.2216C62.0351 13.9233 61.8831 13.6875 61.6814 13.5142C61.4797 13.3409 61.2283 13.2543 60.9272 13.2543C60.6232 13.2543 60.3675 13.3409 60.1601 13.5142C59.9556 13.6875 59.8007 13.9233 59.6956 14.2216C59.5934 14.5199 59.5422 14.8594 59.5422 15.2401C59.5422 15.6207 59.5934 15.9602 59.6956 16.2585C59.8007 16.5568 59.9556 16.7926 60.1601 16.9659C60.3675 17.1364 60.6232 17.2216 60.9272 17.2216ZM68.1321 9.77273H70.4076L72.811 15.6364H72.9133L75.3167 9.77273H77.5923V18.5H75.8025V12.8196H75.7301L73.4715 18.4574H72.2528L69.9943 12.7983H69.9218V18.5H68.1321V9.77273ZM82.0358 18.6278C81.3739 18.6278 80.8014 18.4872 80.3185 18.206C79.8384 17.9219 79.4676 17.527 79.2063 17.0213C78.9449 16.5128 78.8142 15.9233 78.8142 15.2528C78.8142 14.5767 78.9449 13.9858 79.2063 13.4801C79.4676 12.9716 79.8384 12.5767 80.3185 12.2955C80.8014 12.0114 81.3739 11.8693 82.0358 11.8693C82.6978 11.8693 83.2688 12.0114 83.7489 12.2955C84.2318 12.5767 84.604 12.9716 84.8654 13.4801C85.1267 13.9858 85.2574 14.5767 85.2574 15.2528C85.2574 15.9233 85.1267 16.5128 84.8654 17.0213C84.604 17.527 84.2318 17.9219 83.7489 18.206C83.2688 18.4872 82.6978 18.6278 82.0358 18.6278ZM82.0443 17.2216C82.3455 17.2216 82.5969 17.1364 82.7986 16.9659C83.0003 16.7926 83.1523 16.5568 83.2546 16.2585C83.3597 15.9602 83.4122 15.6207 83.4122 15.2401C83.4122 14.8594 83.3597 14.5199 83.2546 14.2216C83.1523 13.9233 83.0003 13.6875 82.7986 13.5142C82.5969 13.3409 82.3455 13.2543 82.0443 13.2543C81.7404 13.2543 81.4847 13.3409 81.2773 13.5142C81.0728 13.6875 80.9179 13.9233 80.8128 14.2216C80.7105 14.5199 80.6594 14.8594 80.6594 15.2401C80.6594 15.6207 80.7105 15.9602 80.8128 16.2585C80.9179 16.5568 81.0728 16.7926 81.2773 16.9659C81.4847 17.1364 81.7404 17.2216 82.0443 17.2216ZM89.3952 18.6278C88.7333 18.6278 88.1608 18.4872 87.6779 18.206C87.1978 17.9219 86.827 17.527 86.5657 17.0213C86.3043 16.5128 86.1736 15.9233 86.1736 15.2528C86.1736 14.5767 86.3043 13.9858 86.5657 13.4801C86.827 12.9716 87.1978 12.5767 87.6779 12.2955C88.1608 12.0114 88.7333 11.8693 89.3952 11.8693C90.0571 11.8693 90.6282 12.0114 91.1083 12.2955C91.5912 12.5767 91.9634 12.9716 92.2247 13.4801C92.4861 13.9858 92.6168 14.5767 92.6168 15.2528C92.6168 15.9233 92.4861 16.5128 92.2247 17.0213C91.9634 17.527 91.5912 17.9219 91.1083 18.206C90.6282 18.4872 90.0571 18.6278 89.3952 18.6278ZM89.4037 17.2216C89.7049 17.2216 89.9563 17.1364 90.158 16.9659C90.3597 16.7926 90.5117 16.5568 90.6139 16.2585C90.7191 15.9602 90.7716 15.6207 90.7716 15.2401C90.7716 14.8594 90.7191 14.5199 90.6139 14.2216C90.5117 13.9233 90.3597 13.6875 90.158 13.5142C89.9563 13.3409 89.7049 13.2543 89.4037 13.2543C89.0997 13.2543 88.8441 13.3409 88.6367 13.5142C88.4321 13.6875 88.2773 13.9233 88.1722 14.2216C88.0699 14.5199 88.0188 14.8594 88.0188 15.2401C88.0188 15.6207 88.0699 15.9602 88.1722 16.2585C88.2773 16.5568 88.4321 16.7926 88.6367 16.9659C88.8441 17.1364 89.0997 17.2216 89.4037 17.2216ZM95.6125 14.7159V18.5H93.7972V11.9545H95.5273V13.1094H95.604C95.7489 12.7287 95.9918 12.4276 96.3327 12.206C96.6736 11.9815 97.087 11.8693 97.5728 11.8693C98.0273 11.8693 98.4236 11.9688 98.7617 12.1676C99.0997 12.3665 99.3625 12.6506 99.55 13.0199C99.7375 13.3864 99.8313 13.8239 99.8313 14.3324V18.5H98.0159V14.6562C98.0188 14.2557 97.9165 13.9432 97.7091 13.7188C97.5017 13.4915 97.2162 13.3778 96.8526 13.3778C96.6083 13.3778 96.3924 13.4304 96.2049 13.5355C96.0202 13.6406 95.8753 13.794 95.7702 13.9957C95.6679 14.1946 95.6154 14.4347 95.6125 14.7159Z" fill="white"/>
<defs>
<filter id="filter0_i_937_6731" x="8.18262" y="21" width="10.7803" height="4.4541" filterUnits="userSpaceOnUse" color-interpolation-filters="sRGB">
<feFlood flood-opacity="0" result="BackgroundImageFix"/>
<feBlend mode="normal" in="SourceGraphic" in2="BackgroundImageFix" result="shape"/>
<feColorMatrix in="SourceAlpha" type="matrix" values="0 0 0 0 0 0 0 0 0 0 0 0 0 0 0 0 0 0 127 0" result="hardAlpha"/>
<feOffset/>
<feGaussianBlur stdDeviation="4"/>
<feComposite in2="hardAlpha" operator="arithmetic" k2="-1" k3="1"/>
<feColorMatrix type="matrix" values="0 0 0 0 0 0 0 0 0 0 0 0 0 0 0 0 0 0 0.2 0"/>
<feBlend mode="normal" in2="shape" result="effect1_innerShadow_937_6731"/>
</filter>
<linearGradient id="paint0_linear_937_6731" x1="26.6161" y1="26.0309" x2="-0.15041" y2="25.1703" gradientUnits="userSpaceOnUse">
<stop stop-color="#BA4300"/>
<stop offset="0.509773" stop-color="#AF39B9"/>
<stop offset="1" stop-color="#7C63FC"/>
</linearGradient>
<linearGradient id="paint1_linear_937_6731" x1="26.6161" y1="26.0306" x2="-0.150378" y2="25.17" gradientUnits="userSpaceOnUse">
<stop stop-color="#BA4300"/>
<stop offset="0.509773" stop-color="#AF39B9"/>
<stop offset="1" stop-color="#7C63FC"/>
</linearGradient>
<linearGradient id="paint2_linear_937_6731" x1="26.6163" y1="26.0311" x2="-0.15019" y2="25.1704" gradientUnits="userSpaceOnUse">
<stop stop-color="#BA4300"/>
<stop offset="0.509773" stop-color="#AF39B9"/>
<stop offset="1" stop-color="#7C63FC"/>
</linearGradient>
<linearGradient id="paint3_linear_937_6731" x1="26.6161" y1="26.0311" x2="-0.150371" y2="25.1704" gradientUnits="userSpaceOnUse">
<stop stop-color="#BA4300"/>
<stop offset="0.509773" stop-color="#AF39B9"/>
<stop offset="1" stop-color="#7C63FC"/>
</linearGradient>
<linearGradient id="paint4_linear_937_6731" x1="26.616" y1="26.0309" x2="-0.150462" y2="25.1703" gradientUnits="userSpaceOnUse">
<stop stop-color="#BA4300"/>
<stop offset="0.509773" stop-color="#AF39B9"/>
<stop offset="1" stop-color="#7C63FC"/>
</linearGradient>
<linearGradient id="paint5_linear_937_6731" x1="26.6159" y1="26.0306" x2="-0.150607" y2="25.17" gradientUnits="userSpaceOnUse">
<stop stop-color="#BA4300"/>
<stop offset="0.509773" stop-color="#AF39B9"/>
<stop offset="1" stop-color="#7C63FC"/>
</linearGradient>
<linearGradient id="paint6_linear_937_6731" x1="26.6161" y1="26.0306" x2="-0.150374" y2="25.17" gradientUnits="userSpaceOnUse">
<stop stop-color="#BA4300"/>
<stop offset="0.509773" stop-color="#AF39B9"/>
<stop offset="1" stop-color="#7C63FC"/>
</linearGradient>
<linearGradient id="paint7_linear_937_6731" x1="26.6163" y1="26.0306" x2="-0.150192" y2="25.17" gradientUnits="userSpaceOnUse">
<stop stop-color="#BA4300"/>
<stop offset="0.509773" stop-color="#AF39B9"/>
<stop offset="1" stop-color="#7C63FC"/>
</linearGradient>
<clipPath id="clip0_937_6731">
<rect width="26" height="28" fill="white" transform="translate(0.572754)"/>
</clipPath>
</defs>
</svg>
