<svg width="805" height="142" viewBox="0 0 805 142" fill="none" xmlns="http://www.w3.org/2000/svg">
<path d="M208.412 116.771H223.133C224.305 116.771 225.086 115.99 225.086 114.818V80.182H258.565V114.818C258.565 115.99 259.346 116.771 260.518 116.771H275.239C276.411 116.771 277.192 115.99 277.192 114.818V27.571C277.192 26.3995 276.411 25.6185 275.239 25.6185H260.518C259.346 25.6185 258.565 26.3995 258.565 27.571V63.7692H225.086V27.571C225.086 26.3995 224.305 25.6185 223.133 25.6185H208.412C207.24 25.6185 206.459 26.3995 206.459 27.571V114.818C206.459 115.99 207.24 116.771 208.412 116.771ZM319.1 118.333C328.085 118.333 336.295 115.729 341.77 110.262C342.936 109.215 343.072 108.31 342.421 107.393L337.597 100.754C336.946 99.8431 336.295 99.7129 335.383 100.234C330.174 103.227 325.481 104.139 320.526 104.139C310.239 104.139 303.598 99.7129 301.644 91.6367H340.462C346.061 91.6367 347.494 88.1222 347.494 81.8742C347.494 65.7217 336.295 51.4033 316.88 51.4033C297.211 51.4033 284.053 65.8578 284.053 84.6077C284.053 103.878 298.128 118.333 319.1 118.333ZM301.384 79.0105C302.947 70.5438 309.067 66.2483 317.01 66.2483C324.699 66.2483 330.429 70.5438 331.471 79.0105H301.384ZM355.011 116.771H369.211C370.383 116.771 371.164 115.99 371.164 114.818V25.6185C371.164 24.447 370.383 23.666 369.211 23.666H355.011C353.839 23.666 353.058 24.447 353.058 25.6185V114.818C353.058 115.99 353.839 116.771 355.011 116.771ZM382.079 116.771H396.285C397.457 116.771 398.238 115.99 398.238 114.818V25.6185C398.238 24.447 397.457 23.666 396.285 23.666H382.079C380.913 23.666 380.126 24.447 380.126 25.6185V114.818C380.126 115.99 380.913 116.771 382.079 116.771ZM437.423 118.333C456.571 118.333 470.771 103.748 470.771 84.868C470.771 65.9879 456.571 51.4033 437.423 51.4033C418.144 51.4033 403.944 65.9879 403.944 84.868C403.944 103.748 418.144 118.333 437.423 118.333ZM421.27 84.868C421.27 74.4547 428.302 67.9404 437.423 67.9404C446.414 67.9404 453.446 74.4488 453.446 84.8621C453.446 95.2873 446.414 101.796 437.423 101.796C428.308 101.796 421.27 95.2873 421.27 84.868ZM498.567 116.771H513.288C514.46 116.771 515.242 115.99 515.242 114.818V60.515L516.934 66.1181L536.213 115.209C536.604 116.25 537.515 116.771 538.563 116.771H551.585C552.627 116.771 553.538 116.25 553.935 115.209L573.213 66.1181L574.906 60.515V114.818C574.906 115.99 575.688 116.771 576.86 116.771H591.58C592.752 116.771 593.534 115.99 593.534 114.818V27.571C593.534 26.3995 592.752 25.6185 591.58 25.6185H574.51C573.468 25.6185 572.687 26.009 572.296 26.9202L545.068 95.2873L517.84 26.9202C517.449 26.009 516.668 25.6185 515.626 25.6185H498.567C497.395 25.6185 496.614 26.3995 496.614 27.571V114.818C496.614 115.99 497.395 116.771 498.567 116.771ZM633.896 118.333C653.045 118.333 667.245 103.748 667.245 84.868C667.245 65.9879 653.045 51.4033 633.896 51.4033C614.618 51.4033 600.418 65.9879 600.418 84.868C600.418 103.748 614.618 118.333 633.896 118.333ZM617.743 84.868C617.743 74.4547 624.775 67.9404 633.896 67.9404C642.887 67.9404 649.919 74.4488 649.919 84.8621C649.919 95.2873 642.887 101.796 633.896 101.796C624.775 101.796 617.743 95.2873 617.743 84.868ZM703.079 118.333C722.227 118.333 736.427 103.748 736.427 84.868C736.427 65.9879 722.227 51.4033 703.079 51.4033C683.794 51.4033 669.594 65.9879 669.594 84.868C669.594 103.748 683.794 118.333 703.079 118.333ZM686.926 84.868C686.926 74.4547 693.958 67.9404 703.079 67.9404C712.064 67.9404 719.102 74.4488 719.102 84.8621C719.102 95.2873 712.064 101.796 703.079 101.796C693.958 101.796 686.926 95.2873 686.926 84.868ZM743.986 116.771H758.056C759.228 116.771 760.009 115.99 760.009 114.818V81.744C760.009 72.7566 764.963 67.9404 772.516 67.9404C780.205 67.9404 784.372 72.7566 784.372 81.744V114.818C784.372 115.99 785.153 116.771 786.325 116.771H800.265C801.437 116.771 802.348 115.99 802.348 114.818V77.7029C802.348 61.0357 792.576 51.4033 779.293 51.4033C769.781 51.4033 763.661 56.0894 760.009 62.6036L759.488 55.048C759.488 53.486 758.707 52.9653 757.535 52.9653H743.986C742.814 52.9653 742.033 53.7463 742.033 54.9178V114.818C742.033 115.99 742.814 116.771 743.986 116.771Z" fill="black"/>
<mask id="mask0_12694_144167" style="mask-type:luminance" maskUnits="userSpaceOnUse" x="0" y="0" width="143" height="142">
<path d="M0 0H142.059V142H0V0Z" fill="white"/>
</mask>
<g mask="url(#mask0_12694_144167)">
<path d="M93.8357 99.1035H91.1543V101.754H93.8357V99.1035Z" fill="#EAEAEA"/>
<path d="M99.2823 93.755H96.5418V96.382H99.2823V93.755ZM126.054 99.1036V96.382H123.403V91.0747H118.016V88.4004H112.618V93.755H104.61V99.1096H101.946V101.754H99.2823V109.765H96.5595V107.186H91.2027V109.765H85.84V117.824H83.1646V123.196H80.4359V125.841H77.7722V123.196H72.3859V131.207H67.0468V133.905H61.7492V131.243H56.3391V128.515H48.2832V133.9H50.9646V136.58H48.2832V139.26H59.0146V141.934H85.8282L85.8459 139.236H93.8959V136.609L99.2468 136.586L99.235 133.905H104.604V131.231H109.972V128.551H112.654V125.877H118.016V123.196H109.949V125.894H107.279V128.569H104.556V125.894H107.279V123.196H101.94V117.824H99.2764V120.522H96.5536V117.824H99.2764V115.167C99.2764 115.167 112.677 115.227 112.624 115.167C112.565 115.114 112.624 120.51 112.624 120.51H115.276V107.138H123.385V104.417H120.727V101.737H120.715V99.1096H126.049L126.054 99.1036ZM91.1554 117.83H88.5095V115.173L91.1554 115.161V117.824V117.83ZM99.2823 123.202V125.9H101.893V131.249H99.2882L99.2823 125.9H96.5536V123.202H99.2823ZM91.1554 96.4411V99.1155H88.5095V96.4411H91.1554Z" fill="white"/>
<path d="M18.7627 83.0691H16.0991V85.7198H10.7305V80.3711H18.745L18.7686 83.075L18.7627 83.0691Z" fill="#959595"/>
<path d="M67.0762 13.4417V16.1574H64.3652V18.8318H59.0084V16.1574H51.0117V13.4417H56.3448V10.791H64.3948V13.4417H67.0762Z" fill="white"/>
<path d="M77.7896 2.70898H64.3887V5.43657H77.7896V2.70898Z" fill="#EAEAEA"/>
<path d="M50.9639 133.906H48.2825V136.586H50.9639V133.906Z" fill="#959595"/>
<path d="M34.8466 109.819V112.488H21.4517V109.813H18.7762V104.471H16.0949V99.1043H13.4076V91.0754H10.7262V88.3537H8.05078V85.7208H8.09221V75.0234H10.7321V85.7326H16.1008V91.0813H18.7821V101.79H24.1389V104.477H26.8144V107.145H29.4957V109.825H34.8525L34.8466 109.819ZM56.3389 117.878H53.6517V120.529H56.3389V117.878Z" fill="#888888"/>
<path d="M48.318 123.195H42.9375V125.881H48.3239L48.318 123.195Z" fill="#ADADAD"/>
<path d="M48.2472 120.492H45.625V123.202H48.2472V120.492Z" fill="#B4B4B4"/>
<path d="M48.2827 133.906H42.9141V136.581H48.2827V133.906Z" fill="white"/>
<path d="M42.9257 131.231L42.9138 133.911L37.557 133.893V131.219L42.9257 131.231ZM37.5511 128.55H32.1884V131.231H37.5511V128.55ZM26.8257 120.521H21.457V123.202H26.8257V120.521ZM32.1884 125.876H29.507V128.556H32.1884V125.876Z" fill="white"/>
<path d="M29.5076 123.196H26.8262V125.882H29.5076V123.196ZM21.4576 117.841H18.7762V120.527H21.4576V117.841ZM16.0949 109.812H13.4076V112.492H16.0949V109.812ZM10.7262 101.783H8.05078V104.463H10.7321L10.7262 101.783ZM18.7762 112.486H16.0949V117.841H18.7762V112.486Z" fill="white"/>
<path d="M13.4068 104.459H10.7254V109.813H13.4068V104.459ZM8.05 93.7555H5.3568V101.784H8.03816V93.7555H8.05ZM5.36272 85.7265H2.68728V93.7555H5.36272V85.7265ZM2.68136 56.2793H0V85.7206H2.68136V56.2793Z" fill="white"/>
<path d="M56.3384 120.522V123.197H53.6393V128.516H48.2825V133.9H42.9139L42.9257 131.238L37.5571 131.22V128.557H32.1884V125.877H29.5071V123.197H26.8257V120.522H21.4571V117.842H18.7757V112.488H16.0944V109.813H13.4071V104.459H10.7257V101.784H8.05028V93.7555H5.363V85.7265H2.68756V85.7206L2.68164 56.2793H8.09763V85.7206H8.04436V88.3535H10.7257V91.0752H13.4071V99.1041H16.0944V104.471H18.7757V109.813H21.4512V112.488H34.8461V115.168H45.6248V123.197H42.9376V125.877H48.324V123.197H50.952V120.522H56.3384Z" fill="#959595"/>
<path d="M67.0455 120.521V125.876H61.6887V128.515H53.6387V123.196H56.3378V120.521H67.0455Z" fill="#888888"/>
<path d="M72.3905 123.195V131.206H67.0456V133.904H61.748V131.242H56.3379V128.514H61.6888V125.876H67.0456V123.195H72.3905Z" fill="#959595"/>
<path d="M67.0454 120.523V107.187H56.3318V104.459H53.6504V112.488H59.0072V115.186H53.6504V117.878H56.3377V120.523H67.0454Z" fill="#7F7F7F"/>
<path d="M56.3377 112.486H53.6504V115.19H56.3377V112.486Z" fill="#C4C4C4"/>
<path d="M59.0074 112.486H56.3379V115.19H59.0074V112.486Z" fill="#ADADAD"/>
<path d="M77.7707 120.522V123.197H69.7207V115.186H72.3843V117.836H75.0775V120.522H77.7707Z" fill="#7F7F7F"/>
<path d="M69.7263 115.186H67.0449V123.197H69.7263V115.186Z" fill="#868686"/>
<path d="M80.4351 123.195H77.7715V125.846H80.4351V123.195Z" fill="#959595"/>
<path d="M83.1631 120.523V123.197H77.7708V120.523H75.0776V117.836H72.3844V115.186H67.0453V107.186H56.3317V104.459H53.6503V101.779H50.9453V99.116H53.6503V88.4069H56.3376V85.7207H59.0071V104.459H61.6944V91.0871H64.3817V93.7674H67.0394V96.4003H69.7267V112.494H77.7885V117.819H80.4699V120.523H83.1631Z" fill="#919191"/>
<path d="M48.2473 115.167H45.6252V120.492H48.2473V115.167ZM45.6252 112.487H42.8668V115.173L45.6252 115.167V112.487ZM42.8668 109.824H40.1914V112.487H42.8668V109.824Z" fill="#A6A6A6"/>
<path d="M40.1906 107.121H37.5566V109.831H40.1906V107.121Z" fill="#969696"/>
<path d="M37.5567 107.121H34.8457V109.825H37.5567V107.121Z" fill="#C9C9C9"/>
<path d="M34.8457 109.818V115.167H42.8661V112.487H40.1907V109.824L34.8457 109.818Z" fill="#7F7F7F"/>
<path d="M53.6512 120.522V107.139H50.9462V112.493H48.3181V109.813H45.6367V115.168H48.253V123.197H50.958V120.522H53.6512Z" fill="white"/>
<path d="M50.9464 109.818H48.3184V112.499H50.9464V109.818Z" fill="#C4C4C4"/>
<path d="M50.9464 107.139H48.3184V109.825H50.9464V107.139Z" fill="#B0B0B0"/>
<path d="M53.6513 101.777H50.9462V107.138H53.6513V101.777ZM45.6309 109.812V107.138H48.3181V109.824L45.6309 109.818V109.812Z" fill="#C4C4C4"/>
<path d="M45.6255 107.139H42.8672V112.487H45.6255V107.139Z" fill="#EAEAEA"/>
<path d="M42.8668 107.139H40.1914V109.831H42.8668V107.139Z" fill="#DFDFDF"/>
<path d="M37.5566 107.127V104.458C37.5566 104.458 40.0782 104.346 40.1906 104.458C40.309 104.571 40.1906 107.138 40.1906 107.138L37.5566 107.127Z" fill="#909090"/>
<path d="M42.8668 104.459H40.1914V107.139H42.8668V104.459Z" fill="#ADADAD"/>
<path d="M45.6255 104.459H42.8672V107.139H45.6255V104.459ZM48.3187 104.459H45.6373V107.139H48.3246L48.3187 104.459Z" fill="#B0B0B0"/>
<path d="M56.3378 85.7206V88.4009H53.6505V99.11H50.9455V107.139H48.3174V104.459H37.5564V107.121H34.8455V109.819H29.4887V107.139H26.8132V104.471H29.5123V101.778H26.8132V96.418H21.4505V91.087H18.7869L16.0996 91.0752V83.0759H18.7691L18.7455 80.372V80.3424H21.4505V72.3016H24.1733L24.1259 69.6214H26.8428L26.8132 67.0121H32.2233V64.3023H29.5123V56.2793H32.2233V61.622H34.9106V58.9891L40.2378 58.9595V61.6457L42.9606 61.622V64.3082H37.5268V69.651H34.9106L34.8514 83.0522H48.2878V80.372H50.9514V83.0522L53.6446 83.0759V85.7206H56.3437H56.3378Z" fill="#7F7F7F"/>
<path d="M29.5077 77.7031H26.8145V80.3656H29.5077V77.7031Z" fill="#969696"/>
<path d="M40.1903 88.4238H32.1758V91.0863H40.1903V88.4238Z" fill="#909090"/>
<path d="M42.9142 85.7207H40.1914V88.4365H42.9142V85.7207Z" fill="#969696"/>
<path d="M45.631 85.7207H42.9082V88.4365H45.631V85.7207Z" fill="#C9C9C9"/>
<path d="M48.2886 85.7207H45.625V88.4365H48.2886V85.7207Z" fill="#969696"/>
<path d="M50.9458 85.7207H48.2822V88.4365H50.9458V85.7207ZM18.7754 91.0753V93.7615H21.439V91.0871L18.7754 91.0753Z" fill="#C9C9C9"/>
<path d="M29.5077 93.7559H26.8145V96.4184H29.5136L29.5077 93.7559Z" fill="#969696"/>
<path d="M29.5077 91.0859H26.8145V93.7603H29.5136L29.5077 91.0859Z" fill="#919191"/>
<path d="M18.7754 101.778H24.1322V104.465H29.5068V101.778H26.8136V96.418H18.7754V101.778Z" fill="#B6B6B6"/>
<path d="M77.7896 112.499V109.766H75.0254V112.493L77.7896 112.499Z" fill="#DFDFDF"/>
<path d="M75.0242 109.765H72.408V107.186H69.7207V112.493H75.0242V109.765Z" fill="#D4D4D4"/>
<path d="M77.7896 107.186H75.0254V109.765H77.7896V107.186ZM85.8396 109.765V115.155H83.1642V117.818H77.7896V109.765H80.4355V112.487H83.1642V109.765H85.8396Z" fill="#D4D4D4"/>
<path d="M83.1639 117.825H80.4707V120.529H83.1639V117.825ZM85.8393 115.156H83.1639V117.831H85.8393V115.156Z" fill="#DFDFDF"/>
<path d="M75.0242 107.187H72.4079V109.766H75.0242V107.187ZM85.8384 104.459H69.7266V107.187H85.8443V104.459H85.8384Z" fill="#EAEAEA"/>
<path d="M99.2814 101.754V107.186H91.2018V109.765H77.7891V107.186H85.8391V104.458H88.5027V99.1094H91.1544V101.754H99.2814Z" fill="#DFDFDF"/>
<path d="M83.1643 109.766H80.4297V112.493H83.1643V109.766Z" fill="#DFDFDF"/>
<path d="M72.3724 96.4004H69.7266V104.459H72.3724V96.4004Z" fill="#D4D4D4"/>
<path d="M88.5086 101.754H72.373V104.464H88.5086V101.754Z" fill="white"/>
<path d="M69.7263 93.7676H67.0391V96.4064H69.7263V93.7676Z" fill="#7F7F7F"/>
<path d="M96.5415 93.7545V96.3756H99.2821V99.1091H93.8365V96.4466H85.8457V93.79H93.8365V91.0742H99.2821V93.7545H96.5415Z" fill="#DFDFDF"/>
<path d="M88.509 96.4417V101.755H85.8454V99.1101H83.1641V93.791H85.8395V96.4417H88.5031H88.509Z" fill="#E6E6E6"/>
<path d="M93.8357 96.4414H91.1543V99.1157H93.8357V96.4414ZM99.2813 99.1039H93.8357V101.755H99.2813V99.1039Z" fill="white"/>
<path d="M99.2814 107.186H96.5586V109.765H99.2814V107.186Z" fill="#EAEAEA"/>
<path d="M101.945 91.0742H99.2812V93.7545H101.945V91.0742Z" fill="white"/>
<path d="M104.608 93.7559H99.2812V99.1104H104.608V93.7559Z" fill="#DFDFDF"/>
<path d="M101.945 99.1035H99.2812V101.754H101.945V99.1035Z" fill="#DFDFDF"/>
<path d="M83.164 93.7896V99.1087H85.8394V101.753H72.3734V96.3988H69.7276V93.7659H64.3826V91.0798H61.6953V83.0449H69.7276V91.0738H72.4267V93.7482L83.164 93.7896Z" fill="#EAEAEA"/>
<path d="M72.4257 83.0449H69.7207V91.0738H72.4257V83.0449Z" fill="#D1D1D1"/>
<path d="M42.9552 66.9941H40.2324V69.6389H42.9552V66.9941Z" fill="#D4D4D4"/>
<path d="M85.834 91.0742L85.8399 93.7959H93.8366V91.0742H85.834Z" fill="#EAEAEA"/>
<path d="M88.4917 88.4238H85.8281V91.0804H88.4858L88.4917 88.4238Z" fill="#EAEAEA"/>
<path d="M21.4449 93.7559H18.7812V96.4184H21.4449V93.7559Z" fill="#969696"/>
<path d="M107.291 75.0176H104.604V77.6682H107.291V75.0176Z" fill="white"/>
<path d="M109.965 75.0176H107.289V77.6682H109.965V75.0176Z" fill="#EAEAEA"/>
<path d="M109.988 77.668H107.289V80.3186H109.988V77.668Z" fill="white"/>
<path d="M48.2831 72.3359H45.584V75.0399H48.2831V72.3359ZM59.0145 104.458H61.6958V88.4234H59.0145V104.458Z" fill="#D1D1D1"/>
<path d="M77.7886 88.4232H72.4258V91.0798H77.7886V88.4232ZM80.4522 83.0449H72.4199V85.7252H80.4522V83.0449Z" fill="#DFDFDF"/>
<path d="M80.4522 85.7207H72.4199V88.4365H80.4522V85.7207Z" fill="#EAEAEA"/>
<path d="M72.4258 91.0742H75.1072V93.7663L72.4199 93.7545V91.0742H72.4258Z" fill="#D1D1D1"/>
<path d="M75.1074 93.7663V91.0742H77.7888V93.7722H75.1074V93.7663Z" fill="#EAEAEA"/>
<path d="M77.7891 91.0742V93.7722L80.4527 93.7841V91.0742H77.7891Z" fill="#DFDFDF"/>
<path d="M80.4527 88.4238H77.7891V91.0804H80.4527V88.4238ZM80.4527 91.0745H85.8391V93.7962L80.4527 93.7843V91.0745Z" fill="white"/>
<path d="M83.1641 88.4238H80.4531V91.0804H83.1641V88.4238Z" fill="#EAEAEA"/>
<path d="M85.8335 88.4238H83.1699V91.0804H85.8335V88.4238Z" fill="#E6E6E6"/>
<path d="M88.4913 85.7207H80.4531V88.4365H88.4913V85.7207Z" fill="#DFDFDF"/>
<path d="M80.4523 83.0461V85.7204H83.1633V72.3191H80.4523V69.6389H77.7887V66.9941H72.4023V69.6685H75.1133V75.0408H72.4082V72.3665H69.6973V77.6915H72.4201V83.0461H80.4523Z" fill="#EAEAEA"/>
<path d="M37.5211 64.3086H42.9548V66.9948H40.232V72.2902H37.527V77.7039H45.5652V80.3546H48.288V83.0467H34.8516V69.6513H37.527L37.5211 64.3086Z" fill="#919191"/>
<path d="M42.9554 77.7031H40.2148V80.3656H42.9554V77.7031Z" fill="#7F7F7F"/>
<path d="M53.6267 80.3711H50.9453V83.075H53.6267V80.3711ZM53.6267 83.0691H56.3376V85.7257H53.6385L53.6267 83.075V83.0691Z" fill="#919191"/>
<path d="M42.9551 77.7035V75.041H48.2823V77.7035H59.0255V83.0759H61.6891V88.4245H59.0136V85.7206H56.3441V83.0759H53.6272V80.3719H45.5654V77.7035H42.9551Z" fill="#B6B6B6"/>
<path d="M61.6953 83.075V80.3711H72.4267V83.0513L61.6953 83.075Z" fill="#DFDFDF"/>
<path d="M72.4201 77.6855H69.6973V80.3776H72.4201V77.6855Z" fill="#D1D1D1"/>
<path d="M69.6978 80.3723V77.6921H67.0579V69.6395H59.0019V72.3138H56.3383V75.0414H53.6274V69.6395H48.2824V66.9948H50.946V64.3086H45.536V66.9948H42.9552V69.6395H40.2324V72.2902H42.9552V75.0414H45.5774V72.3375H48.2765V77.7039H59.0197V83.0763H61.6833V80.3723H69.6978Z" fill="#EAEAEA"/>
<path d="M42.9552 75.0414V72.2902H37.5215V77.7039H42.9552V75.0414ZM45.536 64.3086H42.9552V66.9948H45.536V64.3086Z" fill="#D4D4D4"/>
<path d="M77.7891 66.994H83.1636V64.3078H85.8035V58.9414H88.5382V64.3078H96.6178V66.994H101.886V64.3197H104.579V58.9532H107.308V66.994H109.924V69.6151H112.659V75.017H83.1636V72.319H80.4527V69.6387H77.7891V66.994Z" fill="#E6E6E6"/>
<path d="M85.8027 75.022V72.3418H93.8883V75.0457L85.8027 75.0161V75.022Z" fill="#DFDFDF"/>
<path d="M93.8887 75.0457V72.3418H99.3224V75.0161L93.8887 75.0457Z" fill="#EAEAEA"/>
<path d="M109.965 72.3418H107.254V75.0161H109.965V72.3418Z" fill="#DFDFDF"/>
<path d="M107.255 72.3426H104.604V69.6328H112.654V75.017H109.966V72.3426H107.255Z" fill="#EAEAEA"/>
<path d="M93.8352 88.4238H88.4902V91.0804H93.8352V88.4238Z" fill="#DFDFDF"/>
<path d="M88.4913 75.0176H83.1641V80.313H88.4913V75.0176ZM88.4913 83.0465H83.1641V85.7267H88.4913V83.0465Z" fill="#E6E6E6"/>
<path d="M88.4913 83.046V85.7203H91.1667V80.3125H83.1641V83.046H88.4913Z" fill="white"/>
<path d="M99.2815 88.4305V91.0753H93.8359V85.7207H96.5587V88.4305H99.2815Z" fill="#EAEAEA"/>
<path d="M88.4902 88.4291H93.8352V85.7193H96.558V83.0449H91.1657V85.7193H88.4902V88.4291Z" fill="#E6E6E6"/>
<path d="M91.1657 75.0176H88.4902V77.6682H91.1657V75.0176Z" fill="#DFDFDF"/>
<path d="M91.1657 77.668H88.4902V80.3186H91.1657V77.668Z" fill="#EAEAEA"/>
<path d="M93.8888 75.0176H91.166V77.6682H93.8888V75.0176Z" fill="#E6E6E6"/>
<path d="M93.8888 80.3125H91.166V83.0519H93.8888V80.3125Z" fill="#EAEAEA"/>
<path d="M96.5583 83.0465V77.6623H99.2811V75.0176H93.8888V77.6623H91.166V80.313H93.8888V83.0465H96.5583Z" fill="#DFDFDF"/>
<path d="M101.951 75.0176H99.2871V77.6682H101.951V75.0176Z" fill="#E6E6E6"/>
<path d="M99.2814 77.668H96.5586V80.3186H99.2814V77.668Z" fill="#EAEAEA"/>
<path d="M101.951 80.3125H96.5645V83.0519H101.951V80.3125Z" fill="#E6E6E6"/>
<path d="M118.015 85.7208V88.4011H112.617V93.7557H104.609V91.0754H99.2814V88.4307H96.5586V83.0465H99.2518V85.7208H104.603V83.0465H101.951V80.313H99.2873V77.6682H101.951V75.0176H104.603V77.6623H107.29V80.313H109.989V83.0465H112.617V85.7208H118.015Z" fill="#DFDFDF"/>
<path d="M101.951 83.0449H99.252V85.7252H101.951V83.0449Z" fill="#EAEAEA"/>
<path d="M104.603 83.0449H101.945V85.7252H104.609L104.603 83.0449Z" fill="white"/>
<path d="M104.603 85.7207H101.945V88.401H104.609L104.603 85.7207Z" fill="#E6E6E6"/>
<path d="M104.609 91.0742H101.945V93.7604H104.609V91.0742Z" fill="#EAEAEA"/>
<path d="M109.976 88.4297H107.289V91.0804H109.97L109.976 88.4297Z" fill="white"/>
<path d="M112.658 75.0176H109.965V80.313H112.658V75.0176Z" fill="#DFDFDF"/>
<path d="M109.965 80.3125H112.658V83.0519H109.994L109.965 80.3125ZM115.345 83.046L112.658 83.0519V85.7262H115.345V83.046Z" fill="white"/>
<path d="M115.345 80.3125H112.658V83.0519H115.345V80.3125Z" fill="#DFDFDF"/>
<path d="M107.315 58.9531H109.966V64.3018H112.659V66.9761H115.329V69.6386H118.016V66.9761H123.403V72.3425H112.659V69.6327H109.925V66.9939H107.309L107.315 58.9531Z" fill="#A6A6A6"/>
<path d="M123.402 69.6562H120.715V72.3483H123.402V69.6562Z" fill="#909090"/>
<path d="M112.658 72.3418H120.708V83.051H118.015V85.7194H115.345V80.3115H112.658V72.3418Z" fill="#E6E6E6"/>
<path d="M120.709 83.0449H118.016V85.7252H120.715L120.709 83.0449Z" fill="white"/>
<path d="M120.709 85.7207H118.016V88.4365H120.715L120.709 85.7207Z" fill="#EAEAEA"/>
<path d="M123.401 66.977H118.015V69.6395H115.327V66.977H112.652V64.2967H109.965V58.954H104.578V56.2678C104.578 56.2678 115.351 56.2205 115.351 56.2678V58.9481H118.02V56.2441H123.401V58.9481H126.059V61.6283H128.758V66.9947H126.059V69.6454H123.395V66.9711L123.401 66.977Z" fill="#909090"/>
<path d="M123.402 56.25H118.021V58.9598H123.402V56.25ZM126.054 58.9539H123.402V61.6283H126.054V58.9539Z" fill="#868686"/>
<path d="M115.351 58.9524V53.5445H118.02V50.9057H123.401V53.5445H128.758V61.6326H126.053V58.9524H123.401V56.2484H118.02V58.9524H115.351ZM107.313 40.2734H104.578V48.2491H107.307L107.313 40.2734Z" fill="#E6E6E6"/>
<path d="M104.579 34.8672H101.934V40.275H104.579V34.8672Z" fill="#D1D1D1"/>
<path d="M101.932 37.5469H88.5137V40.2745H101.932V37.5469Z" fill="white"/>
<path d="M93.8657 40.2737V37.552H91.2021V34.8659H85.7861V32.2034H83.1225V29.5231H80.4648V26.8015H83.1344V24.1094H91.2021V29.4935H96.5175V32.1975H99.2166V40.2678L93.8657 40.2737Z" fill="#868686"/>
<path d="M128.759 37.5577V42.8945H126.019V40.2735H118.028V37.5518H115.347V40.2735H107.314V37.5518H109.99V34.907H112.689V32.2031H120.715V34.8656H123.403V37.5577H128.759Z" fill="#9E9E9E"/>
<path d="M59.0015 69.675H56.3379V72.3198H59.0015V69.675ZM56.3379 64.3086H53.627V66.9948H56.3379V64.3086Z" fill="#7F7F7F"/>
<path d="M64.3761 64.3086H56.3379V66.9948H64.3761V64.3086Z" fill="#EAEAEA"/>
<path d="M53.627 66.9941V75.0408H56.3379V69.6744H59.0015V66.9941H53.627Z" fill="#8F8F8F"/>
<path d="M59.002 69.6803V66.9941H61.6952V69.6389L59.002 69.6803Z" fill="#7F7F7F"/>
<path d="M45.5352 64.3082H50.9452V66.9944H48.2816V69.6391H53.6266V64.3082H64.3757V61.6043H53.6266V56.2793H50.9393V61.6339H45.5352V64.3082Z" fill="#D4D4D4"/>
<path d="M64.3767 64.3086V66.9948H61.6953V69.6395H67.058V77.6862H69.698V72.3671H75.1139V69.6691H72.4089V64.3086H64.3767Z" fill="#D4D4D4"/>
<path d="M75.1132 72.3652H72.4082V75.0455H75.1132V72.3652Z" fill="#BEBEBE"/>
<path d="M64.377 64.3077V58.9531H72.427V61.6275H75.1142V64.3077H77.7719V66.9939H72.4092V64.3077H64.377Z" fill="#E6E6E6"/>
<path d="M72.4329 58.9531H64.377V61.6097H72.427V58.9531H72.4329Z" fill="#EAEAEA"/>
<path d="M64.3761 61.6043V58.9536H69.7033V56.2793H56.332V58.9536H58.9956V61.6043H64.3702H64.3761Z" fill="#B6B6B6"/>
<path d="M53.627 56.2793V61.6043H59.0015V58.9536H56.3379V56.2793H53.627Z" fill="#EAEAEA"/>
<path d="M72.4319 56.2793H69.6973V58.9595H72.4319V56.2793ZM72.4319 58.9536V61.6339H75.1133V58.9418L72.4319 58.9536Z" fill="white"/>
<path d="M72.4316 58.9536H75.113V64.3082H77.7707V66.9944H83.163V64.3082H80.4876V61.6043H77.7884V58.9536H75.113V56.2793H72.4316V58.9536Z" fill="#B6B6B6"/>
<path d="M56.3379 56.279V53.581H53.627V50.9185H56.3142V48.2383H59.0015V53.5278H77.7888V56.2494H83.1633V53.6284H93.8355V58.9534H101.933V61.604H88.5379V58.9415H85.8033V61.6395H83.1633V58.9534H75.1133V56.279H56.3379Z" fill="#8F8F8F"/>
<path d="M77.7891 58.9531H83.1636V64.3018H80.4882V61.6038H77.7891V58.9531Z" fill="#A6A6A6"/>
<path d="M85.804 61.639H83.1641V64.3074H85.804V61.639ZM88.5386 61.6035H104.579V64.3193H101.886V66.9936H96.6182V64.3074H88.5386V61.6035Z" fill="#B6B6B6"/>
<path d="M104.579 58.9531H101.934V61.6097H104.579V58.9531Z" fill="#A6A6A6"/>
<path d="M104.579 56.2734H101.934V58.9596H104.579V56.2734Z" fill="#8F8F8F"/>
<path d="M104.579 56.2721V50.9057H96.5589V48.3083H93.8717V45.557H85.8808V48.3083H69.7394V45.557H64.3648V42.8945H61.7012V45.5038H58.9844V53.5268H77.7894V56.2484H83.164V53.6274H93.8361V58.9524H101.933V56.2721H104.579Z" fill="#868686"/>
<path d="M104.578 56.2727V50.9062H107.307V56.249L104.578 56.2727Z" fill="#A6A6A6"/>
<path d="M107.314 50.9066V48.2441H109.984V50.9244H112.659V53.5869H115.353V56.2731H107.314V50.9066Z" fill="white"/>
<path d="M123.396 50.9057V48.1899H128.759V40.2734H131.387V45.5866H134.175V50.9057H136.78V53.6155H134.128L134.14 58.9524H128.753V53.5445H123.396V50.9057Z" fill="#CACACA"/>
<path d="M123.396 72.3418H120.709V77.6668H123.396V72.3418Z" fill="#EAEAEA"/>
<path d="M126.054 69.6562H123.396V72.3483H126.06V69.6562H126.054Z" fill="#EAEAEA"/>
<path d="M126.054 69.6566V67H128.759V75.0467H126.054V77.6677H123.396V72.3427H126.06V69.6566H126.054Z" fill="#DFDFDF"/>
<path d="M128.758 61.6388V66.9993H134.144V64.3191H131.392V61.6211L128.758 61.6388Z" fill="#D4D4D4"/>
<path d="M134.145 64.313V61.6387H139.484V66.9992H134.145V64.3189V64.313Z" fill="#CACACA"/>
<path d="M134.145 61.6211H131.393V64.325H134.145V61.6211Z" fill="#E6E6E6"/>
<path d="M128.758 58.9531V61.6393H134.144V58.9531H128.758Z" fill="#959595"/>
<path d="M131.405 77.668V80.3128H128.759V83.0463H126.054V88.4304H123.396V91.0752H118.01V88.4304H120.709V77.6621H123.396V80.3128H126.06V77.668H131.405Z" fill="#DFDFDF"/>
<path d="M126.054 77.668H123.396V80.3186H126.06V77.668H126.054Z" fill="#EAEAEA"/>
<path d="M134.145 75.041H131.404V77.668H134.139L134.145 75.041Z" fill="#DFDFDF"/>
<path d="M134.145 72.3418H131.404V75.0398H134.139L134.145 72.3418Z" fill="#959595"/>
<path d="M136.814 69.6562V88.4298H134.144V85.72H128.758V83.0457H131.41V80.3122H134.144V69.6562H136.814Z" fill="#CACACA"/>
<path d="M134.145 77.668H131.404V80.3186H134.139L134.145 77.668Z" fill="#EAEAEA"/>
<path d="M131.404 80.3125H128.758V83.0519H131.41L131.404 80.3125ZM128.758 83.0519L126.053 83.046V85.7262H128.758V83.0519Z" fill="white"/>
<path d="M134.144 85.7207V88.4305H131.404V91.0753H126.047V88.4305H128.752V85.7207H134.144Z" fill="#DFDFDF"/>
<path d="M128.758 85.7207H126.053V88.4365H128.758V85.7207Z" fill="#EAEAEA"/>
<path d="M126.054 88.4297H123.396V91.0804H126.06V88.4297H126.054Z" fill="white"/>
<path d="M134.146 88.4297V96.3817H123.396V91.0744H131.411V88.4297H134.146Z" fill="#DFDFDF"/>
<path d="M134.145 88.4297V93.7547H126.054V91.0744H131.41V88.4297H134.145ZM131.404 96.3817V104.458H128.77V109.813H126.054V112.493H123.39V117.841H120.703V120.522H117.992V123.196H112.623V120.51H115.281V109.789H118.021V107.138H123.39V104.417H120.732V101.736H123.39V99.1093H126.054V96.3817H131.404Z" fill="#CACACA"/>
<path d="M123.39 99.1035H120.727V101.736H123.39V99.1035ZM118.028 107.138H115.281V109.795H118.022V107.138H118.028Z" fill="#EAEAEA"/>
<path d="M134.115 101.736H131.409V104.464H134.115V101.736ZM131.404 104.458H128.77V109.813H131.409V104.464L131.404 104.458Z" fill="#7F7F7F"/>
<path d="M128.771 109.812V112.493H126.054V109.812H128.777H128.771ZM126.054 112.493H123.39V117.841H126.054V112.493ZM120.709 120.522H117.992V123.202H120.709V120.522ZM123.39 117.841V120.528L120.709 120.522V117.847L123.39 117.841Z" fill="#7F7F7F"/>
<path d="M91.1537 115.156V117.831H88.5078V115.168L91.1537 115.156Z" fill="#D1D1D1"/>
<path d="M112.623 120.509V123.195H101.945V117.823H99.2812V115.166C99.2812 115.166 112.682 115.226 112.629 115.166C112.57 115.113 112.623 120.509 112.623 120.509Z" fill="#DFDFDF"/>
<path d="M109.953 117.848H107.283V125.894H109.947L109.953 117.848Z" fill="#EAEAEA"/>
<path d="M99.2814 117.824H96.5586V120.528H99.2814V117.824ZM99.2814 123.197H96.5586V125.895H99.2814V123.197ZM101.892 125.895H99.2814L99.2873 131.243H101.892V125.895Z" fill="#DFDFDF"/>
<path d="M107.283 125.895H104.561V128.575H107.283V125.895Z" fill="#EAEAEA"/>
<path d="M109.984 48.2491V50.9234H112.659V53.5859H118.022V50.9057H123.403V48.1899H128.759V42.8945H123.403V45.5984H120.715V48.2491H112.624V45.557H109.984V40.2734H107.309V48.2491H109.984Z" fill="#8F8F8F"/>
<path d="M109.982 40.2744H115.351V37.5527H118.032V40.2744H126.017V42.8955H123.401V45.5994H120.714V48.2501H112.622V45.558H109.982V40.2744ZM107.313 48.2501H104.578V50.9126H107.307L107.313 48.2501Z" fill="#868686"/>
<path d="M88.5137 45.557V42.8945H96.6051V45.557H99.2924V48.2491H104.578V50.9057H96.5577V48.3083H93.8705V45.557H88.5137Z" fill="#8F8F8F"/>
<path d="M88.5137 42.8951V40.2148L104.578 40.274V48.2497H99.2924V45.5576H96.6051V42.8951H88.5137Z" fill="#959595"/>
<path d="M104.579 42.9004H101.934V45.5629H104.579V42.9004Z" fill="#868686"/>
<path d="M109.982 37.5587V40.2804H112.64V37.5469L109.982 37.5587Z" fill="#D4D4D4"/>
<path d="M126.066 34.8672H123.402V37.5593H126.066V34.8672Z" fill="#CACACA"/>
<path d="M109.982 32.2031V37.5577H107.307V40.2735H104.578V32.2031H109.982Z" fill="#EAEAEA"/>
<path d="M112.682 32.2032H109.982V34.9071H112.682V32.2032Z" fill="#D1D1D1"/>
<path d="M53.6272 53.5993V56.2796H50.9399V61.6401H45.5358V58.9539H48.2231V56.2796H42.9136V50.925H40.25V45.5586H45.6009V48.3158H48.229V50.925H50.9814V53.5993H53.6272Z" fill="#EAEAEA"/>
<path d="M56.3379 53.5918H53.627V56.2839H56.3379V53.5918Z" fill="#B6B6B6"/>
<path d="M48.2224 56.2793H45.5352V58.9595H48.2224V56.2793Z" fill="#919191"/>
<path d="M34.8745 50.9238V53.5982H32.1872L32.2168 56.2784H29.5059V53.6041H32.1872V50.9297L34.8745 50.9238Z" fill="#959595"/>
<path d="M45.5358 56.2793H42.9551V58.9595H45.5358V56.2793Z" fill="#7F7F7F"/>
<path d="M45.5351 58.9527V64.3073H42.9544V61.6448H40.2316V58.9823H34.9044V61.6212H32.2171L32.1875 53.5982H37.5621V50.9238H42.9485V58.9527H45.5351Z" fill="#919191"/>
<path d="M40.2383 56.2793H37.5273V58.9891H40.2383V56.2793Z" fill="#D1D1D1"/>
<path d="M32.2168 64.3067H29.5059V67.0224H32.2168V64.3008V64.3067Z" fill="#C9C9C9"/>
<path d="M88.5138 37.5469H85.791V40.2212H88.5138V37.5469Z" fill="#D4D4D4"/>
<path d="M88.5152 40.2148H83.1406V42.901H88.5211L88.5152 40.2148Z" fill="#EAEAEA"/>
<path d="M10.7139 61.6398V66.9944H13.3183V72.3667H10.7257V75.0174H8.09766V56.2793H16.0885V61.6398H10.7139ZM21.4453 75.0174H10.7257L10.7317 80.372H21.4453V75.0174Z" fill="#D4D4D4"/>
<path d="M21.4444 72.3422H18.8223V75.0224H21.4385L21.4444 72.3422ZM29.5063 58.9883V67.0172H26.8131V69.6205H24.1199V72.3067L21.4444 72.3422V66.9817H24.1258V61.6389H26.8012V58.9883H29.5063Z" fill="#919191"/>
<path d="M24.1267 61.6387H21.4453V64.3071H24.1267V61.6387Z" fill="#7F7F7F"/>
<path d="M16.0934 67.0169V69.638H18.8281V75.0163H10.7248V72.3656H13.3114V66.9933H10.707V61.6387H16.0934V64.3012H18.8281V67.0169H16.0934Z" fill="#EAEAEA"/>
<path d="M29.5064 53.5977V58.9818H26.8014V61.6384H21.4446V64.3009H24.1259V66.9812H21.4446V72.3417H18.8224V69.6377H16.0996V67.0167H18.8342V64.3068H16.0996V61.6384H18.8342V56.2779H21.4505V53.6036H29.5123L29.5064 53.5977Z" fill="#D4D4D4"/>
<path d="M5.36892 48.2441H2.68164V56.279H5.36892V48.2441Z" fill="white"/>
<path d="M10.7139 50.9238H8.09766V56.2784H10.708L10.7139 50.9238Z" fill="#959595"/>
<path d="M16.0934 40.2031V48.2498H13.4002V56.2787H10.707V45.5577H13.3884V40.209L16.0934 40.2031ZM29.5062 53.5985H26.7952V48.309H34.8748V50.9241H32.1875V53.5985H29.5062Z" fill="#D4D4D4"/>
<path d="M26.7964 50.9238H24.1328V53.5982H26.7964V50.9238Z" fill="#EAEAEA"/>
<path d="M61.6769 26.8484V29.5109H59.0133V32.1971H53.6269V34.8596H50.9633V37.5339H40.2319V40.232H37.5565V42.8944H34.8514V45.5569H29.5124V48.32H26.8014V50.9293H24.1378V53.6036H18.8047V48.249H21.5038V45.5569H24.1319V42.8885H26.8547V40.226H29.4946V37.5103H37.515V34.8123H40.2497V32.2089H45.5946V29.4814H48.2996V26.8129H50.9455V24.1445H56.3497V26.8425L61.6769 26.8484Z" fill="#909090"/>
<path d="M21.4444 53.6046V56.279H18.8222V61.6395H16.0994V56.279H13.4062V48.2441H18.8045V53.5987H21.4503L21.4444 53.6046Z" fill="#EAEAEA"/>
<path d="M32.1937 34.8672V37.5179H29.4887V40.2159H26.8487V42.8784H24.1259V45.5586H21.4978V48.2507H16.0996V45.5586H18.8046V42.8961H21.4564V37.6125H24.1437V34.8731L32.1937 34.8672Z" fill="#9E9E9E"/>
<path d="M48.3008 24.1506V29.4874H45.5899V32.2091H40.2508V34.8183H37.5162V37.5163H32.2008V34.8656H26.8145V32.1617H29.5017V29.5111H32.2008V26.8367H37.5281V24.1506H40.2449V21.5117H45.6017V24.1506H48.3008Z" fill="#868686"/>
<path d="M40.2386 21.5117V24.1506H37.5217V26.8367H32.1945V29.5111H29.4954V32.1617H26.814V34.8656H24.1504V29.5111H26.814V26.8367H29.4598V24.1506H32.2004V21.5117H40.2386Z" fill="#A6A6A6"/>
<path d="M40.2381 18.8379H37.5508V21.5181H40.2381V18.8379Z" fill="#909090"/>
<path d="M50.9881 24.1506H48.2949V26.8249H50.9881V24.1506ZM53.6695 21.5117H50.9881V24.1506H53.6695V21.5117Z" fill="#9E9E9E"/>
<path d="M56.3493 21.5117V24.1624L53.668 24.1506V21.5117H56.3434H56.3493Z" fill="#868686"/>
<path d="M59.0137 18.8325V24.1516H56.3501V21.5128H50.9874V24.1516H45.5951V21.5128H40.2383V18.8385H42.9256V16.1582H56.3264V18.8325H59.0137Z" fill="#B6B6B6"/>
<path d="M56.3496 24.1506V26.8486H61.6768V21.5117H59.0132V24.1506H56.3496Z" fill="#868686"/>
<path d="M37.5618 50.9239V45.5575H40.2431V40.2266H37.5499V42.8891H34.8449V45.5516H29.5059V48.3146H34.8745V50.9239H37.5618Z" fill="#EAEAEA"/>
<path d="M37.5623 50.9238H34.875V53.5982H37.5623V50.9238Z" fill="#7F7F7F"/>
<path d="M40.2439 45.5586H37.5625V50.925H40.2439V45.5586Z" fill="#D1D1D1"/>
<path d="M40.2266 37.5356L40.2502 45.5586H45.6011V48.3158H48.2292V50.925H50.9816V53.5994H53.6334V42.8961H58.9902V40.2277H56.3502V37.5356H53.6274V34.8672H50.9757V37.5356H40.2266Z" fill="#D4D4D4"/>
<path d="M42.9141 40.2331H45.6013V37.541H42.9141V40.2331Z" fill="white"/>
<path d="M53.6267 50.9245V48.2383H50.9453V50.9304L53.6267 50.9245Z" fill="#E6E6E6"/>
<path d="M56.3142 48.2383H53.627V50.9245H56.3142V48.2383Z" fill="#B6B6B6"/>
<path d="M56.3142 42.8945H53.627V45.557H56.3142V42.8945Z" fill="#E6E6E6"/>
<path d="M56.3142 45.5586H53.627V48.2448H56.3142V45.5586Z" fill="#B2B2B2"/>
<path d="M56.3145 48.2377V42.895H58.984V40.2266H67.0458V42.895H61.7008V45.5042H58.984V48.2377H56.3145Z" fill="#A6A6A6"/>
<path d="M56.3497 32.1973H53.627V37.5341H56.3497V32.1973ZM72.432 34.8657V37.5341H69.7684V40.2321H56.3497V37.5341L64.3938 37.54V34.8716H72.4438L72.432 34.8657Z" fill="#EAEAEA"/>
<path d="M64.3652 42.895H72.433V40.2266H75.1144V45.5516H80.4652V48.3087H69.7398V45.5575H64.3652V42.895Z" fill="#8F8F8F"/>
<path d="M67.0449 42.8957V40.2272H69.7677V37.5352H77.7881V42.8957H75.1127V40.2272H72.4313V42.8957H67.0449Z" fill="#B6B6B6"/>
<path d="M85.8742 48.3083V45.557H88.5201V42.8945H83.1692V45.6044H80.4642V42.8945H75.1133V45.557L80.4642 45.6044V48.3083H85.8742Z" fill="#A6A6A6"/>
<path d="M83.1399 40.2148H77.7891V42.901H83.1459V40.2148H83.1399Z" fill="#E6E6E6"/>
<path d="M83.164 42.8945H80.4648V45.6044H83.164V42.8945Z" fill="#EAEAEA"/>
<path d="M69.7091 32.1973L69.6854 34.8598H64.3878V37.5341H56.3438V32.1973H69.7091Z" fill="#D4D4D4"/>
<path d="M69.71 29.5059H64.3887V32.1979H69.71V29.5059ZM69.71 32.1979H72.4328V34.8723H69.6863L69.71 32.1979ZM75.1141 34.8664L72.4328 34.8723V37.5407H75.1141V34.8664Z" fill="#D1D1D1"/>
<path d="M77.771 34.8672H75.1074V37.5415H77.771V34.8672Z" fill="#EAEAEA"/>
<path d="M77.7715 34.8672V40.2159H83.146V37.5356H80.4647V34.8672H77.7715Z" fill="#D4D4D4"/>
<path d="M80.4648 34.8672H85.7921V40.2159H83.1462V37.5356H80.4648V34.8672Z" fill="#E6E6E6"/>
<path d="M80.4649 29.5293H83.1226V32.2036H85.7862V34.8661H91.2022V37.5464H85.7862V34.8661H83.1226V32.2036H80.459L80.4649 29.5293Z" fill="#909090"/>
<path d="M83.1285 32.2031H80.459V34.8656H83.1226L83.1285 32.2031Z" fill="#D4D4D4"/>
<path d="M59.0135 16.1572H56.3262V18.8375H59.0075V16.1572H59.0135ZM101.945 18.8315V24.1565H99.2161V21.494H93.8652V18.8315H88.5203V21.494H85.8448V24.1151H83.1339V26.8072H80.4584V34.8657H77.7711V32.1855H75.1075V34.8598H72.4321V32.1914H69.7093V29.4993H64.388V32.1914H59.0135V29.4993H61.6771V26.8131H64.3407V24.1743H61.6771V21.5118H59.0135V18.8256H64.3643V16.1513H67.0753V13.4355H69.7152V16.1513H72.4498V18.8256H69.7152V21.4881H67.0516V26.8072H72.4262V24.1447H75.1134V21.4822H80.4762V18.796H83.1398V16.1335H88.5262V13.4355H93.8889V16.1158H96.5643V18.8256H101.951L101.945 18.8315Z" fill="#EAEAEA"/>
<path d="M77.7718 32.1869H75.1082V34.8671H77.7718V32.1869ZM64.3413 24.1816H61.6777V26.8264H64.3413V24.1816Z" fill="#D1D1D1"/>
<path d="M101.933 37.5474V34.8672H104.578V29.5244H101.944V26.8027H91.2012V29.5007H96.5165V32.2046H99.2157V37.5474H101.933Z" fill="#909090"/>
<path d="M91.2068 18.832H88.5195V21.4945H91.2068V18.832Z" fill="#C5C5C5"/>
<path d="M93.8648 18.832H91.2012V21.4945H93.8648V18.832Z" fill="#CDCDCD"/>
<path d="M96.5652 21.4883V24.1567L85.8516 24.1212V21.4883H96.5652Z" fill="#B6B6B6"/>
<path d="M91.2012 24.1153V26.8014H99.2157V21.4883H96.5639V24.1508L91.2012 24.1153Z" fill="#9E9E9E"/>
<path d="M101.946 24.1562H99.2168V26.8069H101.946V24.1562Z" fill="#C5C5C5"/>
<path d="M109.983 29.5007V32.2046H104.579V29.5244H101.945V26.8027H107.284V29.5007H109.983Z" fill="#D1D1D1"/>
<path d="M75.1132 21.4941V24.1566H72.4259L72.4141 21.4941H75.1132Z" fill="#D4D4D4"/>
<path d="M96.583 8.11189V10.8276H88.5212V16.1349H83.1407V18.7974H80.4771V21.4954H75.1144L75.138 18.8329H77.7898V16.1586H80.4771V10.7566H75.1025V8.11189H69.7339V10.7921H51.0117V8.10597H56.3804V5.43164H88.5271V8.11189H96.583ZM72.4271 24.152H69.7043V26.85H72.4271V24.152Z" fill="#D4D4D4"/>
<path d="M80.4768 10.7561V16.1581H77.7895V18.8324H75.1377V21.4949H72.4327V24.1574H69.7099V26.8495H67.0581V21.4949H69.7217V18.8324H72.4445V16.1581H69.7217V13.4423H64.3945V10.7916H69.7336V8.10547H75.1022V10.7502L80.4768 10.7561Z" fill="#DFDFDF"/>
<path d="M75.0832 13.4414H72.4492V16.1631H75.0832V13.4414Z" fill="#EAEAEA"/>
<path d="M115.422 21.488V24.1564H101.944C101.849 24.1564 101.944 18.8314 101.944 18.8314H96.5577V16.1216H93.8941V13.4413H88.5195V10.8262H96.5814V13.4413H99.2154V16.1571H107.307V21.488H115.422Z" fill="#DFDFDF"/>
<path d="M120.709 32.1911V32.2029H109.978V29.499H107.279V26.801H101.939V24.1562H115.423V26.801H118.01V32.1911H120.709Z" fill="#EAEAEA"/>
<path d="M142.17 58.93V85.7266H139.483V93.7496H136.849V99.1101H134.114V101.737H131.409V96.3825H134.144V88.4305H136.808V67.0004H139.483V61.6399H134.144L134.126 53.6169H136.772V50.907H134.174V45.5879H131.392V40.2748H128.758V37.5531H126.064V34.8669H120.708V32.1867H118.009V26.8025H115.422V16.1348H118.062V18.7973H120.702V21.4775L123.377 21.4834V24.1578H126.053V29.465H128.799V32.1867H131.451L131.463 37.4998H134.114V42.8071H136.849V48.2682H139.436V58.93H142.17Z" fill="#E6E6E6"/>
<path d="M128.758 67V75.0467H126.053V77.6677H131.41V72.3427H134.144V69.6566H136.808V67H128.758Z" fill="#EAEAEA"/>
<path d="M96.582 10.8262H101.945V13.4413H104.537V16.1571H99.2101V13.4413H96.582V10.8262ZM107.313 16.1571H109.936V18.8314H115.423V21.4939H107.313V16.1571Z" fill="#D4D4D4"/>
<path d="M115.423 16.1342V18.8322H109.936V16.1578H104.538V13.4421H101.945V10.8269H96.5827V8.10526H88.5327V5.43093H77.7895V2.70926H64.3887V5.43093H56.3801V8.11118H51.0115V10.7914H48.3479V13.4421H40.2387V16.1578H34.9529V18.8322H29.5369V21.5124H26.8141V24.1513H24.1387V26.8138H21.4277V32.1565H16.1005V37.517H13.4073V45.5578H10.7141V50.9242H8.10377V56.2788H5.36914V42.8953H8.04458V37.5466H10.72V32.1861H13.4191V29.5236H16.0827V24.1394H18.7759V21.4769H21.4455V18.7848H24.1327V16.1223H29.5191V13.4539H32.1887V10.7441H37.5573V8.10526H42.9141V5.41909H48.2827V2.74476H56.3327V0.0585938H85.8277V2.73884H93.8777V5.41318H101.928V8.09343H104.609V10.7678H109.972L109.96 13.4421H112.653V16.1223H115.417L115.423 16.1342Z" fill="#E6E6E6"/>
<path d="M56.3494 10.7911V13.4417H51.0104V16.1575H42.9249V18.8377H37.5503V21.5121H32.1994V24.1509H29.4589V26.8371H26.8131V29.5114H24.1494V37.6054H21.4562V42.8949H18.8045V45.5574H16.0994V40.2028H13.4062V37.5107H16.0994V32.1502H21.4267V26.8134H24.1494V24.145H26.8131V21.5062H29.5358V18.8259H34.9578V16.1516H40.2435V13.4358H48.3527V10.7852H56.3494V10.7911Z" fill="#EAEAEA"/>
</g>
</svg>
