<svg width="95" height="86" viewBox="0 0 95 86" fill="none" xmlns="http://www.w3.org/2000/svg">
<path d="M94.6707 42.5H51.6707V85.5H94.6707V42.5Z" fill="black"/>
<path d="M51.6707 0.5C44.8096 1.15595 38.2542 1.2926 32.3653 5.28294C26.6324 9.43509 22.4217 15.304 20.3652 22.0096C18.9978 27.0863 16.8828 31.9389 14.0875 36.4131C12.838 38.386 11.1102 40.023 9.05955 41.1774C7.00885 42.3317 4.69938 42.9675 2.33758 43.0274H0.670654V85.5H3.86549C10.7266 84.8441 17.2542 84.7344 23.1708 80.7441C28.8897 76.5723 33.0884 70.6971 35.1431 63.9904C37.5598 56.5564 39.8655 49.3409 46.4488 44.4486C47.6682 43.6927 49.0446 43.2163 50.4764 43.0547H51.615L51.6707 0.5Z" fill="black"/>
</svg>
