<svg width="346" height="142" viewBox="0 0 346 142" fill="none" xmlns="http://www.w3.org/2000/svg">
<mask id="mask0_12694_144160" style="mask-type:luminance" maskUnits="userSpaceOnUse" x="0" y="1" width="346" height="140">
<path d="M0 1.73242H346V140.269H0V1.73242Z" fill="white"/>
</mask>
<g mask="url(#mask0_12694_144160)">
<path d="M158.227 102.674V37.9258H184.654C192.294 37.9258 198.331 39.9969 202.767 44.1184C207.206 48.2502 209.424 53.712 209.424 60.4899C209.424 67.7008 206.961 73.3011 202.027 77.2736C197.103 81.2566 190.841 83.2446 183.263 83.2446H172.461V102.674H158.227ZM172.461 70.5789H183.727C187.239 70.5789 190 69.6576 191.996 67.8081C194 65.9587 194.996 63.5585 194.996 60.5938C194.996 57.4491 193.979 55.0281 191.951 53.3276C189.913 51.6409 187.08 50.7889 183.45 50.7889H172.458V70.5789H172.461ZM261.909 95.886C256.698 101.15 250.159 103.79 242.318 103.79C234.675 103.79 228.319 101.303 223.236 96.3432C218.185 91.4009 215.638 85.3261 215.614 78.1014C215.589 71.366 218.211 64.891 222.915 60.0743C228.129 54.8065 234.665 52.1708 242.509 52.1708C250.148 52.1708 256.508 54.6575 261.591 59.6171C266.653 64.556 269.189 70.6447 269.21 77.8797C269.23 84.5503 266.597 91.1446 261.909 95.886ZM242.498 91.6676C246.38 91.6676 249.491 90.3619 251.826 87.7366C254.162 85.1113 255.338 81.8627 255.338 77.9732C255.338 74.212 254.117 70.9945 251.688 68.3103C249.256 65.6296 246.128 64.2824 242.305 64.2824C238.422 64.2824 235.315 65.5985 232.98 68.2099C230.634 70.8351 229.465 74.0873 229.465 77.9767C229.465 81.7345 230.676 84.9624 233.115 87.6396C235.558 90.3272 238.678 91.6676 242.498 91.6676ZM279.375 102.674V53.0955H293.426V63.0806C296.63 55.4957 301.896 51.8626 309.228 52.1708V66.873H308.484C303.678 66.873 299.972 68.338 297.353 71.2715C294.73 74.2016 293.426 78.569 293.426 84.3598V102.674H279.375ZM334.721 103.512C330.106 103.512 326.538 102.387 324.044 100.132C321.552 97.8809 320.3 94.0469 320.3 88.6198V65.1205H314.387V53.0955H320.3V40.4194H334.348V53.0955H345.99V65.1205H334.351V86.3028C334.351 89.5099 335.856 91.1169 338.884 91.1169C341.34 91.1169 343.658 90.5281 345.81 89.361V100.645C342.617 102.557 338.915 103.512 334.721 103.512Z" fill="black"/>
<path d="M66.8818 10.7304C66.8818 10.7304 47.4158 10.8273 36.8801 11.0074L39.7727 1.73242L0 29.6614L26.7216 58.0268L29.1851 50.2064C29.6314 48.3881 31.0846 47.1447 32.8977 47.1447L60.0241 47.2209C61.851 47.2209 63.4322 45.9568 63.8232 44.1731L65.7331 35.5354L92.465 63.8557L52.6681 91.6565L52.6923 91.5803L57.1281 77.931H30.8286C27.7676 77.9311 24.7851 78.9013 22.3088 80.7025C19.8326 82.5037 17.9895 85.0434 17.044 87.9576L0.15916 139.978H36.9736L43.6064 119.544C44.16 117.854 45.7308 116.704 47.5023 116.704H66.8783C96.1153 116.704 119.816 92.983 119.816 63.7172C119.816 34.4513 96.1153 10.7269 66.8783 10.7269L66.8818 10.7304Z" fill="url(#paint0_linear_12694_144160)"/>
</g>
<defs>
<linearGradient id="paint0_linear_12694_144160" x1="59.9099" y1="1.73242" x2="59.9099" y2="139.978" gradientUnits="userSpaceOnUse">
<stop stop-color="#826DF9"/>
<stop offset="0.283" stop-color="#7F6DF9"/>
<stop offset="0.523" stop-color="#746FFA"/>
<stop offset="0.749" stop-color="#6371FC"/>
<stop offset="0.964" stop-color="#4A74FF"/>
<stop offset="1" stop-color="#4575FF"/>
</linearGradient>
</defs>
</svg>
