<svg xmlns:xlink="http://www.w3.org/1999/xlink" width="100" height="41" fill="none" xmlns="http://www.w3.org/2000/svg" class="mr-10 w-24" viewBox="0 0 100 41"><g clip-path="url(#logo_svg__a)" fill="none"><path d="M45.73 29.645V10.95h7.638c2.208 0 3.953.598 5.235 1.788 1.283 1.193 1.924 2.77 1.924 4.727 0 2.082-.712 3.699-2.138 4.846-1.423 1.15-3.233 1.724-5.423 1.724h-3.122v5.61H45.73Zm4.114-9.267H53.1c1.015 0 1.813-.266 2.39-.8.579-.534.867-1.227.867-2.083 0-.908-.294-1.607-.88-2.098-.589-.487-1.408-.733-2.457-.733h-3.177v5.714ZM75.696 27.685c-1.506 1.52-3.396 2.282-5.662 2.282-2.209 0-4.046-.718-5.515-2.15-1.46-1.427-2.196-3.181-2.203-5.267a7.407 7.407 0 0 1 2.11-5.205c1.507-1.521 3.396-2.282 5.663-2.282 2.208 0 4.046.718 5.515 2.15 1.463 1.426 2.196 3.184 2.202 5.273.006 1.926-.755 3.83-2.11 5.199Zm-5.61-1.218c1.122 0 2.021-.377 2.696-1.135.675-.758 1.015-1.696 1.015-2.819 0-1.086-.353-2.015-1.055-2.79-.703-.774-1.607-1.163-2.712-1.163-1.122 0-2.02.38-2.695 1.134-.678.758-1.016 1.697-1.016 2.82 0 1.085.35 2.017 1.055 2.79.706.776 1.608 1.163 2.712 1.163ZM80.744 29.645V15.33h4.061v2.883c.926-2.19 2.448-3.239 4.567-3.15v4.245h-.215c-1.389 0-2.46.423-3.217 1.27-.758.846-1.135 2.107-1.135 3.779v5.288h-4.06ZM96.74 29.887c-1.334 0-2.365-.325-3.086-.976-.72-.65-1.082-1.757-1.082-3.324v-6.785h-1.709V15.33h1.709v-3.66h4.06v3.66h3.365v3.472h-3.364v6.116c0 .926.435 1.39 1.31 1.39.71 0 1.38-.17 2.002-.507v3.258c-.923.552-1.993.828-3.205.828Z" fill="#FFFFFF"></path><path d="M19.33 3.098s-5.626.028-8.671.08L11.495.5 0 8.564l7.723 8.19.712-2.258c.129-.525.549-.884 1.073-.884l7.84.022c.528 0 .985-.365 1.098-.88l.552-2.494 7.726 8.177-11.502 8.027.007-.022 1.282-3.941H8.91a4.189 4.189 0 0 0-3.984 2.895l-4.88 15.02h10.64l1.917-5.9c.16-.488.614-.82 1.126-.82h5.6c8.45 0 15.3-6.849 15.3-15.299s-6.85-15.3-15.3-15.3Z" fill="url(&quot;#logo_svg__b&quot;)"></path></g><defs><linearGradient id="logo_svg__b" x1="17.315" y1="0.5" x2="17.315" y2="40.416" gradientUnits="userSpaceOnUse"><stop stop-color="#826DF9"></stop><stop offset="0.283" stop-color="#7F6DF9"></stop><stop offset="0.523" stop-color="#746FFA"></stop><stop offset="0.749" stop-color="#6371FC"></stop><stop offset="0.964" stop-color="#4A74FF"></stop><stop offset="1" stop-color="#4575FF"></stop></linearGradient><clipPath id="logo_svg__a"><path fill="#fff" transform="translate(0 .5)" d="M0 0h100v40H0z"></path></clipPath><linearGradient id="logo_svg__b" x1="17.315" y1="0.5" x2="17.315" y2="40.416" gradientUnits="userSpaceOnUse"><stop stop-color="#826DF9"></stop><stop offset="0.283" stop-color="#7F6DF9"></stop><stop offset="0.523" stop-color="#746FFA"></stop><stop offset="0.749" stop-color="#6371FC"></stop><stop offset="0.964" stop-color="#4A74FF"></stop><stop offset="1" stop-color="#4575FF"></stop></linearGradient></defs></svg>