<svg width="128" height="128" viewBox="0 0 128 128" fill="none" xmlns="http://www.w3.org/2000/svg">
<circle cx="64" cy="64" r="62.5" fill="#1B201E" stroke="url(#paint0_linear_501:157)" stroke-width="3"/>
<path d="M97.1896 36.8574C95.691 35.0275 92.9605 35.0398 91.288 36.7122C89.6196 38.3806 89.6393 41.0699 91.0849 42.9347C95.5951 48.7527 98.3041 56.0604 98.3041 64.0001C98.3041 73.0981 94.6899 81.8235 88.2567 88.2567C81.8235 94.6899 73.0981 98.3041 64.0001 98.3041C54.9021 98.3041 46.1768 94.6899 39.7435 88.2567C33.3103 81.8235 29.6961 73.0981 29.6961 64.0001C29.6961 46.5051 42.7745 32.0974 59.7121 29.9963V38.658C47.5342 40.7163 38.2721 51.2648 38.2721 64.0001C38.2721 70.8236 40.9827 77.3676 45.8077 82.1926C50.6326 87.0175 57.1766 89.7281 64.0001 89.7281C70.8236 89.7281 77.3676 87.0175 82.1926 82.1926C87.0175 77.3676 89.7281 70.8236 89.7281 64.0001C89.7281 58.4228 87.9643 53.2667 84.9523 49.0681C83.5741 47.147 80.83 47.1702 79.1582 48.842C77.4852 50.515 77.5335 53.2065 78.7413 55.2409C80.2688 57.8139 81.1521 60.8088 81.1521 64.0001C81.1521 68.5491 79.345 72.9118 76.1284 76.1284C72.9118 79.345 68.5491 81.1521 64.0001 81.1521C59.4511 81.1521 55.0884 79.345 51.8718 76.1284C48.6552 72.9118 46.8481 68.5491 46.8481 64.0001C46.8481 56.0244 52.3368 49.378 59.7121 47.4484V56.6248C57.1393 58.1256 55.4241 60.827 55.4241 64.0001C55.4241 66.2746 56.3277 68.4559 57.936 70.0643C59.5443 71.6726 61.7256 72.5761 64.0001 72.5761C66.2746 72.5761 68.4559 71.6726 70.0643 70.0643C71.6726 68.4559 72.5761 66.2746 72.5761 64.0001C72.5761 60.827 70.8609 58.0827 68.2881 56.6248V25.4081C68.2881 23.0399 66.3683 21.1201 64.0001 21.1201C58.369 21.1201 52.7931 22.2292 47.5906 24.3842C42.3882 26.5391 37.6612 29.6976 33.6794 33.6794C25.6378 41.7209 21.1201 52.6276 21.1201 64.0001C21.1201 75.3726 25.6378 86.2793 33.6794 94.3208C37.6612 98.3026 42.3882 101.461 47.5906 103.616C52.7931 105.771 58.369 106.88 64.0001 106.88C75.3726 106.88 86.2793 102.362 94.3208 94.3208C102.362 86.2793 106.88 75.3726 106.88 64.0001C106.88 53.704 103.245 44.2518 97.1896 36.8574Z" fill="url(#paint1_linear_501:157)"/>
<defs>
<linearGradient id="paint0_linear_501:157" x1="106.523" y1="0.134685" x2="-7.18831" y2="114.681" gradientUnits="userSpaceOnUse">
<stop offset="0.0416667" stop-color="#00F299"/>
<stop offset="0.489583" stop-color="#6787CB"/>
<stop offset="0.59375" stop-color="#7F6ED7"/>
<stop offset="0.640625" stop-color="#8A63DC"/>
<stop offset="0.947917" stop-color="#D119FF"/>
</linearGradient>
<linearGradient id="paint1_linear_501:157" x1="92.4905" y1="21.2104" x2="16.3039" y2="97.9565" gradientUnits="userSpaceOnUse">
<stop offset="0.0416667" stop-color="#00F299"/>
<stop offset="0.489583" stop-color="#6787CB"/>
<stop offset="0.59375" stop-color="#7F6ED7"/>
<stop offset="0.640625" stop-color="#8A63DC"/>
<stop offset="0.947917" stop-color="#D119FF"/>
</linearGradient>
</defs>
</svg>
