<?xml version="1.0" encoding="UTF-8"?>
<svg width="24px" height="24px" viewBox="0 0 24 24" version="1.1" xmlns="http://www.w3.org/2000/svg" xmlns:xlink="http://www.w3.org/1999/xlink">
    <title>pSOL icon</title>
    <defs>
        <rect id="path-1" x="0" y="0" width="24" height="24"></rect>
        <circle id="path-3" cx="12" cy="12" r="12"></circle>
        <circle id="path-5" cx="12.5217391" cy="12.5217391" r="12.5217391"></circle>
        <linearGradient x1="90.7373624%" y1="33.4093112%" x2="31.6861618%" y2="55.4769926%" id="linearGradient-7">
            <stop stop-color="#00FFA3" offset="0%"></stop>
            <stop stop-color="#DC1FFF" offset="100%"></stop>
        </linearGradient>
        <linearGradient x1="66.5881314%" y1="43.2430642%" x2="7.53717465%" y2="65.310342%" id="linearGradient-8">
            <stop stop-color="#00FFA3" offset="0%"></stop>
            <stop stop-color="#DC1FFF" offset="100%"></stop>
        </linearGradient>
        <linearGradient x1="78.5861218%" y1="38.3581342%" x2="19.5348394%" y2="60.4249459%" id="linearGradient-9">
            <stop stop-color="#00FFA3" offset="0%"></stop>
            <stop stop-color="#DC1FFF" offset="100%"></stop>
        </linearGradient>
    </defs>
    <g id="pSOL-icon" stroke="none" stroke-width="1" fill="none" fill-rule="evenodd">
        <mask id="mask-2" fill="white">
            <use xlink:href="#path-1"></use>
        </mask>
        <g id="Mask"></g>
        <g id="pSOL" mask="url(#mask-2)">
            <mask id="mask-4" fill="white">
                <use xlink:href="#path-3"></use>
            </mask>
            <use id="Mask" fill="#FFFFFF" fill-rule="nonzero" xlink:href="#path-3"></use>
            <g id="Clipped" mask="url(#mask-4)">
                <g transform="translate(-0.521739, -0.521739)">
                    <mask id="mask-6" fill="white">
                        <use xlink:href="#path-5"></use>
                    </mask>
                    <g id="Oval" stroke="none" fill="none"></g>
                    <g id="Group" stroke="none" stroke-width="1" fill="none" fill-rule="evenodd" mask="url(#mask-6)">
                        <g transform="translate(-0.260870, 8.608696)" fill-rule="nonzero" id="Rectangle">
                            <rect stroke="none" fill="#2DD6A0" x="0.260869565" y="2.34782609" width="25.0434783" height="3.13043478"></rect>
                            <rect stroke="#000000" stroke-width="0.5" fill="#62DDF9" x="0" y="0" width="25.5652174" height="2.60869565"></rect>
                            <rect stroke="#000000" stroke-width="0.5" fill="#BF88FF" x="0" y="5.2173913" width="25.5652174" height="2.60869565"></rect>
                        </g>
                    </g>
                </g>
            </g>
            <circle id="Oval" stroke="#000000" mask="url(#mask-4)" cx="12" cy="12" r="12"></circle>
            <circle id="Oval" stroke="#000000" stroke-width="0.5" fill="#000000" fill-rule="nonzero" mask="url(#mask-4)" cx="12" cy="12" r="9.13043478"></circle>
            <path d="M7.69752,14.7467478 C7.77448696,14.6664 7.88031652,14.6195478 7.99255304,14.6195478 L18.1710261,14.6195478 C18.3570783,14.6195478 18.4500522,14.853913 18.3185739,14.9911304 L16.3078957,17.0901913 C16.230887,17.1705391 16.1250783,17.2173913 16.0129043,17.2173913 L5.83434783,17.2173913 C5.64834783,17.2173913 5.55535304,16.9830261 5.6868313,16.8458087 L7.69752,14.7467478 Z" id="Path" fill="url(#linearGradient-7)" fill-rule="nonzero" mask="url(#mask-4)"></path>
            <path d="M7.69663304,6.90981913 C7.77680348,6.8294713 7.88262261,6.7826087 7.99165565,6.7826087 L18.1701913,6.7826087 C18.3561391,6.7826087 18.4492174,7.01694261 18.3177391,7.15420174 L16.3069565,9.25321043 C16.2300522,9.33355826 16.1242435,9.38042087 16.0119652,9.38042087 L5.83345043,9.38042087 C5.64746087,9.38042087 5.55445565,9.14608696 5.68594435,9.00882783 L7.69663304,6.90981913 Z" id="Path" fill="url(#linearGradient-8)" fill-rule="nonzero" mask="url(#mask-4)"></path>
            <path d="M16.3078957,10.8032348 C16.230887,10.722887 16.1250783,10.6760348 16.0129043,10.6760348 L5.83434783,10.6760348 C5.64834783,10.6760348 5.55535304,10.9102957 5.6868313,11.0476174 L7.69752,13.1465739 C7.77448696,13.2269217 7.88031652,13.2737739 7.99255304,13.2737739 L18.1710261,13.2737739 C18.3570783,13.2737739 18.4500522,13.039513 18.3185739,12.9021913 L16.3078957,10.8032348 Z" id="Path" fill="url(#linearGradient-9)" fill-rule="nonzero" mask="url(#mask-4)"></path>
        </g>
    </g>
</svg>