<svg width="24" height="24" viewBox="0 0 24 24" fill="none" xmlns="http://www.w3.org/2000/svg">
<g clip-path="url(#clip0)">
<path d="M12 0C18.6271 0 24 5.37288 24 12C24 18.6271 18.6269 24 12 24C5.37312 24 0 18.6286 0 12C0 5.37144 5.37216 0 12 0Z" fill="#765BC0"/>
<path d="M7.43434 19.6H10.1343V15.244C10.4823 15.568 10.8963 15.814 11.3763 15.982C11.8683 16.138 12.3903 16.216 12.9423 16.216C13.9023 16.216 14.7603 15.988 15.5163 15.532C16.2723 15.076 16.8663 14.458 17.2983 13.678C17.7423 12.898 17.9643 12.034 17.9643 11.086C17.9643 10.126 17.7423 9.262 17.2983 8.494C16.8543 7.714 16.2543 7.096 15.4983 6.64C14.7423 6.184 13.8963 5.956 12.9603 5.956C11.6523 5.956 10.6503 6.37 9.95434 7.198V6.172H7.43434V19.6ZM12.6183 13.786C11.8863 13.786 11.2863 13.54 10.8183 13.048C10.3623 12.544 10.1343 11.89 10.1343 11.086C10.1343 10.294 10.3623 9.646 10.8183 9.142C11.2863 8.638 11.8863 8.386 12.6183 8.386C13.3623 8.386 13.9743 8.644 14.4543 9.16C14.9343 9.664 15.1743 10.306 15.1743 11.086C15.1743 11.878 14.9343 12.526 14.4543 13.03C13.9743 13.534 13.3623 13.786 12.6183 13.786Z" fill="white"/>
</g>
<defs>
<clipPath id="clip0">
<rect width="24" height="24" fill="white"/>
</clipPath>
</defs>
</svg>
