<svg width="128" height="128" viewBox="0 0 128 128" fill="none" xmlns="http://www.w3.org/2000/svg">
<circle cx="64" cy="64" r="64" fill="black"/>
<g clip-path="url(#clip0)">
<path d="M32.28 83.2719C32.8477 82.7043 33.6283 82.3731 34.4562 82.3731H109.532C110.904 82.3731 111.59 84.0289 110.62 84.9986L95.7897 99.8294C95.222 100.397 94.4415 100.728 93.6136 100.728H18.5374C17.1655 100.728 16.4795 99.0725 17.4493 98.1027L32.28 83.2719Z" fill="url(#paint0_linear)"/>
<path d="M32.2796 27.8988C32.8709 27.3311 33.6515 27 34.4557 27H109.532C110.904 27 111.59 28.6557 110.62 29.6255L95.7892 44.4563C95.2215 45.024 94.441 45.3551 93.6131 45.3551H18.5369C17.165 45.3551 16.479 43.6994 17.4488 42.7296L32.2796 27.8988Z" fill="url(#paint1_linear)"/>
<path d="M95.7897 55.4073C95.222 54.8396 94.4415 54.5085 93.6136 54.5085H18.5374C17.1655 54.5085 16.4795 56.1642 17.4493 57.134L32.28 71.9648C32.8477 72.5325 33.6283 72.8636 34.4562 72.8636H109.532C110.904 72.8636 111.59 71.2079 110.62 70.2381L95.7897 55.4073Z" fill="url(#paint2_linear)"/>
</g>
<defs>
<linearGradient id="paint0_linear" x1="102.36" y1="18.1407" x2="50.4016" y2="117.663" gradientUnits="userSpaceOnUse">
<stop stop-color="#00FFA3"/>
<stop offset="1" stop-color="#DC1FFF"/>
</linearGradient>
<linearGradient id="paint1_linear" x1="79.6408" y1="6.2792" x2="27.682" y2="105.801" gradientUnits="userSpaceOnUse">
<stop stop-color="#00FFA3"/>
<stop offset="1" stop-color="#DC1FFF"/>
</linearGradient>
<linearGradient id="paint2_linear" x1="90.9285" y1="12.1715" x2="38.9698" y2="111.693" gradientUnits="userSpaceOnUse">
<stop stop-color="#00FFA3"/>
<stop offset="1" stop-color="#DC1FFF"/>
</linearGradient>
<clipPath id="clip0">
<rect width="94.07" height="73.728" fill="white" transform="translate(17 27)"/>
</clipPath>
</defs>
</svg>
