<svg width="24" height="24" viewBox="0 0 24 24" fill="none" xmlns="http://www.w3.org/2000/svg">
<path d="M12 24C18.65 24 24 18.65 24 12C24 5.34996 18.65 0 12 0C5.34996 0 0 5.34996 0 12C0 18.65 5.34996 24 12 24Z" fill="#2775CA"/>
<path d="M15.3 13.9C15.3 12.15 14.25 11.55 12.15 11.3C10.65 11.1 10.3501 10.7 10.3501 9.99997C10.3501 9.29989 10.8501 8.85001 11.85 8.85001C12.75 8.85001 13.2501 9.15001 13.5 9.90001C13.5501 10.05 13.7001 10.15 13.8501 10.15H14.65C14.85 10.15 15 9.99997 15 9.80005V9.75001C14.8 8.64997 13.9 7.80001 12.75 7.70005V6.50005C12.75 6.30002 12.6 6.15002 12.3501 6.09998H11.6001C11.4 6.09998 11.25 6.24998 11.2 6.50005V7.65001C9.70001 7.85005 8.7501 8.85001 8.7501 10.1C8.7501 11.75 9.75005 12.4 11.85 12.65C13.2501 12.9 13.7001 13.2 13.7001 14C13.7001 14.8001 13 15.35 12.0501 15.35C10.75 15.35 10.3 14.8 10.15 14.05C10.1001 13.85 9.95009 13.75 9.80009 13.75H8.95002C8.7501 13.75 8.6001 13.9 8.6001 14.1V14.15C8.80002 15.4 9.60005 16.3 11.25 16.55V17.75C11.25 17.95 11.4 18.1 11.65 18.15H12.4C12.6 18.15 12.75 18 12.8001 17.75V16.55C14.3001 16.3 15.3 15.25 15.3 13.9Z" fill="white"/>
<path d="M9.45 19.15C5.55 17.75 3.54996 13.4 5.00004 9.54993C5.75004 7.44993 7.40004 5.84997 9.45 5.09996C9.65004 5 9.75 4.85 9.75 4.59992V3.89996C9.75 3.69992 9.65004 3.54992 9.45 3.5C9.39996 3.5 9.3 3.5 9.24996 3.54992C4.5 5.04992 1.89996 10.1 3.39996 14.85C4.29996 17.65 6.45 19.8 9.24996 20.7C9.45 20.8 9.65004 20.7 9.69996 20.5C9.75 20.45 9.75 20.4 9.75 20.3V19.6C9.75 19.45 9.6 19.25 9.45 19.15ZM14.75 3.54992C14.55 3.44996 14.35 3.54992 14.3 3.74996C14.25 3.8 14.25 3.84992 14.25 3.95V4.64996C14.25 4.85 14.4 5.04992 14.55 5.15C18.45 6.54993 20.45 10.8999 19 14.75C18.25 16.85 16.6 18.45 14.55 19.2C14.35 19.3 14.25 19.45 14.25 19.7V20.4C14.25 20.6 14.35 20.75 14.55 20.8C14.6 20.8 14.7 20.8 14.75 20.75C19.5 19.25 22.1 14.1999 20.6 9.44997C19.7 6.59997 17.5 4.44992 14.75 3.54992Z" fill="white"/>
</svg>
