<svg width="24" height="24" viewBox="0 0 24 24" fill="none" xmlns="http://www.w3.org/2000/svg">
<g clip-path="url(#clip0)">
<path d="M12 0C18.6271 0 24 5.37288 24 12C24 18.6271 18.6269 24 12 24C5.37312 24 0 18.6286 0 12C0 5.37144 5.37216 0 12 0Z" fill="#00A0FF"/>
<path d="M15.2051 14.568C15.2531 14.688 15.2771 14.766 15.2771 14.802C15.2771 14.886 15.1751 14.94 14.9711 14.964C14.7791 14.988 14.3531 15 13.6931 15H12.9731L12.5951 14.118C12.4151 13.698 12.1571 12.996 11.8211 12.012C11.5211 12.948 11.2871 13.65 11.1191 14.118L10.9211 14.622C10.8731 14.754 10.7891 14.844 10.6691 14.892C10.5611 14.94 10.3391 14.97 10.0031 14.982C9.66705 14.994 9.23505 15 8.70705 15L10.8311 10.338L8.97705 6.324C8.94105 6.252 8.92305 6.198 8.92305 6.162C8.92305 6.09 9.04305 6.048 9.28305 6.036C9.52305 6.012 10.1231 6 11.0831 6L11.4971 6.99C11.5571 7.158 11.7071 7.596 11.9471 8.304L12.1451 8.88C12.3731 8.136 12.5891 7.506 12.7931 6.99L13.0631 6.342C13.1111 6.222 13.1771 6.144 13.2611 6.108C13.3451 6.06 13.5551 6.03 13.8911 6.018C14.2271 6.006 14.6771 6 15.2411 6L13.2431 10.194L15.2051 14.568Z" fill="white"/>
</g>
<defs>
<clipPath id="clip0">
<rect width="24" height="24" fill="white"/>
</clipPath>
</defs>
</svg>
