<svg width="128" height="128" viewBox="0 0 128 128" fill="none" xmlns="http://www.w3.org/2000/svg">
<circle cx="64" cy="64" r="64" fill="white"/>
<path d="M64 0C99.3495 0 128 28.6563 128 64C128 99.3495 99.3495 128 64 128C28.6563 128 0 99.3466 0 64C0 28.6563 28.6563 0 64 0Z" fill="#F5AC37"/>
<path d="M66.3688 68.6123H90.6878C91.2062 68.6123 91.451 68.6123 91.4884 67.9326C91.6871 65.4587 91.6871 62.9703 91.4884 60.4935C91.4884 60.0125 91.2494 59.8138 90.7281 59.8138H42.3292C41.7302 59.8138 41.5689 60.0125 41.5689 60.5741V67.6936C41.5689 68.6123 41.5689 68.6123 42.5279 68.6123H66.3688V68.6123ZM88.7725 51.4934C88.8417 51.312 88.8417 51.1132 88.7725 50.9347C88.3665 50.0505 87.8855 49.2067 87.3268 48.4147C86.4858 47.061 85.4951 45.814 84.3661 44.6937C83.8333 44.0169 83.217 43.4092 82.5258 42.8936C79.064 39.9474 74.9484 37.8622 70.5247 36.8139C68.2927 36.3128 66.0117 36.0737 63.7249 36.0939H42.2457C41.6466 36.0939 41.566 36.3329 41.566 36.8542V51.0528C41.566 51.6518 41.566 51.8131 42.3263 51.8131H88.4845C88.4845 51.8131 88.8849 51.7325 88.9655 51.4934H88.7697H88.7725ZM88.7725 76.9327C88.0929 76.8578 87.4074 76.8578 86.7277 76.9327H42.3695C41.7705 76.9327 41.5689 76.9327 41.5689 77.7333V91.6151C41.5689 92.2545 41.5689 92.4157 42.3695 92.4157H62.8494C63.8286 92.4906 64.8078 92.4215 65.7669 92.217C68.7391 92.0039 71.6623 91.3588 74.4502 90.296C75.4639 89.9447 76.4431 89.4867 77.3676 88.9367H77.647C82.448 86.4397 86.3476 82.5171 88.8071 77.7017C88.8071 77.7017 89.0865 77.0969 88.7725 76.9385V76.9327ZM33.5307 99.6129V99.3739V90.0541V86.8947V77.4943C33.5307 76.973 33.5307 76.8953 32.8913 76.8953H24.2109C23.73 76.8953 23.5312 76.8953 23.5312 76.2559V68.6555H32.8107C33.3291 68.6555 33.5307 68.6555 33.5307 67.9758V60.4561C33.5307 59.9751 33.5307 59.857 32.8913 59.857H24.2109C23.73 59.857 23.5312 59.857 23.5312 59.2176V52.1789C23.5312 51.7382 23.5313 51.6201 24.1706 51.6201H32.7704C33.3694 51.6201 33.5307 51.6201 33.5307 50.8598V29.2999C33.5307 28.6605 33.5307 28.4993 34.3314 28.4993H64.3297C66.507 28.5857 68.6699 28.8247 70.8098 29.2193C75.2191 30.0343 79.4556 31.6097 83.3293 33.859C85.8983 35.371 88.2628 37.197 90.3681 39.2994C91.9521 40.9439 93.3806 42.7237 94.6478 44.6188C95.9064 46.5398 96.9518 48.5932 97.7726 50.7388C97.8734 51.2976 98.4091 51.6749 98.9678 51.5798H106.128C107.046 51.5798 107.046 51.5798 107.087 52.4611V59.0218C107.087 59.6612 106.848 59.8225 106.205 59.8225H100.684C100.126 59.8225 99.9643 59.8225 100.005 60.5425C100.224 62.979 100.224 65.4241 100.005 67.8606C100.005 68.5403 100.005 68.6209 100.768 68.6209H107.084C107.363 68.9809 107.084 69.3409 107.084 69.7038C107.124 70.1675 107.124 70.637 107.084 71.1006V75.942C107.084 76.6217 106.885 76.8233 106.283 76.8233H98.723C98.196 76.7225 97.6833 77.0594 97.5624 77.5836C95.7624 82.2636 92.8823 86.4598 89.1613 89.8237C87.802 91.0477 86.3735 92.1997 84.8816 93.2625C83.2803 94.1841 81.7222 95.1431 80.0806 95.9035C77.0595 97.2628 73.8914 98.2651 70.6399 98.9016C67.5525 99.4545 64.4219 99.7051 61.2798 99.6619H33.5192V99.6216L33.5307 99.6129Z" fill="#FEFEFD"/>
<circle cx="110" cy="110" r="18" fill="black"/>
<path d="M103.766 119H107.315L110.067 109.738H110.187L112.938 119H116.495L120.933 103.727H116.861L114.549 113.757H114.422L111.79 103.727H108.464L105.831 113.735H105.705L103.4 103.727H99.3211L103.766 119Z" fill="white"/>
</svg>
