<svg width="128" height="128" viewBox="0 0 128 128" fill="none" xmlns="http://www.w3.org/2000/svg">
<path d="M64 128C99.4669 128 128 99.4669 128 64C128 28.5331 99.4669 0 64 0C28.5331 0 0 28.5331 0 64C0 99.4669 28.5331 128 64 128Z" fill="#2775CA"/>
<path d="M81.5997 74.1331C81.5997 64.8 75.9997 61.6 64.7997 60.2669C56.7998 59.2 55.1998 57.0669 55.1998 53.3331C55.1998 49.5994 57.8667 47.2 63.1998 47.2C67.9997 47.2 70.6666 48.8 71.9997 52.8C72.2666 53.6 73.0666 54.1331 73.8666 54.1331H78.1328C79.1997 54.1331 79.9997 53.3331 79.9997 52.2669V52C78.9328 46.1331 74.1328 41.6 67.9997 41.0669V34.6669C67.9997 33.6 67.1997 32.8 65.8666 32.5332H61.8666C60.7998 32.5332 59.9998 33.3332 59.7329 34.6669V40.8C51.7329 41.8669 46.6667 47.2 46.6667 53.8669C46.6667 62.6669 51.9998 66.1331 63.1998 67.4669C70.6666 68.8 73.0666 70.4 73.0666 74.6669C73.0666 78.9337 69.3328 81.8668 64.2666 81.8668C57.3329 81.8668 54.9329 78.9331 54.1329 74.9331C53.8667 73.8668 53.0667 73.3331 52.2667 73.3331H47.7329C46.6667 73.3331 45.8667 74.1331 45.8667 75.2V75.4669C46.9329 82.1331 51.1998 86.9331 59.9998 88.2668V94.6668C59.9998 95.7331 60.7998 96.5331 62.1329 96.7999H66.1329C67.1997 96.7999 67.9997 95.9999 68.2666 94.6668V88.2668C76.2666 86.9331 81.5997 81.3331 81.5997 74.1331V74.1331Z" fill="white"/>
<path d="M50.3998 102.133C29.5998 94.6671 18.9329 71.4671 26.6667 50.9333C30.6667 39.7332 39.4667 31.2001 50.3998 27.2001C51.4667 26.667 51.9998 25.867 51.9998 24.5332V20.8001C51.9998 19.7332 51.4667 18.9332 50.3998 18.6669C50.1329 18.6669 49.5998 18.6669 49.3329 18.9332C23.9998 26.9332 10.1329 53.867 18.1329 79.2002C22.9329 94.1334 34.3998 105.6 49.3329 110.4C50.3998 110.933 51.4667 110.4 51.7329 109.333C51.9998 109.067 51.9998 108.8 51.9998 108.267V104.533C51.9998 103.733 51.1998 102.667 50.3998 102.133ZM78.6667 18.9332C77.5998 18.4001 76.5329 18.9332 76.2667 20.0001C75.9998 20.2669 75.9998 20.5332 75.9998 21.0669V24.8001C75.9998 25.867 76.7998 26.9332 77.5998 27.467C98.3998 34.9332 109.067 58.1333 101.333 78.6671C97.3329 89.8671 88.5329 98.4002 77.5998 102.4C76.5329 102.933 75.9998 103.733 75.9998 105.067V108.8C75.9998 109.867 76.5329 110.667 77.5998 110.933C77.8667 110.933 78.3998 110.933 78.6667 110.667C104 102.667 117.867 75.7333 109.867 50.4001C105.067 35.2001 93.3329 23.7332 78.6667 18.9332V18.9332Z" fill="white"/>
<circle cx="110" cy="110" r="18" fill="black"/>
<path d="M103.766 119H107.315L110.067 109.738H110.187L112.938 119H116.495L120.933 103.727H116.861L114.549 113.757H114.422L111.79 103.727H108.464L105.831 113.735H105.705L103.4 103.727H99.3211L103.766 119Z" fill="white"/>
</svg>
