<svg width="128" height="128" viewBox="0 0 128 128" fill="none" xmlns="http://www.w3.org/2000/svg">
<path d="M64 128C99.3462 128 128 99.3462 128 64C128 28.6538 99.3462 0 64 0C28.6538 0 0 28.6538 0 64C0 99.3462 28.6538 128 64 128Z" fill="#1B262D"/>
<path fill-rule="evenodd" clip-rule="evenodd" d="M34.5896 27.1337H94.4803C95.9092 27.1337 97.2293 27.8952 97.942 29.1307L115.391 59.378C116.295 60.9466 116.027 62.9265 114.736 64.1985L66.7083 111.532C65.1525 113.065 62.6497 113.065 61.094 111.532L13.1312 64.2625C11.8105 62.961 11.5632 60.9233 12.5344 59.345L31.1856 29.0336C31.9119 27.8532 33.2009 27.1337 34.5896 27.1337ZM86.7472 40.6381V49.125H69.6869V55.0094C81.6689 55.6382 90.6587 58.2209 90.7254 61.3165L90.7249 67.7697C90.6583 70.8654 81.6689 73.448 69.6869 74.0768V88.5175H58.3585V74.0768C46.3763 73.448 37.3867 70.8653 37.3199 67.7697L37.3203 61.3165C37.387 58.2209 46.3763 55.6382 58.3585 55.0094V49.125H41.2981V40.6381H86.7472ZM64.0226 69.6432C76.8097 69.6432 87.4975 67.4594 90.1131 64.5431C87.8951 62.07 79.8722 60.1236 69.6869 59.5892V65.75C67.8613 65.8457 65.9662 65.8961 64.0226 65.8961C62.0791 65.8961 60.184 65.8457 58.3585 65.75V59.5892C48.1731 60.1236 40.1502 62.07 37.9322 64.5431C40.5479 67.4594 51.2356 69.6432 64.0226 69.6432Z" fill="#009393"/>
<circle cx="110" cy="110" r="18" fill="black"/>
<path d="M103.766 119H107.315L110.067 109.738H110.187L112.938 119H116.495L120.933 103.727H116.861L114.549 113.757H114.422L111.79 103.727H108.464L105.831 113.735H105.705L103.4 103.727H99.3211L103.766 119Z" fill="white"/>
</svg>
