<svg width="16" height="14" viewBox="0 0 16 14" fill="none" xmlns="http://www.w3.org/2000/svg">
<path d="M14.6668 13V11.6667C14.6668 10.4241 13.817 9.38004 12.6668 9.08401M10.3335 1.19384C11.3108 1.58943 12.0002 2.54754 12.0002 3.66667C12.0002 4.78579 11.3108 5.7439 10.3335 6.13949M11.3335 13C11.3335 11.7575 11.3335 11.1362 11.1305 10.6462C10.8599 9.99277 10.3407 9.47364 9.68732 9.20299C9.19726 9 8.57601 9 7.3335 9H5.3335C4.09099 9 3.46973 9 2.97967 9.20299C2.32627 9.47364 1.80713 9.99277 1.53648 10.6462C1.3335 11.1362 1.3335 11.7575 1.3335 13M9.00016 3.66667C9.00016 5.13943 7.80626 6.33333 6.3335 6.33333C4.86074 6.33333 3.66683 5.13943 3.66683 3.66667C3.66683 2.19391 4.86074 1 6.3335 1C7.80626 1 9.00016 2.19391 9.00016 3.66667Z" stroke="#00BEF0" stroke-opacity="0.75" stroke-width="1.337" stroke-linecap="round" stroke-linejoin="round"/>
</svg>
