<svg width="64" height="64" viewBox="0 0 64 64" fill="none" xmlns="http://www.w3.org/2000/svg">
<rect width="64" height="64" rx="12" fill="white"/>
<path d="M25.1582 19.1699H27.4384H25.1582Z" fill="url(#paint0_linear_24_6775)"/>
<path d="M25.1582 19.1699H27.4384" stroke="#13181D" stroke-width="2.4" stroke-miterlimit="10" stroke-linecap="round" stroke-linejoin="round"/>
<path d="M30.8594 19.1699H33.1408H30.8594Z" fill="url(#paint1_linear_24_6775)"/>
<path d="M30.8594 19.1699H33.1408" stroke="#13181D" stroke-width="2.4" stroke-miterlimit="10" stroke-linecap="round" stroke-linejoin="round"/>
<path d="M36.5625 19.1699H38.8427H36.5625Z" fill="url(#paint2_linear_24_6775)"/>
<path d="M36.5625 19.1699H38.8427" stroke="#13181D" stroke-width="2.4" stroke-miterlimit="10" stroke-linecap="round" stroke-linejoin="round"/>
<path fill-rule="evenodd" clip-rule="evenodd" d="M21.4526 20.3423C21.1586 20.3439 20.8771 20.4613 20.6692 20.6692C20.4613 20.8771 20.3439 21.1586 20.3423 21.4526C20.3423 21.7632 20.2189 22.0611 19.9993 22.2807C19.7797 22.5003 19.4818 22.6237 19.1712 22.6237C18.8605 22.6237 18.5627 22.5003 18.343 22.2807C18.1234 22.0611 18 21.7632 18 21.4526C18.0015 20.5374 18.3658 19.6601 19.0129 19.0129C19.6601 18.3658 20.5374 18.0015 21.4526 18C21.7632 18 22.0611 18.1234 22.2807 18.343C22.5003 18.5627 22.6237 18.8605 22.6237 19.1712C22.6237 19.4818 22.5003 19.7797 22.2807 19.9993C22.0611 20.2189 21.7632 20.3423 21.4526 20.3423ZM19.1712 23.9869C19.325 23.9869 19.4772 24.0172 19.6193 24.0761C19.7614 24.135 19.8905 24.2212 19.9993 24.33C20.108 24.4387 20.1943 24.5678 20.2532 24.7099C20.312 24.852 20.3423 25.0043 20.3423 25.1581V27.4383C20.3423 27.749 20.2189 28.0468 19.9993 28.2665C19.7797 28.4861 19.4818 28.6095 19.1712 28.6095C18.8605 28.6095 18.5627 28.4861 18.343 28.2665C18.1234 28.0468 18 27.749 18 27.4383V25.1581C18 24.8475 18.1234 24.5496 18.343 24.33C18.5627 24.1103 18.8605 23.9869 19.1712 23.9869ZM20.3423 30.8593C20.3423 30.5487 20.2189 30.2508 19.9993 30.0312C19.7797 29.8115 19.4818 29.6881 19.1712 29.6881C18.8605 29.6881 18.5627 29.8115 18.343 30.0312C18.1234 30.2508 18 30.5487 18 30.8593V33.1407C18 33.4513 18.1234 33.7492 18.343 33.9688C18.5627 34.1885 18.8605 34.3119 19.1712 34.3119C19.4818 34.3119 19.7797 34.1885 19.9993 33.9688C20.2189 33.7492 20.3423 33.4513 20.3423 33.1407V30.8593ZM18.6558 36.9025C19.1056 36.4527 19.704 36.2454 20.3119 36.2454H25.4415C26.0505 36.2454 26.6478 36.4527 27.0964 36.9013C27.5461 37.351 27.7534 37.9483 27.7534 38.5573V43.6881C27.7534 44.2971 27.5461 44.8944 27.0975 45.343C26.6478 45.7915 26.0505 45.9988 25.4415 45.9988H20.3119C19.7029 45.9988 19.1056 45.7915 18.657 45.343C18.2085 44.8944 18.0012 44.296 18.0012 43.6881V38.5585C18.0012 37.9495 18.2085 37.3522 18.657 36.9036L18.6558 36.9025ZM46 30.8593C46 30.5487 45.8766 30.2508 45.657 30.0312C45.4373 29.8115 45.1395 29.6881 44.8288 29.6881C44.5182 29.6881 44.2203 29.8115 44.0007 30.0312C43.7811 30.2508 43.6577 30.5487 43.6577 30.8593V33.1407C43.6577 33.4513 43.7811 33.7492 44.0007 33.9688C44.2203 34.1885 44.5182 34.3119 44.8288 34.3119C45.1395 34.3119 45.4373 34.1885 45.657 33.9688C45.8766 33.7492 46 33.4513 46 33.1407V30.8593ZM44.8288 35.3905C45.1395 35.3905 45.4373 35.5139 45.657 35.7335C45.8766 35.9532 46 36.251 46 36.5617V38.8419C46 39.1525 45.8766 39.4504 45.657 39.67C45.4373 39.8897 45.1395 40.013 44.8288 40.013C44.5182 40.013 44.2203 39.8897 44.0007 39.67C43.7811 39.4504 43.6577 39.1525 43.6577 38.8419V36.5617C43.6577 36.251 43.7811 35.9532 44.0007 35.7335C44.2203 35.5139 44.5182 35.3905 44.8288 35.3905ZM46 25.1581C46 24.8475 45.8766 24.5496 45.657 24.33C45.4373 24.1103 45.1395 23.9869 44.8288 23.9869C44.5182 23.9869 44.2203 24.1103 44.0007 24.33C43.7811 24.5496 43.6577 24.8475 43.6577 25.1581V27.4383C43.6577 27.749 43.7811 28.0468 44.0007 28.2665C44.2203 28.4861 44.5182 28.6095 44.8288 28.6095C45.1395 28.6095 45.4373 28.4861 45.657 28.2665C45.8766 28.0468 46 27.749 46 27.4383V25.1581ZM30.8593 43.6577C30.5487 43.6577 30.2508 43.7811 30.0312 44.0007C29.8115 44.2203 29.6881 44.5182 29.6881 44.8288C29.6881 45.1395 29.8115 45.4373 30.0312 45.657C30.2508 45.8766 30.5487 46 30.8593 46H33.1407C33.4513 46 33.7492 45.8766 33.9688 45.657C34.1885 45.4373 34.3119 45.1395 34.3119 44.8288C34.3119 44.5182 34.1885 44.2203 33.9688 44.0007C33.7492 43.7811 33.4513 43.6577 33.1407 43.6577H30.8593ZM35.3905 44.8288C35.3905 44.5182 35.5139 44.2203 35.7335 44.0007C35.9532 43.7811 36.251 43.6577 36.5617 43.6577H38.8419C39.1525 43.6577 39.4504 43.7811 39.67 44.0007C39.8897 44.2203 40.013 44.5182 40.013 44.8288C40.013 45.1395 39.8897 45.4373 39.67 45.657C39.4504 45.8766 39.1525 46 38.8419 46H36.5617C36.251 46 35.9532 45.8766 35.7335 45.657C35.5139 45.4373 35.3905 45.1395 35.3905 44.8288ZM42.5474 18C42.3936 18 42.2413 18.0303 42.0992 18.0891C41.9572 18.148 41.8281 18.2343 41.7193 18.343C41.6105 18.4518 41.5243 18.5809 41.4654 18.723C41.4066 18.8651 41.3763 19.0174 41.3763 19.1712C41.3763 19.325 41.4066 19.4772 41.4654 19.6193C41.5243 19.7614 41.6105 19.8905 41.7193 19.9993C41.8281 20.108 41.9572 20.1943 42.0992 20.2532C42.2413 20.312 42.3936 20.3423 42.5474 20.3423C43.1564 20.3423 43.6577 20.8447 43.6577 21.4526C43.6577 21.7632 43.7811 22.0611 44.0007 22.2807C44.2203 22.5003 44.5182 22.6237 44.8288 22.6237C45.1395 22.6237 45.4373 22.5003 45.657 22.2807C45.8766 22.0611 46 21.7632 46 21.4526C45.9985 20.5374 45.6342 19.6601 44.9871 19.0129C44.3399 18.3658 43.4626 18.0015 42.5474 18ZM44.8288 41.3763C45.1395 41.3763 45.4373 41.4997 45.657 41.7193C45.8766 41.9389 46 42.2368 46 42.5474C45.9985 43.4626 45.6342 44.3399 44.9871 44.9871C44.3399 45.6342 43.4626 45.9985 42.5474 46C42.2368 46 41.9389 45.8766 41.7193 45.657C41.4997 45.4373 41.3763 45.1395 41.3763 44.8288C41.3763 44.5182 41.4997 44.2203 41.7193 44.0007C41.9389 43.7811 42.2368 43.6577 42.5474 43.6577C42.8414 43.6561 43.1229 43.5387 43.3308 43.3308C43.5387 43.1229 43.6561 42.8414 43.6577 42.5474C43.6577 42.2368 43.7811 41.9389 44.0007 41.7193C44.2203 41.4997 44.5182 41.3763 44.8288 41.3763ZM30.3194 29.9177C30.1556 29.7539 29.9469 29.6424 29.7198 29.5973C29.4926 29.5521 29.2572 29.5753 29.0432 29.6639C28.8293 29.7525 28.6464 29.9026 28.5177 30.0952C28.389 30.2877 28.3203 30.5141 28.3202 30.7457V34.737C28.3198 34.8909 28.3497 35.0434 28.4084 35.1857C28.4671 35.328 28.5534 35.4573 28.6622 35.5662C28.7711 35.675 28.9004 35.7613 29.0427 35.8199C29.185 35.8786 29.3375 35.9086 29.4914 35.9081H33.4827C33.7143 35.9081 33.9407 35.8394 34.1332 35.7107C34.3258 35.582 34.4758 35.3991 34.5645 35.1851C34.6531 34.9712 34.6763 34.7357 34.6311 34.5086C34.5859 34.2814 34.4744 34.0728 34.3107 33.909L33.1278 32.7261L38.3453 27.4477L39.4966 28.599C39.6604 28.7628 39.8692 28.8743 40.0965 28.9194C40.3237 28.9646 40.5592 28.9413 40.7733 28.8525C40.9873 28.7637 41.1702 28.6135 41.2988 28.4208C41.4274 28.228 41.4959 28.0015 41.4957 27.7698V23.7797C41.4962 23.6257 41.4662 23.4732 41.4075 23.3309C41.3488 23.1886 41.2626 23.0593 41.1537 22.9505C41.0449 22.8416 40.9156 22.7554 40.7733 22.6967C40.631 22.638 40.4785 22.608 40.3246 22.6085H36.3333C36.1017 22.6085 35.8753 22.6773 35.6827 22.806C35.4902 22.9346 35.3401 23.1175 35.2515 23.3315C35.1629 23.5455 35.1397 23.7809 35.1849 24.0081C35.23 24.2352 35.3415 24.4439 35.5053 24.6077L36.6881 25.7905L31.4706 31.0689L30.3194 29.9177Z" fill="#13181D"/>
<defs>
<linearGradient id="paint0_linear_24_6775" x1="27.2058" y1="19.3972" x2="25.7531" y2="20.7733" gradientUnits="userSpaceOnUse">
<stop stop-color="#C7F284"/>
<stop offset="1" stop-color="#00BEF0"/>
</linearGradient>
<linearGradient id="paint1_linear_24_6775" x1="32.908" y1="19.3972" x2="31.4552" y2="20.7741" gradientUnits="userSpaceOnUse">
<stop stop-color="#C7F284"/>
<stop offset="1" stop-color="#00BEF0"/>
</linearGradient>
<linearGradient id="paint2_linear_24_6775" x1="38.6101" y1="19.3972" x2="37.1574" y2="20.7733" gradientUnits="userSpaceOnUse">
<stop stop-color="#C7F284"/>
<stop offset="1" stop-color="#00BEF0"/>
</linearGradient>
</defs>
</svg>
