<svg width="64" height="64" viewBox="0 0 64 64" fill="none" xmlns="http://www.w3.org/2000/svg">
<rect width="63.9999" height="64" rx="12" fill="white"/>
<path d="M23.4067 22.8559H22.8338V20.1017C22.8338 19.8095 22.7178 19.5293 22.5112 19.3227C22.3046 19.1161 22.0243 19 21.7322 19C21.44 19 21.1598 19.1161 20.9532 19.3227C20.7465 19.5293 20.6305 19.8095 20.6305 20.1017V22.8559H20.1017C19.8095 22.8559 19.5293 22.9719 19.3227 23.1785C19.1161 23.3851 19 23.6654 19 23.9575V38.2793C19 38.5715 19.1161 38.8517 19.3227 39.0583C19.5293 39.2649 19.8095 39.381 20.1017 39.381H20.6305V41.8928C20.6305 42.185 20.7465 42.4652 20.9532 42.6718C21.1598 42.8784 21.44 42.9945 21.7322 42.9945C22.0243 42.9945 22.3046 42.8784 22.5112 42.6718C22.7178 42.4652 22.8338 42.185 22.8338 41.8928V39.381H23.4067C23.6989 39.381 23.9791 39.2649 24.1857 39.0583C24.3923 38.8517 24.5084 38.5715 24.5084 38.2793V23.9575C24.5084 23.6654 24.3923 23.3851 24.1857 23.1785C23.9791 22.9719 23.6989 22.8559 23.4067 22.8559Z" fill="#13181D"/>
<path d="M40.4819 21.2034H39.9311V20.1017C39.9311 19.8095 39.815 19.5293 39.6084 19.3227C39.4018 19.1161 39.1216 19 38.8294 19C38.5372 19 38.257 19.1161 38.0504 19.3227C37.8438 19.5293 37.7277 19.8095 37.7277 20.1017V21.2034H37.1769C36.8847 21.2034 36.6045 21.3194 36.3979 21.526C36.1913 21.7326 36.0752 22.0128 36.0752 22.305V28.9151C36.0752 29.2073 36.1913 29.4875 36.3979 29.6941C36.6045 29.9007 36.8847 30.0168 37.1769 30.0168H37.7277V31.1184C37.7277 31.4106 37.8438 31.6908 38.0504 31.8974C38.257 32.104 38.5372 32.2201 38.8294 32.2201C39.1216 32.2201 39.4018 32.104 39.6084 31.8974C39.815 31.6908 39.9311 31.4106 39.9311 31.1184V30.0168H40.4819C40.7741 30.0168 41.0543 29.9007 41.2609 29.6941C41.4675 29.4875 41.5836 29.2073 41.5836 28.9151V22.305C41.5836 22.0128 41.4675 21.7326 41.2609 21.526C41.0543 21.3194 40.7741 21.2034 40.4819 21.2034Z" fill="#13181D"/>
<path d="M32.2192 28.3617H31.6684V26.1583C31.6684 25.8661 31.5523 25.5859 31.3457 25.3793C31.1391 25.1727 30.8589 25.0566 30.5667 25.0566C30.2745 25.0566 29.9943 25.1727 29.7877 25.3793C29.5811 25.5859 29.465 25.8661 29.465 26.1583V28.3617H28.9142C28.622 28.3617 28.3418 28.4777 28.1352 28.6843C27.9286 28.8909 27.8125 29.1712 27.8125 29.4633V36.0734C27.8125 36.3656 27.9286 36.6458 28.1352 36.8524C28.3418 37.059 28.622 37.1751 28.9142 37.1751H29.465V39.3784C29.465 39.6706 29.5811 39.9508 29.7877 40.1574C29.9943 40.364 30.2745 40.4801 30.5667 40.4801C30.8589 40.4801 31.1391 40.364 31.3457 40.1574C31.5523 39.9508 31.6684 39.6706 31.6684 39.3784V37.1751H32.2192C32.5114 37.1751 32.7916 37.059 32.9982 36.8524C33.2048 36.6458 33.3209 36.3656 33.3209 36.0734V29.4633C33.3209 29.1712 33.2048 28.8909 32.9982 28.6843C32.7916 28.4777 32.5114 28.3617 32.2192 28.3617Z" fill="#13181D"/>
<path d="M45.4398 40.8683C45.4398 39.1166 43.6991 37.7285 41.5619 37.7285C40.6034 37.7285 39.8873 37.2107 39.8873 36.737C39.8873 36.2633 40.6034 35.7565 41.6059 35.7565C41.9095 35.7451 42.2112 35.8073 42.4856 35.9377C42.7599 36.0682 42.9986 36.263 43.1813 36.5056C43.2689 36.6214 43.3783 36.7187 43.5035 36.7922C43.6286 36.8656 43.767 36.9137 43.9108 36.9336C44.0545 36.9536 44.2007 36.945 44.3412 36.9084C44.4816 36.8719 44.6134 36.808 44.7292 36.7205C44.8449 36.6329 44.9423 36.5235 45.0157 36.3983C45.0891 36.2732 45.1372 36.1348 45.1572 35.991C45.1771 35.8473 45.1686 35.701 45.132 35.5606C45.0954 35.4202 45.0315 35.2884 44.944 35.1726C44.3748 34.4278 43.5716 33.8962 42.6635 33.6633V33.2667C42.6635 32.9745 42.5475 32.6943 42.3409 32.4877C42.1343 32.2811 41.854 32.165 41.5619 32.165C41.2697 32.165 40.9895 32.2811 40.7829 32.4877C40.5763 32.6943 40.4602 32.9745 40.4602 33.2667V33.6854C39.7349 33.8108 39.0723 34.1749 38.5773 34.7197C38.0824 35.2645 37.7835 35.959 37.728 36.6929C37.728 38.4887 39.4246 39.8878 41.6059 39.8878C42.5644 39.8878 43.2805 40.4056 43.2805 40.8683C43.2805 41.331 42.5644 41.8598 41.5619 41.8598C41.2497 41.8765 40.9382 41.817 40.6542 41.6865C40.3701 41.556 40.1221 41.3583 39.9314 41.1106C39.8466 40.9884 39.7379 40.8846 39.612 40.8055C39.486 40.7264 39.3453 40.6736 39.1983 40.6503C39.0514 40.6271 38.9012 40.6338 38.757 40.6701C38.6127 40.7065 38.4773 40.7717 38.3589 40.8618C38.2405 40.9519 38.1416 41.065 38.0681 41.1944C37.9947 41.3237 37.9482 41.4666 37.9314 41.6144C37.9147 41.7623 37.928 41.9119 37.9707 42.0545C38.0134 42.197 38.0845 42.3294 38.1797 42.4437C38.7452 43.1903 39.5505 43.7193 40.4602 43.942V44.3386C40.4602 44.6307 40.5763 44.911 40.7829 45.1176C40.9895 45.3242 41.2697 45.4402 41.5619 45.4402C41.854 45.4402 42.1343 45.3242 42.3409 45.1176C42.5475 44.911 42.6635 44.6307 42.6635 44.3386V43.9309C43.4055 43.8121 44.0849 43.4439 44.5895 42.8872C45.0942 42.3304 45.3941 41.6183 45.4398 40.8683Z" fill="#13181D"/>
</svg>
