<svg width="64" height="64" viewBox="0 0 64 64" fill="none" xmlns="http://www.w3.org/2000/svg">
<rect width="64" height="64" rx="12" fill="white"/>
<path d="M28.5002 39.583H35.5002M25.7002 20.333H38.3002C38.9536 20.333 39.2803 20.333 39.5298 20.4602C39.7493 20.572 39.9278 20.7505 40.0397 20.97C40.1668 21.2196 40.1668 21.5463 40.1668 22.1997V24.6199C40.1668 25.1907 40.1668 25.476 40.1024 25.7445C40.0452 25.9826 39.9509 26.2102 39.823 26.419C39.6787 26.6545 39.4769 26.8563 39.0734 27.2598L35.6534 30.6797C35.1914 31.1418 34.9604 31.3728 34.8738 31.6392C34.7977 31.8735 34.7977 32.1259 34.8738 32.3602C34.9604 32.6266 35.1914 32.8576 35.6534 33.3196L39.0734 36.7395C39.4769 37.1431 39.6787 37.3449 39.823 37.5803C39.9509 37.7891 40.0452 38.0167 40.1024 38.2548C40.1668 38.5233 40.1668 38.8087 40.1668 39.3794V41.7997C40.1668 42.4531 40.1668 42.7798 40.0397 43.0293C39.9278 43.2489 39.7493 43.4273 39.5298 43.5392C39.2803 43.6663 38.9536 43.6663 38.3002 43.6663H25.7002C25.0468 43.6663 24.7201 43.6663 24.4705 43.5392C24.251 43.4273 24.0725 43.2489 23.9607 43.0293C23.8335 42.7798 23.8335 42.4531 23.8335 41.7997V39.3794C23.8335 38.8087 23.8335 38.5233 23.898 38.2548C23.9551 38.0167 24.0494 37.7891 24.1773 37.5803C24.3216 37.3449 24.5234 37.1431 24.927 36.7395L28.3469 33.3196C28.8089 32.8576 29.0399 32.6266 29.1265 32.3602C29.2026 32.1259 29.2026 31.8735 29.1265 31.6392C29.0399 31.3728 28.8089 31.1418 28.3469 30.6797L24.927 27.2598C24.5234 26.8563 24.3216 26.6545 24.1773 26.419C24.0494 26.2102 23.9551 25.9826 23.898 25.7445C23.8335 25.476 23.8335 25.1907 23.8335 24.6199V22.1997C23.8335 21.5463 23.8335 21.2196 23.9607 20.97C24.0725 20.7505 24.251 20.572 24.4705 20.4602C24.7201 20.333 25.0468 20.333 25.7002 20.333Z" stroke="#13181D" stroke-width="2.6" stroke-linecap="round" stroke-linejoin="round"/>
</svg>
