<svg width="43" height="32" viewBox="0 0 43 32" fill="none" xmlns="http://www.w3.org/2000/svg">
<g clip-path="url(#clip0_3635_67907)">
<path d="M0 0H42.6667V32H0V0Z" fill="#DE2910"/>
<path d="M5.11993 11.8392L7.9999 3.19922L10.8799 11.8392L3.19995 6.55922H12.7998L5.11993 11.8392Z" fill="#FFDE00"/>
<path d="M17.6114 3.36525L14.6476 4.02206L16.6246 1.71828L16.4307 4.81886L14.7859 2.07391L17.6114 3.36525Z" fill="#FFDE00"/>
<path d="M20.6027 7.15542L17.6161 6.61132L20.3318 5.25462L18.9506 8.03731L18.4991 4.86932L20.6027 7.15542Z" fill="#FFDE00"/>
<path d="M20.1666 12.4734L17.6616 10.7585L20.6945 10.6275L18.2985 12.6048L19.1784 9.52818L20.1666 12.4734Z" fill="#FFDE00"/>
<path d="M16.3992 15.9487L14.7509 13.3994L17.5991 14.4499L14.6253 15.3484L16.6252 12.8503L16.3992 15.9487Z" fill="#FFDE00"/>
</g>
<defs>
<clipPath id="clip0_3635_67907">
<rect width="42.6667" height="32" fill="white"/>
</clipPath>
</defs>
</svg>
