<svg width="127" height="127" viewBox="0 0 127 127" fill="none" xmlns="http://www.w3.org/2000/svg">
<g clip-path="url(#clip0_1958_649)">
<path d="M63.4999 127C98.5699 127 127 98.5698 127 63.4998C127 28.4298 98.5699 0 63.4999 0C28.4299 0 0 28.4298 0 63.4998C0 98.5698 28.4299 127 63.4999 127Z" fill="black"/>
<path d="M100.167 51.176C106.477 43.486 105.357 32.0861 97.6572 25.7761C89.9672 19.4661 78.5672 20.5861 72.2572 28.2861C69.1972 32.0161 67.7772 36.7061 68.2472 41.5061C68.7172 46.3061 71.0372 50.6261 74.7572 53.6861C78.1072 56.4361 82.1572 57.7761 86.1872 57.7761C88.2572 57.7761 90.3172 57.4161 92.2772 56.7161C92.7372 58.6461 92.9772 60.6361 92.9772 62.6661C92.9772 76.7761 81.4972 88.2461 67.3972 88.2461C62.6672 88.2461 58.0972 86.9461 54.1272 84.5361C55.2672 83.7361 56.3972 82.9161 57.4972 82.0661C63.3172 77.5961 68.3772 72.6861 72.1272 67.8861C73.5172 66.1161 73.1972 63.5561 71.4272 62.1661C69.6572 60.7761 67.0973 61.096 65.7073 62.866C62.3673 67.136 57.8172 71.536 52.5272 75.606C49.8372 77.676 47.2873 79.4061 44.9073 80.8661C44.8473 80.9061 44.7872 80.9362 44.7272 80.9762C34.6072 87.1162 27.6072 88.096 26.2572 87.176C26.1372 86.736 26.2272 84.656 28.7472 80.676C31.2972 76.656 35.4573 72.0761 40.4573 67.7861L42.0072 66.456L41.8672 64.4161C41.8272 63.8361 41.8072 63.2561 41.8072 62.6661C41.8072 52.5061 47.8172 43.3061 57.1172 39.2261C59.1772 38.3261 60.1173 35.916 59.2073 33.856C58.3073 31.796 55.8972 30.856 53.8372 31.766C41.5772 37.146 33.6472 49.2761 33.6472 62.6661C33.6472 62.7461 33.6472 62.8261 33.6472 62.9061C23.4072 72.0961 14.1072 84.776 19.7672 92.146C21.6072 94.536 24.4272 95.5761 27.8372 95.5761C33.1472 95.5761 39.8973 93.0561 46.6273 89.2761C52.5373 93.8961 59.7972 96.416 67.3772 96.416C85.9773 96.416 101.107 81.2861 101.107 62.6861C101.107 59.0361 100.527 55.466 99.3872 52.056C99.6772 51.746 99.9272 51.466 100.167 51.176ZM79.9372 47.3761C77.8972 45.6961 76.6272 43.3261 76.3672 40.6961C76.1072 38.0661 76.8873 35.4861 78.5673 33.4461C80.5173 31.0661 83.3672 29.826 86.2272 29.826C88.4372 29.826 90.6572 30.5561 92.4972 32.0661C96.7172 35.5261 97.3372 41.7761 93.8772 45.9961C90.4072 50.2261 84.1572 50.8361 79.9372 47.3761Z" fill="white"/>
</g>
<defs>
<clipPath id="clip0_1958_649">
<rect width="127" height="127" fill="white"/>
</clipPath>
</defs>
</svg>
