<svg width="127" height="127" viewBox="0 0 127 127" fill="none" xmlns="http://www.w3.org/2000/svg">
<g clip-path="url(#clip0_1958_639)">
<path d="M63.4999 127C98.5699 127 127 98.5698 127 63.4998C127 28.4298 98.5699 0 63.4999 0C28.4299 0 0 28.4298 0 63.4998C0 98.5698 28.4299 127 63.4999 127Z" fill="white"/>
<path d="M100.169 51.18C106.479 43.49 105.359 32.0901 97.6592 25.7801C89.9692 19.4701 78.5692 20.5901 72.2592 28.2901C69.1992 32.0201 67.7792 36.7101 68.2492 41.5101C68.7192 46.3101 71.0392 50.6301 74.7592 53.6901C78.1092 56.4401 82.1592 57.7801 86.1892 57.7801C88.2592 57.7801 90.3192 57.4201 92.2792 56.7201C92.7392 58.6501 92.9792 60.6401 92.9792 62.6701C92.9792 76.7801 81.4992 88.2501 67.3992 88.2501C62.6692 88.2501 58.0992 86.9501 54.1292 84.5401C55.2692 83.7401 56.3992 82.9201 57.4992 82.0701C63.3192 77.6001 68.3792 72.6901 72.1292 67.8901C73.5192 66.1201 73.1992 63.5601 71.4292 62.1701C69.6592 60.7801 67.0993 61.1 65.7093 62.87C62.3693 67.14 57.8192 71.54 52.5292 75.61C49.8392 77.68 47.2893 79.41 44.9093 80.87C44.8493 80.91 44.7892 80.9401 44.7292 80.9801C34.6092 87.1201 27.6092 88.1 26.2592 87.18C26.1392 86.74 26.2292 84.66 28.7492 80.68C31.2992 76.66 35.4593 72.0801 40.4593 67.7901L42.0092 66.46L41.8692 64.4201C41.8292 63.8401 41.8092 63.2601 41.8092 62.6701C41.8092 52.5101 47.8192 43.3101 57.1192 39.2301C59.1792 38.3301 60.1193 35.92 59.2093 33.86C58.3093 31.8 55.8992 30.86 53.8392 31.77C41.5792 37.15 33.6492 49.2801 33.6492 62.6701C33.6492 62.7501 33.6492 62.8301 33.6492 62.9101C23.4092 72.1001 14.1092 84.78 19.7692 92.15C21.6092 94.54 24.4292 95.5801 27.8392 95.5801C33.1492 95.5801 39.8993 93.0601 46.6293 89.2801C52.5393 93.9001 59.7992 96.42 67.3792 96.42C85.9793 96.42 101.109 81.2901 101.109 62.6901C101.109 59.0401 100.529 55.47 99.3892 52.06C99.6792 51.75 99.9292 51.47 100.169 51.18ZM79.9392 47.3801C77.8992 45.7001 76.6292 43.3301 76.3692 40.7001C76.1092 38.0701 76.8893 35.4901 78.5693 33.4501C80.5193 31.0701 83.3692 29.83 86.2292 29.83C88.4392 29.83 90.6592 30.5601 92.4992 32.0701C96.7192 35.5301 97.3392 41.7801 93.8792 46.0001C90.4092 50.2301 84.1592 50.8401 79.9392 47.3801Z" fill="black"/>
</g>
<defs>
<clipPath id="clip0_1958_639">
<rect width="127" height="127" fill="white"/>
</clipPath>
</defs>
</svg>
