<svg width="91" height="24" viewBox="0 0 91 24" fill="none" xmlns="http://www.w3.org/2000/svg">
<g clip-path="url(#clip0_644:7907)">
<path d="M37.5309 9.42384C37.2839 8.46137 36.6614 7.75712 35.4442 7.75712C33.6479 7.75712 32.8968 9.34124 32.8968 10.9488C32.8968 12.5564 33.6479 14.1414 35.4442 14.1414C36.7484 14.1414 37.463 13.1676 37.5796 11.9469H39.0115C38.8941 13.9536 37.4744 15.3378 35.4468 15.3378C32.935 15.3378 31.4326 13.3424 31.4326 10.948C31.4326 8.55353 32.9298 6.55469 35.4416 6.55469C37.3309 6.56599 38.8211 7.61106 38.9976 9.41862L37.5309 9.42384Z" fill="white"/>
<path d="M39.8789 12.0945C39.8789 10.24 40.9935 8.90283 42.9419 8.90283C44.8903 8.90283 46.0049 10.24 46.0049 12.0945C46.0049 13.9491 44.8903 15.2993 42.9419 15.2993C40.9935 15.2993 39.8789 13.9612 39.8789 12.0945ZM44.6669 12.0945C44.6669 11.0512 44.1391 9.9592 42.9419 9.9592C41.7447 9.9592 41.217 11.0503 41.217 12.0945C41.217 13.1387 41.7447 14.2429 42.9419 14.2429C44.1391 14.2429 44.6669 13.1509 44.6669 12.0945Z" fill="white"/>
<path d="M47.1543 6.75439H48.4924V8.02204H47.1543V6.75439ZM47.1543 9.0671H48.4924V15.1349H47.1543V9.0671Z" fill="white"/>
<path d="M49.9482 9.06708H51.2159V9.95912L51.2394 9.9826C51.4316 9.65216 51.7075 9.37825 52.0394 9.18851C52.3712 8.99877 52.7473 8.8999 53.1295 8.90188C54.4441 8.90188 55.277 9.60613 55.277 10.9668V15.134H53.939V11.3198C53.9155 10.3695 53.5399 9.95912 52.7539 9.95912C51.8619 9.95912 51.2863 10.6625 51.2863 11.5545V15.1349H49.9482V9.06708Z" fill="white"/>
<path d="M64.1852 15.1352H63.2462L63.0236 14.1492C62.2411 15.0413 61.5212 15.3343 60.5023 15.3343C57.9922 15.336 56.4863 13.3363 56.4863 10.9445C56.4863 8.55266 57.9922 6.55469 60.5005 6.55469C62.3263 6.55469 63.8687 7.52846 64.0913 9.41862H62.6593C62.5185 8.3153 61.5569 7.75191 60.5005 7.75191C58.7043 7.75191 57.9531 9.33602 57.9531 10.9436C57.9531 12.5512 58.7043 14.1362 60.5005 14.1362C62.002 14.1597 62.8237 13.2563 62.848 11.8357H60.6179V10.7219H64.1826L64.1852 15.1352Z" fill="white"/>
<path d="M66.6389 12.4467C66.6389 13.3978 67.1553 14.2429 68.2699 14.2429C69.0446 14.2429 69.5141 13.9021 69.748 13.2335H71.0165C70.7235 14.5594 69.5967 15.2993 68.2699 15.2993C66.3693 15.2993 65.3008 13.9725 65.3008 12.1067C65.3008 10.3809 66.4311 8.90283 68.2352 8.90283C70.1479 8.90283 71.3217 10.6278 71.0991 12.4467H66.6389ZM69.761 11.5668C69.7141 10.7217 69.1385 9.9592 68.2352 9.9592C67.3075 9.9592 66.6745 10.6626 66.6389 11.5668H69.761Z" fill="white"/>
<path d="M76.2169 11.0973C76.1109 10.3574 75.571 9.9592 74.8319 9.9592C74.1364 9.9592 73.1652 10.3226 73.1652 12.165C73.1652 13.1744 73.6112 14.2429 74.7728 14.2429C75.5475 14.2429 76.0874 13.7265 76.2169 12.8579H77.555C77.3081 14.4307 76.3378 15.2993 74.7728 15.2993C72.8713 15.2993 71.8271 13.9491 71.8271 12.165C71.8271 10.3339 72.8253 8.90283 74.8198 8.90283C76.2282 8.90283 77.4281 9.60708 77.555 11.0973H76.2169Z" fill="white"/>
<path d="M78.6846 6.75439H80.0226V11.5198L82.4406 9.0671H84.0838L81.7598 11.2963L84.3064 15.1349H82.6718L80.8173 12.1884L80.0192 12.9631V15.1367H78.6846V6.75439Z" fill="white"/>
<path d="M84.668 12.0945C84.668 10.24 85.7826 8.90283 87.731 8.90283C89.6795 8.90283 90.795 10.24 90.795 12.0945C90.795 13.9491 89.6795 15.2993 87.731 15.2993C85.7826 15.2993 84.668 13.9612 84.668 12.0945ZM89.4569 12.0945C89.4569 11.0512 88.9283 9.9592 87.731 9.9592C86.5338 9.9592 86.006 11.0503 86.006 12.0945C86.006 13.1387 86.5338 14.2429 87.731 14.2429C88.9283 14.2429 89.4569 13.1509 89.4569 12.0945Z" fill="white"/>
<path d="M23.9964 11.9453C24.0069 14.3184 23.3134 16.6412 22.0037 18.6201C20.694 20.5991 18.8269 22.1451 16.6385 23.0629C14.4501 23.9807 12.0387 24.2289 9.70921 23.7761C7.37974 23.3234 5.23684 22.1901 3.55149 20.5194C1.86614 18.8488 0.714052 16.7159 0.240908 14.3905C-0.232237 12.0651 -0.00518375 9.65159 0.893355 7.45522C1.79189 5.25885 3.32156 3.37826 5.28891 2.05126C7.25627 0.724259 9.57294 0.0104548 11.946 0.000114074C15.128 -0.0137518 18.1852 1.23695 20.445 3.4771C22.7049 5.71724 23.9824 8.76334 23.9964 11.9453Z" fill="#8DC63F"/>
<path d="M23.0965 11.9497C23.1064 14.1444 22.4654 16.2927 21.2543 18.1231C20.0432 19.9535 18.3166 21.3836 16.2928 22.2326C14.2689 23.0817 12.0387 23.3115 9.88425 22.8931C7.72978 22.4746 5.74778 21.4267 4.18889 19.8818C2.63 18.3369 1.56424 16.3644 1.12639 14.2138C0.688542 12.0631 0.898265 9.83097 1.72904 7.79955C2.55981 5.76812 3.97433 4.02867 5.7937 2.80117C7.61307 1.57367 9.75558 0.913252 11.9503 0.903428C14.8931 0.890485 17.7205 2.04693 19.8108 4.11843C21.901 6.18994 23.0829 9.00685 23.0965 11.9497Z" fill="#F9E988"/>
<path d="M12.202 1.62222C12.9074 1.49702 13.6294 1.49702 14.3348 1.62222C15.047 1.735 15.7355 1.96566 16.3719 2.30473C17.0048 2.65251 17.5517 3.12462 18.096 3.56716C18.6402 4.00971 19.1819 4.46268 19.6975 4.95826C20.2238 5.44612 20.6831 6.00161 21.0634 6.6102C21.4549 7.21397 21.7758 7.86072 22.0197 8.53774C22.4832 9.89929 22.644 11.366 22.4127 12.765H22.344C22.1119 11.3782 21.7972 10.0567 21.3007 8.79945C21.0677 8.16636 20.7935 7.54919 20.48 6.95189C20.1528 6.35449 19.7923 5.77598 19.4001 5.21909C19.0013 4.65611 18.5125 4.16263 17.9534 3.75844C17.39 3.35676 16.7423 3.09679 16.1154 2.84987C15.4885 2.60295 14.8669 2.34734 14.2131 2.15954C13.5592 1.97174 12.895 1.83089 12.2012 1.69439L12.202 1.62222Z" fill="white"/>
<path d="M17.627 8.03271C16.8219 7.7997 15.9873 7.46932 15.1422 7.13545C15.0935 6.92331 14.9057 6.659 14.5257 6.33644C13.9736 5.85738 12.9364 5.86955 12.04 6.08169C11.0506 5.84868 10.0733 5.76609 9.1352 5.99475C1.4624 8.10836 5.81308 13.265 2.99609 18.4486C3.39691 19.2989 7.71715 24.2599 13.9684 22.9288C13.9684 22.9288 11.8305 17.7913 16.655 15.3256C20.5683 13.318 23.3957 9.60379 17.627 8.03271Z" fill="#8BC53F"/>
<path d="M18.5748 11.4069C18.5753 11.4989 18.5486 11.589 18.4979 11.6657C18.4472 11.7425 18.3749 11.8025 18.2901 11.8382C18.2053 11.8739 18.1118 11.8836 18.0215 11.8662C17.9312 11.8488 17.848 11.8049 17.7826 11.7402C17.7172 11.6755 17.6724 11.5929 17.654 11.5028C17.6355 11.4127 17.6442 11.3191 17.6789 11.2339C17.7137 11.1487 17.7729 11.0757 17.8491 11.0242C17.9253 10.9726 18.0151 10.9449 18.1071 10.9443C18.2304 10.9439 18.3488 10.9923 18.4365 11.079C18.5242 11.1657 18.5739 11.2836 18.5748 11.4069Z" fill="white"/>
<path d="M12.04 6.07826C12.5991 6.11825 14.6205 6.77381 15.1422 7.13202C14.7075 5.87133 13.2442 5.70353 12.04 6.07826Z" fill="#009345"/>
<path d="M12.5728 9.26649C12.573 9.69092 12.4473 10.1059 12.2116 10.4589C11.9759 10.8118 11.6409 11.087 11.2488 11.2495C10.8567 11.4121 10.4252 11.4547 10.0089 11.372C9.59264 11.2893 9.21022 11.085 8.91004 10.785C8.60986 10.4849 8.40541 10.1026 8.32255 9.6863C8.23968 9.27004 8.28212 8.83855 8.44451 8.44641C8.60689 8.05427 8.88192 7.71909 9.23481 7.48327C9.5877 7.24745 10.0026 7.12158 10.427 7.12158C10.7088 7.12147 10.9878 7.17686 11.2481 7.2846C11.5084 7.39234 11.745 7.55032 11.9443 7.7495C12.1435 7.94869 12.3016 8.18518 12.4095 8.44547C12.5173 8.70576 12.5728 8.98474 12.5728 9.26649Z" fill="white"/>
<path d="M11.9357 9.28571C11.9357 9.58423 11.8472 9.87605 11.6813 10.1243C11.5155 10.3725 11.2797 10.5659 11.0039 10.6802C10.7281 10.7944 10.4247 10.8243 10.1319 10.7661C9.8391 10.7078 9.57016 10.5641 9.35907 10.353C9.14798 10.1419 9.00423 9.87295 8.94599 9.58017C8.88776 9.28739 8.91765 8.98391 9.03189 8.70811C9.14612 8.43231 9.33958 8.19659 9.58779 8.03074C9.836 7.86489 10.1278 7.77637 10.4263 7.77637C10.8266 7.77637 11.2106 7.93539 11.4936 8.21844C11.7767 8.5015 11.9357 8.88541 11.9357 9.28571Z" fill="#58595B"/>
<path d="M20.3121 12.353C18.5733 13.578 16.5962 14.5075 13.7914 14.5075C12.4785 14.5075 12.2125 13.1164 11.3448 13.7963C10.897 14.1493 9.31809 14.9387 8.06523 14.8787C6.81237 14.8187 4.78136 14.0841 4.21535 11.4097C3.99104 14.0841 3.87627 16.0542 2.87207 18.3121C4.87178 21.5143 9.63978 23.9844 13.9679 22.9202C13.5027 19.6728 16.3406 16.4924 17.9394 14.8648C18.5481 14.2484 19.7044 13.2424 20.3121 12.3513V12.353Z" fill="#8BC53F"/>
<path d="M20.2452 12.4332C19.7053 12.9253 19.0628 13.2896 18.409 13.6113C17.7472 13.9255 17.0573 14.1767 16.3484 14.3616C15.6389 14.5451 14.899 14.6833 14.1496 14.6155C13.4001 14.5477 12.6341 14.2929 12.1377 13.7313L12.1612 13.7043C12.7698 14.099 13.4723 14.2382 14.1713 14.2582C14.8799 14.2797 15.5886 14.2214 16.284 14.0843C16.9866 13.9372 17.6738 13.7247 18.3368 13.4496C19.0002 13.1757 19.6566 12.8584 20.2217 12.4062L20.2452 12.4332Z" fill="#58595B"/>
</g>
<defs>
<clipPath id="clip0_644:7907">
<rect width="90.7938" height="24" fill="white"/>
</clipPath>
</defs>
</svg>
