<svg width="91" height="24" viewBox="0 0 91 24" fill="none" xmlns="http://www.w3.org/2000/svg">
<g clip-path="url(#clip0_644:7981)">
<path d="M37.5306 9.42384C37.2837 8.46137 36.6612 7.75712 35.444 7.75712C33.6477 7.75712 32.8965 9.34124 32.8965 10.9488C32.8965 12.5564 33.6477 14.1414 35.444 14.1414C36.7481 14.1414 37.4628 13.1676 37.5793 11.9469H39.0113C38.8939 13.9536 37.4741 15.3378 35.4466 15.3378C32.9348 15.3378 31.4324 13.3424 31.4324 10.948C31.4324 8.55353 32.9295 6.55469 35.4414 6.55469C37.3307 6.56599 38.8209 7.61106 38.9974 9.41862L37.5306 9.42384Z" fill="#4C4C4C"/>
<path d="M39.8784 12.0945C39.8784 10.24 40.993 8.90283 42.9414 8.90283C44.8898 8.90283 46.0045 10.24 46.0045 12.0945C46.0045 13.9491 44.8898 15.2993 42.9414 15.2993C40.993 15.2993 39.8784 13.9612 39.8784 12.0945ZM44.6664 12.0945C44.6664 11.0512 44.1386 9.9592 42.9414 9.9592C41.7442 9.9592 41.2165 11.0503 41.2165 12.0945C41.2165 13.1387 41.7442 14.2429 42.9414 14.2429C44.1386 14.2429 44.6664 13.1509 44.6664 12.0945Z" fill="#4C4C4C"/>
<path d="M47.1543 6.75439H48.4924V8.02204H47.1543V6.75439ZM47.1543 9.0671H48.4924V15.1349H47.1543V9.0671Z" fill="#4C4C4C"/>
<path d="M49.948 9.06708H51.2156V9.95912L51.2391 9.9826C51.4313 9.65216 51.7073 9.37825 52.0391 9.18851C52.371 8.99877 52.747 8.8999 53.1293 8.90188C54.4439 8.90188 55.2768 9.60613 55.2768 10.9668V15.134H53.9387V11.3198C53.9152 10.3695 53.5396 9.95912 52.7537 9.95912C51.8616 9.95912 51.2861 10.6625 51.2861 11.5545V15.1349H49.948V9.06708Z" fill="#4C4C4C"/>
<path d="M64.1848 15.1352H63.2458L63.0233 14.1492C62.2408 15.0413 61.5209 15.3343 60.5019 15.3343C57.9918 15.336 56.486 13.3363 56.486 10.9445C56.486 8.55266 57.9918 6.55469 60.5002 6.55469C62.326 6.55469 63.8684 7.52846 64.0909 9.41862H62.659C62.5181 8.3153 61.5565 7.75191 60.5002 7.75191C58.7039 7.75191 57.9527 9.33602 57.9527 10.9436C57.9527 12.5512 58.7039 14.1362 60.5002 14.1362C62.0017 14.1597 62.8233 13.2563 62.8476 11.8357H60.6175V10.7219H64.1822L64.1848 15.1352Z" fill="#4C4C4C"/>
<path d="M66.6386 12.4467C66.6386 13.3978 67.1551 14.2429 68.2697 14.2429C69.0444 14.2429 69.5139 13.9021 69.7478 13.2335H71.0163C70.7233 14.5594 69.5965 15.2993 68.2697 15.2993C66.3691 15.2993 65.3005 13.9725 65.3005 12.1067C65.3005 10.3809 66.4308 8.90283 68.2349 8.90283C70.1477 8.90283 71.3215 10.6278 71.0989 12.4467H66.6386ZM69.7608 11.5668C69.7138 10.7217 69.1383 9.9592 68.2349 9.9592C67.3072 9.9592 66.6743 10.6626 66.6386 11.5668H69.7608Z" fill="#4C4C4C"/>
<path d="M76.2167 11.0973C76.1106 10.3574 75.5707 9.9592 74.8317 9.9592C74.1361 9.9592 73.165 10.3226 73.165 12.165C73.165 13.1744 73.611 14.2429 74.7726 14.2429C75.5472 14.2429 76.0872 13.7265 76.2167 12.8579H77.5548C77.3079 14.4307 76.3376 15.2993 74.7726 15.2993C72.8711 15.2993 71.8269 13.9491 71.8269 12.165C71.8269 10.3339 72.825 8.90283 74.8195 8.90283C76.228 8.90283 77.4278 9.60708 77.5548 11.0973H76.2167Z" fill="#4C4C4C"/>
<path d="M78.6842 6.75439H80.0223V11.5198L82.4402 9.0671H84.0834L81.7594 11.2963L84.306 15.1349H82.6715L80.8169 12.1884L80.0188 12.9631V15.1367H78.6842V6.75439Z" fill="#4C4C4C"/>
<path d="M84.6672 12.0945C84.6672 10.24 85.7819 8.90283 87.7303 8.90283C89.6787 8.90283 90.7942 10.24 90.7942 12.0945C90.7942 13.9491 89.6787 15.2993 87.7303 15.2993C85.7819 15.2993 84.6672 13.9612 84.6672 12.0945ZM89.4562 12.0945C89.4562 11.0512 88.9275 9.9592 87.7303 9.9592C86.5331 9.9592 86.0053 11.0503 86.0053 12.0945C86.0053 13.1387 86.5331 14.2429 87.7303 14.2429C88.9275 14.2429 89.4562 13.1509 89.4562 12.0945Z" fill="#4C4C4C"/>
<path d="M23.9968 11.9453C24.0072 14.3184 23.3138 16.6412 22.0041 18.6201C20.6944 20.5991 18.8273 22.1451 16.6389 23.0629C14.4505 23.9807 12.039 24.2289 9.70958 23.7761C7.38011 23.3234 5.2372 22.1901 3.55186 20.5194C1.86651 18.8488 0.714419 16.7159 0.241274 14.3905C-0.231871 12.0651 -0.00481754 9.65159 0.893721 7.45522C1.79226 5.25885 3.32193 3.37826 5.28928 2.05126C7.25663 0.724259 9.57331 0.0104548 11.9463 0.000114074C15.1283 -0.0137518 18.1855 1.23695 20.4454 3.4771C22.7053 5.71724 23.9827 8.76334 23.9968 11.9453Z" fill="#8DC63F"/>
<path d="M23.0972 11.9497C23.1072 14.1444 22.4661 16.2927 21.255 18.1231C20.044 19.9535 18.3174 21.3836 16.2935 22.2326C14.2696 23.0817 12.0395 23.3115 9.88499 22.8931C7.73051 22.4746 5.74851 21.4267 4.18962 19.8818C2.63073 18.3369 1.56497 16.3644 1.12712 14.2138C0.689274 12.0631 0.898998 9.83097 1.72977 7.79955C2.56055 5.76812 3.97506 4.02867 5.79443 2.80117C7.6138 1.57367 9.75631 0.913252 11.951 0.903428C14.8938 0.890485 17.7213 2.04693 19.8115 4.11843C21.9018 6.18994 23.0837 9.00685 23.0972 11.9497Z" fill="#F9E988"/>
<path d="M12.2027 1.62222C12.9081 1.49702 13.63 1.49702 14.3354 1.62222C15.0476 1.735 15.7361 1.96566 16.3725 2.30473C17.0054 2.65251 17.5523 3.12462 18.0966 3.56716C18.6408 4.00971 19.1825 4.46268 19.6981 4.95826C20.2244 5.44612 20.6837 6.00161 21.064 6.6102C21.4555 7.21397 21.7764 7.86072 22.0204 8.53774C22.4838 9.89929 22.6446 11.366 22.4133 12.765H22.3447C22.1125 11.3782 21.7978 10.0567 21.3013 8.79945C21.0683 8.16636 20.7941 7.54919 20.4806 6.95189C20.1534 6.35449 19.7929 5.77598 19.4007 5.21909C19.0019 4.65611 18.5131 4.16263 17.954 3.75844C17.3906 3.35676 16.7429 3.09679 16.116 2.84987C15.4891 2.60295 14.8675 2.34734 14.2137 2.15954C13.5598 1.97174 12.8956 1.83089 12.2018 1.69439L12.2027 1.62222Z" fill="white"/>
<path d="M17.627 8.03271C16.8219 7.7997 15.9873 7.46932 15.1422 7.13545C15.0935 6.92331 14.9057 6.659 14.5257 6.33644C13.9736 5.85738 12.9364 5.86955 12.04 6.08169C11.0506 5.84868 10.0733 5.76609 9.1352 5.99475C1.4624 8.10836 5.81308 13.265 2.99609 18.4486C3.39691 19.2989 7.71715 24.2599 13.9684 22.9288C13.9684 22.9288 11.8305 17.7913 16.655 15.3256C20.5683 13.318 23.3957 9.60379 17.627 8.03271Z" fill="#8BC53F"/>
<path d="M18.5752 11.4069C18.5757 11.4989 18.5489 11.589 18.4982 11.6657C18.4476 11.7425 18.3753 11.8025 18.2905 11.8382C18.2057 11.8739 18.1122 11.8836 18.0219 11.8662C17.9315 11.8488 17.8484 11.8049 17.783 11.7402C17.7176 11.6755 17.6728 11.5929 17.6544 11.5028C17.6359 11.4127 17.6446 11.3191 17.6793 11.2339C17.714 11.1487 17.7732 11.0757 17.8495 11.0242C17.9257 10.9726 18.0154 10.9449 18.1074 10.9443C18.2307 10.9439 18.3492 10.9923 18.4369 11.079C18.5245 11.1657 18.5743 11.2836 18.5752 11.4069Z" fill="white"/>
<path d="M12.0404 6.07826C12.5995 6.11825 14.6209 6.77381 15.1426 7.13202C14.7078 5.87133 13.2446 5.70353 12.0404 6.07826Z" fill="#009345"/>
<path d="M12.5727 9.26649C12.5729 9.69092 12.4472 10.1059 12.2115 10.4589C11.9758 10.8118 11.6407 11.087 11.2487 11.2495C10.8566 11.4121 10.4251 11.4547 10.0088 11.372C9.59252 11.2893 9.2101 11.085 8.90992 10.785C8.60974 10.4849 8.40529 10.1026 8.32242 9.6863C8.23956 9.27004 8.282 8.83855 8.44438 8.44641C8.60677 8.05427 8.8818 7.71909 9.23469 7.48327C9.58758 7.24745 10.0025 7.12158 10.4269 7.12158C10.7087 7.12147 10.9877 7.17686 11.248 7.2846C11.5083 7.39234 11.7449 7.55032 11.9441 7.7495C12.1434 7.94869 12.3015 8.18518 12.4093 8.44547C12.5172 8.70576 12.5727 8.98474 12.5727 9.26649Z" fill="white"/>
<path d="M11.9361 9.28571C11.9361 9.58423 11.8475 9.87605 11.6817 10.1243C11.5158 10.3725 11.2801 10.5659 11.0043 10.6802C10.7285 10.7944 10.425 10.8243 10.1322 10.7661C9.83946 10.7078 9.57052 10.5641 9.35944 10.353C9.14835 10.1419 9.0046 9.87295 8.94636 9.58017C8.88812 9.28739 8.91801 8.98391 9.03225 8.70811C9.14649 8.43231 9.33995 8.19659 9.58816 8.03074C9.83637 7.86489 10.1282 7.77637 10.4267 7.77637C10.827 7.77637 11.2109 7.93539 11.494 8.21844C11.777 8.5015 11.9361 8.88541 11.9361 9.28571Z" fill="#58595B"/>
<path d="M20.3126 12.353C18.5738 13.578 16.5967 14.5075 13.7918 14.5075C12.479 14.5075 12.2129 13.1164 11.3452 13.7963C10.8975 14.1493 9.31858 14.9387 8.06572 14.8787C6.81286 14.8187 4.78185 14.0841 4.21584 11.4097C3.99153 14.0841 3.87676 16.0542 2.87256 18.3121C4.87227 21.5143 9.64027 23.9844 13.9683 22.9202C13.5032 19.6728 16.341 16.4924 17.9399 14.8648C18.5485 14.2484 19.7049 13.2424 20.3126 12.3513V12.353Z" fill="#8BC53F"/>
<path d="M20.2452 12.4332C19.7053 12.9253 19.0628 13.2896 18.409 13.6113C17.7472 13.9255 17.0573 14.1767 16.3484 14.3616C15.6389 14.5451 14.899 14.6833 14.1496 14.6155C13.4001 14.5477 12.6341 14.2929 12.1377 13.7313L12.1612 13.7043C12.7698 14.099 13.4723 14.2382 14.1713 14.2582C14.8799 14.2797 15.5886 14.2214 16.284 14.0843C16.9866 13.9372 17.6738 13.7247 18.3368 13.4496C19.0002 13.1757 19.6566 12.8584 20.2217 12.4062L20.2452 12.4332Z" fill="#58595B"/>
</g>
<defs>
<clipPath id="clip0_644:7981">
<rect width="90.7938" height="24" fill="white"/>
</clipPath>
</defs>
</svg>
