<svg viewBox="0 0 100 100" fill="none" xmlns="http://www.w3.org/2000/svg">
<g id="Group 48095867">
<circle id="Ellipse 472" cx="49.5532" cy="49.5532" r="49.5532" fill="black"/>
<g id="Group 48095866">
<path id="symbol_dexlab" d="M30.4221 74.2761C27.6352 74.2244 25.715 72.3782 24.9834 70.9058C24.2519 69.4335 24.2365 67.5205 24.9364 66.0665C25.6363 64.6126 39.0929 37.737 39.5358 36.8127C39.9788 35.8884 39.933 35.9391 39.9393 34.9094C39.9456 33.8798 39.9393 22.9705 39.9393 22.9705C39.9393 22.9705 38.8685 22.9692 38.2249 22.9705C36.6703 22.9738 35.9796 21.853 35.9716 20.9533C35.9636 20.0727 36.5801 18.8868 38.1462 18.8832C39.4758 18.8802 41.8129 18.8832 44.0722 18.8832L44.0544 25.1421H48.8085V27.1888H44.055V29.2855H48.8091V31.3229H44.055V36.579C44.055 37.1096 43.981 37.1235 43.7161 37.6789C43.4513 38.2342 29.2551 66.6673 28.8075 67.6095C28.3599 68.5517 29.2615 70.1492 30.5982 70.1742C31.9349 70.1992 66.7565 70.1665 68.4533 70.1665C70.1502 70.1665 70.6177 68.1666 70.2832 67.5176C69.9488 66.8686 55.445 37.8939 55.1929 37.345C54.9407 36.7962 54.9721 36.8396 54.9847 35.9348C54.9973 35.03 54.9847 18.8819 54.9847 18.8819C54.9847 18.8819 58.9724 18.8834 61.0484 18.8834C61.3162 18.8809 61.5819 18.931 61.83 19.0307C62.0782 19.1304 62.3039 19.2778 62.4941 19.4644C62.6844 19.6509 62.8354 19.8729 62.9385 20.1175C63.0416 20.3622 63.0946 20.6246 63.0946 20.8897C63.0946 21.1547 63.0416 21.4171 62.9385 21.6618C62.8354 21.9064 62.6844 22.1284 62.4941 22.315C62.3039 22.5015 62.0782 22.6489 61.83 22.7486C61.5819 22.8483 61.3162 22.8984 61.0484 22.8959C60.4935 22.9077 59.1021 22.8959 59.1021 22.8959C59.1021 22.8959 59.1046 34.8212 59.1021 35.4933C59.0995 36.1654 59.2959 36.3109 59.7372 37.2031C60.1785 38.0952 72.9833 63.6252 73.8534 65.3537C74.7235 67.0822 75.029 69.5666 73.4714 71.6321C71.9137 73.6976 70.0747 74.1913 68.6102 74.2039C67.4183 74.2141 44.7135 74.2897 34.8022 74.2897C32.5363 74.2896 30.9407 74.2859 30.4221 74.2761ZM48.0116 64.0965C48.0116 63.8183 48.0949 63.5464 48.2511 63.315C48.4073 63.0837 48.6293 62.9034 48.889 62.797C49.1487 62.6905 49.4345 62.6626 49.7102 62.7169C49.9859 62.7712 50.2391 62.9052 50.4379 63.1019C50.6367 63.2986 50.772 63.5493 50.8269 63.8221C50.8817 64.095 50.8536 64.3778 50.746 64.6348C50.6384 64.8919 50.4562 65.1116 50.2225 65.2661C49.9888 65.4207 49.714 65.5032 49.4329 65.5032C49.0559 65.5032 48.6944 65.355 48.4279 65.0912C48.1613 64.8274 48.0116 64.4696 48.0116 64.0965ZM52.2391 63.8017C52.1702 63.7334 52.1272 63.6437 52.1177 63.5476C52.1081 63.4516 52.1324 63.3552 52.1866 63.2749C52.2408 63.1947 52.3214 63.1355 52.4147 63.1074C52.508 63.0794 52.6082 63.0843 52.6984 63.1212C52.7885 63.1581 52.8628 63.2248 52.9088 63.3099C52.9548 63.395 52.9695 63.4933 52.9505 63.5879C52.9315 63.6826 52.8799 63.7678 52.8046 63.8291C52.7292 63.8903 52.6347 63.9238 52.5372 63.9238C52.4254 63.9238 52.3182 63.8799 52.2391 63.8017ZM46.0516 63.8017C45.9827 63.7334 45.9397 63.6437 45.9302 63.5476C45.9206 63.4516 45.945 63.3553 45.9991 63.275C46.0533 63.1948 46.1339 63.1356 46.2272 63.1076C46.3205 63.0796 46.4207 63.0845 46.5108 63.1214C46.6009 63.1583 46.6752 63.225 46.7212 63.3101C46.7672 63.3952 46.7819 63.4934 46.7629 63.5881C46.7438 63.6827 46.6923 63.7679 46.6169 63.8291C46.5415 63.8903 46.447 63.9238 46.3495 63.9238C46.2378 63.9238 46.1306 63.8798 46.0516 63.8017ZM54.1039 62.6946C53.8974 62.5029 53.7535 62.2544 53.6905 61.9812C53.6276 61.708 53.6485 61.4223 53.7506 61.1609C53.8527 60.8996 54.0313 60.6743 54.2636 60.514C54.4959 60.3537 54.7712 60.2657 55.0544 60.2612C55.3375 60.2568 55.6155 60.3361 55.8528 60.489C56.0901 60.6419 56.2759 60.8614 56.3864 61.1195C56.4968 61.3776 56.5269 61.6624 56.4727 61.9374C56.4186 62.2125 56.2827 62.4653 56.0825 62.6635C55.9491 62.7965 55.7905 62.9022 55.6158 62.9745C55.4411 63.0468 55.2537 63.0842 55.0643 63.0847C54.8862 63.0856 54.7096 63.0516 54.5448 62.9847C54.3799 62.9177 54.23 62.8192 54.1039 62.6946ZM42.872 62.6635C42.6868 62.4682 42.5639 62.2233 42.5185 61.9593C42.4731 61.6953 42.5072 61.4239 42.6167 61.1789C42.7262 60.934 42.9061 60.7265 43.1341 60.5821C43.362 60.4378 43.6279 60.3631 43.8984 60.3673C44.169 60.3716 44.4323 60.4546 44.6555 60.606C44.8787 60.7575 45.0518 60.9706 45.1534 61.2188C45.255 61.4671 45.2804 61.7394 45.2266 62.0019C45.1727 62.2643 45.042 62.5053 44.8506 62.6946C44.7244 62.8192 44.5746 62.9178 44.4098 62.9847C44.245 63.0517 44.0683 63.0857 43.8902 63.0848C43.7008 63.0843 43.5134 63.0468 43.3387 62.9746C43.1639 62.9023 43.0054 62.7966 42.872 62.6635ZM49.0409 61.839C49.0409 61.7565 49.0657 61.6758 49.112 61.6072C49.1583 61.5387 49.2241 61.4852 49.3011 61.4536C49.3781 61.4221 49.4628 61.4138 49.5446 61.4299C49.6263 61.446 49.7014 61.4857 49.7603 61.544C49.8193 61.6024 49.8594 61.6767 49.8757 61.7576C49.8919 61.8385 49.8836 61.9224 49.8517 61.9986C49.8198 62.0748 49.7658 62.1399 49.6965 62.1857C49.6272 62.2316 49.5457 62.256 49.4624 62.256C49.3506 62.256 49.2434 62.2121 49.1644 62.1339C49.0853 62.0557 49.0409 61.9496 49.0409 61.839ZM49.0409 60.6633C49.041 60.5809 49.0657 60.5002 49.112 60.4317C49.1583 60.3631 49.2242 60.3096 49.3012 60.2781C49.3782 60.2465 49.4629 60.2383 49.5446 60.2544C49.6264 60.2705 49.7015 60.3102 49.7604 60.3686C49.8193 60.4269 49.8594 60.5012 49.8757 60.5821C49.8919 60.663 49.8836 60.7469 49.8517 60.8231C49.8198 60.8993 49.7658 60.9644 49.6965 61.0102C49.6272 61.056 49.5457 61.0805 49.4624 61.0805C49.407 61.0805 49.3522 61.0697 49.3011 61.0488C49.2499 61.0278 49.2035 60.9971 49.1644 60.9583C49.1252 60.9196 49.0942 60.8736 49.073 60.823C49.0518 60.7724 49.0409 60.7181 49.0409 60.6633ZM53.2372 60.4372C53.1682 60.369 53.1254 60.2792 53.1158 60.1832C53.1063 60.0872 53.1307 59.9909 53.1849 59.9107C53.239 59.8305 53.3196 59.7714 53.4129 59.7434C53.5062 59.7154 53.6064 59.7203 53.6965 59.7572C53.7865 59.7942 53.8608 59.8609 53.9068 59.946C53.9527 60.031 53.9674 60.1293 53.9484 60.2239C53.9293 60.3185 53.8777 60.4036 53.8024 60.4648C53.727 60.526 53.6326 60.5595 53.5351 60.5594C53.4798 60.5594 53.425 60.5486 53.3738 60.5277C53.3227 60.5067 53.2763 60.476 53.2372 60.4372ZM45.1215 60.4372C45.0525 60.369 45.0097 60.2792 45.0001 60.1832C44.9906 60.0872 45.015 59.9909 45.0692 59.9107C45.1233 59.8305 45.2039 59.7714 45.2972 59.7434C45.3905 59.7154 45.4907 59.7203 45.5808 59.7572C45.6708 59.7942 45.7451 59.8609 45.7911 59.946C45.837 60.031 45.8517 60.1293 45.8327 60.2239C45.8136 60.3185 45.762 60.4036 45.6867 60.4648C45.6113 60.526 45.5169 60.5595 45.4194 60.5594C45.3641 60.5594 45.3093 60.5486 45.2581 60.5277C45.207 60.5067 45.1606 60.476 45.1215 60.4372ZM49.0409 59.4838C49.0409 59.4013 49.0656 59.3207 49.1119 59.2521C49.1582 59.1835 49.224 59.13 49.301 59.0985C49.378 59.0669 49.4627 59.0586 49.5445 59.0747C49.6262 59.0908 49.7013 59.1306 49.7603 59.1889C49.8192 59.2472 49.8593 59.3215 49.8756 59.4024C49.8919 59.4833 49.8835 59.5672 49.8516 59.6434C49.8197 59.7196 49.7657 59.7847 49.6964 59.8306C49.6271 59.8764 49.5456 59.9009 49.4623 59.9009C49.3505 59.9008 49.2434 59.8569 49.1644 59.7787C49.0853 59.7005 49.0409 59.5944 49.0409 59.4838ZM52.3972 59.606C52.3283 59.5378 52.2854 59.448 52.2759 59.352C52.2663 59.256 52.2907 59.1597 52.3449 59.0795C52.3991 58.9993 52.4797 58.9402 52.5729 58.9122C52.6662 58.8842 52.7664 58.8891 52.8565 58.926C52.9465 58.9629 53.0208 59.0296 53.0668 59.1147C53.1127 59.1998 53.1274 59.298 53.1084 59.3926C53.0894 59.4872 53.0378 59.5724 52.9624 59.6336C52.887 59.6948 52.7926 59.7282 52.6951 59.7282C52.5834 59.7281 52.4761 59.6842 52.3972 59.606ZM45.9614 59.606C45.8924 59.5378 45.8496 59.448 45.84 59.352C45.8305 59.256 45.8549 59.1597 45.9091 59.0795C45.9632 58.9993 46.0438 58.9402 46.1371 58.9122C46.2304 58.8842 46.3306 58.8891 46.4207 58.926C46.5107 58.9629 46.585 59.0296 46.631 59.1147C46.6769 59.1998 46.6916 59.298 46.6726 59.3926C46.6535 59.4872 46.6019 59.5724 46.5266 59.6336C46.4512 59.6948 46.3568 59.7282 46.2593 59.7282C46.1475 59.7281 46.0403 59.6842 45.9614 59.606ZM56.6225 59.4469C56.5536 59.3786 56.5106 59.2889 56.5011 59.1928C56.4915 59.0968 56.5159 59.0005 56.57 58.9202C56.6242 58.84 56.7048 58.7808 56.7981 58.7528C56.8914 58.7248 56.9916 58.7297 57.0817 58.7666C57.1718 58.8035 57.2461 58.8702 57.2921 58.9553C57.3381 59.0404 57.3528 59.1386 57.3338 59.2333C57.3148 59.3279 57.2632 59.4131 57.1878 59.4743C57.1124 59.5355 57.0179 59.569 56.9204 59.569C56.8087 59.569 56.7015 59.525 56.6225 59.4469ZM41.5907 59.4469C41.5217 59.3786 41.4788 59.2888 41.4692 59.1928C41.4596 59.0968 41.484 59.0004 41.5381 58.9201C41.5923 58.8399 41.6729 58.7807 41.7662 58.7527C41.8595 58.7246 41.9598 58.7295 42.0499 58.7664C42.14 58.8033 42.2144 58.87 42.2604 58.9551C42.3063 59.0402 42.3211 59.1385 42.3021 59.2332C42.2831 59.3278 42.2315 59.413 42.1561 59.4743C42.0807 59.5355 41.9862 59.569 41.8887 59.569C41.777 59.569 41.6697 59.5251 41.5907 59.4469ZM51.5543 58.7718C51.4853 58.7035 51.4425 58.6138 51.4329 58.5178C51.4234 58.4218 51.4478 58.3254 51.502 58.2452C51.5561 58.1651 51.6367 58.1059 51.73 58.0779C51.8233 58.0499 51.9235 58.0548 52.0135 58.0918C52.1036 58.1287 52.1779 58.1954 52.2239 58.2805C52.2698 58.3656 52.2845 58.4638 52.2655 58.5584C52.2464 58.653 52.1948 58.7382 52.1195 58.7994C52.0441 58.8605 51.9497 58.894 51.8522 58.894C51.7405 58.8939 51.6332 58.85 51.5543 58.7718ZM46.8042 58.7718C46.7353 58.7035 46.6924 58.6138 46.6829 58.5178C46.6733 58.4218 46.6977 58.3254 46.7519 58.2452C46.8061 58.1651 46.8867 58.1059 46.98 58.0779C47.0732 58.0499 47.1734 58.0548 47.2635 58.0918C47.3535 58.1287 47.4279 58.1954 47.4738 58.2805C47.5197 58.3656 47.5344 58.4638 47.5154 58.5584C47.4964 58.653 47.4448 58.7382 47.3694 58.7994C47.2941 58.8605 47.1996 58.894 47.1021 58.894C46.9904 58.8939 46.8832 58.85 46.8042 58.7718ZM46.9456 56.1402C46.9456 55.6446 47.0941 55.1602 47.3723 54.7482C47.6505 54.3361 48.0459 54.015 48.5085 53.8253C48.9711 53.6357 49.4801 53.5861 49.9712 53.6828C50.4623 53.7794 50.9134 54.0181 51.2675 54.3685C51.6215 54.7189 51.8626 55.1653 51.9603 55.6514C52.058 56.1374 52.0079 56.6412 51.8163 57.099C51.6246 57.5569 51.3001 57.9482 50.8838 58.2235C50.4675 58.4988 49.978 58.6458 49.4773 58.6458C48.8058 58.6458 48.1619 58.3818 47.6871 57.9119C47.2123 57.442 46.9456 56.8047 46.9456 56.1402ZM56.0952 56.0962C56.0952 55.818 56.1786 55.5461 56.3347 55.3148C56.4909 55.0834 56.7129 54.9031 56.9726 54.7967C57.2323 54.6902 57.5181 54.6623 57.7938 54.7166C58.0695 54.7709 58.3227 54.9049 58.5215 55.1016C58.7203 55.2983 58.8557 55.549 58.9105 55.8218C58.9653 56.0947 58.9372 56.3775 58.8296 56.6345C58.722 56.8916 58.5399 57.1113 58.3061 57.2658C58.0724 57.4204 57.7976 57.5029 57.5165 57.5029C57.1396 57.5029 56.778 57.3547 56.5115 57.0909C56.2449 56.8271 56.0952 56.4693 56.0952 56.0962ZM40.0168 56.0962C40.0168 55.818 40.1001 55.5461 40.2563 55.3148C40.4125 55.0834 40.6345 54.9031 40.8942 54.7967C41.1539 54.6902 41.4396 54.6623 41.7154 54.7166C41.9911 54.7709 42.2443 54.9049 42.4431 55.1016C42.6419 55.2983 42.7772 55.549 42.8321 55.8218C42.8869 56.0947 42.8588 56.3775 42.7512 56.6345C42.6436 56.8916 42.4614 57.1113 42.2277 57.2658C41.994 57.4204 41.7192 57.5029 41.4381 57.5029C41.0611 57.5029 40.6996 57.3547 40.4331 57.0909C40.1665 56.8271 40.0168 56.4693 40.0168 56.0962ZM54.7945 56.1263C54.7945 56.0438 54.8193 55.9632 54.8656 55.8946C54.9119 55.826 54.9777 55.7726 55.0547 55.741C55.1317 55.7094 55.2164 55.7012 55.2982 55.7173C55.3799 55.7333 55.455 55.7731 55.5139 55.8314C55.5729 55.8897 55.613 55.964 55.6293 56.0449C55.6455 56.1258 55.6372 56.2097 55.6053 56.2859C55.5734 56.3621 55.5194 56.4273 55.4501 56.4731C55.3808 56.5189 55.2993 56.5434 55.216 56.5434C55.1606 56.5434 55.1058 56.5326 55.0547 56.5116C55.0036 56.4907 54.9571 56.4599 54.918 56.4212C54.8788 56.3825 54.8478 56.3365 54.8266 56.2859C54.8054 56.2353 54.7945 56.1811 54.7945 56.1263ZM53.6067 56.1263C53.6067 56.0438 53.6314 55.9632 53.6777 55.8946C53.724 55.826 53.7898 55.7726 53.8668 55.741C53.9438 55.7094 54.0286 55.7012 54.1103 55.7173C54.1921 55.7333 54.2672 55.7731 54.3261 55.8314C54.385 55.8897 54.4252 55.964 54.4414 56.0449C54.4577 56.1258 54.4493 56.2097 54.4174 56.2859C54.3855 56.3621 54.3315 56.4273 54.2622 56.4731C54.1929 56.5189 54.1115 56.5434 54.0281 56.5434C53.9728 56.5434 53.918 56.5326 53.8668 56.5116C53.8157 56.4907 53.7693 56.4599 53.7301 56.4212C53.691 56.3825 53.6599 56.3365 53.6388 56.2859C53.6176 56.2353 53.6067 56.1811 53.6067 56.1263ZM52.4147 56.1263C52.4147 56.0438 52.4394 55.9632 52.4857 55.8946C52.532 55.826 52.5978 55.7726 52.6748 55.741C52.7518 55.7094 52.8366 55.7012 52.9183 55.7173C53 55.7333 53.0751 55.7731 53.1341 55.8314C53.193 55.8897 53.2331 55.964 53.2494 56.0449C53.2657 56.1258 53.2573 56.2097 53.2254 56.2859C53.1935 56.3621 53.1395 56.4273 53.0702 56.4731C53.0009 56.5189 52.9194 56.5434 52.8361 56.5434C52.7807 56.5434 52.7259 56.5326 52.6748 56.5116C52.6237 56.4907 52.5772 56.4599 52.5381 56.4212C52.499 56.3825 52.4679 56.3365 52.4467 56.2859C52.4256 56.2353 52.4147 56.1811 52.4147 56.1263ZM45.697 56.1263C45.697 56.0438 45.7217 55.9632 45.768 55.8946C45.8143 55.826 45.8801 55.7726 45.9571 55.741C46.0341 55.7094 46.1189 55.7012 46.2006 55.7173C46.2824 55.7333 46.3575 55.7731 46.4164 55.8314C46.4753 55.8897 46.5155 55.964 46.5317 56.0449C46.548 56.1258 46.5396 56.2097 46.5077 56.2859C46.4758 56.3621 46.4218 56.4273 46.3525 56.4731C46.2832 56.5189 46.2018 56.5434 46.1184 56.5434C46.0631 56.5434 46.0083 56.5326 45.9571 56.5116C45.906 56.4907 45.8596 56.4599 45.8204 56.4212C45.7813 56.3825 45.7502 56.3365 45.7291 56.2859C45.7079 56.2353 45.697 56.1811 45.697 56.1263ZM44.5051 56.1263C44.5051 56.0438 44.5298 55.9632 44.5761 55.8946C44.6224 55.826 44.6882 55.7726 44.7652 55.741C44.8422 55.7094 44.9269 55.7012 45.0087 55.7173C45.0904 55.7333 45.1655 55.7731 45.2245 55.8314C45.2834 55.8897 45.3235 55.964 45.3398 56.0449C45.356 56.1258 45.3477 56.2097 45.3158 56.2859C45.2839 56.3621 45.2299 56.4273 45.1606 56.4731C45.0913 56.5189 45.0098 56.5434 44.9265 56.5434C44.8711 56.5434 44.8163 56.5326 44.7652 56.5116C44.7141 56.4907 44.6676 56.4599 44.6285 56.4212C44.5894 56.3825 44.5583 56.3365 44.5371 56.2859C44.516 56.2353 44.5051 56.1811 44.5051 56.1263ZM43.3172 56.1263C43.3172 56.0438 43.3419 55.9632 43.3882 55.8946C43.4345 55.826 43.5003 55.7726 43.5774 55.741C43.6544 55.7094 43.7391 55.7012 43.8208 55.7173C43.9026 55.7333 43.9777 55.7731 44.0366 55.8314C44.0955 55.8897 44.1357 55.964 44.1519 56.0449C44.1682 56.1258 44.1599 56.2097 44.128 56.2859C44.0961 56.3621 44.042 56.4273 43.9727 56.4731C43.9034 56.5189 43.822 56.5434 43.7386 56.5434C43.6833 56.5434 43.6285 56.5326 43.5774 56.5116C43.5262 56.4907 43.4798 56.4599 43.4406 56.4212C43.4015 56.3825 43.3705 56.3365 43.3493 56.2859C43.3281 56.2353 43.3172 56.1811 43.3172 56.1263ZM51.5544 54.0706C51.4855 54.0023 51.4426 53.9126 51.4331 53.8166C51.4236 53.7206 51.448 53.6243 51.5021 53.5441C51.5563 53.4639 51.6369 53.4047 51.7302 53.3767C51.8235 53.3488 51.9237 53.3537 52.0137 53.3906C52.1038 53.4275 52.1781 53.4942 52.224 53.5793C52.27 53.6644 52.2847 53.7626 52.2656 53.8572C52.2466 53.9518 52.195 54.037 52.1197 54.0982C52.0443 54.1594 51.9498 54.1928 51.8524 54.1928C51.797 54.1928 51.7422 54.182 51.6911 54.161C51.64 54.14 51.5935 54.1093 51.5544 54.0706ZM46.8043 54.0706C46.7354 54.0023 46.6925 53.9126 46.683 53.8166C46.6734 53.7206 46.6978 53.6243 46.752 53.5441C46.8062 53.4639 46.8868 53.4047 46.98 53.3767C47.0733 53.3488 47.1735 53.3537 47.2636 53.3906C47.3536 53.4275 47.4279 53.4942 47.4739 53.5793C47.5198 53.6644 47.5345 53.7626 47.5155 53.8572C47.4965 53.9518 47.4449 54.037 47.3695 54.0982C47.2941 54.1594 47.1997 54.1928 47.1022 54.1928C47.0469 54.1928 46.9921 54.182 46.941 54.161C46.8898 54.14 46.8434 54.1093 46.8043 54.0706ZM56.6226 53.3397C56.5536 53.2715 56.5107 53.1817 56.5012 53.0857C56.4916 52.9897 56.516 52.8933 56.5701 52.8131C56.6243 52.7329 56.7049 52.6737 56.7982 52.6457C56.8915 52.6177 56.9917 52.6225 57.0818 52.6595C57.1719 52.6964 57.2462 52.7631 57.2922 52.8482C57.3382 52.9333 57.3529 53.0315 57.3339 53.1261C57.3148 53.2208 57.2633 53.306 57.1879 53.3672C57.1125 53.4284 57.018 53.4619 56.9205 53.4619C56.8088 53.4619 56.7016 53.4179 56.6226 53.3397ZM41.6796 53.3397C41.6106 53.2715 41.5677 53.1817 41.5581 53.0856C41.5485 52.9896 41.5728 52.8932 41.627 52.8129C41.6812 52.7326 41.7618 52.6734 41.8552 52.6454C41.9485 52.6173 42.0488 52.6222 42.1389 52.6591C42.229 52.696 42.3034 52.7627 42.3494 52.8479C42.3954 52.933 42.4101 53.0313 42.3911 53.126C42.3721 53.2206 42.3205 53.3059 42.2451 53.3671C42.1697 53.4284 42.0752 53.4618 41.9776 53.4619C41.8659 53.4619 41.7587 53.4179 41.6796 53.3397ZM52.3973 53.2365C52.3283 53.1683 52.2855 53.0785 52.2759 52.9825C52.2664 52.8865 52.2908 52.7902 52.345 52.71C52.3991 52.6298 52.4797 52.5707 52.573 52.5427C52.6663 52.5147 52.7665 52.5196 52.8566 52.5565C52.9466 52.5935 53.0209 52.6602 53.0669 52.7452C53.1128 52.8303 53.1275 52.9286 53.1085 53.0232C53.0894 53.1178 53.0378 53.2029 52.9625 53.2641C52.8871 53.3253 52.7927 53.3587 52.6952 53.3587C52.6399 53.3587 52.5851 53.3479 52.5339 53.3269C52.4828 53.3059 52.4364 53.2753 52.3973 53.2365ZM45.9614 53.2365C45.8925 53.1683 45.8496 53.0785 45.84 52.9825C45.8304 52.8865 45.8548 52.7901 45.909 52.7099C45.9631 52.6297 46.0437 52.5705 46.137 52.5425C46.2303 52.5145 46.3305 52.5193 46.4206 52.5562C46.5107 52.5932 46.5851 52.6599 46.631 52.7449C46.677 52.83 46.6917 52.9283 46.6727 53.0229C46.6537 53.1176 46.6021 53.2028 46.5267 53.264C46.4514 53.3252 46.3569 53.3586 46.2594 53.3586C46.1476 53.3586 46.0405 53.3147 45.9614 53.2365ZM49.0559 52.7689C49.0559 52.6864 49.0807 52.6058 49.127 52.5373C49.1734 52.4687 49.2392 52.4153 49.3162 52.3838C49.3932 52.3522 49.4779 52.344 49.5597 52.3601C49.6414 52.3763 49.7165 52.416 49.7754 52.4744C49.8343 52.5327 49.8744 52.607 49.8906 52.6879C49.9069 52.7688 49.8985 52.8526 49.8666 52.9288C49.8347 53.005 49.7807 53.0702 49.7114 53.116C49.6421 53.1618 49.5606 53.1862 49.4773 53.1862C49.4219 53.1862 49.3671 53.1754 49.3159 53.1545C49.2648 53.1335 49.2183 53.1027 49.1792 53.064C49.14 53.0252 49.109 52.9792 49.0878 52.9285C49.0667 52.8779 49.0558 52.8237 49.0559 52.7689ZM53.2372 52.4053C53.1682 52.3371 53.1254 52.2473 53.1158 52.1513C53.1063 52.0553 53.1307 51.959 53.1849 51.8788C53.239 51.7986 53.3196 51.7394 53.4129 51.7115C53.5062 51.6835 53.6064 51.6884 53.6965 51.7253C53.7865 51.7622 53.8608 51.8289 53.9068 51.914C53.9527 51.9991 53.9674 52.0973 53.9484 52.1919C53.9293 52.2865 53.8777 52.3717 53.8024 52.4329C53.727 52.4941 53.6326 52.5275 53.5351 52.5275C53.4798 52.5275 53.425 52.5167 53.3738 52.4957C53.3227 52.4747 53.2763 52.444 53.2372 52.4053ZM45.1215 52.4053C45.0525 52.3371 45.0096 52.2473 45 52.1513C44.9904 52.0552 45.0148 51.9589 45.069 51.8787C45.1231 51.7984 45.2037 51.7393 45.297 51.7112C45.3903 51.6832 45.4906 51.6881 45.5806 51.725C45.6707 51.7619 45.7451 51.8286 45.791 51.9137C45.837 51.9988 45.8517 52.097 45.8327 52.1917C45.8137 52.2863 45.7621 52.3715 45.6867 52.4327C45.6114 52.4939 45.5169 52.5274 45.4194 52.5274C45.3641 52.5274 45.3093 52.5166 45.2581 52.4956C45.207 52.4747 45.1606 52.444 45.1215 52.4053ZM49.0559 51.5893C49.0559 51.5068 49.0806 51.4261 49.1269 51.3575C49.1732 51.289 49.239 51.2355 49.316 51.2039C49.393 51.1724 49.4778 51.1641 49.5595 51.1802C49.6413 51.1963 49.7163 51.236 49.7753 51.2943C49.8342 51.3527 49.8743 51.427 49.8906 51.5079C49.9069 51.5888 49.8985 51.6727 49.8666 51.7489C49.8347 51.8251 49.7807 51.8902 49.7114 51.936C49.6421 51.9819 49.5606 52.0063 49.4773 52.0063C49.4219 52.0063 49.3671 51.9956 49.316 51.9746C49.2648 51.9536 49.2184 51.9229 49.1792 51.8842C49.1401 51.8454 49.1091 51.7994 49.0879 51.7488C49.0667 51.6982 49.0558 51.644 49.0559 51.5893ZM42.8405 51.5474C42.6341 51.3556 42.4901 51.1072 42.4272 50.834C42.3642 50.5607 42.3852 50.2751 42.4873 50.0137C42.5894 49.7523 42.768 49.5271 43.0003 49.3668C43.2325 49.2065 43.5079 49.1185 43.791 49.114C44.0742 49.1095 44.3522 49.1889 44.5895 49.3418C44.8268 49.4947 45.0126 49.7142 45.123 49.9723C45.2335 50.2303 45.2635 50.5151 45.2094 50.7902C45.1553 51.0653 45.0194 51.3181 44.8192 51.5163C44.6858 51.6494 44.5272 51.7551 44.3525 51.8275C44.1778 51.8998 43.9904 51.9373 43.801 51.9378C43.6228 51.9387 43.4462 51.9046 43.2813 51.8376C43.1165 51.7706 42.9667 51.672 42.8405 51.5474ZM54.1353 51.5163C53.9502 51.321 53.8272 51.0761 53.7818 50.812C53.7364 50.548 53.7706 50.2766 53.8801 50.0317C53.9895 49.7868 54.1695 49.5792 54.3974 49.4349C54.6254 49.2905 54.8912 49.2158 55.1618 49.2201C55.4323 49.2244 55.6956 49.3074 55.9188 49.4588C56.142 49.6103 56.3152 49.8234 56.4168 50.0716C56.5183 50.3199 56.5438 50.5922 56.4899 50.8546C56.4361 51.1171 56.3053 51.358 56.114 51.5474C55.9878 51.672 55.838 51.7706 55.6732 51.8376C55.5084 51.9046 55.3318 51.9387 55.1536 51.9378C54.9642 51.9373 54.7767 51.8997 54.602 51.8273C54.4273 51.7549 54.2686 51.6495 54.1353 51.5163ZM49.0558 50.4137C49.0558 50.3312 49.0805 50.2505 49.1268 50.1819C49.1731 50.1134 49.2389 50.0599 49.3159 50.0283C49.3929 49.9968 49.4777 49.9885 49.5594 50.0046C49.6412 50.0207 49.7162 50.0604 49.7752 50.1187C49.8341 50.1771 49.8743 50.2514 49.8905 50.3323C49.9068 50.4132 49.8984 50.497 49.8665 50.5733C49.8346 50.6495 49.7806 50.7146 49.7113 50.7604C49.642 50.8063 49.5605 50.8307 49.4772 50.8307C49.4219 50.8307 49.3671 50.8199 49.3159 50.7989C49.2648 50.778 49.2184 50.7472 49.1792 50.7085C49.1401 50.6698 49.1091 50.6238 49.0879 50.5732C49.0668 50.5226 49.0558 50.4684 49.0558 50.4137ZM48.0116 48.0959C48.0116 47.8177 48.0949 47.5458 48.2511 47.3144C48.4073 47.0831 48.6293 46.9028 48.889 46.7964C49.1487 46.6899 49.4345 46.662 49.7102 46.7163C49.9859 46.7706 50.2391 46.9046 50.4379 47.1013C50.6367 47.298 50.772 47.5487 50.8269 47.8215C50.8817 48.0944 50.8536 48.3772 50.746 48.6342C50.6384 48.8913 50.4562 49.111 50.2225 49.2655C49.9888 49.4201 49.714 49.5026 49.4329 49.5026C49.0559 49.5026 48.6944 49.3544 48.4279 49.0906C48.1613 48.8268 48.0116 48.469 48.0116 48.0959ZM52.2364 49.0126C52.1675 48.9444 52.1246 48.8546 52.115 48.7586C52.1055 48.6626 52.1299 48.5662 52.184 48.486C52.2382 48.4058 52.3188 48.3466 52.4121 48.3186C52.5054 48.2906 52.6056 48.2955 52.6957 48.3325C52.7858 48.3694 52.8601 48.4361 52.9061 48.5212C52.952 48.6063 52.9668 48.7045 52.9477 48.7992C52.9287 48.8938 52.8771 48.979 52.8017 49.0402C52.7264 49.1014 52.6319 49.1348 52.5344 49.1348C52.4791 49.1348 52.4243 49.1241 52.3731 49.1031C52.322 49.0822 52.2755 49.0514 52.2364 49.0126ZM46.0517 48.9805C45.9828 48.9123 45.9399 48.8225 45.9304 48.7265C45.9208 48.6305 45.9452 48.5342 45.9994 48.454C46.0536 48.3738 46.1342 48.3147 46.2275 48.2867C46.3207 48.2587 46.4209 48.2636 46.511 48.3006C46.601 48.3375 46.6754 48.4042 46.7213 48.4893C46.7672 48.5744 46.7819 48.6726 46.7629 48.7672C46.7439 48.8618 46.6923 48.9469 46.6169 49.0081C46.5416 49.0693 46.4471 49.1028 46.3496 49.1027C46.2943 49.1028 46.2395 49.092 46.1884 49.071C46.1373 49.0501 46.0908 49.0193 46.0517 48.9805Z" fill="url(#paint0_linear_11_1213)"/>
<path id="Intersect" fill-rule="evenodd" clip-rule="evenodd" d="M90.4875 55.1142C91.0918 55.1142 91.5586 55.6481 91.4634 56.2449C88.2334 76.4855 70.6958 91.9533 49.5455 91.9533C28.3952 91.9533 10.8576 76.4856 7.62761 56.2449C7.53238 55.6482 7.99922 55.1143 8.60351 55.1143H10.6373C11.1337 55.1143 11.5538 55.4803 11.6367 55.9698C14.7116 74.1262 30.5138 87.9533 49.5455 87.9533C68.5772 87.9533 84.3794 74.1262 87.4543 55.9697C87.5372 55.4803 87.9573 55.1142 88.4537 55.1142L90.4875 55.1142ZM8.67604 43.452C8.06755 43.452 7.59953 42.911 7.70189 42.3112C11.1181 22.2917 28.5522 7.05273 49.5455 7.05273C70.5388 7.05273 87.9728 22.2917 91.3891 42.3112C91.4914 42.911 91.0234 43.452 90.4149 43.452H88.3767C87.8847 43.452 87.4669 43.0922 87.3793 42.6081C84.1303 24.6629 68.4273 11.0527 49.5455 11.0527C30.6637 11.0527 14.9607 24.6629 11.7117 42.6081C11.624 43.0922 11.2063 43.452 10.7143 43.452H8.67604Z" fill="url(#paint1_linear_11_1213)"/>
</g>
</g>
<defs>
<linearGradient id="paint0_linear_11_1213" x1="30.054" y1="17.8818" x2="74.0657" y2="75.9511" gradientUnits="userSpaceOnUse">
<stop stop-color="#D6A1FF"/>
<stop offset="0.545833" stop-color="#58D5F1"/>
<stop offset="1" stop-color="#D0A1FF"/>
</linearGradient>
<linearGradient id="paint1_linear_11_1213" x1="30.198" y1="11.3844" x2="78.4247" y2="81.1777" gradientUnits="userSpaceOnUse">
<stop stop-color="#D6A1FF"/>
<stop offset="0.254166" stop-color="#74CAF4"/>
<stop offset="0.505208" stop-color="#58D5F1"/>
<stop offset="0.775" stop-color="#78C8F5"/>
<stop offset="1" stop-color="#D6A1FF"/>
</linearGradient>
</defs>
</svg>
