<svg width="20" height="20" viewBox="0 0 20 20" fill="none" xmlns="http://www.w3.org/2000/svg">
    <path
        d="M2 10C2 5.58173 5.58173 2 10 2C14.4183 2 18 5.58173 18 10C18 14.4183 14.4183 18 10 18C5.58173 18 2 14.4183 2 10ZM2.74419 10C2.74419 14.0008 5.99915 17.2558 10 17.2558C14.0008 17.2558 17.2558 14.0008 17.2558 10C17.2558 5.99915 14.0008 2.74419 10 2.74419C5.99915 2.74419 2.74419 5.99915 2.74419 10ZM6.36364 14.766C5.83307 14.756 5.46723 14.4008 5.32803 14.1175C5.18884 13.8342 5.18596 13.4664 5.31924 13.1873C5.45252 12.9082 8.01438 7.73649 8.09877 7.55873C8.18317 7.38097 8.17438 7.39061 8.17556 7.19256C8.17674 6.9945 8.17556 4.89573 8.17556 4.89573C8.17556 4.89573 7.97159 4.89573 7.84913 4.89573C7.55315 4.89573 7.42156 4.68076 7.42004 4.50672C7.41852 4.33759 7.5359 4.10926 7.83408 4.10858C8.08778 4.10858 8.53226 4.10858 8.96237 4.10858L8.95899 5.31264H9.86469V5.70638H8.95915V6.10994H9.86469V6.50182H8.95915V7.51374C8.95915 7.61522 8.94512 7.61844 8.89455 7.72533C8.84397 7.83222 6.14123 13.3022 6.05598 13.4841C5.97074 13.6661 6.14241 13.9728 6.39696 13.9775C6.6515 13.9822 13.2812 13.9746 13.6046 13.9746C13.9279 13.9746 14.0166 13.5899 13.953 13.465C13.8894 13.3402 11.1278 7.76744 11.0797 7.66106C11.0317 7.55467 11.0378 7.56381 11.0402 7.39044C11.0425 7.21708 11.0402 4.10926 11.0402 4.10926H12.1947C12.297 4.1083 12.3956 4.14803 12.4687 4.21973C12.5417 4.29143 12.5833 4.38922 12.5843 4.49159C12.5852 4.59395 12.5455 4.6925 12.4738 4.76557C12.4021 4.83863 12.3043 4.88022 12.2019 4.88118H12.1947C12.089 4.88338 11.8241 4.88118 11.8241 4.88118C11.8241 4.88118 11.8241 7.17531 11.8241 7.30469C11.8241 7.43408 11.8605 7.463 11.945 7.63383C12.0296 7.80465 14.467 12.717 14.6327 13.0495C14.7985 13.382 14.8565 13.86 14.56 14.2573C14.2635 14.6545 13.9132 14.7496 13.6345 14.7526C13.4075 14.7545 9.08482 14.7696 7.19746 14.7696C6.766 14.7685 6.46224 14.7679 6.36364 14.766ZM9.71247 12.8076C9.71247 12.7541 9.72834 12.7018 9.75808 12.6573C9.78782 12.6128 9.83008 12.5781 9.87953 12.5576C9.92898 12.5371 9.98339 12.5318 10.0359 12.5422C10.0884 12.5526 10.1366 12.5784 10.1744 12.6163C10.2123 12.6541 10.2381 12.7023 10.2485 12.7548C10.2589 12.8073 10.2536 12.8617 10.2331 12.9112C10.2126 12.9606 10.1779 13.0029 10.1334 13.0326C10.0889 13.0624 10.0366 13.0782 9.98309 13.0782C9.91132 13.0782 9.84248 13.0497 9.79173 12.999C9.74098 12.9482 9.71247 12.8794 9.71247 12.8076ZM10.5174 12.751C10.5041 12.738 10.4956 12.7208 10.4936 12.7023C10.4915 12.6838 10.4959 12.6651 10.506 12.6495C10.5161 12.6339 10.5313 12.6223 10.549 12.6166C10.5668 12.6109 10.5859 12.6116 10.6032 12.6184C10.6205 12.6253 10.6349 12.6379 10.6439 12.6542C10.653 12.6704 10.6561 12.6893 10.6528 12.7076C10.6495 12.726 10.6399 12.7425 10.6257 12.7546C10.6116 12.7667 10.5937 12.7734 10.5751 12.7738C10.5644 12.774 10.5538 12.7721 10.5439 12.7682C10.534 12.7643 10.525 12.7584 10.5174 12.751ZM9.33937 12.751C9.32613 12.7378 9.31786 12.7205 9.31596 12.702C9.31407 12.6834 9.31867 12.6648 9.32898 12.6493C9.33928 12.6337 9.35466 12.6223 9.37249 12.6168C9.39031 12.6113 9.40948 12.6122 9.42672 12.6193C9.44395 12.6264 9.45819 12.6393 9.467 12.6557C9.47581 12.6722 9.47865 12.6911 9.47503 12.7094C9.4714 12.7277 9.46155 12.7442 9.44714 12.756C9.43273 12.7678 9.41467 12.7743 9.39603 12.7743C9.37479 12.7743 9.35442 12.7659 9.33937 12.751ZM10.8724 12.5378C10.8334 12.5012 10.8062 12.4538 10.7941 12.4017C10.7821 12.3495 10.7857 12.295 10.8047 12.245C10.8236 12.1949 10.8569 12.1516 10.9005 12.1205C10.944 12.0894 10.9958 12.0719 11.0493 12.0702C11.1028 12.0685 11.1555 12.0828 11.2009 12.1111C11.2464 12.1394 11.2823 12.1805 11.3044 12.2293C11.3264 12.278 11.3335 12.3322 11.3247 12.385C11.316 12.4378 11.2917 12.4868 11.2551 12.5258L11.2492 12.5319C11.2238 12.5575 11.1936 12.5778 11.1604 12.5917C11.1271 12.6056 11.0914 12.6128 11.0554 12.6129C11.0214 12.6131 10.9878 12.6066 10.9564 12.5937C10.925 12.5808 10.8964 12.5618 10.8724 12.5378ZM8.73387 12.5319C8.69861 12.4944 8.67519 12.4472 8.66654 12.3964C8.6579 12.3456 8.6644 12.2934 8.68524 12.2463C8.70608 12.1992 8.74034 12.1592 8.78374 12.1315C8.82713 12.1037 8.87775 12.0893 8.92927 12.0901C8.98079 12.0909 9.03093 12.1069 9.07343 12.136C9.11594 12.1651 9.14892 12.2061 9.16827 12.2539C9.18762 12.3016 9.19248 12.354 9.18224 12.4045C9.172 12.455 9.14712 12.5014 9.1107 12.5378C9.08668 12.5618 9.05814 12.5808 9.02672 12.5937C8.99531 12.6066 8.96165 12.6132 8.9277 12.6129C8.89164 12.6129 8.85596 12.6057 8.8227 12.5918C8.78944 12.5779 8.75925 12.5575 8.73387 12.5319ZM9.9085 12.3733C9.9085 12.3574 9.91321 12.3418 9.92205 12.3286C9.93088 12.3154 9.94344 12.3051 9.95813 12.299C9.97282 12.293 9.98898 12.2914 10.0046 12.2945C10.0202 12.2976 10.0345 12.3053 10.0457 12.3165C10.0569 12.3278 10.0646 12.3421 10.0677 12.3577C10.0707 12.3733 10.0691 12.3895 10.063 12.4041C10.0569 12.4188 10.0466 12.4314 10.0333 12.4402C10.0201 12.449 10.0046 12.4536 9.98867 12.4536C9.97813 12.4536 9.96769 12.4515 9.95795 12.4475C9.94821 12.4435 9.93937 12.4375 9.93192 12.4301C9.92447 12.4226 9.91857 12.4138 9.91455 12.404C9.91053 12.3943 9.90848 12.3838 9.9085 12.3733ZM9.9085 12.1471C9.90847 12.1312 9.91315 12.1157 9.92197 12.1024C9.93078 12.0892 9.94333 12.0789 9.95801 12.0728C9.9727 12.0667 9.98887 12.0651 10.0045 12.0682C10.0201 12.0713 10.0344 12.0789 10.0456 12.0902C10.0569 12.1014 10.0645 12.1157 10.0676 12.1313C10.0707 12.1469 10.0691 12.1631 10.063 12.1778C10.0569 12.1925 10.0466 12.205 10.0334 12.2138C10.0201 12.2227 10.0046 12.2273 9.98867 12.2273C9.96741 12.2273 9.94701 12.2189 9.93198 12.2038C9.91694 12.1888 9.9085 12.1684 9.9085 12.1471ZM10.7075 12.1037C10.6944 12.0906 10.6863 12.0734 10.6845 12.0549C10.6827 12.0365 10.6874 12.0181 10.6977 12.0027C10.708 11.9873 10.7233 11.976 10.741 11.9706C10.7587 11.9653 10.7777 11.9662 10.7948 11.9733C10.8119 11.9804 10.826 11.9932 10.8347 12.0095C10.8434 12.0258 10.8462 12.0447 10.8426 12.0628C10.839 12.081 10.8292 12.0973 10.8149 12.109C10.8006 12.1208 10.7826 12.1272 10.7641 12.1272C10.7536 12.1272 10.7432 12.1251 10.7335 12.1211C10.7237 12.117 10.7149 12.1111 10.7075 12.1037ZM9.16211 12.1037C9.14901 12.0906 9.14086 12.0733 9.13905 12.0549C9.13723 12.0364 9.14187 12.0179 9.15217 12.0025C9.16248 11.9871 9.1778 11.9757 9.19554 11.9703C9.21328 11.9649 9.23234 11.9659 9.24948 11.9729C9.26661 11.98 9.28076 11.9928 9.28951 12.0092C9.29826 12.0255 9.30107 12.0444 9.29747 12.0626C9.29387 12.0808 9.28408 12.0972 9.26976 12.1089C9.25544 12.1207 9.23748 12.1272 9.21894 12.1272C9.20839 12.1272 9.19794 12.1251 9.18818 12.1211C9.17843 12.1171 9.16957 12.1111 9.16211 12.1037ZM9.9085 11.9202C9.9085 11.9043 9.91321 11.8887 9.92205 11.8755C9.93088 11.8623 9.94344 11.852 9.95813 11.8459C9.97282 11.8399 9.98898 11.8383 10.0046 11.8414C10.0202 11.8445 10.0345 11.8522 10.0457 11.8634C10.0569 11.8747 10.0646 11.889 10.0677 11.9046C10.0707 11.9202 10.0691 11.9364 10.063 11.951C10.0569 11.9657 10.0466 11.9782 10.0333 11.9871C10.0201 11.9959 10.0046 12.0005 9.98867 12.0005C9.97813 12.0005 9.96769 11.9984 9.95795 11.9944C9.94821 11.9903 9.93937 11.9844 9.93192 11.977C9.92447 11.9695 9.91857 11.9606 9.91455 11.9509C9.91053 11.9412 9.90848 11.9307 9.9085 11.9202ZM10.5475 11.9437C10.5344 11.9306 10.5262 11.9133 10.5244 11.8948C10.5226 11.8764 10.5273 11.8579 10.5376 11.8424C10.5479 11.827 10.5632 11.8157 10.581 11.8103C10.5987 11.8049 10.6178 11.8059 10.6349 11.813C10.6521 11.8201 10.6662 11.8329 10.6749 11.8493C10.6837 11.8656 10.6865 11.8845 10.6828 11.9027C10.6792 11.9209 10.6694 11.9373 10.655 11.949C10.6407 11.9608 10.6227 11.9672 10.6041 11.9672C10.5829 11.9672 10.5625 11.9587 10.5475 11.9437ZM9.32211 11.9437C9.30901 11.9306 9.30085 11.9133 9.29904 11.8948C9.29724 11.8764 9.30188 11.8579 9.3122 11.8424C9.32251 11.827 9.33785 11.8157 9.3556 11.8103C9.37336 11.8049 9.39242 11.8059 9.40956 11.813C9.42669 11.8201 9.44082 11.8329 9.44956 11.8493C9.45829 11.8656 9.46108 11.8845 9.45745 11.9027C9.45382 11.9209 9.44399 11.9373 9.42965 11.949C9.4153 11.9608 9.39732 11.9672 9.37877 11.9672C9.35752 11.9672 9.33715 11.9587 9.32211 11.9437ZM11.3517 11.9131C11.3386 11.8999 11.3305 11.8827 11.3286 11.8642C11.3268 11.8458 11.3315 11.8272 11.3418 11.8118C11.3521 11.7964 11.3674 11.785 11.3852 11.7797C11.403 11.7743 11.422 11.7752 11.4392 11.7824C11.4563 11.7895 11.4704 11.8023 11.4792 11.8187C11.4879 11.835 11.4907 11.8539 11.487 11.8721C11.4834 11.8903 11.4736 11.9067 11.4592 11.9184C11.4449 11.9302 11.4269 11.9366 11.4084 11.9366C11.3871 11.9366 11.3667 11.9281 11.3517 11.9131ZM8.48964 11.9131C8.47653 11.8999 8.46838 11.8827 8.46657 11.8642C8.46476 11.8458 8.46941 11.8272 8.47972 11.8118C8.49004 11.7964 8.50538 11.785 8.52313 11.7797C8.54088 11.7743 8.55995 11.7752 8.57708 11.7824C8.59421 11.7895 8.60835 11.8023 8.61708 11.8187C8.62582 11.835 8.62861 11.8539 8.62498 11.8721C8.62135 11.8903 8.61152 11.9067 8.59717 11.9184C8.58283 11.9302 8.56485 11.9366 8.5463 11.9366C8.53577 11.9366 8.52535 11.9345 8.51563 11.9305C8.5059 11.9264 8.49707 11.9205 8.48964 11.9131ZM10.3866 11.7832C10.3735 11.77 10.3654 11.7528 10.3636 11.7343C10.3618 11.7159 10.3664 11.6974 10.3767 11.6819C10.387 11.6665 10.4024 11.6552 10.4201 11.6498C10.4379 11.6444 10.4569 11.6454 10.4741 11.6525C10.4912 11.6596 10.5053 11.6724 10.5141 11.6888C10.5228 11.7051 10.5256 11.724 10.522 11.7422C10.5183 11.7604 10.5085 11.7768 10.4942 11.7885C10.4798 11.8003 10.4618 11.8067 10.4433 11.8067C10.422 11.8067 10.4017 11.7982 10.3866 11.7832ZM9.48228 11.7832C9.46917 11.77 9.46102 11.7528 9.45921 11.7343C9.4574 11.7159 9.46205 11.6974 9.47237 11.6819C9.48268 11.6665 9.49802 11.6552 9.51577 11.6498C9.53353 11.6444 9.55259 11.6454 9.56972 11.6525C9.58686 11.6596 9.60099 11.6724 9.60973 11.6888C9.61846 11.7051 9.62125 11.724 9.61762 11.7422C9.61399 11.7604 9.60416 11.7768 9.58982 11.7885C9.57547 11.8003 9.55749 11.8067 9.53894 11.8067C9.51769 11.8067 9.49731 11.7982 9.48228 11.7832ZM9.50951 11.277C9.50951 11.1816 9.53778 11.0884 9.59075 11.0092C9.64372 10.9299 9.719 10.8681 9.80708 10.8316C9.89516 10.7951 9.99208 10.7856 10.0856 10.8042C10.1791 10.8228 10.265 10.8687 10.3324 10.9361C10.3998 11.0035 10.4457 11.0894 10.4643 11.1829C10.4829 11.2764 10.4734 11.3733 10.4369 11.4614C10.4004 11.5495 10.3386 11.6248 10.2593 11.6777C10.1801 11.7307 10.0869 11.759 9.99154 11.759C9.8637 11.759 9.74109 11.7082 9.6507 11.6178C9.5603 11.5274 9.50951 11.4048 9.50951 11.277ZM11.2516 11.2685C11.2516 11.215 11.2675 11.1627 11.2972 11.1182C11.3269 11.0737 11.3692 11.039 11.4186 11.0185C11.4681 10.998 11.5225 10.9926 11.575 11.0031C11.6275 11.0135 11.6757 11.0393 11.7136 11.0771C11.7514 11.115 11.7772 11.1632 11.7876 11.2157C11.7981 11.2682 11.7927 11.3226 11.7722 11.3721C11.7517 11.4215 11.717 11.4638 11.6725 11.4935C11.628 11.5232 11.5757 11.5391 11.5222 11.5391C11.4504 11.5391 11.3816 11.5106 11.3308 11.4599C11.2801 11.4091 11.2516 11.3403 11.2516 11.2685ZM8.19027 11.2685C8.19027 11.215 8.20615 11.1627 8.23588 11.1182C8.26562 11.0737 8.30788 11.039 8.35733 11.0185C8.40678 10.998 8.46119 10.9926 8.51368 11.0031C8.56618 11.0135 8.61439 11.0393 8.65224 11.0771C8.69009 11.115 8.71586 11.1632 8.7263 11.2157C8.73674 11.2682 8.73138 11.3226 8.7109 11.3721C8.69042 11.4215 8.65573 11.4638 8.61123 11.4935C8.56673 11.5232 8.51441 11.5391 8.46089 11.5391C8.38912 11.5391 8.32029 11.5106 8.26954 11.4599C8.21879 11.4091 8.19027 11.3403 8.19027 11.2685ZM11.004 11.2743C11.004 11.2584 11.0087 11.2428 11.0175 11.2296C11.0264 11.2164 11.0389 11.2061 11.0536 11.2C11.0683 11.1939 11.0845 11.1924 11.1 11.1955C11.1156 11.1986 11.13 11.2062 11.1412 11.2175C11.1524 11.2288 11.16 11.2431 11.1631 11.2587C11.1662 11.2743 11.1646 11.2904 11.1585 11.3051C11.1524 11.3198 11.1421 11.3323 11.1288 11.3411C11.1156 11.3499 11.1 11.3546 11.0841 11.3546C11.0736 11.3546 11.0632 11.3525 11.0534 11.3485C11.0437 11.3444 11.0348 11.3385 11.0274 11.331C11.0199 11.3236 11.014 11.3147 11.01 11.305C11.006 11.2952 11.004 11.2848 11.004 11.2743ZM10.7778 11.2743C10.7779 11.2584 10.7826 11.2429 10.7914 11.2298C10.8003 11.2166 10.8128 11.2063 10.8274 11.2003C10.8421 11.1943 10.8582 11.1927 10.8738 11.1958C10.8893 11.1989 10.9036 11.2066 10.9148 11.2178C10.926 11.229 10.9336 11.2433 10.9367 11.2588C10.9397 11.2744 10.9381 11.2905 10.9321 11.3051C10.926 11.3198 10.9157 11.3323 10.9025 11.3411C10.8894 11.3499 10.8739 11.3546 10.858 11.3546C10.8475 11.3546 10.837 11.3525 10.8273 11.3485C10.8176 11.3444 10.8087 11.3385 10.8013 11.331C10.7938 11.3236 10.7879 11.3147 10.7839 11.305C10.7799 11.2952 10.7778 11.2848 10.7778 11.2743ZM10.5509 11.2743C10.5509 11.2584 10.5556 11.2429 10.5645 11.2298C10.5733 11.2166 10.5858 11.2063 10.6005 11.2003C10.6151 11.1943 10.6312 11.1927 10.6468 11.1958C10.6623 11.1989 10.6766 11.2066 10.6878 11.2178C10.699 11.229 10.7066 11.2433 10.7097 11.2588C10.7128 11.2744 10.7112 11.2905 10.7051 11.3051C10.699 11.3198 10.6887 11.3323 10.6756 11.3411C10.6624 11.3499 10.6469 11.3546 10.631 11.3546C10.6205 11.3546 10.6101 11.3525 10.6003 11.3485C10.5906 11.3444 10.5817 11.3385 10.5743 11.331C10.5668 11.3236 10.5609 11.3147 10.5569 11.305C10.5529 11.2952 10.5508 11.2848 10.5509 11.2743ZM9.27171 11.2743C9.27171 11.2584 9.27642 11.2428 9.28525 11.2296C9.29408 11.2164 9.30663 11.2061 9.32131 11.2C9.33599 11.1939 9.35214 11.1924 9.36772 11.1955C9.38331 11.1986 9.39762 11.2062 9.40886 11.2174C9.42009 11.2287 9.42775 11.243 9.43085 11.2586C9.43395 11.2742 9.43235 11.2903 9.42627 11.305C9.42019 11.3197 9.4099 11.3322 9.39668 11.341C9.38347 11.3499 9.36794 11.3546 9.35205 11.3546C9.33074 11.3546 9.31031 11.3461 9.29524 11.3311C9.28018 11.316 9.27171 11.2956 9.27171 11.2743ZM9.0449 11.2743C9.04494 11.2584 9.04967 11.2429 9.0585 11.2298C9.06733 11.2166 9.07986 11.2063 9.09451 11.2003C9.10916 11.1943 9.12528 11.1927 9.14082 11.1958C9.15636 11.1989 9.17063 11.2066 9.18182 11.2178C9.19302 11.229 9.20064 11.2433 9.20371 11.2588C9.20679 11.2744 9.2052 11.2905 9.19912 11.3051C9.19305 11.3198 9.18278 11.3323 9.1696 11.3411C9.15642 11.3499 9.14092 11.3546 9.12507 11.3546C9.11453 11.3546 9.10409 11.3525 9.09436 11.3485C9.08462 11.3444 9.07577 11.3385 9.06833 11.331C9.06088 11.3236 9.05498 11.3147 9.05096 11.305C9.04694 11.2952 9.04488 11.2848 9.0449 11.2743ZM8.8186 11.2743C8.8186 11.2584 8.82332 11.2428 8.83214 11.2296C8.84097 11.2164 8.85352 11.2061 8.8682 11.2C8.88288 11.1939 8.89903 11.1924 8.91462 11.1955C8.9302 11.1986 8.94452 11.2062 8.95575 11.2174C8.96699 11.2287 8.97464 11.243 8.97774 11.2586C8.98084 11.2742 8.97925 11.2903 8.97317 11.305C8.96708 11.3197 8.95679 11.3322 8.94358 11.341C8.93037 11.3499 8.91483 11.3546 8.89894 11.3546C8.87764 11.3546 8.8572 11.3461 8.84213 11.3311C8.82707 11.316 8.8186 11.2956 8.8186 11.2743ZM10.387 10.8795C10.3739 10.8664 10.3657 10.8491 10.3639 10.8307C10.3621 10.8122 10.3667 10.7937 10.377 10.7783C10.3873 10.7629 10.4027 10.7515 10.4204 10.7461C10.4381 10.7407 10.4572 10.7417 10.4743 10.7488C10.4915 10.7558 10.5056 10.7686 10.5144 10.785C10.5231 10.8013 10.5259 10.8202 10.5223 10.8384C10.5187 10.8566 10.5089 10.873 10.4946 10.8847C10.4803 10.8965 10.4623 10.903 10.4438 10.903C10.4333 10.903 10.4228 10.9009 10.4131 10.8969C10.4033 10.8929 10.3944 10.887 10.387 10.8795ZM9.48262 10.8795C9.46951 10.8664 9.46136 10.8491 9.45955 10.8306C9.45774 10.8122 9.46239 10.7937 9.4727 10.7783C9.48302 10.7628 9.49836 10.7515 9.51611 10.7461C9.53386 10.7407 9.55293 10.7417 9.57006 10.7488C9.58719 10.7559 9.60133 10.7687 9.61006 10.7851C9.6188 10.8014 9.62159 10.8203 9.61796 10.8385C9.61433 10.8567 9.6045 10.8731 9.59015 10.8848C9.57581 10.8966 9.55783 10.903 9.53928 10.903C9.51803 10.903 9.49765 10.8945 9.48262 10.8795ZM11.3521 10.7389C11.3388 10.7258 11.3305 10.7085 11.3286 10.69C11.3268 10.6714 11.3314 10.6528 11.3417 10.6373C11.352 10.6217 11.3673 10.6103 11.3852 10.6048C11.403 10.5993 11.4222 10.6002 11.4394 10.6073C11.4566 10.6144 11.4709 10.6273 11.4797 10.6437C11.4885 10.6602 11.4913 10.6791 11.4877 10.6974C11.4841 10.7157 11.4742 10.7322 11.4598 10.744C11.4454 10.7558 11.4274 10.7623 11.4087 10.7623C11.3981 10.7622 11.3877 10.7601 11.378 10.7559C11.3683 10.7518 11.3594 10.7458 11.3521 10.7383V10.7389ZM8.50689 10.7389C8.49366 10.7258 8.48538 10.7085 8.48349 10.69C8.48159 10.6714 8.48619 10.6528 8.4965 10.6373C8.50681 10.6217 8.52219 10.6103 8.54002 10.6048C8.55784 10.5993 8.57701 10.6002 8.59424 10.6073C8.61148 10.6144 8.62572 10.6273 8.63453 10.6437C8.64334 10.6602 8.64617 10.6791 8.64255 10.6974C8.63893 10.7157 8.62907 10.7322 8.61467 10.744C8.60026 10.7558 8.58219 10.7623 8.56355 10.7623C8.55299 10.7622 8.54253 10.7601 8.5328 10.756C8.52308 10.7519 8.51427 10.7458 8.50689 10.7383V10.7389ZM10.5475 10.719C10.5344 10.7059 10.5262 10.6886 10.5244 10.6702C10.5226 10.6517 10.5272 10.6332 10.5375 10.6178C10.5478 10.6024 10.5632 10.591 10.5809 10.5856C10.5987 10.5802 10.6177 10.5812 10.6348 10.5882C10.652 10.5953 10.6661 10.6081 10.6749 10.6245C10.6836 10.6408 10.6864 10.6597 10.6828 10.6779C10.6792 10.6961 10.6694 10.7125 10.6551 10.7242C10.6408 10.736 10.6229 10.7425 10.6043 10.7425C10.5938 10.7425 10.5833 10.7404 10.5736 10.7364C10.5638 10.7324 10.5549 10.7264 10.5475 10.719ZM9.32211 10.719C9.30901 10.7059 9.30086 10.6886 9.29905 10.6702C9.29723 10.6517 9.30187 10.6332 9.31217 10.6178C9.32247 10.6024 9.3378 10.591 9.35554 10.5856C9.37328 10.5802 9.39234 10.5812 9.40948 10.5882C9.42661 10.5953 9.44076 10.6081 9.44951 10.6245C9.45826 10.6408 9.46107 10.6597 9.45747 10.6779C9.45387 10.6961 9.44408 10.7125 9.42976 10.7242C9.41544 10.736 9.39748 10.7425 9.37894 10.7425C9.36839 10.7425 9.35794 10.7404 9.34819 10.7364C9.33844 10.7324 9.32958 10.7264 9.32211 10.719ZM9.91137 10.629C9.91141 10.6132 9.91614 10.5977 9.92497 10.5845C9.9338 10.5714 9.94633 10.5611 9.96098 10.5551C9.97563 10.549 9.99175 10.5475 10.0073 10.5506C10.0228 10.5537 10.0371 10.5613 10.0483 10.5725C10.0595 10.5838 10.0671 10.5981 10.0702 10.6136C10.0733 10.6291 10.0717 10.6453 10.0656 10.6599C10.0595 10.6745 10.0492 10.687 10.0361 10.6958C10.0229 10.7046 10.0074 10.7093 9.99154 10.7093C9.981 10.7093 9.97056 10.7073 9.96082 10.7032C9.95109 10.6992 9.94224 10.6933 9.9348 10.6858C9.92735 10.6783 9.92145 10.6695 9.91743 10.6597C9.91341 10.65 9.91135 10.6395 9.91137 10.629ZM10.7075 10.5581C10.6944 10.545 10.6863 10.5278 10.6845 10.5094C10.6827 10.491 10.6874 10.4725 10.6977 10.4571C10.708 10.4418 10.7233 10.4304 10.741 10.4251C10.7587 10.4197 10.7777 10.4207 10.7948 10.4278C10.8119 10.4348 10.826 10.4476 10.8347 10.464C10.8434 10.4803 10.8462 10.4991 10.8426 10.5173C10.839 10.5354 10.8292 10.5518 10.8149 10.5635C10.8006 10.5752 10.7826 10.5816 10.7641 10.5816C10.7536 10.5817 10.7432 10.5796 10.7335 10.5755C10.7237 10.5715 10.7149 10.5656 10.7075 10.5581ZM9.16211 10.5581C9.14901 10.545 9.14086 10.5278 9.13905 10.5093C9.13723 10.4909 9.14187 10.4724 9.15217 10.4569C9.16248 10.4415 9.1778 10.4302 9.19554 10.4248C9.21328 10.4194 9.23234 10.4203 9.24948 10.4274C9.26661 10.4345 9.28076 10.4473 9.28951 10.4636C9.29826 10.48 9.30107 10.4989 9.29747 10.517C9.29387 10.5352 9.28408 10.5516 9.26976 10.5634C9.25544 10.5752 9.23748 10.5816 9.21894 10.5816C9.20839 10.5817 9.19794 10.5796 9.18819 10.5755C9.17844 10.5715 9.16958 10.5656 9.16211 10.5581ZM9.91137 10.401C9.91141 10.3852 9.91614 10.3697 9.92497 10.3565C9.9338 10.3434 9.94633 10.3331 9.96098 10.3271C9.97563 10.321 9.99175 10.3195 10.0073 10.3226C10.0228 10.3257 10.0371 10.3333 10.0483 10.3446C10.0595 10.3558 10.0671 10.3701 10.0702 10.3856C10.0733 10.4012 10.0717 10.4173 10.0656 10.4319C10.0595 10.4465 10.0492 10.4591 10.0361 10.4679C10.0229 10.4767 10.0074 10.4814 9.99154 10.4814C9.97028 10.4814 9.94989 10.4729 9.93485 10.4579C9.91982 10.4428 9.91137 10.4224 9.91137 10.4012V10.401ZM8.72744 10.3931C8.68844 10.3564 8.66118 10.3091 8.64911 10.2569C8.63703 10.2048 8.64067 10.1503 8.65958 10.1002C8.67849 10.0501 8.71182 10.0068 8.75535 9.9757C8.79887 9.94458 8.85065 9.92706 8.90413 9.92536C8.95761 9.92366 9.0104 9.93785 9.05581 9.96614C9.10123 9.99443 9.13724 10.0356 9.15929 10.0843C9.18135 10.1331 9.18845 10.1873 9.17971 10.24C9.17097 10.2928 9.14678 10.3418 9.11019 10.3809C9.10816 10.3829 9.10613 10.3851 9.1041 10.387C9.07874 10.4126 9.04855 10.433 9.01529 10.4469C8.98203 10.4608 8.94634 10.4681 8.91027 10.4682C8.87635 10.4683 8.84274 10.4618 8.81136 10.4489C8.77998 10.436 8.75146 10.417 8.72744 10.3931ZM10.878 10.387C10.8428 10.3494 10.8194 10.3023 10.8108 10.2515C10.8022 10.2008 10.8087 10.1486 10.8296 10.1015C10.8504 10.0545 10.8847 10.0146 10.928 9.98683C10.9714 9.95909 11.022 9.94475 11.0735 9.94558C11.125 9.94641 11.1751 9.96239 11.2175 9.99151C11.26 10.0206 11.2929 10.0616 11.3122 10.1093C11.3316 10.1571 11.3364 10.2094 11.3262 10.2599C11.3159 10.3103 11.291 10.3567 11.2546 10.3931C11.2306 10.417 11.2021 10.436 11.1707 10.4489C11.1393 10.4618 11.1057 10.4683 11.0718 10.4682C11.0357 10.4681 11 10.4608 10.9668 10.4469C10.9335 10.433 10.9033 10.4126 10.878 10.387ZM9.9107 10.1749C9.9107 10.159 9.91541 10.1435 9.92424 10.1302C9.93306 10.117 9.94561 10.1067 9.96029 10.1007C9.97497 10.0946 9.99112 10.093 10.0067 10.0961C10.0223 10.0992 10.0366 10.1068 10.0478 10.1181C10.0591 10.1293 10.0667 10.1436 10.0698 10.1592C10.0729 10.1748 10.0713 10.1909 10.0653 10.2056C10.0592 10.2203 10.0489 10.2329 10.0357 10.2417C10.0225 10.2505 10.0069 10.2552 9.99104 10.2552C9.96976 10.2552 9.94937 10.2467 9.93434 10.2316C9.91931 10.2166 9.91087 10.1962 9.91087 10.1749H9.9107ZM9.71247 9.72939C9.71247 9.67586 9.72834 9.62354 9.75808 9.57904C9.78782 9.53454 9.83008 9.49986 9.87953 9.47937C9.92898 9.45889 9.98339 9.45353 10.0359 9.46397C10.0884 9.47442 10.1366 9.50019 10.1744 9.53803C10.2123 9.57588 10.2381 9.6241 10.2485 9.67659C10.2589 9.72909 10.2536 9.7835 10.2331 9.83295C10.2126 9.88239 10.1779 9.92466 10.1334 9.95439C10.0889 9.98413 10.0366 10 9.98309 10C9.91132 10 9.84248 9.97149 9.79173 9.92074C9.74098 9.86999 9.71247 9.80116 9.71247 9.72939ZM10.5169 9.90579C10.5038 9.89268 10.4956 9.87542 10.4938 9.85697C10.492 9.83852 10.4966 9.82001 10.5069 9.80459C10.5172 9.78918 10.5326 9.77781 10.5503 9.77242C10.568 9.76704 10.5871 9.76797 10.6042 9.77505C10.6214 9.78214 10.6355 9.79495 10.6443 9.81129C10.653 9.82764 10.6558 9.84651 10.6522 9.8647C10.6486 9.88289 10.6388 9.89927 10.6245 9.91105C10.6102 9.92282 10.5922 9.92928 10.5737 9.9293C10.5631 9.92931 10.5527 9.92723 10.5429 9.9232C10.5332 9.91917 10.5243 9.91325 10.5169 9.90579ZM9.33937 9.89953C9.3263 9.88643 9.31818 9.86921 9.31639 9.85079C9.3146 9.83238 9.31924 9.81391 9.32954 9.79853C9.33983 9.78316 9.35514 9.77183 9.37285 9.76647C9.39056 9.76111 9.40958 9.76206 9.42667 9.76915C9.44376 9.77624 9.45787 9.78904 9.46658 9.80536C9.4753 9.82168 9.47809 9.84052 9.47447 9.85867C9.47086 9.87682 9.46107 9.89315 9.44676 9.90489C9.43246 9.91662 9.41453 9.92304 9.39603 9.92304C9.37477 9.92301 9.3544 9.91456 9.33937 9.89953Z"
        fill="url(#paint0_linear_2430_30557)" />
    <defs>
        <linearGradient id="paint0_linear_2430_30557" x1="4.06867" y1="3.68795" x2="15.9087" y2="16.3279"
            gradientUnits="userSpaceOnUse">
            <stop stop-color="#4D2FE5" />
            <stop offset="0.53" stop-color="#D51FD5" />
            <stop offset="1" stop-color="#FB767C" />
        </linearGradient>
    </defs>
</svg>
