<svg width="380" height="144" viewBox="0 0 380 144" fill="none" xmlns="http://www.w3.org/2000/svg">
<g clip-path="url(#clip0_8952_122873)">
<g filter="url(#filter0_d_8952_122873)">
<path d="M21.585 109.189C26.215 115.629 32.1541 121.018 39.0127 125.002C45.8713 128.986 53.4946 131.475 61.3827 132.306C57.3243 126.199 51.4254 120.58 44.0609 116.303C36.6965 112.025 28.8974 109.689 21.585 109.189Z" fill="url(#paint0_linear_8952_122873)"/>
<path d="M53.9567 99.2708C39.7684 91.0279 24.4117 88.9272 13.4236 92.6382C14.4843 96.1441 15.8833 99.5386 17.6008 102.774C27.1476 102.553 37.5711 105.146 47.2702 110.779C56.9694 116.412 64.3877 124.187 68.9271 132.592C72.5903 132.479 76.2341 132.013 79.8075 131.199C77.5861 119.817 68.1414 107.516 53.9567 99.2708Z" fill="url(#paint1_linear_8952_122873)"/>
<path d="M121.569 65.8124C119.765 58.4749 116.501 51.5762 111.972 45.5281C107.442 39.4801 101.741 34.4067 95.2074 30.611C88.674 26.8153 81.4427 24.375 73.9453 23.436C66.4479 22.497 58.8382 23.0784 51.5704 25.1455C63.712 26.6314 77.189 31.1893 90.406 38.8677C103.623 46.546 114.268 55.9944 121.569 65.8124Z" fill="url(#paint2_linear_8952_122873)"/>
<path d="M103.903 92.7221C97.6887 82.4008 87.0423 72.5178 73.9275 64.8989C60.8127 57.28 46.9568 52.9282 34.9229 52.6403C24.336 52.3895 16.3902 55.4672 13.1286 61.082C13.1101 61.1154 13.0841 61.147 13.0636 61.1804C12.7702 62.2336 12.5176 63.2885 12.2873 64.3472C16.8415 62.5493 22.1183 61.5482 27.9857 61.4367C41.0336 61.1916 55.6362 65.3651 69.1113 73.1938C82.5865 81.0226 93.4539 91.6449 99.7021 103.097C102.503 108.257 104.251 113.337 104.944 118.19C105.75 117.47 106.541 116.725 107.308 115.95C107.328 115.915 107.341 115.878 107.362 115.841C110.623 110.22 109.362 101.795 103.903 92.7221Z" fill="url(#paint3_linear_8952_122873)"/>
<path d="M63.9496 82.0718C43.866 70.4039 21.6724 68.5762 11 76.7189C11.021 79.2676 11.2158 81.8119 11.5832 84.3341C14.7227 83.3824 17.9583 82.7831 21.2303 82.5473C33.1564 81.6502 46.3047 84.973 58.2364 91.9084C70.1681 98.8438 79.5737 108.625 84.7038 119.421C86.1217 122.379 87.2033 125.487 87.9282 128.686C90.3017 127.755 92.6095 126.665 94.8357 125.423C96.6224 112.116 84.0388 93.7416 63.9496 82.0718Z" fill="url(#paint4_linear_8952_122873)"/>
<path d="M114.234 75.4469C107.948 65.1367 97.209 55.2258 84.0013 47.5568C70.7937 39.8877 56.8839 35.4672 44.8111 35.1124C35.6078 34.8468 28.4793 37.0775 24.7831 41.2919C40.1305 38.6916 60.3739 43.0619 79.995 54.4606C99.6162 65.8592 113.446 81.2827 118.784 95.902C120.614 90.6067 119.022 83.3091 114.234 75.4469Z" fill="url(#paint5_linear_8952_122873)"/>
</g>
<path d="M179.282 56.6364L179.282 85.1645C179.282 89.1235 178.137 92.2092 175.847 94.4216C173.557 96.5952 170.491 97.682 166.648 97.682C162.767 97.682 159.623 96.5564 157.216 94.3052C154.849 92.054 153.665 88.91 153.665 84.8734L161.816 84.8734C161.855 86.62 162.262 87.9785 163.038 88.9489C163.853 89.9192 165.018 90.4044 166.532 90.4044C168.006 90.4044 169.132 89.9386 169.908 89.0071C170.685 88.0755 171.073 86.7947 171.073 85.1645L171.073 56.6364L179.282 56.6364ZM219.239 65.0202L219.239 97.2744L211.03 97.2744L211.03 93.199C209.982 94.5963 208.604 95.7025 206.897 96.5175C205.228 97.2938 203.403 97.682 201.424 97.682C198.901 97.682 196.669 97.158 194.729 96.11C192.788 95.0232 191.255 93.4513 190.129 91.3941C189.042 89.2982 188.499 86.8141 188.499 83.9419L188.499 65.0202L196.65 65.0202L196.65 82.7775C196.65 85.3392 197.29 87.3187 198.571 88.716C199.852 90.0745 201.599 90.7537 203.811 90.7537C206.062 90.7537 207.828 90.0745 209.109 88.716C210.39 87.3187 211.03 85.3392 211.03 82.7775L211.03 65.0202L219.239 65.0202ZM235.433 69.6778C236.481 68.2029 237.917 66.9803 239.741 66.0099C241.604 65.0008 243.719 64.4962 246.087 64.4962C248.843 64.4962 251.327 65.1754 253.539 66.5339C255.79 67.8924 257.556 69.8331 258.837 72.356C260.157 74.84 260.817 77.7317 260.817 81.0308C260.817 84.33 260.157 87.2605 258.837 89.8222C257.556 92.3451 255.79 94.3052 253.539 95.7025C251.327 97.0998 248.843 97.7984 246.087 97.7984C243.719 97.7984 241.623 97.3132 239.799 96.3429C238.014 95.3725 236.558 94.1499 235.433 92.675L235.433 112.645L227.282 112.645L227.282 65.0202L235.433 65.0202L235.433 69.6778ZM252.491 81.0308C252.491 79.0902 252.084 77.4212 251.269 76.0239C250.492 74.5878 249.444 73.501 248.125 72.7635C246.844 72.026 245.447 71.6573 243.933 71.6573C242.458 71.6573 241.061 72.0455 239.741 72.8217C238.46 73.5592 237.412 74.646 236.597 76.0821C235.821 77.5182 235.433 79.2066 235.433 81.1473C235.433 83.088 235.821 84.7764 236.597 86.2125C237.412 87.6486 238.46 88.7548 239.741 89.5311C241.061 90.2685 242.458 90.6373 243.933 90.6373C245.447 90.6373 246.844 90.2491 248.125 89.4728C249.444 88.6966 250.492 87.5904 251.269 86.1543C252.084 84.7182 252.491 83.0103 252.491 81.0308ZM270.873 61.1776C269.437 61.1776 268.234 60.7312 267.264 59.8385C266.332 58.907 265.867 57.762 265.867 56.4035C265.867 55.045 266.332 53.9194 267.264 53.0267C268.234 52.0952 269.437 51.6294 270.873 51.6294C272.31 51.6294 273.493 52.0952 274.425 53.0267C275.395 53.9194 275.88 55.045 275.88 56.4035C275.88 57.762 275.395 58.907 274.425 59.8385C273.493 60.7312 272.31 61.1776 270.873 61.1776ZM274.891 65.0202L274.891 97.2744L266.74 97.2744L266.74 65.0202L274.891 65.0202ZM292.434 71.7155L292.434 87.3187C292.434 88.4055 292.686 89.2012 293.191 89.7057C293.734 90.1715 294.627 90.4044 295.869 90.4044L299.653 90.4044L299.653 97.2744L294.53 97.2744C287.66 97.2744 284.225 93.9364 284.225 87.2605L284.225 71.7155L280.382 71.7155L280.382 65.0202L284.225 65.0202L284.225 57.0439L292.434 57.0439L292.434 65.0202L299.653 65.0202L299.653 71.7155L292.434 71.7155ZM335.499 80.4486C335.499 81.6131 335.422 82.661 335.266 83.5926L311.687 83.5926C311.881 85.9214 312.696 87.7456 314.132 89.0653C315.568 90.385 317.334 91.0448 319.43 91.0448C322.458 91.0448 324.612 89.7445 325.893 87.144L334.684 87.144C333.753 90.2491 331.967 92.8108 329.328 94.8292C326.689 96.8087 323.448 97.7984 319.605 97.7984C316.5 97.7984 313.705 97.1192 311.221 95.7607C308.776 94.3634 306.855 92.4033 305.457 89.8804C304.099 87.3575 303.42 84.4465 303.42 81.1473C303.42 77.8093 304.099 74.8789 305.457 72.356C306.816 69.8331 308.718 67.8924 311.163 66.5339C313.608 65.1754 316.422 64.4962 319.605 64.4962C322.671 64.4962 325.408 65.156 327.814 66.4757C330.259 67.7953 332.142 69.6778 333.462 72.1231C334.82 74.5295 335.499 77.3047 335.499 80.4486ZM327.057 78.1198C327.019 76.0239 326.262 74.3549 324.787 73.1128C323.312 71.832 321.507 71.1916 319.372 71.1916C317.354 71.1916 315.646 71.8126 314.249 73.0546C312.89 74.2578 312.056 75.9462 311.745 78.1198L327.057 78.1198ZM349.6 70.0271C350.648 68.3193 352.006 66.9803 353.675 66.0099C355.383 65.0396 357.324 64.5544 359.497 64.5544L359.497 73.1128L357.343 73.1128C354.781 73.1128 352.841 73.7144 351.521 74.9177C350.24 76.1209 349.6 78.2168 349.6 81.2055L349.6 97.2744L341.449 97.2744L341.449 65.0202L349.6 65.0202L349.6 70.0271Z" fill="#292A33"/>
<g clip-path="url(#clip1_8952_122873)">
<path d="M115.028 24.1022C112.852 18.9861 108.949 14.7873 104 12.2451L101.321 10.869C96.3718 8.3268 90.6852 7.59939 85.2549 8.8085C80.3941 9.89368 76.0486 12.4653 72.7844 16.0922L116.375 38.4837C117.418 33.7156 116.981 28.6877 115.032 24.1045L115.028 24.1022Z" fill="url(#paint6_linear_8952_122873)"/>
<path d="M72.7844 16.092C71.4242 17.6036 70.25 19.2941 69.3043 21.1352L67.4625 24.7208L112.461 47.8354L114.303 44.2498C115.251 42.4042 115.941 40.4652 116.375 38.4835L72.7844 16.092Z" fill="url(#paint7_linear_8952_122873)"/>
<path d="M122.256 37.9889C121.266 27.2842 114.866 17.8265 105.298 12.9116L101.325 10.8711C98.9101 9.63051 96.3224 8.82331 93.6726 8.4618L113.655 45.522L115.839 49.5709L123.714 53.6158L122.262 37.9868L122.256 37.9889Z" fill="url(#paint8_linear_8952_122873)"/>
<path d="M115.751 58.0452C119.478 59.9596 124.049 58.4937 125.962 54.771C127.874 51.0483 126.403 46.4785 122.676 44.564C118.949 42.6496 114.378 44.1155 112.465 47.8382C110.553 51.5609 112.024 56.1307 115.751 58.0452Z" fill="#EBE4D4"/>
</g>
<path d="M152.443 43.1513L153.614 42.0444L150.288 39.3007L154 39.2536L153.973 37.7464L149.849 37.7935L153.348 34.3433L152.071 33.3306L148.612 36.7572V32H146.909V36.4982L143.716 33.8487L142.545 34.9556L146.031 37.8406L142 37.8877L142.027 39.3949L145.991 39.3478L142.492 42.798L143.769 43.8107L146.909 40.6902V45H148.612V39.9719L152.443 43.1513Z" fill="#58A0B7" fill-opacity="0.4"/>
<path d="M190.833 127.436L191.711 126.499L189.216 124.178L192 124.138L191.98 122.862L188.887 122.902L191.511 119.983L190.553 119.126L187.959 122.025V118H186.682V121.806L184.287 119.564L183.409 120.501L186.023 122.942L183 122.982L183.02 124.257L185.993 124.217L183.369 127.137L184.327 127.994L186.682 125.353V129H187.959V124.745L190.833 127.436Z" fill="#58A0B7" fill-opacity="0.4"/>
<path d="M334.054 48.4402L335.518 46.9076L331.36 43.1087L336 43.0435L335.967 40.9565L330.812 41.0217L335.185 36.2446L333.589 34.8424L329.265 39.587V33H327.136V39.2283L323.145 35.5598L321.682 37.0924L326.039 41.087L321 41.1522L321.033 43.2391L325.989 43.1739L321.615 47.9511L323.212 49.3533L327.136 45.0326V51H329.265V44.038L334.054 48.4402Z" fill="#58A0B7" fill-opacity="0.2"/>
<path d="M366.925 122.298L368.486 120.68L364.051 116.67L369 116.601L368.965 114.399L363.466 114.467L368.131 109.425L366.428 107.945L361.816 112.953V106H359.545V112.574L355.288 108.702L353.727 110.32L358.375 114.536L353 114.605L353.035 116.808L358.322 116.739L353.656 121.782L355.359 123.262L359.545 118.701V125H361.816V117.651L366.925 122.298Z" fill="#58A0B7" fill-opacity="0.4"/>
<path d="M271.443 123.009L272.614 121.817L269.288 118.862L273 118.812L272.973 117.188L268.849 117.239L272.348 113.524L271.071 112.433L267.612 116.123V111H265.909V115.844L262.716 112.991L261.545 114.183L265.031 117.29L261 117.341L261.027 118.964L264.991 118.913L261.492 122.629L262.769 123.719L265.909 120.359V125H267.612V119.585L271.443 123.009Z" fill="#58A0B7" fill-opacity="0.3"/>
<path d="M213.184 46.5824L214.55 45.135L210.67 41.5471L215 41.4855L214.969 39.5145L210.157 39.5761L214.239 35.0643L212.749 33.74L208.714 38.221V32H206.727V37.8823L203.002 34.4176L201.636 35.865L205.703 39.6377L201 39.6993L201.031 41.6703L205.656 41.6087L201.574 46.1205L203.064 47.4447L206.727 43.3641V49H208.714V42.4248L213.184 46.5824Z" fill="#58A0B7" fill-opacity="0.4"/>
<path d="M29.4435 20.8668L30.6142 19.5897L27.2882 16.4239L31 16.3696L30.9734 14.6304L26.8492 14.6848L30.3481 10.7038L29.071 9.53533L25.612 13.4891V8H23.9091V13.1902L20.7162 10.1332L19.5455 11.4103L23.031 14.7391L19 14.7935L19.0266 16.5326L22.9911 16.4783L19.4922 20.4592L20.7694 21.6277L23.9091 18.0272V23H25.612V17.1984L29.4435 20.8668Z" fill="#58A0B7" fill-opacity="0.5"/>
<path d="M140.054 124.298L141.518 122.68L137.36 118.67L142 118.601L141.967 116.399L136.812 116.467L141.185 111.425L139.589 109.945L135.265 114.953V108H133.136V114.574L129.145 110.702L127.682 112.32L132.039 116.536L127 116.605L127.033 118.808L131.989 118.739L127.615 123.782L129.212 125.262L133.136 120.701V127H135.265V119.651L140.054 124.298Z" fill="#58A0B7" fill-opacity="0.4"/>
</g>
<defs>
<filter id="filter0_d_8952_122873" x="-57.4949" y="-38.6454" width="247.559" height="246.582" filterUnits="userSpaceOnUse" color-interpolation-filters="sRGB">
<feFlood flood-opacity="0" result="BackgroundImageFix"/>
<feColorMatrix in="SourceAlpha" type="matrix" values="0 0 0 0 0 0 0 0 0 0 0 0 0 0 0 0 0 0 127 0" result="hardAlpha"/>
<feOffset dy="6.84949"/>
<feGaussianBlur stdDeviation="34.2475"/>
<feComposite in2="hardAlpha" operator="out"/>
<feColorMatrix type="matrix" values="0 0 0 0 0 0 0 0 0 0 0 0 0 0 0 0 0 0 0.1 0"/>
<feBlend mode="normal" in2="BackgroundImageFix" result="effect1_dropShadow_8952_122873"/>
<feBlend mode="normal" in="SourceGraphic" in2="effect1_dropShadow_8952_122873" result="shape"/>
</filter>
<linearGradient id="paint0_linear_8952_122873" x1="87.7839" y1="44.4995" x2="11" y2="151.997" gradientUnits="userSpaceOnUse">
<stop stop-color="#F9A43A"/>
<stop offset="0.25" stop-color="#FFC45E"/>
<stop offset="0.53125" stop-color="#6DDFE0"/>
<stop offset="0.760417" stop-color="#73E8F2"/>
<stop offset="1" stop-color="#39C7E3"/>
</linearGradient>
<linearGradient id="paint1_linear_8952_122873" x1="87.7839" y1="44.4995" x2="11" y2="151.997" gradientUnits="userSpaceOnUse">
<stop stop-color="#F9A43A"/>
<stop offset="0.25" stop-color="#FFC45E"/>
<stop offset="0.53125" stop-color="#6DDFE0"/>
<stop offset="0.760417" stop-color="#73E8F2"/>
<stop offset="1" stop-color="#39C7E3"/>
</linearGradient>
<linearGradient id="paint2_linear_8952_122873" x1="87.7839" y1="44.4995" x2="11" y2="151.997" gradientUnits="userSpaceOnUse">
<stop stop-color="#F9A43A"/>
<stop offset="0.25" stop-color="#FFC45E"/>
<stop offset="0.53125" stop-color="#6DDFE0"/>
<stop offset="0.760417" stop-color="#73E8F2"/>
<stop offset="1" stop-color="#39C7E3"/>
</linearGradient>
<linearGradient id="paint3_linear_8952_122873" x1="87.7839" y1="44.4995" x2="11" y2="151.997" gradientUnits="userSpaceOnUse">
<stop stop-color="#F9A43A"/>
<stop offset="0.25" stop-color="#FFC45E"/>
<stop offset="0.53125" stop-color="#6DDFE0"/>
<stop offset="0.760417" stop-color="#73E8F2"/>
<stop offset="1" stop-color="#39C7E3"/>
</linearGradient>
<linearGradient id="paint4_linear_8952_122873" x1="87.7839" y1="44.4995" x2="11" y2="151.997" gradientUnits="userSpaceOnUse">
<stop stop-color="#F9A43A"/>
<stop offset="0.25" stop-color="#FFC45E"/>
<stop offset="0.53125" stop-color="#6DDFE0"/>
<stop offset="0.760417" stop-color="#73E8F2"/>
<stop offset="1" stop-color="#39C7E3"/>
</linearGradient>
<linearGradient id="paint5_linear_8952_122873" x1="87.7839" y1="44.4995" x2="11" y2="151.997" gradientUnits="userSpaceOnUse">
<stop stop-color="#F9A43A"/>
<stop offset="0.25" stop-color="#FFC45E"/>
<stop offset="0.53125" stop-color="#6DDFE0"/>
<stop offset="0.760417" stop-color="#73E8F2"/>
<stop offset="1" stop-color="#39C7E3"/>
</linearGradient>
<linearGradient id="paint6_linear_8952_122873" x1="91.2626" y1="15.6431" x2="114.917" y2="27.7936" gradientUnits="userSpaceOnUse">
<stop stop-color="#F1000F"/>
<stop offset="1" stop-color="#B10000"/>
</linearGradient>
<linearGradient id="paint7_linear_8952_122873" x1="96.848" y1="34.1341" x2="135.789" y2="54.1371" gradientUnits="userSpaceOnUse">
<stop stop-color="#EBE4D4"/>
<stop offset="1" stop-color="#738DA0"/>
</linearGradient>
<linearGradient id="paint8_linear_8952_122873" x1="87.9373" y1="19.6162" x2="130.063" y2="41.2551" gradientUnits="userSpaceOnUse">
<stop stop-color="#F1000F"/>
<stop offset="1" stop-color="#B10000"/>
</linearGradient>
<clipPath id="clip0_8952_122873">
<rect width="380" height="144" fill="white"/>
</clipPath>
<clipPath id="clip1_8952_122873">
<rect width="65.7658" height="35.3699" fill="white" transform="translate(80.1611) rotate(27.1884)"/>
</clipPath>
</defs>
</svg>
