<svg width="108" height="118" viewBox="0 0 108 118" fill="none" xmlns="http://www.w3.org/2000/svg">
<path d="M17.3619 96.9511C23.9759 97.4031 31.0289 99.5161 37.6899 103.385C44.3499 107.253 49.6849 112.335 53.3559 117.858C46.2219 117.106 39.3269 114.855 33.1239 111.252C26.9209 107.649 21.5499 102.775 17.3619 96.9511ZM10.7695 80.6163C20.7075 77.2603 34.4553 79.2562 47.2873 86.7112C60.1163 94.1682 68.7985 105.197 70.8075 115.491C67.5765 116.227 64.2805 116.649 60.9675 116.75C56.8625 109.149 50.1525 102.118 41.3805 97.0233C32.6085 91.9283 23.1815 89.5833 14.5475 89.7833C12.9945 86.8573 11.7285 83.7873 10.7695 80.6163ZM9.0769 63.2746C16.3035 61.4022 38.0585 60.5822 56.2225 71.1342C74.3915 81.6892 84.6097 97.9881 85.9559 108.742C83.9429 109.866 81.2576 111.774 79.1106 112.616C78.4546 109.723 77.8321 107.801 76.5501 105.126C71.9101 95.3611 62.485 85.4023 51.694 79.1303C40.903 72.8573 28.6831 70.5628 17.8961 71.3738C14.9371 71.5878 12.0111 72.1298 9.17112 72.9898C8.83912 70.7088 9.0959 65.5796 9.0769 63.2746ZM14.6344 44.1532C20.5721 42.992 38.6255 40.8169 65.4174 55.18C85.9953 66.2119 99.6461 89.8757 101.17 95.0893C101.181 95.2037 101.323 96.2996 98.4296 99.711C96.1417 102.408 95.0318 102.836 94.473 103.021L94.38 103.051C94.2487 103.094 94.1534 103.129 94.0826 103.192C92.0754 95.4586 78.5165 73.2847 60.8505 63.4886C43.1844 53.6925 21.5895 51.0113 10.3119 53.5888C10.3592 53.3764 11.1207 50.81 11.9083 49.0433C12.6959 47.2765 13.97 44.2832 14.6344 44.1532ZM31.7064 27.2386C33.2377 26.9035 47.1577 24.4044 74.9205 40.4333C101.161 55.5833 105.444 67.2824 107.162 72.3425C108.275 75.6218 106.401 83.7611 105.395 85.9178C100.641 72.0252 90.8298 59.8455 70.5235 48.0491C50.2171 36.2527 35.2596 33.2972 20.6796 35.5825C22.9056 32.3626 28.1473 28.0174 31.7064 27.2386ZM44.4809 20.9401C51.0549 19.0711 57.9369 18.5451 64.7179 19.3941C71.4979 20.2441 78.0389 22.4511 83.9469 25.8831C89.8559 29.3161 95.0129 33.9051 99.1089 39.3751C103.205 44.8451 106.157 51.0841 107.789 57.7201C101.186 48.8411 91.5589 40.2951 79.6049 33.3511C67.6509 26.4071 55.4629 22.2841 44.4809 20.9401Z" fill="url(#paint0_linear_140_4123)"/>
<path d="M17.3619 96.9511C23.9759 97.4031 31.0289 99.5161 37.6899 103.385C44.3499 107.253 49.6849 112.335 53.3559 117.858C46.2219 117.106 39.3269 114.855 33.1239 111.252C26.9209 107.649 21.5499 102.775 17.3619 96.9511ZM10.7695 80.6163C20.7075 77.2603 34.4553 79.2562 47.2873 86.7112C60.1163 94.1682 68.7985 105.197 70.8075 115.491C67.5765 116.227 64.2805 116.649 60.9675 116.75C56.8625 109.149 50.1525 102.118 41.3805 97.0233C32.6085 91.9283 23.1815 89.5833 14.5475 89.7833C12.9945 86.8573 11.7285 83.7873 10.7695 80.6163ZM9.0769 63.2746C16.3035 61.4022 38.0585 60.5822 56.2225 71.1342C74.3915 81.6892 84.6097 97.9881 85.9559 108.742C83.9429 109.866 81.2576 111.774 79.1106 112.616C78.4546 109.723 77.8321 107.801 76.5501 105.126C71.9101 95.3611 62.485 85.4023 51.694 79.1303C40.903 72.8573 28.6831 70.5628 17.8961 71.3738C14.9371 71.5878 12.0111 72.1298 9.17112 72.9898C8.83912 70.7088 9.0959 65.5796 9.0769 63.2746ZM14.6344 44.1532C20.5721 42.992 38.6255 40.8169 65.4174 55.18C85.9953 66.2119 99.6461 89.8757 101.17 95.0893C101.181 95.2037 101.323 96.2996 98.4296 99.711C96.1417 102.408 95.0318 102.836 94.473 103.021L94.38 103.051C94.2487 103.094 94.1534 103.129 94.0826 103.192C92.0754 95.4586 78.5165 73.2847 60.8505 63.4886C43.1844 53.6925 21.5895 51.0113 10.3119 53.5888C10.3592 53.3764 11.1207 50.81 11.9083 49.0433C12.6959 47.2765 13.97 44.2832 14.6344 44.1532ZM31.7064 27.2386C33.2377 26.9035 47.1577 24.4044 74.9205 40.4333C101.161 55.5833 105.444 67.2824 107.162 72.3425C108.275 75.6218 106.401 83.7611 105.395 85.9178C100.641 72.0252 90.8298 59.8455 70.5235 48.0491C50.2171 36.2527 35.2596 33.2972 20.6796 35.5825C22.9056 32.3626 28.1473 28.0174 31.7064 27.2386ZM44.4809 20.9401C51.0549 19.0711 57.9369 18.5451 64.7179 19.3941C71.4979 20.2441 78.0389 22.4511 83.9469 25.8831C89.8559 29.3161 95.0129 33.9051 99.1089 39.3751C103.205 44.8451 106.157 51.0841 107.789 57.7201C101.186 48.8411 91.5589 40.2951 79.6049 33.3511C67.6509 26.4071 55.4629 22.2841 44.4809 20.9401Z" fill="url(#paint1_linear_140_4123)" fill-opacity="0.5"/>
<mask id="mask0_140_4123" style="mask-type:alpha" maskUnits="userSpaceOnUse" x="9" y="19" width="99" height="99">
<path d="M17.3619 96.9511C23.9759 97.4031 31.0289 99.5161 37.6899 103.385C44.3499 107.253 49.6849 112.335 53.3559 117.858C46.2219 117.106 39.3269 114.855 33.1239 111.252C26.9209 107.649 21.5499 102.775 17.3619 96.9511ZM10.7695 80.6163C20.7075 77.2603 34.4553 79.2562 47.2873 86.7112C60.1163 94.1682 68.7985 105.197 70.8075 115.491C67.5765 116.227 64.2805 116.649 60.9675 116.75C56.8625 109.149 50.1525 102.118 41.3805 97.0233C32.6085 91.9283 23.1815 89.5833 14.5475 89.7833C12.9945 86.8573 11.7285 83.7873 10.7695 80.6163ZM9.0769 63.2746C16.3035 61.4022 38.0585 60.5822 56.2225 71.1342C74.3915 81.6892 84.6097 97.9881 85.9559 108.742C83.9429 109.866 81.2576 111.774 79.1106 112.616C78.4546 109.723 77.8321 107.801 76.5501 105.126C71.9101 95.3611 62.485 85.4023 51.694 79.1303C40.903 72.8573 28.6831 70.5628 17.8961 71.3738C14.9371 71.5878 12.0111 72.1298 9.17112 72.9898C8.83912 70.7088 9.0959 65.5796 9.0769 63.2746ZM14.6344 44.1532C20.5721 42.992 38.6255 40.8169 65.4174 55.18C85.9953 66.2119 99.6461 89.8757 101.17 95.0893C101.181 95.2037 101.323 96.2996 98.4296 99.711C96.1417 102.408 95.0318 102.836 94.473 103.021L94.38 103.051C94.2487 103.094 94.1534 103.129 94.0826 103.192C92.0754 95.4586 78.5165 73.2847 60.8505 63.4886C43.1844 53.6925 21.5895 51.0113 10.3119 53.5888C10.3592 53.3764 11.1207 50.81 11.9083 49.0433C12.6959 47.2765 13.97 44.2832 14.6344 44.1532ZM31.7064 27.2386C33.2377 26.9035 47.1577 24.4044 74.9205 40.4333C101.161 55.5833 105.444 67.2824 107.162 72.3425C108.275 75.6218 106.401 83.7611 105.395 85.9178C100.641 72.0252 90.8298 59.8455 70.5235 48.0491C50.2171 36.2527 35.2596 33.2972 20.6796 35.5825C22.9056 32.3626 28.1473 28.0174 31.7064 27.2386ZM44.4809 20.9401C51.0549 19.0711 57.9369 18.5451 64.7179 19.3941C71.4979 20.2441 78.0389 22.4511 83.9469 25.8831C89.8559 29.3161 95.0129 33.9051 99.1089 39.3751C103.205 44.8451 106.157 51.0841 107.789 57.7201C101.186 48.8411 91.5589 40.2951 79.6049 33.3511C67.6509 26.4071 55.4629 22.2841 44.4809 20.9401Z" fill="url(#paint2_linear_140_4123)"/>
<path d="M17.3619 96.9511C23.9759 97.4031 31.0289 99.5161 37.6899 103.385C44.3499 107.253 49.6849 112.335 53.3559 117.858C46.2219 117.106 39.3269 114.855 33.1239 111.252C26.9209 107.649 21.5499 102.775 17.3619 96.9511ZM10.7695 80.6163C20.7075 77.2603 34.4553 79.2562 47.2873 86.7112C60.1163 94.1682 68.7985 105.197 70.8075 115.491C67.5765 116.227 64.2805 116.649 60.9675 116.75C56.8625 109.149 50.1525 102.118 41.3805 97.0233C32.6085 91.9283 23.1815 89.5833 14.5475 89.7833C12.9945 86.8573 11.7285 83.7873 10.7695 80.6163ZM9.0769 63.2746C16.3035 61.4022 38.0585 60.5822 56.2225 71.1342C74.3915 81.6892 84.6097 97.9881 85.9559 108.742C83.9429 109.866 81.2576 111.774 79.1106 112.616C78.4546 109.723 77.8321 107.801 76.5501 105.126C71.9101 95.3611 62.485 85.4023 51.694 79.1303C40.903 72.8573 28.6831 70.5628 17.8961 71.3738C14.9371 71.5878 12.0111 72.1298 9.17112 72.9898C8.83912 70.7088 9.0959 65.5796 9.0769 63.2746ZM14.6344 44.1532C20.5721 42.992 38.6255 40.8169 65.4174 55.18C85.9953 66.2119 99.6461 89.8757 101.17 95.0893C101.181 95.2037 101.323 96.2996 98.4296 99.711C96.1417 102.408 95.0318 102.836 94.473 103.021L94.38 103.051C94.2487 103.094 94.1534 103.129 94.0826 103.192C92.0754 95.4586 78.5165 73.2847 60.8505 63.4886C43.1844 53.6925 21.5895 51.0113 10.3119 53.5888C10.3592 53.3764 11.1207 50.81 11.9083 49.0433C12.6959 47.2765 13.97 44.2832 14.6344 44.1532ZM31.7064 27.2386C33.2377 26.9035 47.1577 24.4044 74.9205 40.4333C101.161 55.5833 105.444 67.2824 107.162 72.3425C108.275 75.6218 106.401 83.7611 105.395 85.9178C100.641 72.0252 90.8298 59.8455 70.5235 48.0491C50.2171 36.2527 35.2596 33.2972 20.6796 35.5825C22.9056 32.3626 28.1473 28.0174 31.7064 27.2386ZM44.4809 20.9401C51.0549 19.0711 57.9369 18.5451 64.7179 19.3941C71.4979 20.2441 78.0389 22.4511 83.9469 25.8831C89.8559 29.3161 95.0129 33.9051 99.1089 39.3751C103.205 44.8451 106.157 51.0841 107.789 57.7201C101.186 48.8411 91.5589 40.2951 79.6049 33.3511C67.6509 26.4071 55.4629 22.2841 44.4809 20.9401Z" fill="url(#paint3_linear_140_4123)" fill-opacity="0.5"/>
</mask>
<g mask="url(#mask0_140_4123)">
<g style="mix-blend-mode:darken" opacity="0.1">
<path fill-rule="evenodd" clip-rule="evenodd" d="M45.7625 124.285C85.4876 124.354 117.871 99.8688 109.906 50.1824C103.961 24.4488 100.744 22.0778 102.482 41.1404C101.4 53.5789 103.08 61.1106 96.166 82.3869C83.8708 104.541 52.3713 115.648 40.2048 119.249C33.5723 121.213 33.486 125.983 45.7625 124.285Z" fill="#1C0D23"/>
</g>
</g>
<g clip-path="url(#clip0_140_4123)">
<path d="M59.1713 12.8674C52.4401 12.5211 50.367 8.20436 47.9526 5.09727C45.5381 1.99018 37.2509 -2.84361 27.4077 2.17066C17.5646 7.18493 17.0524 11.4919 14.8087 12.8723C12.5649 14.2527 3.9314 18.7255 1.68279 23.0569C-0.565828 27.3883 -1.07798 30.4808 3.4095 37.2022C7.89697 43.9237 9.26273 55.157 9.26273 55.157L17.7206 53.601C17.7206 53.601 17.7206 38.5826 18.067 33.2318C18.4133 27.881 20.3107 26.6713 20.3107 26.6713C20.3107 26.6713 28.6028 22.8716 37.5777 19.4182C46.5527 15.9648 59.1713 12.8674 59.1713 12.8674Z" fill="url(#paint4_radial_140_4123)"/>
<path style="mix-blend-mode:multiply" d="M18.0816 33.2416C18.4279 27.8761 20.3254 26.6811 20.3254 26.6811C21.018 22.8814 17.3987 20.1206 21.7057 16.6672C26.0127 13.2138 24.1446 7.51661 28.2662 6.99958C32.3879 6.48254 35.0023 3.54617 37.9387 3.71689C40.8751 3.8876 43.8895 3.89248 45.5625 5.02899C47.2356 6.16549 46.1674 2.81939 39.1289 2.14627C32.0904 1.47315 30.6807 1.94628 27.0614 5.16556C23.4627 8.28868 20.4842 12.0614 18.2816 16.2867C16.1159 20.5303 15.0672 17.5208 15.0672 25.2373C15.0672 30.9686 16.1501 46.2943 16.7061 53.801L17.7402 53.6108C17.7402 53.6108 17.7353 38.5924 18.0816 33.2416Z" fill="url(#paint5_linear_140_4123)"/>
<path style="mix-blend-mode:multiply" d="M15.6769 12.1113C15.4224 12.4027 15.1285 12.6571 14.8038 12.8674C13.2332 13.8429 8.54085 16.3208 5.09232 19.2084C2.22912 28.0273 5.64837 37.9143 7.8726 43.9432C10.6187 51.4012 6.9556 35.9681 7.34582 27.5883C7.73603 19.2084 11.7943 16.9988 15.6769 12.1113Z" fill="url(#paint6_linear_140_4123)"/>
<path d="M63.4539 27.8419C65.5709 26.4713 67.5073 25.764 65.405 20.3986C63.3027 15.0331 62.9223 8.79453 52.723 12.1065C42.5237 15.4184 20.9448 24.3007 18.7206 26.2811C16.4964 28.2614 17.111 40.6654 16.7695 45.2455C16.4281 49.8257 15.0672 52.6645 21.218 49.4111C27.3688 46.1577 61.098 29.3686 63.4539 27.8419Z" fill="url(#paint7_radial_140_4123)"/>
<path d="M12.7113 50.8646C16.6817 49.694 18.6962 49.1184 20.0278 49.5574C23.291 50.6354 25.8566 54.9619 25.1299 58.9763C24.247 63.8978 18.8815 65.6831 17.4182 66.1757C17.0183 66.3074 8.49693 69.0145 4.86305 63.8198C2.87295 60.9761 2.98026 56.6642 4.99474 54.1425C6.0093 52.8694 8.25792 52.1865 12.7113 50.8646Z" fill="url(#paint8_radial_140_4123)"/>
<path d="M65.4148 20.3985C65.3318 20.1888 65.2538 19.9741 65.1758 19.7595C63.4539 24.2616 58.4397 28.2223 50.9036 30.9782C38.8313 35.412 20.0327 49.5476 22.2179 43.6163C23.5934 39.8751 20.0376 36.9827 17.267 31.466C16.8183 36.0364 16.989 42.2701 16.7793 45.2357C16.4281 49.8159 15.077 52.6547 21.2277 49.4013C27.3785 46.1478 61.1126 29.3539 63.4686 27.8272C65.5709 26.4761 67.5073 25.7591 65.4148 20.3985Z" fill="url(#paint9_radial_140_4123)"/>
</g>
<defs>
<linearGradient id="paint0_linear_140_4123" x1="90.2267" y1="30.0957" x2="22.6919" y2="116.687" gradientUnits="userSpaceOnUse">
<stop stop-color="#F9A43A"/>
<stop offset="0.25" stop-color="#FFC45E"/>
<stop offset="0.53125" stop-color="#93EEEF"/>
<stop offset="0.760417" stop-color="#81F4FE"/>
<stop offset="1" stop-color="#3BDBFB"/>
</linearGradient>
<linearGradient id="paint1_linear_140_4123" x1="91.994" y1="104.727" x2="65.4918" y2="55.0786" gradientUnits="userSpaceOnUse">
<stop/>
<stop offset="1" stop-opacity="0"/>
</linearGradient>
<linearGradient id="paint2_linear_140_4123" x1="90.2267" y1="30.0957" x2="22.6919" y2="116.687" gradientUnits="userSpaceOnUse">
<stop stop-color="#F9A43A"/>
<stop offset="0.25" stop-color="#FFC45E"/>
<stop offset="0.53125" stop-color="#93EEEF"/>
<stop offset="0.760417" stop-color="#81F4FE"/>
<stop offset="1" stop-color="#3BDBFB"/>
</linearGradient>
<linearGradient id="paint3_linear_140_4123" x1="91.994" y1="104.727" x2="65.4918" y2="55.0786" gradientUnits="userSpaceOnUse">
<stop/>
<stop offset="1" stop-opacity="0"/>
</linearGradient>
<radialGradient id="paint4_radial_140_4123" cx="0" cy="0" r="1" gradientUnits="userSpaceOnUse" gradientTransform="translate(23.0471 7.21419) scale(36.3339)">
<stop offset="0.06" stop-color="#E6010C"/>
<stop offset="1" stop-color="#840F13"/>
</radialGradient>
<linearGradient id="paint5_linear_140_4123" x1="15.0623" y1="27.842" x2="46.2601" y2="27.842" gradientUnits="userSpaceOnUse">
<stop stop-color="#E6010C" stop-opacity="0.1"/>
<stop offset="0.03" stop-color="#DC020D" stop-opacity="0.2"/>
<stop offset="0.13" stop-color="#C1060F" stop-opacity="0.44"/>
<stop offset="0.23" stop-color="#AA0A10" stop-opacity="0.65"/>
<stop offset="0.35" stop-color="#990C11" stop-opacity="0.81"/>
<stop offset="0.49" stop-color="#8D0E12" stop-opacity="0.92"/>
<stop offset="0.67" stop-color="#860F13" stop-opacity="0.98"/>
<stop offset="1" stop-color="#840F13"/>
</linearGradient>
<linearGradient id="paint6_linear_140_4123" x1="4073.33" y1="12867.1" x2="4352.88" y2="12867.1" gradientUnits="userSpaceOnUse">
<stop stop-color="#E6010C" stop-opacity="0.1"/>
<stop offset="0.03" stop-color="#DC020D" stop-opacity="0.2"/>
<stop offset="0.13" stop-color="#C1060F" stop-opacity="0.44"/>
<stop offset="0.23" stop-color="#AA0A10" stop-opacity="0.65"/>
<stop offset="0.35" stop-color="#990C11" stop-opacity="0.81"/>
<stop offset="0.49" stop-color="#8D0E12" stop-opacity="0.92"/>
<stop offset="0.67" stop-color="#860F13" stop-opacity="0.98"/>
<stop offset="1" stop-color="#840F13"/>
</linearGradient>
<radialGradient id="paint7_radial_140_4123" cx="0" cy="0" r="1" gradientUnits="userSpaceOnUse" gradientTransform="translate(50.9036 16.4135) scale(25.4274)">
<stop stop-color="white"/>
<stop offset="0.51" stop-color="#FEFCFC"/>
<stop offset="0.84" stop-color="#FAF4F4"/>
<stop offset="1" stop-color="#F7EDEC"/>
</radialGradient>
<radialGradient id="paint8_radial_140_4123" cx="0" cy="0" r="1" gradientUnits="userSpaceOnUse" gradientTransform="translate(14.3404 58.2056) scale(9.91147)">
<stop stop-color="white"/>
<stop offset="0.35" stop-color="#F3EEE9"/>
<stop offset="0.7" stop-color="#EBE3DB"/>
<stop offset="1" stop-color="#E8DFD6"/>
</radialGradient>
<radialGradient id="paint9_radial_140_4123" cx="0" cy="0" r="1" gradientUnits="userSpaceOnUse" gradientTransform="translate(22207.6 11494) scale(2143.01 1332.96)">
<stop stop-color="white"/>
<stop offset="0.35" stop-color="#F3EEE9"/>
<stop offset="0.7" stop-color="#EBE3DB"/>
<stop offset="1" stop-color="#E8DFD6"/>
</radialGradient>
<clipPath id="clip0_140_4123">
<rect width="66.3171" height="67" fill="white"/>
</clipPath>
</defs>
</svg>
