<svg xmlns="http://www.w3.org/2000/svg" xmlns:xlink="http://www.w3.org/1999/xlink" viewBox="0 0 481.8 614.95"><defs><style>.cls-1{fill:none;}.cls-2{isolation:isolate;}.cls-3{clip-path:url(#clip-path);}.cls-4{fill:url(#linear-gradient);}.cls-5{fill:url(#linear-gradient-2);}.cls-6{fill:url(#linear-gradient-3);}.cls-7{mix-blend-mode:multiply;fill:url(#linear-gradient-4);}.cls-8{fill:url(#linear-gradient-5);}.cls-9{mix-blend-mode:screen;opacity:0.7;fill:url(#linear-gradient-6);}.cls-10{mix-blend-mode:hue;fill:url(#linear-gradient-7);}.cls-11{fill:#311b98;opacity:0.2;}.cls-12{fill:#fff;opacity:0.3;}</style><clipPath id="clip-path" transform="translate(6.62 7.47)"><path class="cls-1" d="M120.62,246.48,191.48,80c2-4.14,4.24-6.6,9.07-9.85L313.23.78a5.31,5.31,0,0,1,7.65,6.57L292.27,81.11l61,136.56,21-54.66a24.62,24.62,0,0,1,8.55-10.45l42.4-25.85a5.31,5.31,0,0,1,7.76,6l-9,59.2,45.8,267.61A40.55,40.55,0,0,1,447,503.2L251.36,594.5a40.54,40.54,0,0,1-34.43-.07L23.25,503.1A40.53,40.53,0,0,1,.53,459.94L36.94,177a20.5,20.5,0,0,1,9.37-12.58L105.66,129a5.31,5.31,0,0,1,7.68,6.45L99.76,193.57Z"/></clipPath><linearGradient id="linear-gradient" x1="241.99" y1="610.01" x2="241.99" y2="128.65" gradientUnits="userSpaceOnUse"><stop offset="0.7" stop-color="#cfe4f3"/><stop offset="1" stop-color="#6bc3f9"/></linearGradient><linearGradient id="linear-gradient-2" x1="239.97" y1="602.54" x2="239.97" y2="-7.47" gradientUnits="userSpaceOnUse"><stop offset="0" stop-color="#b18cf9"/><stop offset="1" stop-color="#4f3dd5"/></linearGradient><linearGradient id="linear-gradient-3" x1="242.06" y1="609.76" x2="242.06" y2="126.99" gradientUnits="userSpaceOnUse"><stop offset="0" stop-color="#b1d6f9"/><stop offset="1" stop-color="#9193ee"/></linearGradient><linearGradient id="linear-gradient-4" x1="241.99" y1="610.01" x2="241.99" y2="128.65" gradientUnits="userSpaceOnUse"><stop offset="0" stop-color="#cfe4f3"/><stop offset="1" stop-color="#6bc3f9"/></linearGradient><linearGradient id="linear-gradient-5" x1="151.73" y1="614.95" x2="151.73" y2="129.58" xlink:href="#linear-gradient-3"/><linearGradient id="linear-gradient-6" x1="241.99" y1="610.01" x2="241.99" y2="141.43" xlink:href="#linear-gradient-3"/><linearGradient id="linear-gradient-7" x1="-27.05" y1="575.29" x2="513.32" y2="34.91" gradientUnits="userSpaceOnUse"><stop offset="0" stop-color="#a684f8"/><stop offset="0.5" stop-color="#8272fa"/><stop offset="1" stop-color="#90aefb"/></linearGradient></defs><g class="cls-2"><g id="Layer_2" data-name="Layer 2"><g id="Layer_1-2" data-name="Layer 1"><g class="cls-3"><polygon class="cls-4" points="125.42 128.65 106.38 201.04 129.28 258.87 481.73 497.55 240.75 610.01 2.25 497.55 44.05 177.31 125.42 128.65"/><path class="cls-5" d="M292.27,81.11,327-7.47l-128,76.89a27.17,27.17,0,0,0-9.25,11.88L123,240.73,4.84,499.82,234.13,602.54l241-112.46Z" transform="translate(6.62 7.47)"/><polygon class="cls-6" points="383.75 163.79 302.92 376.48 2.32 497.3 240.82 609.76 481.8 497.3 430.69 199.13 442.32 126.99 383.75 163.79"/><polygon class="cls-7" points="125.42 128.65 106.38 201.04 127.24 253.94 481.73 497.55 240.75 610.01 2.25 497.55 43.56 175.69 125.42 128.65"/><polygon class="cls-8" points="303.46 375.07 0 498.26 238.51 614.95 240.75 610.01 303.46 375.07"/><polygon class="cls-9" points="2.25 497.55 240.75 610.01 481.73 497.55 303.46 375.07 2.25 497.55"/><rect class="cls-10" x="4.34" y="7.45" width="473.66" height="599.23"/><path class="cls-11" d="M248.45,591.77a35.79,35.79,0,0,1-29.66,0L5.55,491.57a40.5,40.5,0,0,0,17.7,16.27l193.68,91.32a40.54,40.54,0,0,0,34.43.07L447,507.93a40.44,40.44,0,0,0,17.44-15.62Z" transform="translate(6.62 7.47)"/><path class="cls-12" d="M385.44,153.73,431.07,126a5.27,5.27,0,0,0-7.43-2.39l-42.4,25.85a24.77,24.77,0,0,0-8.55,10.45L354.1,216.41,376,165C378.54,159.45,380.56,156.72,385.44,153.73Z" transform="translate(6.62 7.47)"/><path class="cls-12" d="M203.11,71.34,320.59-.8c.12-3.92-6.73-5-10.51-2.75L191.92,69.32a5.25,5.25,0,0,0-1.67,2L121.9,242.83l70-158.09C194.83,77.84,197.37,74.84,203.11,71.34Z" transform="translate(6.62 7.47)"/><path class="cls-12" d="M47.39,167.14l62.74-39.26a5.25,5.25,0,0,0-7.43-2.2L43.36,161.09A20.55,20.55,0,0,0,34,173.67L.87,457.29,38.92,179.75A17.43,17.43,0,0,1,47.39,167.14Z" transform="translate(6.62 7.47)"/></g></g></g></g></svg>