<svg width="211" height="212" viewBox="0 0 211 212" fill="none" xmlns="http://www.w3.org/2000/svg">
<path d="M105.457 211.621C47.2164 211.621 0 164.383 0 106.137C0 47.8904 47.2363 0.686646 105.477 0.686646C163.718 0.686646 210.934 47.916 210.934 106.154C210.934 120.006 208.206 133.722 202.905 146.519C197.604 159.316 189.834 170.944 180.04 180.738C170.245 190.531 158.617 198.3 145.82 203.599C133.023 208.898 119.308 211.624 105.457 211.621Z" fill="#FFFAEA"/>
<path d="M71.0251 99.4752C72.2341 99.7059 73.4855 99.4579 74.5152 98.7835C75.545 98.1092 76.2725 97.0612 76.5445 95.8606V95.8606L76.573 95.7087L77.092 93.0057L83.4027 94.2053L84.0894 90.6287L77.7788 89.4133L68.4616 87.625L67.2305 94.0818C67.0411 95.2973 67.3308 96.5389 68.0386 97.5449C68.7465 98.551 69.8171 99.243 71.0251 99.4752V99.4752Z" fill="#1A1A1A"/>
<path d="M76.1911 137.116L76.1533 137.034L76.1817 137.116H76.1911Z" fill="#1A1A1A"/>
<path d="M58.407 143.114C58.0104 143.137 57.6824 143.429 57.6004 143.818C57.1738 145.839 55.5453 152.198 50.8484 158.961C50.5439 159.399 50.7028 160.011 51.1902 160.228C52.4067 160.771 53.6103 161.28 54.8008 161.754C55.1503 161.893 55.5487 161.783 55.768 161.477C57.2726 159.381 61.2919 153.108 62.9641 143.869C63.0601 143.339 62.6303 142.865 62.0924 142.896L58.407 143.114Z" fill="#1A1A1A"/>
<path d="M67.5728 142.092C67.202 142.158 66.9196 142.455 66.8694 142.828C66.5344 145.319 64.9966 154.777 60.1445 162.569C59.85 163.041 60.0654 163.673 60.5961 163.842C61.8565 164.244 63.0986 164.605 64.3225 164.926C64.6799 165.02 65.0536 164.871 65.2397 164.552C66.7941 161.884 71.2618 153.384 72.2573 142.319C72.3064 141.772 71.8192 141.335 71.2789 141.431L67.5728 142.092Z" fill="#1A1A1A"/>
<path d="M77.3863 140.143C77.0495 140.242 76.8096 140.529 76.7769 140.878C76.5073 143.762 75.0535 156.914 70.3471 165.058C70.0453 165.58 70.3392 166.258 70.9343 166.356C72.282 166.579 73.6076 166.757 74.9112 166.89C75.249 166.925 75.573 166.753 75.7259 166.45C77.1008 163.724 80.9829 154.883 82.1508 139.926C82.1965 139.34 81.6409 138.891 81.0776 139.057L77.3863 140.143Z" fill="#1A1A1A"/>
<path d="M81.9455 165.97C81.69 166.546 82.1025 167.208 82.7318 167.194C84.1377 167.16 85.542 167.076 86.942 166.94C87.2322 166.912 87.4845 166.739 87.6014 166.472C88.5871 164.221 91.9449 155.131 92.1026 135.686C92.1078 135.046 91.4242 134.629 90.8576 134.925C90.4199 135.155 89.9067 135.42 89.3846 135.683C88.6525 136.052 86.962 138.588 86.9216 139.407C86.6516 144.869 85.6295 157.674 81.9455 165.97Z" fill="#1A1A1A"/>
<path d="M96.6311 131.455C96.3913 131.613 96.2415 131.861 96.2364 132.148C96.1784 135.42 95.7037 155.884 92.7998 164.642C92.5842 165.293 93.1471 165.973 93.8152 165.821C95.2747 165.491 96.7206 165.101 98.1494 164.655C98.4112 164.573 98.6157 164.369 98.6911 164.105C99.4276 161.529 101.739 151.604 101.375 129.545C101.363 128.802 100.448 128.418 99.8913 128.91C99.0163 129.683 97.8386 130.656 96.6311 131.455Z" fill="#1A1A1A"/>
<path d="M165.689 97.9786C165.259 97.2917 164.813 96.5796 164.373 95.82C162.287 92.2434 160.11 88.651 158.008 85.1757L157.021 83.5456C156.188 82.172 155.407 80.7255 154.578 79.1936C152.742 75.8038 150.843 72.3 148.286 69.4102C144.118 64.6974 138.364 61.4974 133.728 58.9337L104.868 42.9087C96.155 38.0692 88.7746 38.6611 80.0302 39.9398L79.0998 40.0696C73.9095 40.7818 64.2473 42.1111 63.4592 48.6661C62.8914 53.6532 63.9468 58.6889 66.4662 63.0263C66.5271 63.1312 66.5553 63.2397 66.5419 63.3603C66.0167 68.0877 62.8671 90.857 48.7587 116.308L47.389 118.78C47.1812 119.155 47.4524 119.615 47.8811 119.615H52.1457C52.5759 119.615 52.8469 120.078 52.6362 120.454L44.8427 134.325C44.6259 134.711 44.9195 135.178 45.3583 135.12C50.1812 134.477 54.2944 131.135 55.6484 129.924C55.9036 129.695 56.306 129.733 56.5199 130C62.9064 137.986 72.2911 137.612 75.2458 137.264C75.612 137.221 75.8187 136.834 75.6674 136.498L68.0736 119.615L66.2164 115.49C66.1255 115.289 65.9247 115.159 65.7034 115.159H55.3895C54.9663 115.159 54.6944 114.709 54.889 114.333C60.9251 102.678 65.5123 90.3263 68.5481 77.5549C68.6164 77.2675 68.8947 77.0805 69.1858 77.1311C71.634 77.5569 74.0406 78.1961 76.378 79.0417C80.0749 80.4008 84.8466 82.8552 86.956 86.9183C87.0994 87.1946 87.432 87.322 87.7156 87.1937L90.7497 85.822C91.0328 85.694 91.1589 85.359 91.0202 85.081C86.718 76.4582 74.6673 73.5591 70.173 72.7777C69.8585 72.723 69.6538 72.4224 69.7142 72.1089C70.2123 69.5259 70.5368 67.409 70.7432 65.8478C70.7862 65.5226 71.0953 65.3011 71.4163 65.3688C79.8259 67.1425 87.9854 69.9456 95.7105 73.715C95.8581 73.787 95.9622 73.9032 96.003 74.0623C99.2703 86.7894 110.818 135.624 102.94 162.108C102.805 162.564 103.238 162.965 103.672 162.77C107.832 160.902 123.052 153.261 133.023 137.538C133.304 137.095 133.999 137.226 134.087 137.744C135.825 147.954 138.614 158.488 143.092 165.302C143.263 165.562 143.614 165.626 143.87 165.449L146.617 163.556C146.873 163.38 146.938 163.031 146.768 162.771C145.061 160.149 142.766 155.493 140.687 147.55C140.595 147.2 140.855 146.856 141.217 146.853C142.38 146.842 143.547 146.864 144.694 146.864C152.679 146.99 161.727 147.136 165.072 135.545C167.107 128.506 167.898 120.818 168.661 113.39C168.794 112.096 168.928 110.817 169.063 109.553C169.655 104.306 167.727 101.232 165.689 97.9786ZM116.201 98.2128C116.201 98.2149 116.201 98.217 116.2 98.219C114.754 103.904 112.122 109.445 109.026 114.473C108.732 114.95 107.983 114.742 107.951 114.183C107.442 105.358 103.831 90.1748 103.323 88.0722C103.284 87.9139 103.317 87.7507 103.414 87.6199C105.982 84.1566 110.206 82.7638 113.837 85.7992C117.358 88.7515 117.233 94.1492 116.202 98.2066C116.201 98.2086 116.201 98.2107 116.201 98.2128V98.2128ZM164.654 109.082C164.518 110.348 164.385 111.642 164.249 112.943C163.505 120.185 162.736 127.671 160.815 134.324C158.524 142.236 153.489 142.553 144.786 142.423C143.212 142.397 141.613 142.374 139.978 142.423C139.704 142.431 139.462 142.244 139.406 141.976C138.042 135.4 136.866 127.087 136.149 116.605C135.566 107.821 132.325 99.4211 126.857 92.5219C115.72 78.4561 100.636 70.4769 89.9456 66.2514C83.656 63.7394 77.1344 61.8535 70.4753 60.6209C70.3111 60.5905 70.1682 60.4894 70.0881 60.3429C68.2261 56.9381 67.4594 53.0392 67.8963 49.1788C68.2761 46.039 76.8876 44.8553 79.7201 44.466L80.6885 44.3298C88.8506 43.1366 95.2087 42.6144 102.719 46.786L131.576 62.8141C136.127 65.3462 141.282 68.1948 144.947 72.3443C147.162 74.8511 148.938 78.127 150.644 81.2984C151.46 82.8082 152.305 84.3686 153.175 85.834L154.163 87.4641C156.258 90.9235 158.423 94.5001 160.493 98.0482C160.974 98.868 161.442 99.6086 161.885 100.327C163.806 103.378 165.05 105.372 164.654 109.082Z" fill="#1A1A1A" stroke="#1A1A1A" stroke-width="1.40657"/>
<path d="M67.9316 60.5179V46.7335L99.0168 41.9512L145.996 70.3638L167.517 106.513L163.719 135.347L151.763 144.349H136.713L135.166 129.721L127.57 99.1985L110.269 79.3659L82.4193 65.8628L67.9316 60.5179Z" fill="#1A1A1A"/>
<path d="M140.907 120C142.37 126.188 141.124 147.274 141.424 147.573C141.724 147.873 144.142 149.537 144.142 149.537C144.4 149.617 144.902 149.903 144.564 136.738C144.227 123.572 139.454 112.029 137.109 107.903C137.766 109.357 139.444 113.811 140.907 120Z" fill="#FFFAEA"/>
</svg>
