<svg width="35" height="36" viewBox="0 0 35 36" fill="none" xmlns="http://www.w3.org/2000/svg">
<g clip-path="url(#clip0_10918_44636)">
<mask id="mask0_10918_44636" style="mask-type:alpha" maskUnits="userSpaceOnUse" x="-7" y="4" width="37" height="37">
<path fill-rule="evenodd" clip-rule="evenodd" d="M24.5538 24.8025C27.7263 22.9053 29.8505 19.4361 29.8505 15.4708C29.8505 9.47004 24.9859 4.60547 18.9851 4.60547C14.7497 4.60547 11.0803 7.02888 9.28789 10.5647L-6.00098 25.8536L8.7509 40.6055L24.5538 24.8025Z" fill="#795E5E"/>
</mask>
<g mask="url(#mask0_10918_44636)">
<path fill-rule="evenodd" clip-rule="evenodd" d="M18.8035 3.8191L18.8092 3.8133C17.0964 3.8454 15.442 4.30685 14.0192 5.2093C12.9522 6.34381 11.908 7.50118 10.8975 8.69026C9.79735 9.98195 8.73614 11.3088 7.72664 12.6797C7.35105 13.1946 6.98104 13.717 6.63171 14.2601C7.17479 13.9107 7.69719 13.5407 8.21211 13.1651C8.8196 12.7166 9.41933 12.2583 10.0104 11.7914C12.8991 9.5122 15.6058 7.01666 18.2058 4.42764C18.4054 4.22581 18.604 4.02293 18.8035 3.8191ZM17.5227 10.5995C19.4498 8.65059 21.3591 6.67817 23.2144 4.65745C22.4398 4.34139 21.6446 4.1133 20.8485 3.97551C19.1314 5.57502 17.4471 7.20922 15.7811 8.85785C13.8642 10.7922 11.9662 12.7512 10.1222 14.7584C7.44819 17.6653 4.88251 20.673 2.52364 23.8569C5.39999 21.7251 8.13414 19.4264 10.7774 17.0291C13.0811 14.9431 15.318 12.7846 17.5227 10.5995ZM26.522 6.67062C23.8022 9.6821 20.9818 12.6005 18.1273 15.4811C16.415 17.1804 14.6895 18.8667 12.9389 20.5259C9.1151 24.1515 5.17226 27.6524 0.987615 30.8792C4.28816 26.599 7.87577 22.5716 11.5903 18.6655C13.1703 17.005 14.772 15.3662 16.3857 13.7395C19.1949 10.9564 22.0408 8.20415 24.9722 5.54705C25.508 5.87548 26.0266 6.24947 26.522 6.67062ZM29.0813 9.61913C28.7491 9.0871 28.3703 8.57326 27.9465 8.08278C24.9331 10.8044 22.0118 13.6277 19.1293 16.4841C17.4291 18.1974 15.7409 19.9248 14.0798 21.6773C10.4551 25.5001 6.95717 29.4422 3.73123 33.6238C8.00369 30.3288 12.0255 26.749 15.925 23.0411C17.5921 21.4545 19.2375 19.8461 20.871 18.2257C23.6607 15.4098 26.4186 12.5583 29.0813 9.61913ZM29.9834 11.3658C30.3058 12.1297 30.5414 12.9151 30.6887 13.7018C29.0723 15.44 27.4171 17.1432 25.7495 18.8303C23.7962 20.7663 21.8171 22.6822 19.7887 24.5451C16.9008 27.2001 13.9121 29.7447 10.7504 32.0878C12.8719 29.2239 15.1603 26.5023 17.5471 23.8695C19.6415 21.5531 21.8114 19.3048 24.0079 17.0887C25.9673 15.1511 27.9501 13.2314 29.9834 11.3658ZM29.6971 20.304C30.4812 18.919 30.8717 17.342 30.8771 15.7148C30.6426 15.9427 30.4093 16.1717 30.1779 16.4008C27.5594 19.0302 25.0375 21.7677 22.7374 24.6926C22.2968 25.2529 21.8648 25.8199 21.4405 26.3945C21.0639 26.9104 20.6949 27.4318 20.3455 27.9749C20.8886 27.6256 21.411 27.2555 21.9259 26.88C23.1855 25.9513 24.4097 24.9797 25.6031 23.9735C27.0061 22.7925 28.3674 21.564 29.6971 20.304Z" fill="url(#paint0_linear_10918_44636)"/>
</g>
</g>
<defs>
<linearGradient id="paint0_linear_10918_44636" x1="25.0643" y1="70.2858" x2="60.9696" y2="27.5034" gradientUnits="userSpaceOnUse">
<stop stop-color="#FF2189"/>
<stop offset="1" stop-color="#FF9D00"/>
</linearGradient>
<clipPath id="clip0_10918_44636">
<rect width="34.6455" height="34.7896" fill="white" transform="translate(0 0.605469)"/>
</clipPath>
</defs>
</svg>
