<?xml version="1.0" encoding="UTF-8"?>
<svg width="352px" height="352px" viewBox="0 0 352 352" version="1.1" xmlns="http://www.w3.org/2000/svg" xmlns:xlink="http://www.w3.org/1999/xlink">
    <title>Oasis</title>
    <g id="Page-1" stroke="none" stroke-width="1" fill="none" fill-rule="evenodd">
        <g id="A6" transform="translate(-1251.000000, -364.000000)" fill="#4E90FF" fill-rule="nonzero">
            <g id="Group-2" transform="translate(317.000000, 354.000000)">
                <g id="Oasis" transform="translate(934.000000, 10.000000)">
                    <path d="M63.8573786,142.15 C64.0278786,142.662 62.4507786,144.111 61.4277786,144.75 C56.9949786,147.606 52.4768786,150.334 48.0013786,153.147 C43.4405786,155.96 39.2208786,159.455 34.3617786,161.586 C27.4993786,164.57 20.6795786,167.213 12.5810786,163.675 C7.21047855,161.331 3.97103855,157.793 1.71197855,153.232 C-0.376581446,148.927 -0.163461446,144.068 0.561138554,139.209 C1.32836855,133.881 4.86613855,130.514 8.53177855,127.871 C11.8137786,125.484 16.4597786,124.973 20.3811786,123.651 C25.2828786,124.93 29.8009786,125.868 34.1059786,127.274 C38.2404786,128.638 42.2044786,130.429 46.1684786,132.176 C51.1554786,134.35 56.0998786,136.609 61.0015786,139.039 C62.1950786,139.635 63.3884786,140.914 63.8573786,142.15 Z" id="Path"></path>
                    <path d="M227.489879,25.148 C225.699879,30.1776 223.738879,35.1646 221.863879,40.1515 C221.777879,40.4073 221.564879,40.5778 221.479879,40.8335 C219.945879,44.7975 218.538879,48.8042 216.918879,52.7682 C215.682879,55.8371 214.489879,58.9912 212.869879,61.847 C212.230879,62.9552 210.482879,63.7651 209.161879,63.9782 C208.521879,64.1061 207.541879,62.4864 206.902879,61.5486 C204.131879,57.5846 201.318879,53.6206 198.803879,49.4861 C196.757879,46.1615 195.095879,42.5811 193.305879,39.086 C191.472879,35.5908 189.767879,32.0104 187.806879,28.5579 C182.265879,18.8823 190.065879,2.85579 202.597879,0.80985 C204.259879,0.55411 205.921879,0.29837 207.584879,0 C215.767879,0.12787 223.610879,6.6919 226.253879,15.6429 C227.191879,18.7971 228.682879,21.8233 227.489879,25.148 Z" id="Path"></path>
                    <path d="M328.251879,87.2933 C327.527879,96.33 324.032879,103.746 315.464879,107.966 C313.077879,109.159 310.605879,110.097 308.133879,111.035 C303.146879,112.953 298.116879,114.743 293.130879,116.746 C289.336879,118.281 285.585879,120.071 281.834879,121.733 C279.746879,122.628 277.785879,121.264 278.126879,118.92 C278.680879,114.914 279.319879,110.864 280.342879,106.985 C282.090879,100.123 284.051879,93.3459 286.097879,86.6114 C288.398879,79.1522 291.595879,72.034 299.694879,69.5192 C307.664879,67.0471 315.464879,67.3454 321.986879,74.0374 C325.737879,77.8309 328.337879,81.7949 328.251879,87.2933 Z" id="Path"></path>
                    <path d="M327.953879,263.585 C327.953879,269.211 325.396879,273.431 321.687879,277.779 C316.402879,283.959 309.966879,285.153 303.146879,283.49 C293.428879,281.146 288.015879,275.221 285.798879,264.992 C284.178879,257.49 281.834879,250.201 280.044879,242.785 C279.234879,239.46 278.808879,236.008 278.424879,232.64 C278.211879,230.381 279.618879,229.614 281.664879,230.168 C283.113879,230.552 284.519879,231.148 285.883879,231.703 C294.152879,235.112 302.464879,238.437 310.690879,241.932 C316.530879,244.404 321.517879,247.686 325.055879,253.441 C327.101879,256.765 328.038879,259.877 327.953879,263.585 Z" id="Path"></path>
                    <path d="M69.5688786,121.35 C65.6048786,120.199 61.8113786,118.622 57.9751786,117.045 C52.1357786,114.573 46.3815786,112.015 40.5847786,109.415 C37.2174786,107.923 33.8927786,106.304 30.5681786,104.726 C30.0140786,104.471 29.5025786,104.002 29.1615786,103.533 C26.2631786,98.844 23.9614786,93.9427 23.4926786,88.3164 C22.9385786,81.7949 26.5615786,74.7194 32.5288786,71.8636 C36.3649786,69.9882 40.4568786,68.6242 43.8241786,67.2602 C49.0668786,68.4963 53.3292786,69.6898 56.8243786,72.5882 C58.6571786,74.08 60.3195786,75.8276 62.0244786,77.4473 C62.3654786,77.7457 62.7916786,78.1293 62.8342786,78.5129 C63.1752786,83.7556 66.6704786,87.9327 67.3524786,93.3033 C68.2901786,100.677 71.0606786,107.795 73.0639786,115.041 C73.2344786,115.723 73.6180786,116.363 73.7459786,117.045 C74.7263786,121.051 73.4902786,122.501 69.5688786,121.35 Z" id="Path"></path>
                    <path d="M283.454879,307.871 C283.113879,309.619 283.155879,311.409 282.985879,313.157 C282.175879,321.809 272.286879,328.245 263.463879,328.16 C254.853879,328.458 245.860879,321.511 243.473879,314.222 C241.853879,309.363 239.125879,304.93 237.164879,300.242 C235.204879,295.51 233.541879,290.694 231.751879,285.877 C231.154879,284.215 230.387879,282.638 229.918879,280.933 C229.279879,278.674 229.961879,277.736 232.348879,277.736 C233.541879,277.736 234.778879,278.035 235.971879,278.333 C238.742879,279.1 241.512879,279.91 244.283879,280.72 C246.968879,281.53 249.611879,282.425 252.296879,283.235 C253.404879,283.576 254.512879,283.959 255.621879,284.13 C264.614879,285.707 273.352879,287.923 279.447879,295.51 C282.303879,299.091 284.477879,302.969 283.454879,307.871 Z" id="Path"></path>
                    <path d="M284.136879,41.5582 C284.051879,52.342 277.700879,61.5913 268.919879,64.4045 C263.250879,66.1947 257.326879,67.3029 251.571879,68.7947 C249.014879,69.4767 246.584879,70.6275 243.984879,71.1817 C239.978879,72.1194 235.886879,72.8014 231.751879,73.4833 C229.876879,73.7817 229.236879,72.8013 229.918879,70.9259 C231.964879,65.257 233.755879,59.4175 236.142879,53.8764 C239.168879,46.9288 242.322879,40.0237 246.115879,33.5023 C249.824879,27.0661 255.663879,24.2103 263.463879,23.8267 C270.795879,23.4857 275.483879,27.3645 279.660879,31.7973 C282.260879,34.6105 283.113879,39.1712 284.136879,41.5582 Z" id="Path"></path>
                    <path d="M227.787879,330.376 C227.318879,341.885 218.666879,350.41 208.479879,351.774 C202.852879,352.541 191.898879,347.767 189.255879,341.203 C188.318879,338.859 187.209879,336.514 186.613879,334.042 C185.377879,329.013 186.186879,324.367 189.042879,319.848 C194.626879,310.983 199.869879,301.946 205.239879,292.953 C205.879879,291.887 206.177879,290.609 206.902879,289.671 C207.626879,288.733 208.607879,287.625 209.672879,287.454 C211.292879,287.113 212.613879,287.923 213.253879,289.799 C215.682879,296.789 218.154879,303.737 220.797879,310.642 C222.587879,315.202 224.889879,319.593 226.679879,324.196 C227.446879,326.071 227.446879,328.288 227.787879,330.376 Z" id="Path"></path>
                    <path d="M62.2375786,212.309 C55.9292786,214.951 49.5783786,217.424 43.2699786,220.066 C40.2863786,221.345 37.3026786,222.666 34.4895786,224.243 C28.5648786,227.44 22.1712786,227.824 15.9055786,226.545 C12.6235786,225.906 9.38417855,223.817 6.65627855,221.729 C1.66928855,217.893 0.00696855366,213.417 0.00696855366,208.984 C-0.206151446,198.115 4.48245855,191.807 12.2399786,188.482 C18.3351786,185.839 25.2401786,185.925 31.4632786,189.335 C35.7682786,191.679 39.8174786,194.535 44.1224786,196.922 C47.5749786,198.84 51.2832786,200.204 54.6931786,202.164 C57.6768786,203.869 60.5326786,205.83 63.1326786,208.004 C65.0080786,209.581 64.4966786,211.371 62.2375786,212.309 Z" id="Path"></path>
                    <path d="M164.832879,331.357 C164.832879,335.363 163.511879,339.541 160.783879,342.865 C157.373879,347 153.920879,350.751 147.953879,351.305 C139.982879,352.115 133.717879,349.429 128.474879,343.547 C125.021879,339.711 124.723879,334.937 123.658879,330.035 C124.126879,327.649 124.297879,324.921 125.235879,322.491 C128.133879,315.032 131.330879,307.658 134.399879,300.241 C135.848879,296.746 137.254879,293.251 138.746879,289.756 C139.897879,287.028 141.986879,286.645 144.032879,288.776 C144.501879,289.245 144.841879,289.884 145.225879,290.523 C147.569879,294.658 149.530879,299.048 152.343879,302.842 C156.179879,308.127 159.376879,313.753 161.976879,319.635 C163.596879,323.301 164.875879,327.435 164.832879,331.357 Z" id="Path"></path>
                    <path d="M73.7033786,232.129 C73.8311786,233.621 73.4901786,235.24 73.1065786,236.732 C72.8082786,237.926 71.9131786,238.949 71.6147786,240.142 C70.0376786,246.962 68.8442786,253.952 66.9261786,260.687 C64.4539786,269.297 61.6408786,277.821 52.5619786,282.041 C46.4241786,284.854 40.4568786,285.025 34.6173786,281.231 C33.2107786,280.336 31.7615786,279.484 30.3976786,278.503 C25.2827786,274.625 23.5351786,269.254 23.9614786,263.244 C22.6827786,254.89 31.7189786,245.811 37.9420786,243.467 C43.7814786,241.293 49.2799786,238.267 54.9914786,235.667 C56.4407786,234.985 57.9751786,234.558 59.4669786,234.004 C60.4473786,233.663 61.7686786,233.663 62.4080786,232.981 C65.0506786,230.339 68.5458786,231.021 71.6573786,230.466 C72.2541786,230.339 73.6606786,231.489 73.7033786,232.129 Z" id="Path"></path>
                    <path d="M346.153879,158.091 C343.085879,160.564 339.717879,162.652 336.307879,164.57 C334.858879,165.38 332.897879,165.252 331.150879,165.55 C325.225879,165.167 319.982879,163.377 315.123879,159.882 C311.245879,157.026 306.684879,155.065 302.549879,152.593 C298.202879,149.993 293.939879,147.35 289.720879,144.58 C288.825879,143.94 287.588879,142.534 287.802879,141.809 C288.100879,140.658 289.293879,139.38 290.402879,138.868 C297.349879,135.757 304.297879,132.73 311.373879,129.96 C316.445879,127.956 321.560879,125.91 326.845879,124.76 C332.897879,123.438 338.524879,125.143 343.255879,129.363 C343.383879,129.491 343.511879,129.619 343.681879,129.704 C349.308879,132.389 350.714879,137.93 351.396879,143.088 C352.078879,148.544 350.842879,154.255 346.153879,158.091 Z" id="Path"></path>
                    <path d="M117.605879,73.057 C109.847879,71.4373 102.005879,70.0308 94.3332786,68.0274 C88.4938786,66.493 82.8248786,64.1061 77.1132786,62.0601 C76.4739786,61.847 75.7919786,61.3781 75.4083786,60.824 C71.7853786,55.6239 67.1393786,50.8075 68.1196786,43.3909 C67.2245786,39.0859 69.4836786,35.2924 71.4017786,31.5842 C72.1263786,30.1349 73.8738786,29.1546 75.2804786,28.1316 C85.4675786,20.7151 95.8677786,23.4004 103.411879,30.6891 C106.054879,33.2465 107.674879,37.0826 109.336879,40.5778 C112.064879,46.2893 114.493879,52.1288 116.880879,57.9682 C118.457879,61.8044 119.864879,65.7258 121.015879,69.6898 C121.825879,72.5029 120.461879,73.6964 117.605879,73.057 Z" id="Path"></path>
                    <path d="M164.491879,21.0987 C163.980879,25.4037 163.852879,29.7939 160.953879,33.9284 C157.799879,38.4892 155.711879,43.8171 152.940879,48.7189 C150.511879,52.9812 147.783879,57.1157 145.140879,61.2502 C144.628879,62.0601 143.819879,62.6995 143.051879,63.2536 C140.792879,64.8733 139.982879,64.7028 138.917879,62.1027 C135.166879,52.7681 131.671879,43.3483 127.707879,34.0989 C125.703879,29.4103 124.041879,24.8922 124.297879,19.6069 C124.723879,11.4231 128.602879,5.32793 135.805879,2.25902 C150.042879,-3.878798 164.363879,5.02956 164.491879,21.0987 Z" id="Path"></path>
                    <path d="M350.416879,211.584 C348.029879,221.43 340.740879,227.355 330.383879,227.909 C326.888879,227.057 323.307879,226.502 319.940879,225.309 C316.189879,224.03 312.651879,222.155 308.986879,220.578 C307.792879,220.066 306.471879,219.768 305.277879,219.256 C300.077879,217.125 294.749879,215.292 289.762879,212.692 C286.139879,210.817 286.352879,209.027 289.890879,206.853 C294.152879,204.253 298.500879,201.823 302.762879,199.309 C308.559879,195.899 314.186879,192.148 320.196879,189.164 C328.976879,184.859 343.937879,186.223 349.137879,197.604 C351.140879,201.994 351.609879,206.682 350.416879,211.584 Z" id="Path"></path>
                    <path d="M120.930879,279.995 C120.930879,282.169 120.716879,284.471 119.949879,286.474 C118.415879,290.353 116.326879,294.061 114.664879,297.94 C111.893879,304.291 109.336879,310.77 106.523879,317.163 C104.349879,322.107 100.300879,324.921 95.1857786,326.668 C91.9036786,327.819 88.7495786,328.117 85.4248786,327.649 C83.5068786,327.393 81.6313786,326.967 79.8411786,326.327 C71.1033786,323.13 67.9917786,316.311 67.9917786,306.976 C67.4802786,299.389 74.7263786,288.349 84.7428786,287.369 C86.8740786,287.156 88.9200786,286.133 91.0512786,285.494 C92.7135786,284.982 94.3758786,284.428 96.0808786,284.002 C103.326879,282.041 110.572879,280.208 117.775879,278.162 C119.821879,277.566 120.930879,278.248 120.930879,279.995 Z" id="Path"></path>
                    <path d="M297.733879,180.043 C293.129879,183.112 288.782879,186.564 284.093879,189.462 C279.490879,192.318 274.972879,195.771 269.942879,194.918 C260.735879,194.876 253.745879,190.23 250.847879,182.302 C248.715879,176.377 249.440879,167.341 256.260879,162.098 C258.306879,160.521 260.437879,158.944 262.781879,157.75 C269.047879,154.511 275.100879,156.813 280.385879,159.882 C286.651879,163.59 292.320879,168.321 298.116879,172.754 C301.739879,175.482 301.484879,177.528 297.733879,180.043 Z" id="Path"></path>
                    <path d="M116.966879,127.445 C112.575879,129.491 108.611879,129.832 104.349879,127.658 C102.474879,126.72 100.342879,126.337 98.5108786,125.356 C93.0971786,122.415 91.4348786,117.13 90.2839786,111.589 C89.0905786,106.048 87.8544786,100.549 86.6183786,95.0509 C86.5331786,94.7099 86.3626786,94.3689 86.3199786,94.0279 C85.5953786,87.2934 86.1494786,85.8868 92.6709786,87.0803 C101.024879,88.5721 109.464879,89.7229 117.648879,91.8967 C120.546879,92.7066 123.231879,95.8607 125.107879,98.546 C128.090879,102.766 128.090879,104.258 128.133879,110.353 C129.156879,116.874 124.936879,123.694 116.966879,127.445 Z" id="Path"></path>
                    <path d="M101.024879,175.183 C101.024879,180 100.342879,184.816 97.0188786,188.567 C89.8151786,196.581 80.4379786,196.623 71.3164786,191.508 C65.0081786,187.971 59.1686786,183.666 53.2439786,179.574 C49.1094786,176.718 49.1520786,175.098 53.2439786,172.285 C59.9785786,167.596 66.7556786,162.993 73.5328786,158.475 C78.0083786,155.449 82.7395786,155.108 87.5560786,157.793 C90.3266786,159.37 93.3528786,160.521 95.8676786,162.396 C99.1918786,164.783 100.214879,168.705 100.982879,172.541 C101.152879,173.351 101.024879,174.288 101.024879,175.183 Z" id="Path"></path>
                    <path d="M190.918879,280.933 C188.787879,284.471 186.613879,288.008 184.311879,291.418 C182.222879,294.573 179.963879,297.641 177.576879,300.582 C177.150879,301.094 175.658879,301.35 175.104879,301.009 C173.826879,300.156 172.632879,299.048 171.609879,297.855 C170.330879,296.277 169.350879,294.53 168.157879,292.91 C165.301879,288.861 162.360879,284.897 159.589879,280.805 C154.986879,273.9 156.179879,263.415 161.550879,257.234 C165.471879,252.716 169.947879,250.031 175.914879,250.072514 C184.482879,250.116 192.410879,255.87 194.583879,267.123 C195.606879,272.621 193.518879,276.713 190.918879,280.933 Z" id="Path"></path>
                    <path d="M264.614879,262.264 C264.699879,264.438 263.634879,265.716 261.417879,265.503 C258.689879,265.247 255.961879,264.864 253.276879,264.352 C249.312879,263.628 245.433879,262.306 241.427879,261.923 C232.902879,261.156 222.246879,253.27 223.184879,241.804 C221.862879,230.637 234.138879,221.047 245.732879,223.135 C252.978879,224.499 259.371879,230.978 260.522879,238.352 C261.460879,244.532 263.080879,250.585 264.273879,256.723 C264.614879,258.556 264.571879,260.431 264.614879,262.264 Z" id="Path"></path>
                    <path d="M120.034879,258.257 C117.605879,260.133 114.067879,260.815 110.956879,261.624 C106.310879,262.775 101.536879,263.585 96.8048786,264.523 C95.1003786,264.821 93.3101786,264.949 91.5626786,265.205 C86.4477786,265.077 85.7231786,264.48 86.1920786,259.451 C86.4903786,256.254 87.5133786,253.1 88.2805786,249.903 C89.4314786,245.214 90.7953786,240.526 91.7331786,235.794 C92.3298786,232.811 94.1200786,230.893 96.0808786,228.762 C102.303879,221.899 110.018879,221.515 117.690879,224.584 C123.061879,226.758 126.428879,231.788 127.792879,237.755 C129.753879,246.323 126.684879,253.142 120.034879,258.257 Z" id="Path"></path>
                    <path d="M191.515879,93.1755 C188.190879,98.802 182.691879,101.658 175.914879,101.615478 C163.426879,101.189 154.176879,90.7459 157.075879,77.3194 C157.543879,75.2309 158.652879,73.1423 159.845879,71.3521 C163.937879,65.2995 168.199879,59.3749 172.504879,53.4502 C175.062879,49.955 176.554879,49.955 179.068879,53.4502 C183.288879,59.2896 187.636879,65.0864 191.301879,71.3095 C195.479879,78.385 195.692879,86.0999 191.515879,93.1755 Z" id="Path"></path>
                    <path d="M264.401879,90.8738 C264.060879,93.9427 264.145879,97.054 263.548879,100.081 C262.398879,105.835 261.332879,111.674 259.499879,117.258 C258.093879,121.478 254.171879,123.822 250.591879,126.337 C243.856879,131.025 233.286879,129.193 226.764879,121.904 C222.076879,116.704 221.649879,107.412 225.656879,100.677 C229.449879,94.1985 234.692879,90.7886 242.322879,90.1918 C247.394879,89.8082 252.338879,88.2738 257.368879,87.2508 C258.476879,86.995 259.627879,86.7819 260.139879,86.6967 C263.676879,86.7393 264.699879,87.9754 264.401879,90.8738 Z" id="Path"></path>
                </g>
            </g>
        </g>
    </g>
</svg>