<?xml version="1.0" encoding="UTF-8"?><svg id="Layer_1" xmlns="http://www.w3.org/2000/svg" xmlns:xlink="http://www.w3.org/1999/xlink" viewBox="0 0 841.89 601.17"><defs><style>.cls-1{fill:url(#linear-gradient);}.cls-2{fill:url(#linear-gradient-3);}.cls-3{fill:url(#linear-gradient-4);}.cls-4{fill:url(#linear-gradient-2);}.cls-5{fill:url(#linear-gradient-6);}.cls-6{fill:url(#linear-gradient-5);}</style><linearGradient id="linear-gradient" x1="666.28" y1="438.01" x2="941.93" y2="162.35" gradientUnits="userSpaceOnUse"><stop offset="0" stop-color="#a100ff"/><stop offset="1" stop-color="#00e9b2"/></linearGradient><linearGradient id="linear-gradient-2" x1="494.35" y1="444.67" x2="783.33" y2="155.69" xlink:href="#linear-gradient"/><linearGradient id="linear-gradient-3" x1="348.22" y1="456.11" x2="660.08" y2="144.25" xlink:href="#linear-gradient"/><linearGradient id="linear-gradient-4" x1="-100.45" y1="438.41" x2="176.02" y2="161.95" xlink:href="#linear-gradient"/><linearGradient id="linear-gradient-5" x1="58.15" y1="445.08" x2="347.94" y2="155.29" xlink:href="#linear-gradient"/><linearGradient id="linear-gradient-6" x1="181.4" y1="456.52" x2="494.07" y2="143.85" xlink:href="#linear-gradient"/></defs><polygon class="cls-1" points="721.86 105.96 721.86 493.59 841.89 538.86 841.89 62.31 721.86 105.96"/><polygon class="cls-4" points="578.89 70.35 578.89 529.21 658.8 570.02 658.8 31.16 578.89 70.35"/><polygon class="cls-2" points="452.48 39.19 452.48 560.36 515.83 601.17 515.83 0 452.48 39.19"/><polygon class="cls-3" points="0 62.31 0 538.86 120.03 493.59 120.03 105.96 0 62.31"/><polygon class="cls-6" points="183.09 31.16 183.09 570.02 263 529.21 263 70.35 183.09 31.16"/><polygon class="cls-5" points="326.06 0 326.06 601.17 389.41 560.36 389.41 39.19 326.06 0"/></svg>