<svg xmlns="http://www.w3.org/2000/svg" xmlns:xlink="http://www.w3.org/1999/xlink" width="1600" zoomAndPan="magnify" viewBox="0 0 1200 675.000002" height="900" preserveAspectRatio="xMidYMid meet" version="1.0"><defs><g/><clipPath id="7c5447e16e"><path d="M 426.609375 200.75 L 712.6875 200.75 L 712.6875 486.828125 L 426.609375 486.828125 Z M 426.609375 200.75 " clip-rule="nonzero"/></clipPath><clipPath id="ca6ff21fe4"><path d="M 437.464844 205.429688 L 713.804688 205.429688 L 713.804688 481.769531 L 437.464844 481.769531 Z M 437.464844 205.429688 " clip-rule="nonzero"/></clipPath><clipPath id="56526d9cdd"><path d="M 568 223.953125 L 738.75 223.953125 L 738.75 443.027344 L 568 443.027344 Z M 568 223.953125 " clip-rule="nonzero"/></clipPath></defs><g clip-path="url(#7c5447e16e)"><path fill="#453f3a" d="M 712.679688 343.785156 C 712.679688 346.125 712.625 348.464844 712.507812 350.804688 C 712.394531 353.140625 712.222656 355.476562 711.992188 357.804688 C 711.761719 360.136719 711.476562 362.457031 711.132812 364.773438 C 710.789062 367.089844 710.390625 369.394531 709.933594 371.691406 C 709.476562 373.988281 708.964844 376.269531 708.394531 378.539062 C 707.824219 380.8125 707.203125 383.066406 706.523438 385.308594 C 705.84375 387.546875 705.109375 389.769531 704.320312 391.972656 C 703.53125 394.175781 702.6875 396.359375 701.792969 398.523438 C 700.898438 400.6875 699.949219 402.824219 698.949219 404.941406 C 697.949219 407.058594 696.894531 409.148438 695.792969 411.210938 C 694.6875 413.277344 693.535156 415.3125 692.332031 417.320312 C 691.128906 419.328125 689.875 421.304688 688.574219 423.253906 C 687.273438 425.199219 685.925781 427.113281 684.53125 428.992188 C 683.136719 430.871094 681.699219 432.71875 680.214844 434.527344 C 678.730469 436.335938 677.199219 438.109375 675.628906 439.84375 C 674.054688 441.578125 672.441406 443.273438 670.789062 444.925781 C 669.132812 446.582031 667.4375 448.195312 665.703125 449.769531 C 663.96875 451.339844 662.195312 452.871094 660.386719 454.355469 C 658.578125 455.839844 656.730469 457.277344 654.851562 458.671875 C 652.972656 460.066406 651.058594 461.414062 649.113281 462.714844 C 647.164062 464.015625 645.1875 465.269531 643.179688 466.472656 C 641.171875 467.675781 639.136719 468.828125 637.070312 469.933594 C 635.007812 471.035156 632.917969 472.089844 630.800781 473.089844 C 628.683594 474.089844 626.546875 475.039062 624.382812 475.933594 C 622.21875 476.828125 620.035156 477.671875 617.832031 478.460938 C 615.628906 479.25 613.40625 479.984375 611.167969 480.664062 C 608.925781 481.34375 606.671875 481.964844 604.398438 482.535156 C 602.128906 483.105469 599.847656 483.617188 597.550781 484.074219 C 595.253906 484.53125 592.949219 484.929688 590.632812 485.273438 C 588.316406 485.617188 585.996094 485.902344 583.664062 486.132812 C 581.335938 486.363281 579.003906 486.535156 576.664062 486.648438 C 574.324219 486.765625 571.988281 486.820312 569.644531 486.820312 C 567.304688 486.820312 564.964844 486.765625 562.628906 486.648438 C 560.289062 486.535156 557.957031 486.363281 555.625 486.132812 C 553.296875 485.902344 550.972656 485.617188 548.65625 485.273438 C 546.34375 484.929688 544.035156 484.53125 541.742188 484.074219 C 539.445312 483.617188 537.160156 483.105469 534.890625 482.535156 C 532.621094 481.964844 530.363281 481.34375 528.125 480.664062 C 525.882812 479.984375 523.664062 479.25 521.457031 478.460938 C 519.253906 477.671875 517.070312 476.828125 514.90625 475.933594 C 512.746094 475.039062 510.605469 474.089844 508.488281 473.089844 C 506.375 472.089844 504.285156 471.035156 502.21875 469.933594 C 500.15625 468.828125 498.117188 467.675781 496.109375 466.472656 C 494.101562 465.269531 492.125 464.015625 490.179688 462.714844 C 488.234375 461.414062 486.320312 460.066406 484.4375 458.671875 C 482.558594 457.277344 480.714844 455.839844 478.90625 454.355469 C 477.09375 452.871094 475.324219 451.339844 473.589844 449.769531 C 471.855469 448.195312 470.160156 446.582031 468.503906 444.925781 C 466.847656 443.273438 465.234375 441.578125 463.664062 439.84375 C 462.089844 438.109375 460.5625 436.335938 459.078125 434.527344 C 457.59375 432.71875 456.152344 430.871094 454.757812 428.992188 C 453.363281 427.113281 452.015625 425.199219 450.714844 423.253906 C 449.414062 421.304688 448.164062 419.328125 446.960938 417.320312 C 445.757812 415.3125 444.601562 413.277344 443.5 411.210938 C 442.394531 409.148438 441.34375 407.058594 440.34375 404.941406 C 439.339844 402.824219 438.394531 400.6875 437.496094 398.523438 C 436.601562 396.359375 435.757812 394.175781 434.972656 391.972656 C 434.183594 389.769531 433.449219 387.546875 432.769531 385.308594 C 432.089844 383.066406 431.464844 380.8125 430.894531 378.539062 C 430.328125 376.269531 429.816406 373.988281 429.359375 371.691406 C 428.902344 369.394531 428.5 367.089844 428.15625 364.773438 C 427.8125 362.457031 427.527344 360.136719 427.296875 357.804688 C 427.070312 355.476562 426.898438 353.140625 426.78125 350.804688 C 426.667969 348.464844 426.609375 346.125 426.609375 343.785156 C 426.609375 341.445312 426.667969 339.105469 426.78125 336.765625 C 426.898438 334.429688 427.070312 332.09375 427.296875 329.765625 C 427.527344 327.4375 427.8125 325.113281 428.15625 322.796875 C 428.5 320.484375 428.902344 318.175781 429.359375 315.882812 C 429.816406 313.585938 430.328125 311.300781 430.894531 309.03125 C 431.464844 306.761719 432.089844 304.503906 432.769531 302.265625 C 433.449219 300.023438 434.183594 297.800781 434.972656 295.597656 C 435.757812 293.394531 436.601562 291.210938 437.496094 289.046875 C 438.394531 286.886719 439.339844 284.746094 440.34375 282.628906 C 441.34375 280.515625 442.394531 278.421875 443.5 276.359375 C 444.601562 274.292969 445.757812 272.257812 446.960938 270.25 C 448.164062 268.242188 449.414062 266.265625 450.714844 264.320312 C 452.015625 262.375 453.363281 260.460938 454.757812 258.578125 C 456.152344 256.699219 457.59375 254.855469 459.078125 253.046875 C 460.5625 251.234375 462.089844 249.464844 463.664062 247.730469 C 465.234375 245.996094 466.847656 244.300781 468.503906 242.644531 C 470.160156 240.988281 471.855469 239.375 473.589844 237.804688 C 475.324219 236.230469 477.09375 234.703125 478.90625 233.21875 C 480.714844 231.734375 482.558594 230.292969 484.4375 228.898438 C 486.320312 227.503906 488.234375 226.15625 490.179688 224.855469 C 492.125 223.554688 494.101562 222.304688 496.109375 221.101562 C 498.117188 219.898438 500.15625 218.742188 502.21875 217.640625 C 504.285156 216.535156 506.375 215.484375 508.488281 214.484375 C 510.605469 213.480469 512.746094 212.535156 514.90625 211.636719 C 517.070312 210.742188 519.253906 209.898438 521.457031 209.113281 C 523.664062 208.324219 525.882812 207.589844 528.125 206.910156 C 530.363281 206.230469 532.621094 205.605469 534.890625 205.035156 C 537.160156 204.46875 539.445312 203.957031 541.742188 203.5 C 544.035156 203.042969 546.34375 202.640625 548.65625 202.296875 C 550.972656 201.953125 553.296875 201.667969 555.625 201.4375 C 557.957031 201.210938 560.289062 201.039062 562.628906 200.921875 C 564.964844 200.808594 567.304688 200.75 569.644531 200.75 C 571.988281 200.75 574.324219 200.808594 576.664062 200.921875 C 579.003906 201.039062 581.335938 201.210938 583.664062 201.4375 C 585.996094 201.667969 588.316406 201.953125 590.632812 202.296875 C 592.949219 202.640625 595.253906 203.042969 597.550781 203.5 C 599.847656 203.957031 602.128906 204.46875 604.398438 205.035156 C 606.671875 205.605469 608.925781 206.230469 611.167969 206.910156 C 613.40625 207.589844 615.628906 208.324219 617.832031 209.113281 C 620.035156 209.898438 622.21875 210.742188 624.382812 211.636719 C 626.546875 212.535156 628.683594 213.480469 630.800781 214.484375 C 632.917969 215.484375 635.007812 216.535156 637.070312 217.640625 C 639.136719 218.742188 641.171875 219.898438 643.179688 221.101562 C 645.1875 222.304688 647.164062 223.554688 649.113281 224.855469 C 651.058594 226.15625 652.972656 227.503906 654.851562 228.898438 C 656.730469 230.292969 658.578125 231.734375 660.386719 233.21875 C 662.195312 234.703125 663.96875 236.230469 665.703125 237.804688 C 667.4375 239.375 669.132812 240.988281 670.789062 242.644531 C 672.441406 244.300781 674.054688 245.996094 675.628906 247.730469 C 677.199219 249.464844 678.730469 251.234375 680.214844 253.046875 C 681.699219 254.855469 683.136719 256.699219 684.53125 258.578125 C 685.925781 260.460938 687.273438 262.375 688.574219 264.320312 C 689.875 266.265625 691.128906 268.242188 692.332031 270.25 C 693.535156 272.257812 694.6875 274.292969 695.792969 276.359375 C 696.894531 278.421875 697.949219 280.515625 698.949219 282.628906 C 699.949219 284.746094 700.898438 286.886719 701.792969 289.046875 C 702.6875 291.210938 703.53125 293.394531 704.320312 295.597656 C 705.109375 297.800781 705.84375 300.023438 706.523438 302.265625 C 707.203125 304.503906 707.824219 306.761719 708.394531 309.03125 C 708.964844 311.300781 709.476562 313.585938 709.933594 315.882812 C 710.390625 318.175781 710.789062 320.484375 711.132812 322.796875 C 711.476562 325.113281 711.761719 327.4375 711.992188 329.765625 C 712.222656 332.09375 712.394531 334.429688 712.507812 336.765625 C 712.625 339.105469 712.679688 341.445312 712.679688 343.785156 Z M 712.679688 343.785156 " fill-opacity="1" fill-rule="nonzero"/></g><g clip-path="url(#ca6ff21fe4)"><path fill="#ffffff" d="M 713.800781 343.597656 C 713.800781 345.859375 713.746094 348.117188 713.632812 350.375 C 713.523438 352.632812 713.355469 354.890625 713.136719 357.140625 C 712.914062 359.390625 712.636719 361.632812 712.304688 363.871094 C 711.972656 366.105469 711.585938 368.335938 711.144531 370.550781 C 710.703125 372.769531 710.210938 374.976562 709.660156 377.167969 C 709.109375 379.363281 708.507812 381.539062 707.851562 383.703125 C 707.195312 385.867188 706.484375 388.015625 705.722656 390.144531 C 704.960938 392.273438 704.148438 394.382812 703.28125 396.472656 C 702.417969 398.558594 701.5 400.628906 700.535156 402.671875 C 699.566406 404.714844 698.550781 406.734375 697.484375 408.730469 C 696.417969 410.722656 695.304688 412.691406 694.144531 414.628906 C 692.980469 416.570312 691.769531 418.480469 690.515625 420.359375 C 689.257812 422.238281 687.957031 424.085938 686.609375 425.902344 C 685.261719 427.71875 683.871094 429.5 682.4375 431.25 C 681.003906 432.996094 679.527344 434.710938 678.007812 436.382812 C 676.488281 438.058594 674.929688 439.699219 673.332031 441.296875 C 671.734375 442.894531 670.097656 444.453125 668.421875 445.972656 C 666.746094 447.492188 665.035156 448.96875 663.285156 450.402344 C 661.539062 451.835938 659.753906 453.226562 657.9375 454.574219 C 656.121094 455.921875 654.273438 457.222656 652.394531 458.480469 C 650.515625 459.734375 648.605469 460.945312 646.664062 462.109375 C 644.726562 463.269531 642.757812 464.382812 640.765625 465.449219 C 638.769531 466.515625 636.75 467.53125 634.707031 468.5 C 632.664062 469.464844 630.597656 470.382812 628.507812 471.246094 C 626.417969 472.113281 624.308594 472.925781 622.179688 473.6875 C 620.050781 474.449219 617.902344 475.160156 615.742188 475.816406 C 613.578125 476.472656 611.398438 477.074219 609.203125 477.625 C 607.011719 478.171875 604.804688 478.667969 602.585938 479.109375 C 600.371094 479.550781 598.140625 479.9375 595.90625 480.269531 C 593.667969 480.601562 591.425781 480.878906 589.175781 481.097656 C 586.925781 481.320312 584.671875 481.488281 582.410156 481.597656 C 580.152344 481.710938 577.894531 481.765625 575.632812 481.765625 C 573.371094 481.765625 571.109375 481.710938 568.851562 481.597656 C 566.59375 481.488281 564.339844 481.320312 562.089844 481.097656 C 559.839844 480.878906 557.59375 480.601562 555.359375 480.269531 C 553.121094 479.9375 550.894531 479.550781 548.675781 479.109375 C 546.460938 478.667969 544.253906 478.171875 542.058594 477.625 C 539.867188 477.074219 537.6875 476.472656 535.523438 475.816406 C 533.359375 475.160156 531.214844 474.449219 529.085938 473.6875 C 526.957031 472.925781 524.847656 472.113281 522.757812 471.246094 C 520.667969 470.382812 518.601562 469.464844 516.558594 468.5 C 514.511719 467.53125 512.496094 466.515625 510.5 465.449219 C 508.507812 464.382812 506.539062 463.269531 504.601562 462.109375 C 502.660156 460.945312 500.75 459.734375 498.871094 458.480469 C 496.988281 457.222656 495.140625 455.921875 493.324219 454.574219 C 491.507812 453.226562 489.726562 451.835938 487.980469 450.402344 C 486.230469 448.96875 484.519531 447.492188 482.84375 445.972656 C 481.167969 444.453125 479.53125 442.894531 477.933594 441.296875 C 476.332031 439.699219 474.773438 438.058594 473.257812 436.382812 C 471.738281 434.710938 470.261719 432.996094 468.828125 431.25 C 467.390625 429.5 466 427.71875 464.65625 425.902344 C 463.308594 424.085938 462.007812 422.238281 460.75 420.359375 C 459.492188 418.480469 458.285156 416.570312 457.121094 414.628906 C 455.957031 412.691406 454.84375 410.722656 453.777344 408.730469 C 452.710938 406.734375 451.695312 404.714844 450.730469 402.671875 C 449.761719 400.628906 448.847656 398.558594 447.980469 396.472656 C 447.117188 394.382812 446.300781 392.273438 445.539062 390.144531 C 444.777344 388.015625 444.070312 385.867188 443.414062 383.703125 C 442.757812 381.539062 442.152344 379.363281 441.605469 377.167969 C 441.054688 374.976562 440.558594 372.769531 440.117188 370.550781 C 439.679688 368.335938 439.292969 366.105469 438.960938 363.871094 C 438.628906 361.632812 438.351562 359.390625 438.128906 357.140625 C 437.90625 354.890625 437.742188 352.632812 437.628906 350.375 C 437.519531 348.117188 437.464844 345.859375 437.464844 343.597656 C 437.464844 341.335938 437.519531 339.074219 437.628906 336.816406 C 437.742188 334.558594 437.90625 332.304688 438.128906 330.054688 C 438.351562 327.804688 438.628906 325.558594 438.960938 323.324219 C 439.292969 321.085938 439.679688 318.859375 440.117188 316.640625 C 440.558594 314.421875 441.054688 312.21875 441.605469 310.023438 C 442.152344 307.832031 442.757812 305.652344 443.414062 303.488281 C 444.070312 301.324219 444.777344 299.179688 445.539062 297.050781 C 446.300781 294.921875 447.117188 292.8125 447.980469 290.722656 C 448.847656 288.632812 449.761719 286.566406 450.730469 284.523438 C 451.695312 282.476562 452.710938 280.457031 453.777344 278.464844 C 454.84375 276.46875 455.957031 274.503906 457.121094 272.5625 C 458.285156 270.625 459.492188 268.714844 460.75 266.835938 C 462.007812 264.953125 463.308594 263.105469 464.65625 261.289062 C 466 259.472656 467.390625 257.691406 468.828125 255.945312 C 470.261719 254.195312 471.738281 252.484375 473.257812 250.808594 C 474.773438 249.132812 476.332031 247.496094 477.933594 245.898438 C 479.53125 244.296875 481.167969 242.738281 482.84375 241.222656 C 484.519531 239.703125 486.230469 238.226562 487.980469 236.792969 C 489.726562 235.355469 491.507812 233.964844 493.324219 232.617188 C 495.140625 231.273438 496.988281 229.96875 498.871094 228.714844 C 500.75 227.457031 502.660156 226.25 504.601562 225.085938 C 506.539062 223.921875 508.507812 222.808594 510.5 221.742188 C 512.496094 220.675781 514.511719 219.660156 516.558594 218.695312 C 518.601562 217.726562 520.667969 216.8125 522.757812 215.945312 C 524.847656 215.082031 526.957031 214.265625 529.085938 213.503906 C 531.214844 212.742188 533.359375 212.035156 535.523438 211.378906 C 537.6875 210.722656 539.867188 210.117188 542.058594 209.570312 C 544.253906 209.019531 546.460938 208.523438 548.675781 208.082031 C 550.894531 207.640625 553.121094 207.253906 555.359375 206.925781 C 557.59375 206.59375 559.839844 206.316406 562.089844 206.09375 C 564.339844 205.871094 566.59375 205.707031 568.851562 205.59375 C 571.109375 205.484375 573.371094 205.429688 575.632812 205.429688 C 577.894531 205.429688 580.152344 205.484375 582.410156 205.59375 C 584.671875 205.707031 586.925781 205.871094 589.175781 206.09375 C 591.425781 206.316406 593.667969 206.59375 595.90625 206.925781 C 598.140625 207.253906 600.371094 207.640625 602.585938 208.082031 C 604.804688 208.523438 607.011719 209.019531 609.203125 209.570312 C 611.398438 210.117188 613.578125 210.722656 615.742188 211.378906 C 617.902344 212.035156 620.050781 212.742188 622.179688 213.503906 C 624.308594 214.265625 626.417969 215.082031 628.507812 215.945312 C 630.597656 216.8125 632.664062 217.726562 634.707031 218.695312 C 636.75 219.660156 638.769531 220.675781 640.765625 221.742188 C 642.757812 222.808594 644.726562 223.921875 646.664062 225.085938 C 648.605469 226.25 650.515625 227.457031 652.394531 228.714844 C 654.273438 229.96875 656.121094 231.273438 657.9375 232.617188 C 659.753906 233.964844 661.539062 235.355469 663.285156 236.792969 C 665.035156 238.226562 666.746094 239.703125 668.421875 241.222656 C 670.097656 242.738281 671.734375 244.296875 673.332031 245.898438 C 674.929688 247.496094 676.488281 249.132812 678.007812 250.808594 C 679.527344 252.484375 681.003906 254.195312 682.4375 255.945312 C 683.871094 257.691406 685.261719 259.472656 686.609375 261.289062 C 687.957031 263.105469 689.257812 264.953125 690.515625 266.835938 C 691.769531 268.714844 692.980469 270.625 694.144531 272.5625 C 695.304688 274.503906 696.417969 276.46875 697.484375 278.464844 C 698.550781 280.457031 699.566406 282.476562 700.535156 284.523438 C 701.5 286.566406 702.417969 288.632812 703.28125 290.722656 C 704.148438 292.8125 704.960938 294.921875 705.722656 297.050781 C 706.484375 299.179688 707.195312 301.324219 707.851562 303.488281 C 708.507812 305.652344 709.109375 307.832031 709.660156 310.023438 C 710.210938 312.21875 710.703125 314.421875 711.144531 316.640625 C 711.585938 318.859375 711.972656 321.085938 712.304688 323.324219 C 712.636719 325.558594 712.914062 327.804688 713.136719 330.054688 C 713.355469 332.304688 713.523438 334.558594 713.632812 336.816406 C 713.746094 339.074219 713.800781 341.335938 713.800781 343.597656 Z M 713.800781 343.597656 " fill-opacity="1" fill-rule="nonzero"/></g><g fill="#3d393b" fill-opacity="1"><g transform="translate(364.318444, 417.763641)"><g/></g></g><g fill="#3d393b" fill-opacity="1"><g transform="translate(481.673165, 417.763641)"><g><path d="M 142.175781 0 L 172.609375 0 L 88.414062 -182.71875 L 86.75 -182.71875 L 2.554688 0 L 32.988281 0 L 45.207031 -27.214844 L 129.957031 -27.214844 Z M 56.09375 -51.316406 L 87.636719 -121.292969 L 119.070312 -51.316406 Z M 56.09375 -51.316406 "/></g></g></g><g fill="#3d393b" fill-opacity="1"><g transform="translate(648.86844, 417.763641)"><g/></g></g><g fill="#3d393b" fill-opacity="1"><g transform="translate(707.551359, 417.763641)"><g/></g></g><g fill="#3d393b" fill-opacity="1"><g transform="translate(766.234279, 417.763641)"><g/></g></g><g fill="#3d393b" fill-opacity="1"><g transform="translate(824.917198, 417.763641)"><g/></g></g><g fill="#3d393b" fill-opacity="1"><g transform="translate(883.600118, 417.763641)"><g/></g></g><g fill="#3d393b" fill-opacity="1"><g transform="translate(942.283026, 417.763641)"><g/></g></g><g fill="#3d393b" fill-opacity="1"><g transform="translate(1000.965934, 417.763641)"><g/></g></g><g fill="#3d393b" fill-opacity="1"><g transform="translate(1059.648842, 417.763641)"><g/></g></g><g fill="#3d393b" fill-opacity="1"><g transform="translate(1118.331749, 417.763641)"><g/></g></g><g fill="#3d393b" fill-opacity="1"><g transform="translate(1177.014657, 417.763641)"><g/></g></g><g clip-path="url(#56526d9cdd)"><path fill="#fffffd" d="M 738.644531 841.613281 L 568 841.613281 L 568 223.953125 Z M 738.644531 841.613281 " fill-opacity="1" fill-rule="nonzero"/></g></svg>