<svg width="512" height="512" viewBox="0 0 512 512" fill="none" xmlns="http://www.w3.org/2000/svg">
    <rect width="512" height="512" fill="#121010" />
    <path
        d="M260.994 70.6921C255.556 78.3221 145.557 232.312 109.365 282.991C102.19 293.01 107.201 299.007 117.68 299.007C125.14 299.007 184.511 299.007 218.339 299.007C232.149 299.007 241.717 306.198 241.717 317.363C241.717 353.392 241.717 430.618 241.717 439.028C241.717 448.292 248.921 447.634 253.562 441.1C257.35 435.738 364.387 285.039 402.6 231.044C411.086 219.05 402.259 213.395 391.78 213.395C384.348 213.395 327.825 213.395 295.506 213.395C282.208 213.395 273.096 203.815 273.21 193.528C273.694 158.084 274.776 81.4423 274.776 74.0317C274.776 64.4515 266.234 63.574 260.994 70.6921Z"
        fill="url(#paint0_linear_1_56)" />
    <defs>
        <linearGradient id="paint0_linear_1_56" x1="105.554" y1="299.641" x2="359.482" y2="200.015"
            gradientUnits="userSpaceOnUse">
            <stop stop-color="#DD3FFF" />
            <stop offset="0.359375" stop-color="#FF33FF" />
            <stop offset="1" stop-color="#FF77FF" />
        </linearGradient>
    </defs>
</svg>
