<svg width="45" height="8" fill="none" xmlns="http://www.w3.org/2000/svg"><g clip-path="url(#a)" fill="#7E7E83"><path d="M9.8 2.564c.8.007 1.432.654 1.421 1.454A1.428 1.428 0 0 1 9.76 5.432a1.427 1.427 0 0 1-1.405-1.438c.003-.8.647-1.438 1.445-1.43Z"/><path d="M11.662 7.06c-1.25 1.007-3.485.647-4.643-.708a3.634 3.634 0 0 1 5.37-4.89c1.321 1.359 1.38 3.612.144 4.883l-.88-.922c.468-.655.614-1.405.333-2.21-.418-1.201-1.743-1.835-2.951-1.426a2.333 2.333 0 0 0-1.475 2.9 2.306 2.306 0 0 0 2.883 1.542c.244-.075.38-.031.538.15.209.241.45.454.681.681ZM0 2.57c0-.291.056-.564.166-.818A2.144 2.144 0 0 1 1.287.63c.255-.111.528-.167.818-.167h3.221V1.87h-3.22a.699.699 0 0 0-.647.426.694.694 0 0 0-.054.275.71.71 0 0 0 .203.501.691.691 0 0 0 .497.203H3.51A2.112 2.112 0 0 1 5 3.888a2.104 2.104 0 0 1 .615 1.492c0 .29-.054.563-.164.817a2.117 2.117 0 0 1-1.94 1.288H.39V6.08h3.12a.7.7 0 0 0 .496-.203.688.688 0 0 0 .203-.497.699.699 0 0 0-.426-.647.7.7 0 0 0-.274-.054H2.105c-.29 0-.563-.055-.818-.166A2.144 2.144 0 0 1 .167 3.39 2.044 2.044 0 0 1 0 2.57Zm19.25 4.915h-4.915V.465h1.405V6.08h3.51v1.405Zm.177-4.916c0-.29.055-.563.166-.817A2.144 2.144 0 0 1 20.714.63c.255-.111.527-.167.818-.167h3.221V1.87h-3.221a.7.7 0 0 0-.646.426.693.693 0 0 0-.054.274.71.71 0 0 0 .203.502.691.691 0 0 0 .497.203h1.405a2.114 2.114 0 0 1 1.49.614 2.105 2.105 0 0 1 .615 1.491c0 .29-.055.563-.164.818a2.118 2.118 0 0 1-1.121 1.121 2.04 2.04 0 0 1-.82.166h-3.119V6.08h3.119a.7.7 0 0 0 .646-.425.699.699 0 0 0 .054-.275.699.699 0 0 0-.426-.646.7.7 0 0 0-.274-.054h-1.405c-.29 0-.563-.055-.818-.166a2.143 2.143 0 0 1-1.12-1.124 2.035 2.035 0 0 1-.167-.82Zm12.141 4.196c-.326.28-.692.496-1.097.646-.404.15-.824.226-1.258.226a3.55 3.55 0 0 1-.962-.13 3.643 3.643 0 0 1-2.173-1.675 3.641 3.641 0 0 1-.367-.866 3.55 3.55 0 0 1-.13-.962 3.578 3.578 0 0 1 .497-1.834A3.674 3.674 0 0 1 28.252.496a3.62 3.62 0 0 1 2.22.093c.404.149.77.365 1.096.649l-.744 1.224a2.105 2.105 0 0 0-.73-.512 2.235 2.235 0 0 0-.88-.178c-.31 0-.601.058-.872.176a2.234 2.234 0 0 0-1.366 2.056c0 .307.059.595.176.864a2.277 2.277 0 0 0 1.19 1.187c.27.118.561.177.871.177.307 0 .6-.06.881-.18a2.1 2.1 0 0 0 .73-.51l.744 1.223Zm6.35.72h-1.405V6.08h-2.81v1.405h-1.4v-4.21c0-.389.073-.754.22-1.095a2.809 2.809 0 0 1 1.49-1.496c.341-.147.706-.22 1.095-.22.388 0 .753.073 1.094.22.34.147.639.348.894.602.254.255.455.553.602.894.147.341.22.706.22 1.094v4.21Zm-1.405-2.806V3.274a1.412 1.412 0 0 0-.86-1.295 1.374 1.374 0 0 0-.545-.11 1.414 1.414 0 0 0-1.295.86c-.074.17-.11.353-.11.545V4.68h2.81Zm8.24 2.806H43.25l-2.708-4.622v4.622h-1.405V.465h1.503l2.708 4.626V.464h1.405v7.02Z"/></g><defs><clipPath id="a"><path fill="#fff" transform="translate(0 .364)" d="M0 0h44.998v7.272H0z"/></clipPath></defs></svg>