<svg width="43" height="32" viewBox="0 0 43 32" fill="none" xmlns="http://www.w3.org/2000/svg">
<g clip-path="url(#clip0_3635_67901)">
<path d="M0 0H42.6667V32H0V0Z" fill="#012169"/>
<path d="M5 0L21.2667 12.0667L37.4667 0H42.6667V4.13333L26.6667 16.0667L42.6667 27.9333V32H37.3333L21.3333 20.0667L5.4 32H0V28L15.9333 16.1333L0 4.26667V0H5Z" fill="white"/>
<path d="M28.2667 18.7333L42.6667 29.3333V32L24.6 18.7333H28.2667ZM16 20.0667L16.4 22.4L3.6 32H0L16 20.0667ZM42.6667 0V0.2L26.0667 12.7333L26.2 9.8L39.3333 0H42.6667ZM0 0L15.9333 11.7333H11.9333L0 2.8V0Z" fill="#C8102E"/>
<path d="M16.0667 0V32H26.7333V0H16.0667ZM0 10.6667V21.3333H42.6667V10.6667H0Z" fill="white"/>
<path d="M0 12.8667V19.2667H42.6667V12.8667H0ZM18.2 0V32H24.6V0H18.2Z" fill="#C8102E"/>
</g>
<defs>
<clipPath id="clip0_3635_67901">
<rect width="42.6667" height="32" fill="white"/>
</clipPath>
</defs>
</svg>
