<svg width="32" height="32" viewBox="0 0 32 32" fill="inherit" xmlns="http://www.w3.org/2000/svg">
      <path
        fillRule="evenodd"
        clipRule="evenodd"
        d="M25.1425 8.45597H5.22047L5.22025 8.45592C4.66944 8.40838 4.15821 8.1496 3.79392 7.73368C3.52351 7.52371 3.34106 7.22064 3.28188 6.88329C3.24718 5.65089 4.6625 4.79883 5.9425 4.79883H22.3996C23.1264 4.80107 23.8229 5.09067 24.3368 5.60455C24.8507 6.11843 25.1403 6.81496 25.1425 7.54168V8.45597ZM26.0564 10.2846H5.02779C4.54289 10.2846 4.07777 10.092 3.73473 9.74912C3.39187 9.40605 3.19922 8.94094 3.19922 8.45605V25.8275C3.19922 26.555 3.4882 27.2526 4.00248 27.7671C4.51698 28.2814 5.21451 28.5703 5.94208 28.5703H26.0564C26.7839 28.5703 27.4814 28.2814 27.996 27.7671C28.5102 27.2526 28.7992 26.555 28.7992 25.8275V23.0846H24.2278C22.9213 23.0846 21.7139 22.3875 21.0607 21.2561C20.4074 20.1246 20.4074 18.7303 21.0607 17.5989C21.7139 16.4675 22.9213 15.7703 24.2278 15.7703H28.7992V13.0275C28.7992 12.2999 28.5102 11.6024 27.996 11.0879C27.4815 10.5736 26.7839 10.2846 26.0564 10.2846ZM22.4014 19.4277C22.4014 19.9126 22.594 20.3777 22.9369 20.7208C23.2799 21.0636 23.7451 21.2563 24.2299 21.2563H28.8014V17.5991H24.2299C23.745 17.5991 23.2799 17.7918 22.9369 18.1346C22.594 18.4777 22.4014 18.9428 22.4014 19.4277Z"
        fill="white"
      />
    </svg>