<svg width="386" height="97" viewBox="0 0 386 97" fill="none" xmlns="http://www.w3.org/2000/svg">
<g clip-path="url(#clip0_1943_13333)">
<path d="M72.5566 0.0078125H24.5566C11.3018 0.0078125 0.556641 10.753 0.556641 24.0078V72.0078C0.556641 85.2626 11.3018 96.0078 24.5566 96.0078H72.5566C85.8115 96.0078 96.5566 85.2626 96.5566 72.0078V24.0078C96.5566 10.753 85.8115 0.0078125 72.5566 0.0078125Z" fill="url(#paint0_linear_1943_13333)"/>
<path d="M45.3556 28.2088L28.3851 45.1794C26.823 46.7415 26.823 49.2741 28.3851 50.8362L45.3556 67.8068C46.9177 69.3689 49.4504 69.3689 51.0125 67.8068L67.983 50.8362C69.5451 49.2741 69.5451 46.7415 67.983 45.1794L51.0125 28.2088C49.4504 26.6467 46.9177 26.6467 45.3556 28.2088Z" fill="white"/>
<path opacity="0.5" d="M71.5566 35.0078C77.0795 35.0078 81.5566 30.5307 81.5566 25.0078C81.5566 19.485 77.0795 15.0078 71.5566 15.0078C66.0338 15.0078 61.5566 19.485 61.5566 25.0078C61.5566 30.5307 66.0338 35.0078 71.5566 35.0078Z" fill="white"/>
<path opacity="0.5" d="M25.5566 35.0078C31.0795 35.0078 35.5566 30.5307 35.5566 25.0078C35.5566 19.485 31.0795 15.0078 25.5566 15.0078C20.0338 15.0078 15.5566 19.485 15.5566 25.0078C15.5566 30.5307 20.0338 35.0078 25.5566 35.0078Z" fill="white"/>
<path opacity="0.5" d="M25.5566 81.0078C31.0795 81.0078 35.5566 76.5307 35.5566 71.0078C35.5566 65.485 31.0795 61.0078 25.5566 61.0078C20.0338 61.0078 15.5566 65.485 15.5566 71.0078C15.5566 76.5307 20.0338 81.0078 25.5566 81.0078Z" fill="white"/>
<path opacity="0.5" d="M71.5566 81.0078C77.0795 81.0078 81.5566 76.5307 81.5566 71.0078C81.5566 65.485 77.0795 61.0078 71.5566 61.0078C66.0338 61.0078 61.5566 65.485 61.5566 71.0078C61.5566 76.5307 66.0338 81.0078 71.5566 81.0078Z" fill="white"/>
<path d="M125.071 71.3441C123.611 71.3441 122.482 70.9679 121.686 70.2155C120.933 69.4188 120.557 68.2902 120.557 66.8296V29.0536C120.557 27.5931 120.933 26.4866 121.686 25.7341C122.482 24.9375 123.611 24.5391 125.071 24.5391H141.003C144.278 24.5391 147.066 25.026 149.367 25.9997C151.669 26.9734 153.417 28.3676 154.612 30.1823C155.851 31.9969 156.47 34.1657 156.47 36.6885C156.47 39.5211 155.652 41.9112 154.014 43.8586C152.377 45.8061 150.142 47.1117 147.309 47.7756V46.7798C150.584 47.2666 153.129 48.5059 154.943 50.4976C156.758 52.4893 157.665 55.0785 157.665 58.2653C157.665 62.4257 156.249 65.6567 153.417 67.9582C150.629 70.2155 146.734 71.3441 141.733 71.3441H125.071ZM128.722 64.9043H140.671C143.68 64.9043 145.893 64.3289 147.309 63.1781C148.726 61.9831 149.434 60.2127 149.434 57.8669C149.434 55.4769 148.726 53.7065 147.309 52.5557C145.893 51.405 143.68 50.8296 140.671 50.8296H128.722V64.9043ZM128.722 44.3897H139.543C142.463 44.3897 144.632 43.8365 146.048 42.73C147.509 41.5792 148.239 39.8974 148.239 37.6843C148.239 35.4713 147.509 33.8116 146.048 32.7051C144.632 31.5543 142.463 30.979 139.543 30.979H128.722V44.3897Z" fill="#F4F4F5"/>
<path d="M176.151 72.0073C173.806 72.0073 171.704 71.5647 169.845 70.6795C168.03 69.75 166.592 68.5108 165.53 66.9617C164.512 65.4126 164.003 63.6643 164.003 61.7168C164.003 59.3268 164.623 57.4458 165.862 56.0737C167.101 54.6574 169.115 53.6394 171.903 53.0197C174.691 52.4001 178.43 52.0903 183.122 52.0903H186.441V56.8704H183.188C180.444 56.8704 178.253 57.0032 176.616 57.2687C174.979 57.5343 173.806 57.999 173.098 58.6629C172.434 59.2825 172.102 60.1677 172.102 61.3185C172.102 62.7791 172.611 63.9741 173.629 64.9036C174.647 65.833 176.063 66.2978 177.877 66.2978C179.338 66.2978 180.621 65.9658 181.728 65.3019C182.878 64.5937 183.785 63.6422 184.449 62.4471C185.113 61.2521 185.445 59.8801 185.445 58.331V50.6961C185.445 48.4831 184.958 46.8897 183.985 45.916C183.011 44.9423 181.373 44.4554 179.072 44.4554C177.789 44.4554 176.395 44.6103 174.89 44.9202C173.43 45.23 171.881 45.7611 170.243 46.5135C169.402 46.9119 168.65 47.0225 167.986 46.8455C167.367 46.6684 166.88 46.3144 166.526 45.7832C166.172 45.2079 165.995 44.5882 165.995 43.9243C165.995 43.2604 166.172 42.6186 166.526 41.999C166.88 41.3351 167.477 40.8482 168.318 40.5384C170.354 39.6975 172.301 39.1 174.16 38.7459C176.063 38.3918 177.789 38.2148 179.338 38.2148C182.524 38.2148 185.135 38.7016 187.171 39.6753C189.251 40.6491 190.8 42.1318 191.818 44.1235C192.836 46.0709 193.345 48.5937 193.345 51.6919V67.6256C193.345 68.9976 193.013 70.0599 192.349 70.8123C191.685 71.5204 190.734 71.8745 189.494 71.8745C188.255 71.8745 187.282 71.5204 186.573 70.8123C185.91 70.0599 185.578 68.9976 185.578 67.6256V64.4388H186.109C185.799 65.9879 185.179 67.3379 184.25 68.4886C183.365 69.5951 182.236 70.4582 180.865 71.0778C179.493 71.6975 177.922 72.0073 176.151 72.0073Z" fill="#F4F4F5"/>
<path d="M212.853 72.0078C209.18 72.0078 206.414 70.9677 204.555 68.8875C202.696 66.763 201.767 63.6648 201.767 59.5929V28.1904C201.767 26.8183 202.121 25.7782 202.829 25.07C203.537 24.3619 204.555 24.0078 205.883 24.0078C207.21 24.0078 208.228 24.3619 208.936 25.07C209.689 25.7782 210.065 26.8183 210.065 28.1904V59.1945C210.065 61.2305 210.485 62.7353 211.326 63.709C212.211 64.6828 213.45 65.1696 215.044 65.1696C215.398 65.1696 215.73 65.1696 216.039 65.1696C216.349 65.1254 216.659 65.0811 216.969 65.0368C217.588 64.9483 218.009 65.1254 218.23 65.568C218.451 65.9663 218.562 66.8072 218.562 68.0908C218.562 69.1973 218.341 70.0604 217.898 70.68C217.455 71.2996 216.725 71.6758 215.707 71.8086C215.265 71.8529 214.8 71.8971 214.313 71.9414C213.827 71.9857 213.34 72.0078 212.853 72.0078Z" fill="#F4F4F5"/>
<path d="M233.653 72.0073C231.308 72.0073 229.205 71.5647 227.347 70.6795C225.532 69.75 224.094 68.5108 223.032 66.9617C222.014 65.4126 221.505 63.6643 221.505 61.7168C221.505 59.3268 222.125 57.4458 223.364 56.0737C224.603 54.6574 226.617 53.6394 229.405 53.0197C232.193 52.4001 235.932 52.0903 240.623 52.0903H243.943V56.8704H240.69C237.946 56.8704 235.755 57.0032 234.118 57.2687C232.48 57.5343 231.308 57.999 230.6 58.6629C229.936 59.2825 229.604 60.1677 229.604 61.3185C229.604 62.7791 230.113 63.9741 231.131 64.9036C232.148 65.833 233.565 66.2978 235.379 66.2978C236.84 66.2978 238.123 65.9658 239.229 65.3019C240.38 64.5937 241.287 63.6422 241.951 62.4471C242.615 61.2521 242.947 59.8801 242.947 58.331V50.6961C242.947 48.4831 242.46 46.8897 241.486 45.916C240.513 44.9423 238.875 44.4554 236.574 44.4554C235.291 44.4554 233.897 44.6103 232.392 44.9202C230.931 45.23 229.383 45.7611 227.745 46.5135C226.904 46.9119 226.152 47.0225 225.488 46.8455C224.868 46.6684 224.382 46.3144 224.028 45.7832C223.674 45.2079 223.497 44.5882 223.497 43.9243C223.497 43.2604 223.674 42.6186 224.028 41.999C224.382 41.3351 224.979 40.8482 225.82 40.5384C227.856 39.6975 229.803 39.1 231.662 38.7459C233.565 38.3918 235.291 38.2148 236.84 38.2148C240.026 38.2148 242.637 38.7016 244.673 39.6753C246.753 40.6491 248.302 42.1318 249.32 44.1235C250.337 46.0709 250.846 48.5937 250.846 51.6919V67.6256C250.846 68.9976 250.514 70.0599 249.851 70.8123C249.187 71.5204 248.235 71.8745 246.996 71.8745C245.757 71.8745 244.783 71.5204 244.075 70.8123C243.411 70.0599 243.08 68.9976 243.08 67.6256V64.4388H243.611C243.301 65.9879 242.681 67.3379 241.752 68.4886C240.867 69.5951 239.738 70.4582 238.366 71.0778C236.994 71.6975 235.423 72.0073 233.653 72.0073Z" fill="#F4F4F5"/>
<path d="M263.384 71.8745C262.057 71.8745 261.039 71.5204 260.331 70.8123C259.623 70.0599 259.269 68.9976 259.269 67.6256V42.5301C259.269 41.1581 259.623 40.1179 260.331 39.4098C261.039 38.7016 262.035 38.3476 263.318 38.3476C264.602 38.3476 265.597 38.7016 266.305 39.4098C267.013 40.1179 267.367 41.1581 267.367 42.5301V47.0446L266.637 45.3849C267.611 43.0391 269.116 41.2687 271.151 40.0737C273.231 38.8344 275.577 38.2148 278.188 38.2148C280.799 38.2148 282.945 38.7016 284.627 39.6753C286.309 40.6491 287.57 42.1318 288.411 44.1235C289.252 46.0709 289.672 48.5495 289.672 51.5592V67.6256C289.672 68.9976 289.318 70.0599 288.61 70.8123C287.902 71.5204 286.884 71.8745 285.556 71.8745C284.229 71.8745 283.189 71.5204 282.436 70.8123C281.728 70.0599 281.374 68.9976 281.374 67.6256V51.9575C281.374 49.4347 280.888 47.5979 279.914 46.4471C278.985 45.2964 277.524 44.721 275.533 44.721C273.099 44.721 271.151 45.4955 269.691 47.0446C268.275 48.5495 267.567 50.5633 267.567 53.0861V67.6256C267.567 70.4582 266.173 71.8745 263.384 71.8745Z" fill="#F4F4F5"/>
<path d="M309.983 72.0073C308.08 72.0073 306.066 71.8081 303.942 71.4098C301.818 71.0114 299.915 70.3254 298.233 69.3517C297.525 68.9091 297.016 68.4001 296.706 67.8247C296.441 67.2051 296.33 66.6076 296.374 66.0322C296.463 65.4126 296.684 64.8814 297.038 64.4388C297.436 63.9962 297.923 63.7085 298.499 63.5758C299.118 63.443 299.782 63.5536 300.49 63.9077C302.26 64.7487 303.92 65.3462 305.469 65.7002C307.018 66.0101 308.545 66.165 310.049 66.165C312.174 66.165 313.745 65.8109 314.762 65.1027C315.825 64.3503 316.356 63.3766 316.356 62.1816C316.356 61.1636 316.002 60.389 315.294 59.8579C314.63 59.2825 313.612 58.8621 312.24 58.5965L305.602 57.3351C302.858 56.804 300.756 55.8081 299.295 54.3475C297.879 52.8427 297.171 50.9174 297.171 48.5716C297.171 46.4471 297.746 44.6103 298.897 43.0612C300.092 41.5121 301.729 40.3171 303.809 39.4762C305.889 38.6352 308.279 38.2148 310.979 38.2148C312.926 38.2148 314.74 38.4361 316.422 38.8787C318.148 39.277 319.808 39.9188 321.401 40.804C322.065 41.1581 322.507 41.6228 322.728 42.1982C322.994 42.7736 323.06 43.3711 322.928 43.9907C322.795 44.5661 322.529 45.0972 322.131 45.5841C321.733 46.0267 321.224 46.3144 320.604 46.4471C320.029 46.5357 319.365 46.4029 318.613 46.0488C317.241 45.3406 315.913 44.8316 314.63 44.5218C313.391 44.212 312.196 44.0571 311.045 44.0571C308.876 44.0571 307.261 44.4333 306.199 45.1857C305.181 45.9381 304.672 46.934 304.672 48.1733C304.672 49.1027 304.982 49.8773 305.602 50.4969C306.221 51.1166 307.173 51.537 308.456 51.7583L315.094 53.0197C317.971 53.5509 320.14 54.5246 321.6 55.9409C323.105 57.3572 323.857 59.2604 323.857 61.6505C323.857 64.8814 322.596 67.4264 320.073 69.2853C317.551 71.1 314.187 72.0073 309.983 72.0073Z" fill="#F4F4F5"/>
<path d="M345.317 72.0073C341.954 72.0073 339.033 71.3213 336.555 69.9492C334.077 68.5771 332.151 66.6297 330.779 64.1069C329.408 61.5398 328.722 58.5301 328.722 55.0778C328.722 52.4665 329.098 50.1428 329.85 48.1069C330.647 46.0267 331.775 44.2563 333.236 42.7957C334.696 41.2908 336.444 40.1622 338.48 39.4098C340.516 38.6131 342.795 38.2148 345.317 38.2148C348.681 38.2148 351.602 38.9008 354.08 40.2729C356.558 41.6449 358.483 43.5924 359.855 46.1152C361.227 48.638 361.913 51.6256 361.913 55.0778C361.913 57.6892 361.515 60.035 360.718 62.1152C359.966 64.1954 358.86 65.9879 357.399 67.4928C355.939 68.9534 354.191 70.082 352.155 70.8787C350.119 71.6311 347.84 72.0073 345.317 72.0073ZM345.317 65.7002C346.955 65.7002 348.393 65.3019 349.632 64.5052C350.871 63.7085 351.823 62.5357 352.487 60.9866C353.195 59.3932 353.549 57.4236 353.549 55.0778C353.549 51.537 352.797 48.9036 351.292 47.1774C349.787 45.407 347.796 44.5218 345.317 44.5218C343.68 44.5218 342.242 44.9202 341.002 45.7168C339.763 46.4693 338.79 47.6422 338.082 49.2355C337.418 50.7846 337.086 52.7321 337.086 55.0778C337.086 58.5744 337.838 61.23 339.343 63.0446C340.848 64.815 342.839 65.7002 345.317 65.7002Z" fill="#F4F4F5"/>
<path d="M379.848 72.0078C376.175 72.0078 373.409 70.9677 371.55 68.8875C369.691 66.763 368.762 63.6648 368.762 59.5929V28.1904C368.762 26.8183 369.116 25.7782 369.824 25.07C370.532 24.3619 371.55 24.0078 372.878 24.0078C374.205 24.0078 375.223 24.3619 375.931 25.07C376.684 25.7782 377.06 26.8183 377.06 28.1904V59.1945C377.06 61.2305 377.48 62.7353 378.321 63.709C379.206 64.6828 380.446 65.1696 382.039 65.1696C382.393 65.1696 382.725 65.1696 383.034 65.1696C383.344 65.1254 383.654 65.0811 383.964 65.0368C384.583 64.9483 385.004 65.1254 385.225 65.568C385.446 65.9663 385.557 66.8072 385.557 68.0908C385.557 69.1973 385.336 70.0604 384.893 70.68C384.451 71.2996 383.72 71.6758 382.703 71.8086C382.26 71.8529 381.795 71.8971 381.308 71.9414C380.822 71.9857 380.335 72.0078 379.848 72.0078Z" fill="#F4F4F5"/>
</g>
<defs>
<linearGradient id="paint0_linear_1943_13333" x1="0.556641" y1="0.0078125" x2="16.5919" y2="107.893" gradientUnits="userSpaceOnUse">
<stop stop-color="#63E0B3"/>
<stop offset="1" stop-color="#86E0C0"/>
</linearGradient>
<clipPath id="clip0_1943_13333">
<rect width="385" height="96" fill="white" transform="translate(0.556641 0.0078125)"/>
</clipPath>
</defs>
</svg>
