<svg xmlns="http://www.w3.org/2000/svg" xmlns:xlink="http://www.w3.org/1999/xlink" viewBox="0 0 1787 1787"><defs><style>.cls-1{fill:url(#linear-gradient);}</style><linearGradient id="linear-gradient" x1="-64.85" y1="1435.52" x2="-64.11" y2="1434.73" gradientTransform="matrix(1787, 0, 0, -1787, 116114.27, 2565457.73)" gradientUnits="userSpaceOnUse"><stop offset="0" stop-color="#4d2fe5"/><stop offset="0.53" stop-color="#d51fd5"/><stop offset="1" stop-color="#fb767c"/></linearGradient></defs><g id="Layer_2" data-name="Layer 2"><g id="Layer_1-2" data-name="Layer 1"><path id="합치기_1" data-name="합치기 1" class="cls-1" d="M0,893.5C0,400,400,0,893.5,0S1787,400,1787,893.5,1387,1787,893.5,1787,0,1387,0,893.5Zm83.12,0c0,446.85,363.53,810.38,810.38,810.38s810.38-363.53,810.38-810.38S1340.35,83.12,893.5,83.12,83.12,446.65,83.12,893.5Zm404.22,532.3c-59.26-1.11-100.1-40.77-115.65-72.41s-15.88-72.74-1-104,301-608.71,310.46-628.57,8.44-18.77,8.58-40.9,0-256.53,0-256.53-22.77,0-36.45,0c-33.07.07-47.75-24-47.92-43.34-.17-18.92,12.94-44.4,46.24-44.48,28.28-.07,78,0,126,0l-.37,134.48h101.1v44H777.25V459.1h101.1v43.78H777.25V615.81c0,11.4-1.58,11.7-7.21,23.63s-307.51,622.87-317,643.12,9.65,54.57,38.08,55.1,768.91-.16,805-.16,46-43,38.92-56.92-315.54-636.51-320.9-648.31-4.7-10.86-4.43-30.3,0-366.41,0-366.41,84.8,0,129,0c26,0,43.52,20.62,43.52,43.22,0,21.41-16.73,43-43.52,43-11.8.26-41.39,0-41.39,0s0,256.24,0,270.68,4.12,17.56,13.5,36.74,281.67,567.73,300.18,604.87,25,90.52-8.12,134.9-72.23,55-103.37,55.25c-25.34.22-508.17,1.85-718.93,1.85-48.2,0-82.13-.09-93.16-.29Zm374.05-218.72a30.22,30.22,0,1,1,30.22,30.22h0a30.22,30.22,0,0,1-30.22-30.23Zm89.9-6.34a9,9,0,1,1,6.33,2.62,9,9,0,0,1-6.33-2.62Zm-131.58,0a9,9,0,1,1,6.33,2.62,9,9,0,0,1-6.33-2.62ZM990.94,1177c-11.43-11.43-11.13-30.27.67-42.07s30.64-12.1,42.08-.67,11.13,30.27-.67,42.08a30.63,30.63,0,0,1-21.65,9,28.7,28.7,0,0,1-20.43-8.39Zm-238.85-.66c-11.8-11.8-12.1-30.64-.67-42.08s30.28-11.14,42.08.67,12.1,30.64.67,42.07a28.7,28.7,0,0,1-20.43,8.39,30.63,30.63,0,0,1-21.65-9Zm131.19-17.72a9,9,0,1,1,9,9,9,9,0,0,1-9-9Zm0-25.26a9,9,0,1,1,9,9,9,9,0,0,1-9-9Zm89.23-4.86a9,9,0,1,1,6.34,2.62,9,9,0,0,1-6.34-2.62Zm-172.58,0a9,9,0,1,1,6.34,2.62,9,9,0,0,1-6.34-2.62ZM883.28,1108a9,9,0,1,1,9,9,9,9,0,0,1-9-9Zm71.37,2.63a9,9,0,1,1,6.34,2.62,9,9,0,0,1-6.34-2.62Zm-136.86,0a9,9,0,1,1,6.34,2.62,9,9,0,0,1-6.34-2.62Zm226.71-3.42a9,9,0,1,1,6.34,2.62,9,9,0,0,1-6.34-2.62Zm-319.65,0a9,9,0,1,1,6.33,2.62,9,9,0,0,1-6.33-2.62Zm211.87-14.5a9,9,0,1,1,6.34,2.62,9,9,0,0,1-6.34-2.62Zm-101,0a9,9,0,1,1,6.34,2.62,9,9,0,0,1-6.34-2.62Zm3-56.55A53.84,53.84,0,1,1,892.55,1090a53.85,53.85,0,0,1-53.84-53.84h0Zm194.57-.94a30.23,30.23,0,1,1,30.23,30.22,30.23,30.23,0,0,1-30.23-30.22Zm-341.91,0a30.23,30.23,0,1,1,30.23,30.22,30.23,30.23,0,0,1-30.23-30.22h0Zm314.25.64a9,9,0,1,1,9,9,9,9,0,0,1-9-9Zm-25.26,0a9,9,0,1,1,9,9,9,9,0,0,1-9-9Zm-25.35,0a9,9,0,1,1,9,9,9,9,0,0,1-9-9Zm-142.85,0a9,9,0,1,1,9,9,9,9,0,0,1-9-9Zm-25.34,0a9,9,0,1,1,9,9,9,9,0,0,1-9-9Zm-25.26,0a9,9,0,1,1,9,9,9,9,0,0,1-9-9Zm175.16-44.17a9,9,0,1,1,6.34,2.63,9,9,0,0,1-6.34-2.63Zm-101,0a9,9,0,1,1,6.33,2.63,9,9,0,0,1-6.33-2.63ZM1044.5,976a8.94,8.94,0,1,1,6.33,2.63,9,9,0,0,1-6.33-2.63Zm-317.77,0a9,9,0,1,1,6.34,2.63,9,9,0,0,1-6.34-2.63Zm227.91-2.21a9,9,0,1,1,6.34,2.62,9,9,0,0,1-6.34-2.62Zm-136.86,0a9,9,0,1,1,6.34,2.62,9,9,0,0,1-6.34-2.62Zm65.8-10a9,9,0,1,1,9,9h0a9,9,0,0,1-9-9Zm88.92-7.82a9,9,0,1,1,6.34,2.63,9,9,0,0,1-6.34-2.63Zm-172.58,0a8.94,8.94,0,1,1,6.33,2.63,9,9,0,0,1-6.33-2.63Zm83.66-17.53a9,9,0,1,1,9,9h0a9,9,0,0,1-9-9Zm-132.17-.9c-11.43-11.43-11.13-30.27.67-42.08s30.64-12.1,42.08-.66,11.13,30.27-.67,42.07a30.58,30.58,0,0,1-21.65,9.05,28.69,28.69,0,0,1-20.42-8.39Zm240.19-.67c-11.8-11.8-12.1-30.64-.67-42.07s30.27-11.14,42.08.66,12.1,30.65.67,42.08a28.73,28.73,0,0,1-20.43,8.38,30.6,30.6,0,0,1-21.64-9.05Zm-108-23.7a9,9,0,1,1,9,9h0A9,9,0,0,1,883.59,913.07Zm-22.2-49.8a30.22,30.22,0,1,1,30.22,30.23,30.22,30.22,0,0,1-30.22-30.23ZM951.23,883a8.94,8.94,0,1,1,6.33,2.63,9,9,0,0,1-6.33-2.63Zm-131.52-.68a9,9,0,1,1,6.33,2.62,9,9,0,0,1-6.33-2.62Z"/></g></g></svg>