<svg width="383" height="100" viewBox="0 0 383 100" fill="none" xmlns="http://www.w3.org/2000/svg">
<g clip-path="url(#clip0_12695_144162)">
<path d="M16.622 25.7768L0 74.2227H33.0609L16.622 25.7768ZM46.3299 25.7768L62.768 74.2227L79.3908 25.7768H46.3299ZM38.9195 25.96L22.0553 26.0209L39.1018 74.041H57.0021L38.9195 25.96Z" fill="black" stroke="white" stroke-width="0.0327752"/>
<path d="M151.338 22.2084V31.256H160.605V22.2084H151.338ZM225.925 22.2084V31.256H235.191V22.2084H225.925ZM119.782 22.4356V66.7006H128.918V22.4356H119.782ZM135.593 22.4356V66.7006H144.73V22.4356H135.593ZM281.295 22.4356V66.7006H290.432V22.4356H281.295ZM328.795 22.4356V66.7006H334.206C334.722 64.9706 335.296 63.5436 335.922 62.4188C337.302 65.7269 339.846 67.3807 343.555 67.3807C347.33 67.3807 350.197 65.8622 352.16 62.8245C354.122 59.7874 355.102 55.556 355.102 50.1289C355.102 44.4867 354.099 40.3039 352.096 37.5798C350.09 34.8562 347.579 33.4933 344.56 33.4933C341.8 33.4933 339.536 34.6725 337.77 37.0285V22.4356H328.795ZM209.4 33.266C206.073 33.266 203.303 34.2177 201.089 36.1203C198.874 38.0229 197.767 40.5521 197.767 43.7083C197.767 45.9567 198.469 47.9356 199.874 49.6432C201.278 51.3508 203.858 52.8102 207.616 54.0202C209.67 54.6686 211.053 55.274 211.766 55.8366C212.477 56.3992 212.834 57.2206 212.834 58.3011C212.834 60.3332 211.624 61.3498 209.206 61.3498C206.375 61.3498 204.658 59.7177 204.054 56.4527L196.797 57.6202C197.595 64.1277 201.677 67.3807 209.043 67.3807C212.953 67.3807 216 66.3548 218.18 64.3008C220.361 62.2469 221.453 59.7073 221.453 56.68C221.453 54.9281 221.054 53.3778 220.255 52.0269C219.454 50.6755 218.472 49.6645 217.306 48.9943C216.139 48.3251 214.304 47.5462 211.797 46.6602C209.573 45.8812 208.103 45.2114 207.392 44.6493C206.679 44.0872 206.322 43.2656 206.322 42.184C206.322 40.2814 207.272 39.3306 209.173 39.3306C211.505 39.3306 213.104 40.8119 213.97 43.7731L220.481 41.8279C218.904 36.1201 215.21 33.266 209.4 33.266ZM252.33 33.266C249.003 33.266 246.234 34.2177 244.019 36.1203C241.805 38.0229 240.699 40.5521 240.699 43.7083C240.699 45.9567 241.402 47.9356 242.805 49.6432C244.208 51.3508 246.788 52.8102 250.549 54.0202C252.601 54.6686 253.983 55.274 254.697 55.8366C255.408 56.3992 255.763 57.2206 255.763 58.3011C255.763 60.3332 254.554 61.3498 252.136 61.3498C249.307 61.3498 247.588 59.7177 246.983 56.4527L239.727 57.6202C240.526 64.1277 244.608 67.3807 251.974 67.3807C255.882 67.3807 258.929 66.3548 261.111 64.3008C263.292 62.2469 264.382 59.7073 264.382 56.68C264.382 54.9281 263.984 53.3778 263.185 52.0269C262.384 50.6755 261.402 49.6645 260.235 48.9943C259.069 48.3251 257.233 47.5462 254.728 46.6602C252.503 45.8812 251.033 45.2114 250.321 44.6493C249.607 44.0872 249.252 43.2656 249.252 42.184C249.252 40.2814 250.203 39.3306 252.102 39.3306C254.436 39.3306 256.033 40.8119 256.898 43.7731L263.409 41.8279C261.833 36.1201 258.139 33.266 252.33 33.266ZM310.456 33.266C306.826 33.266 303.819 34.153 301.431 35.925C299.046 37.6981 297.647 40.2276 297.237 43.5139L305.887 44.3565C306.124 41.0063 307.402 39.3306 309.726 39.3306C310.995 39.3306 311.848 39.7528 312.289 40.5956C312.73 41.4391 312.95 42.9522 312.95 45.135V46.3681C306.569 46.757 302.172 47.952 299.758 49.9513C297.342 51.9511 296.134 54.778 296.134 58.4308C296.134 61.3499 296.933 63.5711 298.527 65.0946C300.122 66.6187 302.193 67.3807 304.737 67.3807C308.704 67.3807 311.692 65.4796 313.696 61.6739C313.696 64.1386 313.846 65.814 314.151 66.7006H322.639C322.272 65.9216 322.087 63.5004 322.087 59.4358V46.3681C322.087 43.1031 321.845 40.6921 321.359 39.1353C320.873 37.579 319.701 36.2124 317.843 35.0336C315.986 33.8559 313.521 33.266 310.456 33.266ZM370.946 33.266C367.619 33.266 364.85 34.2177 362.635 36.1203C360.421 38.0229 359.316 40.5521 359.316 43.7083C359.316 45.9567 360.018 47.9356 361.422 49.6432C362.825 51.3508 365.405 52.8102 369.165 54.0202C371.217 54.6686 372.599 55.274 373.312 55.8366C374.024 56.3992 374.38 57.2206 374.38 58.3011C374.38 60.3332 373.17 61.3498 370.752 61.3498C367.924 61.3498 366.205 59.7177 365.6 56.4527L358.345 57.6202C359.144 64.1277 363.224 67.3807 370.591 67.3807C374.499 67.3807 377.546 66.3548 379.727 64.3008C381.909 62.2469 382.999 59.7073 382.999 56.68C382.999 54.9281 382.601 53.3778 381.802 52.0269C381 50.6755 380.018 49.6645 378.852 48.9943C377.685 48.3251 375.849 47.5462 373.344 46.6602C371.119 45.8812 369.649 45.2114 368.938 44.6493C368.225 44.0872 367.869 43.2656 367.869 42.184C367.869 40.2814 368.82 39.3306 370.719 39.3306C373.052 39.3306 374.651 40.8119 375.516 43.7731L382.027 41.8279C380.449 36.1201 376.756 33.266 370.946 33.266ZM101.427 33.2988C97.3056 33.2988 94.021 34.7962 91.5732 37.7902C89.1243 40.7848 87.9004 45.1239 87.9004 50.8099C87.9004 55.8474 89.054 59.8684 91.3621 62.8733C93.6713 65.8794 97.0465 67.3807 101.491 67.3807C108.697 67.3807 113.022 63.5758 114.468 55.9654L106.336 55.4477C105.992 59.1666 104.43 61.0249 101.654 61.0249C100.363 61.0249 99.3188 60.5304 98.5231 59.539C97.7268 58.5481 97.3287 56.5876 97.3287 53.6569V51.8477H114.468C114.468 44.7781 113.222 39.9199 110.73 37.2717C108.238 34.6235 105.138 33.2988 101.427 33.2988ZM183.108 33.5261C179.94 33.5261 177.461 35.2989 175.671 38.844V33.9478H167.247V77.791H176.222V64.268C177.861 66.1919 179.941 67.1535 182.464 67.1535C185.979 67.1535 188.705 65.6946 190.645 62.7765C192.586 59.8579 193.556 55.523 193.556 49.7721C193.556 44.2811 192.564 40.2016 190.58 37.531C188.597 34.8614 186.107 33.5261 183.108 33.5261ZM151.405 33.9478V66.7006H160.54V33.9478H151.405ZM225.988 33.9478V66.7006H235.128V33.9478H225.988ZM101.621 39.3306C104.461 39.3306 105.881 41.4389 105.881 45.6543C105.881 45.8707 105.871 46.1728 105.85 46.5617H97.3934C97.4147 41.7411 98.824 39.3306 101.621 39.3306ZM180.321 39.525C181.697 39.525 182.676 40.2371 183.256 41.6623C183.837 43.0869 184.129 45.8067 184.129 49.8217C184.129 54.6352 183.795 57.6677 183.129 58.9197C182.46 60.1722 181.438 60.7985 180.062 60.7985C178.514 60.7985 177.486 60.3295 176.981 59.3894C176.474 58.4515 176.222 56.4167 176.222 53.2872V47.1019C176.222 43.8429 176.621 41.7652 177.417 40.8693C178.213 39.9734 179.18 39.525 180.321 39.525ZM341.739 39.557C343.245 39.557 344.276 40.4213 344.836 42.148C345.395 43.8747 345.674 46.606 345.674 50.3402C345.674 54.2038 345.383 56.9515 344.802 58.5804C344.221 60.2099 343.146 61.0249 341.577 61.0249C340.157 61.0249 339.166 60.453 338.609 59.3086C338.049 58.1647 337.77 56.0931 337.77 53.092V45.5479C337.77 41.5554 339.093 39.557 341.739 39.557ZM312.95 51.0691V52.6863C312.95 56.0048 312.503 58.2838 311.606 59.5238C310.71 60.7622 309.712 61.3818 308.608 61.3818C306.578 61.3818 305.564 60.0032 305.564 57.2441C305.564 55.1754 306.131 53.7043 307.265 52.8319C308.399 51.959 310.295 51.3718 312.95 51.0691Z" fill="black" stroke="white" stroke-width="0.0327752"/>
</g>
<defs>
<clipPath id="clip0_12695_144162">
<rect width="383" height="100" fill="white"/>
</clipPath>
</defs>
</svg>
