<svg width="366" height="66" viewBox="0 0 366 66" fill="none" xmlns="http://www.w3.org/2000/svg">
<path d="M85.3168 65.5L107.565 0.5H63.0684L85.3168 65.5Z" fill="white"/>
<path d="M77.4644 65.5L52.8168 0.5H29.4778L52.8168 65.5H77.4644Z" fill="white"/>
<path d="M45.1825 65.5L22.9342 0.5L0.467773 65.5H45.1825Z" fill="white"/>
<path d="M130.435 48V18.9091H149.355V23.3267H135.705V31.2244H148.375V35.642H135.705V43.5824H149.469V48H130.435ZM159.646 18.9091V48H154.504V18.9091H159.646ZM170.076 18.9091V48H164.934V18.9091H170.076ZM175.364 48V26.1818H180.506V48H175.364ZM177.949 23.0852C177.135 23.0852 176.434 22.8153 175.847 22.2756C175.26 21.7263 174.966 21.0682 174.966 20.3011C174.966 19.5246 175.26 18.8665 175.847 18.3267C176.434 17.7775 177.135 17.5028 177.949 17.5028C178.773 17.5028 179.474 17.7775 180.051 18.3267C180.638 18.8665 180.932 19.5246 180.932 20.3011C180.932 21.0682 180.638 21.7263 180.051 22.2756C179.474 22.8153 178.773 23.0852 177.949 23.0852ZM185.793 56.1818V26.1818H190.85V29.7898H191.149C191.414 29.2595 191.788 28.696 192.271 28.0994C192.754 27.4934 193.407 26.9773 194.231 26.5511C195.055 26.1155 196.106 25.8977 197.384 25.8977C199.07 25.8977 200.59 26.3286 201.944 27.1903C203.308 28.0426 204.387 29.3068 205.183 30.983C205.988 32.6496 206.39 34.6951 206.39 37.1193C206.39 39.5152 205.997 41.5511 205.211 43.2273C204.425 44.9034 203.355 46.1818 202.001 47.0625C200.647 47.9432 199.113 48.3835 197.399 48.3835C196.149 48.3835 195.112 48.1752 194.288 47.7585C193.464 47.3419 192.801 46.84 192.299 46.2528C191.807 45.6562 191.423 45.0928 191.149 44.5625H190.935V56.1818H185.793ZM190.836 37.0909C190.836 38.5019 191.035 39.7377 191.433 40.7983C191.84 41.8589 192.422 42.6875 193.18 43.2841C193.947 43.8712 194.875 44.1648 195.964 44.1648C197.1 44.1648 198.052 43.8617 198.819 43.2557C199.586 42.6402 200.164 41.8021 200.552 40.7415C200.95 39.6714 201.149 38.4545 201.149 37.0909C201.149 35.7367 200.954 34.5341 200.566 33.483C200.178 32.4318 199.6 31.608 198.833 31.0114C198.066 30.4148 197.11 30.1165 195.964 30.1165C194.865 30.1165 193.933 30.4053 193.166 30.983C192.399 31.5606 191.816 32.3703 191.418 33.4119C191.03 34.4536 190.836 35.6799 190.836 37.0909ZM228.038 31.9489L223.35 32.4602C223.218 31.9867 222.986 31.5417 222.654 31.125C222.332 30.7083 221.897 30.3722 221.347 30.1165C220.798 29.8608 220.126 29.733 219.33 29.733C218.26 29.733 217.361 29.965 216.631 30.429C215.912 30.893 215.557 31.4943 215.566 32.233C215.557 32.8674 215.789 33.3835 216.262 33.7812C216.745 34.179 217.541 34.5057 218.649 34.7614L222.37 35.5568C224.435 36.0019 225.969 36.7074 226.972 37.6733C227.986 38.6392 228.497 39.9034 228.506 41.4659C228.497 42.839 228.095 44.0511 227.299 45.1023C226.513 46.1439 225.419 46.9583 224.018 47.5455C222.616 48.1326 221.006 48.4261 219.188 48.4261C216.518 48.4261 214.368 47.8674 212.739 46.75C211.111 45.6231 210.14 44.0559 209.828 42.0483L214.842 41.5653C215.069 42.5502 215.552 43.2936 216.291 43.7955C217.029 44.2973 217.99 44.5483 219.174 44.5483C220.396 44.5483 221.376 44.2973 222.114 43.7955C222.863 43.2936 223.237 42.6733 223.237 41.9347C223.237 41.3097 222.995 40.7936 222.512 40.3864C222.039 39.9792 221.3 39.6667 220.296 39.4489L216.575 38.6676C214.482 38.232 212.934 37.4981 211.93 36.4659C210.926 35.4242 210.429 34.108 210.438 32.517C210.429 31.1723 210.793 30.0076 211.532 29.0227C212.28 28.0284 213.317 27.2614 214.643 26.7216C215.978 26.1723 217.517 25.8977 219.259 25.8977C221.816 25.8977 223.828 26.4422 225.296 27.5312C226.774 28.6203 227.687 30.0928 228.038 31.9489ZM232.747 48V26.1818H237.889V48H232.747ZM235.332 23.0852C234.517 23.0852 233.817 22.8153 233.229 22.2756C232.642 21.7263 232.349 21.0682 232.349 20.3011C232.349 19.5246 232.642 18.8665 233.229 18.3267C233.817 17.7775 234.517 17.5028 235.332 17.5028C236.156 17.5028 236.856 17.7775 237.434 18.3267C238.021 18.8665 238.315 19.5246 238.315 20.3011C238.315 21.0682 238.021 21.7263 237.434 22.2756C236.856 22.8153 236.156 23.0852 235.332 23.0852ZM260.421 31.9489L255.733 32.4602C255.6 31.9867 255.368 31.5417 255.037 31.125C254.715 30.7083 254.279 30.3722 253.73 30.1165C253.181 29.8608 252.509 29.733 251.713 29.733C250.643 29.733 249.743 29.965 249.014 30.429C248.295 30.893 247.939 31.4943 247.949 32.233C247.939 32.8674 248.171 33.3835 248.645 33.7812C249.128 34.179 249.923 34.5057 251.031 34.7614L254.753 35.5568C256.817 36.0019 258.351 36.7074 259.355 37.6733C260.368 38.6392 260.88 39.9034 260.889 41.4659C260.88 42.839 260.477 44.0511 259.682 45.1023C258.896 46.1439 257.802 46.9583 256.401 47.5455C254.999 48.1326 253.389 48.4261 251.571 48.4261C248.901 48.4261 246.751 47.8674 245.122 46.75C243.493 45.6231 242.523 44.0559 242.21 42.0483L247.225 41.5653C247.452 42.5502 247.935 43.2936 248.673 43.7955C249.412 44.2973 250.373 44.5483 251.557 44.5483C252.778 44.5483 253.759 44.2973 254.497 43.7955C255.245 43.2936 255.619 42.6733 255.619 41.9347C255.619 41.3097 255.378 40.7936 254.895 40.3864C254.421 39.9792 253.683 39.6667 252.679 39.4489L248.957 38.6676C246.865 38.232 245.316 37.4981 244.313 36.4659C243.309 35.4242 242.812 34.108 242.821 32.517C242.812 31.1723 243.176 30.0076 243.915 29.0227C244.663 28.0284 245.7 27.2614 247.026 26.7216C248.361 26.1723 249.9 25.8977 251.642 25.8977C254.199 25.8977 256.211 26.4422 257.679 27.5312C259.156 28.6203 260.07 30.0928 260.421 31.9489ZM275.278 48V18.9091H280.548V43.5824H293.361V48H275.278ZM303.986 48.4403C302.603 48.4403 301.358 48.1941 300.25 47.7017C299.152 47.1998 298.28 46.4612 297.636 45.4858C297.002 44.5104 296.685 43.3078 296.685 41.8778C296.685 40.6468 296.912 39.6288 297.367 38.8239C297.821 38.0189 298.441 37.375 299.227 36.892C300.013 36.4091 300.899 36.0445 301.884 35.7983C302.878 35.5426 303.905 35.358 304.966 35.2443C306.244 35.1117 307.281 34.9934 308.077 34.8892C308.872 34.7756 309.45 34.6051 309.81 34.3778C310.179 34.1411 310.364 33.7765 310.364 33.2841V33.1989C310.364 32.1288 310.046 31.3002 309.412 30.7131C308.778 30.1259 307.864 29.8324 306.671 29.8324C305.411 29.8324 304.412 30.107 303.673 30.6562C302.944 31.2055 302.452 31.8542 302.196 32.6023L297.395 31.9205C297.774 30.5947 298.399 29.4867 299.27 28.5966C300.141 27.697 301.207 27.0246 302.466 26.5795C303.725 26.125 305.118 25.8977 306.642 25.8977C307.693 25.8977 308.74 26.0208 309.781 26.267C310.823 26.5133 311.775 26.9205 312.636 27.4886C313.498 28.0473 314.189 28.8097 314.71 29.7756C315.241 30.7415 315.506 31.9489 315.506 33.3977V48H310.563V45.0028H310.392C310.08 45.6089 309.639 46.1771 309.071 46.7074C308.512 47.2282 307.807 47.6496 306.955 47.9716C306.112 48.2841 305.122 48.4403 303.986 48.4403ZM305.321 44.6619C306.353 44.6619 307.248 44.4583 308.006 44.0511C308.763 43.6345 309.346 43.0852 309.753 42.4034C310.17 41.7216 310.378 40.9782 310.378 40.1733V37.6023C310.217 37.7348 309.942 37.858 309.554 37.9716C309.175 38.0852 308.749 38.1847 308.276 38.2699C307.802 38.3551 307.333 38.4309 306.869 38.4972C306.405 38.5634 306.003 38.6203 305.662 38.6676C304.895 38.7718 304.208 38.9422 303.602 39.179C302.996 39.4157 302.518 39.7472 302.168 40.1733C301.817 40.59 301.642 41.1297 301.642 41.7926C301.642 42.7396 301.988 43.4545 302.679 43.9375C303.37 44.4205 304.251 44.6619 305.321 44.6619ZM320.903 48V18.9091H326.046V29.7898H326.259C326.524 29.2595 326.898 28.696 327.381 28.0994C327.864 27.4934 328.517 26.9773 329.341 26.5511C330.165 26.1155 331.216 25.8977 332.494 25.8977C334.18 25.8977 335.7 26.3286 337.054 27.1903C338.418 28.0426 339.497 29.3068 340.293 30.983C341.098 32.6496 341.5 34.6951 341.5 37.1193C341.5 39.5152 341.107 41.5511 340.321 43.2273C339.535 44.9034 338.465 46.1818 337.111 47.0625C335.757 47.9432 334.223 48.3835 332.509 48.3835C331.259 48.3835 330.222 48.1752 329.398 47.7585C328.574 47.3419 327.911 46.84 327.409 46.2528C326.917 45.6562 326.533 45.0928 326.259 44.5625H325.96V48H320.903ZM325.946 37.0909C325.946 38.5019 326.145 39.7377 326.543 40.7983C326.95 41.8589 327.532 42.6875 328.29 43.2841C329.057 43.8712 329.985 44.1648 331.074 44.1648C332.21 44.1648 333.162 43.8617 333.929 43.2557C334.696 42.6402 335.274 41.8021 335.662 40.7415C336.06 39.6714 336.259 38.4545 336.259 37.0909C336.259 35.7367 336.064 34.5341 335.676 33.483C335.288 32.4318 334.71 31.608 333.943 31.0114C333.176 30.4148 332.22 30.1165 331.074 30.1165C329.975 30.1165 329.043 30.4053 328.276 30.983C327.509 31.5606 326.926 32.3703 326.528 33.4119C326.14 34.4536 325.946 35.6799 325.946 37.0909ZM363.116 31.9489L358.428 32.4602C358.296 31.9867 358.064 31.5417 357.732 31.125C357.41 30.7083 356.975 30.3722 356.426 30.1165C355.876 29.8608 355.204 29.733 354.408 29.733C353.338 29.733 352.439 29.965 351.71 30.429C350.99 30.893 350.635 31.4943 350.644 32.233C350.635 32.8674 350.867 33.3835 351.34 33.7812C351.823 34.179 352.619 34.5057 353.727 34.7614L357.448 35.5568C359.513 36.0019 361.047 36.7074 362.051 37.6733C363.064 38.6392 363.575 39.9034 363.585 41.4659C363.575 42.839 363.173 44.0511 362.377 45.1023C361.591 46.1439 360.497 46.9583 359.096 47.5455C357.694 48.1326 356.085 48.4261 354.266 48.4261C351.596 48.4261 349.446 47.8674 347.818 46.75C346.189 45.6231 345.218 44.0559 344.906 42.0483L349.92 41.5653C350.147 42.5502 350.63 43.2936 351.369 43.7955C352.107 44.2973 353.069 44.5483 354.252 44.5483C355.474 44.5483 356.454 44.2973 357.193 43.7955C357.941 43.2936 358.315 42.6733 358.315 41.9347C358.315 41.3097 358.073 40.7936 357.59 40.3864C357.117 39.9792 356.378 39.6667 355.374 39.4489L351.653 38.6676C349.56 38.232 348.012 37.4981 347.008 36.4659C346.004 35.4242 345.507 34.108 345.516 32.517C345.507 31.1723 345.872 30.0076 346.61 29.0227C347.358 28.0284 348.395 27.2614 349.721 26.7216C351.056 26.1723 352.595 25.8977 354.337 25.8977C356.894 25.8977 358.907 26.4422 360.374 27.5312C361.852 28.6203 362.765 30.0928 363.116 31.9489Z" fill="white"/>
</svg>
