<svg width="490" height="490" viewBox="0 0 490 490" fill="none" xmlns="http://www.w3.org/2000/svg">
<path d="M293.674 157.187C304.332 146.532 321.683 146.532 332.341 157.187C342.999 167.843 342.999 185.191 332.341 195.847C326.167 202.02 317.719 204.813 309.141 203.579C308.751 203.514 308.296 203.514 307.906 203.579C305.372 203.254 302.707 203.579 300.173 204.748C296.599 206.373 294.064 209.362 292.83 212.805C291.595 216.184 291.66 220.017 293.284 223.461C302.447 243.278 298.223 266.994 282.757 282.458C267.29 297.922 243.57 302.145 223.75 292.984C220.175 291.359 216.341 291.294 212.897 292.594C209.518 293.828 206.658 296.362 205.034 299.871C203.994 302.145 203.604 304.484 203.734 306.823C203.669 307.278 203.669 307.733 203.734 308.187C205.164 316.894 202.304 325.796 196.066 332.033C185.408 342.689 168.057 342.689 157.399 332.033C152.2 326.835 149.406 320.013 149.406 312.671C149.406 305.394 152.265 298.506 157.399 293.308C163.573 287.136 172.021 284.342 180.599 285.576C180.729 285.576 180.859 285.576 181.054 285.576C181.964 285.771 182.874 285.901 183.848 285.901C185.863 285.901 187.877 285.511 189.762 284.602C193.271 282.977 195.741 280.119 197.04 276.805C198.34 273.361 198.34 269.463 196.651 265.889C187.488 246.072 191.712 222.356 207.178 206.893C222.645 191.429 246.365 187.205 266.185 196.367C269.695 197.991 273.594 198.056 276.973 196.822C280.352 195.587 283.277 193.053 284.901 189.544C286.136 186.816 286.461 183.892 286.006 181.098V181.033C284.576 172.326 287.436 163.425 293.674 157.187ZM266.64 266.344C278.468 254.519 278.468 235.351 266.64 223.526C254.813 211.701 235.642 211.701 223.815 223.526C211.987 235.351 211.987 254.519 223.815 266.344C235.642 278.169 254.813 278.169 266.64 266.344ZM245 62C346.053 62 428 143.933 428 244.968C428 346.003 346.118 428 245 428C143.882 428 62 346.067 62 244.968C62 143.868 143.947 62 245 62ZM342.544 206.048C358.725 189.869 358.725 163.685 342.544 147.506C326.362 131.328 300.173 131.328 283.991 147.506C278.013 153.484 274.244 160.891 272.684 168.623C243.375 157.577 209.713 164.594 187.293 187.01C164.873 209.427 157.854 243.083 168.967 272.452C161.168 274.011 153.76 277.78 147.716 283.822C131.535 300.001 131.535 326.185 147.716 342.364C163.898 358.543 190.087 358.543 206.268 342.364C212.312 336.321 216.146 328.784 217.641 320.987C226.739 324.366 236.227 326.055 245.65 326.055C266.64 326.055 287.371 317.934 302.772 302.535C325.062 280.249 332.146 246.787 321.293 217.483C329.027 215.859 336.5 212.091 342.544 206.048Z" fill="#474DFF"/>
</svg>
