<svg width="338" height="118" viewBox="0 0 338 118" fill="none" xmlns="http://www.w3.org/2000/svg">
<g clip-path="url(#clip0_1659_10951)">
<path d="M110.818 39.9658H105.265V77.3416H110.818V39.9658Z" fill="white"/>
<path d="M142.801 63.3527V77.3419H137.248V63.4595C137.248 61.9463 136.932 60.572 136.3 59.3354C135.669 58.0977 134.805 57.1099 133.71 56.372C132.615 55.6331 131.375 55.2636 129.986 55.2636C128.598 55.2636 127.383 55.6331 126.342 56.372C125.301 57.1099 124.491 58.0977 123.912 59.3354C123.335 60.572 123.045 61.9463 123.045 63.4595V77.3419H117.492V50.645H123.045V54.2491C123.971 52.8961 125.092 51.8335 126.409 51.0593C127.726 50.2851 129.212 49.8975 130.867 49.8975C133.27 49.8975 135.357 50.5115 137.127 51.7396C138.899 52.9676 140.283 54.5961 141.279 56.6251C142.276 58.6541 142.783 60.8966 142.801 63.3527Z" fill="white"/>
<path d="M162.956 77.3412H155.828L146.084 50.5908H152.011L159.379 70.9339L166.774 50.5908H172.674L162.956 77.3412Z" fill="white"/>
<path d="M196.488 50.645H202.041V77.3419H196.462L196.248 73.4709C195.465 74.841 194.41 75.9452 193.084 76.7813C191.759 77.6174 190.188 78.036 188.372 78.036C186.397 78.036 184.55 77.6666 182.832 76.9287C181.115 76.1897 179.602 75.1613 178.294 73.8446C176.986 72.5279 175.963 71.0105 175.224 69.2934C174.486 67.5751 174.116 65.7288 174.116 63.7532C174.116 61.8492 174.472 60.0562 175.184 58.3743C175.896 56.6924 176.884 55.2187 178.147 53.9554C179.411 52.6921 180.875 51.7 182.539 50.9792C184.203 50.2584 185.988 49.8975 187.892 49.8975C189.832 49.8975 191.545 50.3385 193.03 51.2195C194.517 52.1005 195.741 53.2261 196.702 54.5961L196.488 50.645ZM188.506 72.67C190.108 72.67 191.492 72.2695 192.657 71.4686C193.823 70.6677 194.704 69.5913 195.3 68.2383C195.897 66.8853 196.15 65.3902 196.061 63.7532C195.954 62.1866 195.54 60.7631 194.819 59.4817C194.098 58.2002 193.143 57.1815 191.95 56.4254C190.757 55.6683 189.405 55.2903 187.892 55.2903C186.308 55.2903 184.879 55.6907 183.606 56.4916C182.335 57.2925 181.351 58.3689 180.657 59.7219C179.963 61.0749 179.661 62.5785 179.749 64.2337C179.856 65.7822 180.323 67.1971 181.15 68.4786C181.978 69.76 183.037 70.7787 184.327 71.5359C185.618 72.2919 187.011 72.67 188.506 72.67Z" fill="white"/>
<path d="M224.226 56.2243C223.764 55.9392 223.261 55.7128 222.717 55.5441C222.175 55.3743 221.583 55.2899 220.942 55.2899C219.554 55.2899 218.344 55.6551 217.312 56.3845C216.279 57.1138 215.474 58.1016 214.895 59.3478C214.317 60.594 214.028 61.9727 214.028 63.4859V77.3416H208.448V50.6446H214.001V54.2487C214.927 52.9139 216.053 51.8599 217.378 51.0857C218.704 50.3114 220.186 49.9238 221.823 49.9238C222.429 49.9238 223.002 49.9505 223.545 50.0039C224.088 50.0573 224.608 50.1641 225.107 50.3243L224.226 56.2243Z" fill="white"/>
<path d="M234.664 50.6445H229.111V77.3415H234.664V50.6445Z" fill="white"/>
<path d="M264.139 50.645H269.692V77.3419H264.112L263.898 73.4709C263.116 74.841 262.061 75.9452 260.734 76.7813C259.409 77.6174 257.838 78.036 256.023 78.036C254.047 78.036 252.201 77.6666 250.483 76.9287C248.765 76.1897 247.252 75.1613 245.944 73.8446C244.636 72.5279 243.613 71.0105 242.874 69.2934C242.136 67.5751 241.767 65.7288 241.767 63.7532C241.767 61.8492 242.122 60.0562 242.834 58.3743C243.547 56.6924 244.535 55.2187 245.798 53.9554C247.061 52.6921 248.525 51.7 250.189 50.9792C251.854 50.2584 253.638 49.8975 255.542 49.8975C257.483 49.8975 259.195 50.3385 260.681 51.2195C262.167 52.1005 263.391 53.2261 264.352 54.5961L264.139 50.645ZM256.156 72.67C257.758 72.67 259.142 72.2695 260.307 71.4686C261.473 70.6677 262.354 69.5913 262.95 68.2383C263.547 66.8853 263.8 65.3902 263.711 63.7532C263.605 62.1866 263.19 60.7631 262.47 59.4817C261.749 58.2002 260.793 57.1815 259.6 56.4254C258.407 55.6683 257.055 55.2903 255.542 55.2903C253.959 55.2903 252.53 55.6907 251.257 56.4916C249.985 57.2925 249.001 58.3689 248.307 59.7219C247.613 61.0749 247.311 62.5785 247.4 64.2337C247.506 65.7822 247.973 67.1971 248.801 68.4786C249.628 69.76 250.688 70.7787 251.978 71.5359C253.269 72.2919 254.661 72.67 256.156 72.67Z" fill="white"/>
<path d="M300.873 63.3527V77.3419H295.32V63.4595C295.32 61.9463 295.004 60.572 294.372 59.3354C293.741 58.0977 292.877 57.1099 291.782 56.372C290.688 55.6331 289.447 55.2636 288.059 55.2636C286.67 55.2636 285.455 55.6331 284.414 56.372C283.373 57.1099 282.563 58.0977 281.985 59.3354C281.407 60.572 281.117 61.9463 281.117 63.4595V77.3419H275.564V50.645H281.117V54.2491C282.043 52.8961 283.165 51.8335 284.481 51.0593C285.798 50.2851 287.284 49.8975 288.94 49.8975C291.342 49.8975 293.429 50.5115 295.2 51.7396C296.971 52.9676 298.355 54.5961 299.351 56.6251C300.348 58.6541 300.855 60.8966 300.873 63.3527Z" fill="white"/>
<path d="M320.844 56.1985H315.237L315.211 77.3425H309.658L309.684 56.1985H305.439V50.6455H309.684L309.658 42.2627H315.211L315.237 50.6455H320.844V56.1985Z" fill="white"/>
<path fill-rule="evenodd" clip-rule="evenodd" d="M34.5273 62.0078H60.7831L47.6524 81.801L34.5273 62.0078Z" fill="#2EE09A"/>
<path fill-rule="evenodd" clip-rule="evenodd" d="M53.2364 55.7352L40.2757 36.1992H17.4092L30.3701 55.7352H53.2364Z" fill="#2EE09A"/>
<path fill-rule="evenodd" clip-rule="evenodd" d="M53.2363 36.1992L49.3037 42.1278L58.3261 55.7352H64.9465L77.9015 36.1992H53.2363Z" fill="url(#paint0_linear_1659_10951)"/>
</g>
<defs>
<linearGradient id="paint0_linear_1659_10951" x1="68.4841" y1="36.1992" x2="53.2348" y2="52.6323" gradientUnits="userSpaceOnUse">
<stop stop-color="#EF84F5"/>
<stop offset="1" stop-color="#EF84F5" stop-opacity="0"/>
</linearGradient>
<clipPath id="clip0_1659_10951">
<rect width="337.143" height="118" fill="white" transform="translate(0.556641)"/>
</clipPath>
</defs>
</svg>
