<svg xmlns="http://www.w3.org/2000/svg" xmlns:xlink="http://www.w3.org/1999/xlink" viewBox="0 0 481.8 614.95" width="481.8"  height="614.95" ><defs><linearGradient id="linear-gradient" x1="241.99" y1="610.01" x2="241.99" y2="128.65" gradientUnits="userSpaceOnUse"><stop offset=".7" stop-color="#cfe4f3"/><stop offset="1" stop-color="#6bc3f9"/></linearGradient><linearGradient id="linear-gradient-2" x1="239.97" y1="602.54" x2="239.97" y2="-7.47" gradientUnits="userSpaceOnUse"><stop offset="0" stop-color="#b18cf9"/><stop offset="1" stop-color="#4f3dd5"/></linearGradient><linearGradient id="linear-gradient-3" x1="242.06" y1="609.76" x2="242.06" y2="126.99" gradientUnits="userSpaceOnUse"><stop offset="0" stop-color="#b1d6f9"/><stop offset="1" stop-color="#9193ee"/></linearGradient><linearGradient id="linear-gradient-4" x1="241.99" y1="610.01" x2="241.99" y2="128.65" gradientUnits="userSpaceOnUse"><stop offset="0" stop-color="#cfe4f3"/><stop offset="1" stop-color="#6bc3f9"/></linearGradient><linearGradient id="linear-gradient-5" x1="151.73" y1="614.95" x2="151.73" y2="129.58" xlink:href="#linear-gradient-3"/><linearGradient id="linear-gradient-6" x1="241.99" y1="610.01" x2="241.99" y2="141.43" xlink:href="#linear-gradient-3"/><linearGradient id="linear-gradient-7" x1="-27.05" y1="575.29" x2="513.32" y2="34.91" gradientUnits="userSpaceOnUse"><stop offset="0" stop-color="#a684f8"/><stop offset=".5" stop-color="#8272fa"/><stop offset="1" stop-color="#90aefb"/></linearGradient><clipPath id="clip-path" transform="translate(6.62 7.47)"><path d="M120.62 246.48L191.48 80c2-4.14 4.24-6.6 9.07-9.85L313.23.78a5.31 5.31 0 017.65 6.57l-28.61 73.76 61 136.56 21-54.66a24.62 24.62 0 018.55-10.45l42.4-25.85a5.31 5.31 0 017.76 6l-9 59.2 45.8 267.61A40.55 40.55 0 01447 503.2l-195.64 91.3a40.54 40.54 0 01-34.43-.07L23.25 503.1A40.53 40.53 0 01.53 459.94L36.94 177a20.5 20.5 0 019.37-12.58L105.66 129a5.31 5.31 0 017.68 6.45l-13.58 58.12z" fill="none"/></clipPath><style>.cls-12{fill:#fff;opacity:.3}</style></defs><g style="isolation:isolate"><g id="Layer_2" data-name="Layer 2"><g clip-path="url(#clip-path)" id="Layer_1-2" data-name="Layer 1"><path fill="url(#linear-gradient)" d="M125.42 128.65l-19.04 72.39 22.9 57.83 352.45 238.68-240.98 112.46L2.25 497.55l41.8-320.24 81.37-48.66z"/><path d="M292.27 81.11L327-7.47 199 69.42a27.17 27.17 0 00-9.25 11.88L123 240.73 4.84 499.82l229.29 102.72 241-112.46z" transform="translate(6.62 7.47)" fill="url(#linear-gradient-2)"/><path fill="url(#linear-gradient-3)" d="M383.75 163.79l-80.83 212.69L2.32 497.3l238.5 112.46L481.8 497.3l-51.11-298.17 11.63-72.14-58.57 36.8z"/><path style="mix-blend-mode:multiply" fill="url(#linear-gradient-4)" d="M125.42 128.65l-19.04 72.39 20.86 52.9 354.49 243.61-240.98 112.46L2.25 497.55l41.31-321.86 81.86-47.04z"/><path fill="url(#linear-gradient-5)" d="M303.46 375.07L0 498.26l238.51 116.69 2.24-4.94 62.71-234.94z"/><path style="mix-blend-mode:screen" opacity=".7" fill="url(#linear-gradient-6)" d="M2.25 497.55l238.5 112.46 240.98-112.46-178.27-122.48L2.25 497.55z"/><path style="mix-blend-mode:hue" fill="url(#linear-gradient-7)" d="M4.34 7.45H478v599.23H4.34z"/><path d="M248.45 591.77a35.79 35.79 0 01-29.66 0L5.55 491.57a40.5 40.5 0 0017.7 16.27l193.68 91.32a40.54 40.54 0 0034.43.07L447 507.93a40.44 40.44 0 0017.44-15.62z" transform="translate(6.62 7.47)" fill="#311b98" opacity=".2"/><path class="cls-12" d="M385.44 153.73L431.07 126a5.27 5.27 0 00-7.43-2.39l-42.4 25.85a24.77 24.77 0 00-8.55 10.45l-18.59 56.5L376 165c2.54-5.55 4.56-8.28 9.44-11.27zM203.11 71.34L320.59-.8c.12-3.92-6.73-5-10.51-2.75L191.92 69.32a5.25 5.25 0 00-1.67 2L121.9 242.83l70-158.09c2.93-6.9 5.47-9.9 11.21-13.4zM47.39 167.14l62.74-39.26a5.25 5.25 0 00-7.43-2.2l-59.34 35.41A20.55 20.55 0 0034 173.67L.87 457.29l38.05-277.54a17.43 17.43 0 018.47-12.61z" transform="translate(6.62 7.47)"/></g></g></g></svg>