<svg xmlns="http://www.w3.org/2000/svg" width="2518.71" height="412.64" viewBox="0 0 2518.71 412.64">
  <g id="Layer_2" data-name="Layer 2">
    <g id="Layer_1-2" data-name="Layer 1">
      <g>
        <path d="M1580.84,154.63v-.08q7.9,7.57,24.41,7.57t26.51-9a31.32,31.32,0,0,0,10-24.43,23.48,23.48,0,0,0-8.83-19.6,36.43,36.43,0,0,0-23.07-6.94,39.17,39.17,0,0,0-26.35,9,28.47,28.47,0,0,0-10.67,22.51,27.23,27.23,0,0,0,8,21Z" fill="#242731"/>
        <path d="M2515.36,299.26a10.18,10.18,0,0,0-9.05-5.08,15.6,15.6,0,0,0-11.91,6.12,149.52,149.52,0,0,1-43.91,36.41q-25.36,13.91-45.23,13.9-30.87,0-41.89-20.29,52.05-12.82,73.9-34.64a71.37,71.37,0,0,0,21.85-52.3q0-25.95-15.45-41.25t-41-15.3a89.44,89.44,0,0,0-51.41,15.46,104.66,104.66,0,0,0-35.49,41.7,131.81,131.81,0,0,0-11.49,75.47q-7.84,8.28-16.24,16c-8.23,7-16.31,10.59-24.26,10.59q-9.37.06-15.3-11.05t-7.75-36.72a857.39,857.39,0,0,0,64.88-135.9c16.17-44.12,19.78-60.23,19.78-93.16q0-34.83-12.58-52T2281.22,0q-38.46.09-62.09,60.68c-15.74,40.39-21.92,66.74-27.49,123.86a120,120,0,0,0-58.91,22.73,133.77,133.77,0,0,0-41.25,49.42,145.2,145.2,0,0,0-15,63.34q-7.2,7.75-14.82,15.09-11.91,10.83-20.29,10.84a10.75,10.75,0,0,1-8.6-4,16.1,16.1,0,0,1-3.3-10.59q0-19.89,10.13-70.6,6.63-34.94,6.64-44.12,0-15.3-21.64-15.3a104.34,104.34,0,0,0-19.4,1.77,31.37,31.37,0,0,0-5.54-13.46c-2.2-2.51-6.55-3.77-13-3.77a98.15,98.15,0,0,0-57.59,19.22,139.5,139.5,0,0,0-43.46,50.74,143.26,143.26,0,0,0-16.27,63.63q-7.5,8-15.49,15.56-12.12,10.83-20.93,10.83-12.81,0-12.82-17.65,0-12.36,8.38-50.74,9.73-45,9.73-62.21,0-28.71-28.7-28.7-14.54,0-32,10.16t-35.53,34a251,251,0,0,0-32.65,61.79,326.12,326.12,0,0,1,4.41-32.65q2.65-13.26,7.07-30.88,6.6-24.72,6.61-31.8a9.2,9.2,0,0,0-3.52-8.38,25.27,25.27,0,0,0-12.24-2.2c-10.87,0-19.25,2.14-25.37,6.12a33.13,33.13,0,0,0-13,18.76A358.67,358.67,0,0,0,1657,312.55q-10.18,11.56-21.23,22.33-11.87,11-19.83,11a12.25,12.25,0,0,1-11.93-7.06,46.41,46.41,0,0,1-3.52-20.29q0-17.2,10.59-65.76,8.39-40.16,8.38-51.17,0-15-22.49-15c-9.73,0-16.68,1.74-21.18,5.29s-8,10-10.62,19.43a477.61,477.61,0,0,0-13,58.14,327.48,327.48,0,0,0-5.08,50.95q0,33.54,13,53.83t41.81,20.26q27.8,0,58.68-28.69a73.27,73.27,0,0,0,3.19,11.09q6.86,17.65,23.56,17.57c9.12,0,15.82-2.45,20.07-7.28s8-14.2,11.26-28A301.08,301.08,0,0,1,1736.15,308,235.71,235.71,0,0,1,1757.32,269q10.38-14.77,16.1-14.78c3.24,0,4.86,2.36,4.86,7q0,10.59-5.75,38.41-6.12,31.88-6.12,44.12,0,24.66,11.48,37.7t34,13a85.76,85.76,0,0,0,49.67-15,195.25,195.25,0,0,0,17.74-14,65.15,65.15,0,0,0,6.34,9.3,53.8,53.8,0,0,0,43.58,19.92q34.85,0,57.8-37.06a60.32,60.32,0,0,0,18.36,27.12,41.11,41.11,0,0,0,26.69,9.94q19,0,39.29-15.45,8.35-6.45,16-13.68a66.21,66.21,0,0,0,6.54,9,56.21,56.21,0,0,0,44.34,20.07,64.23,64.23,0,0,0,32.44-8q13.89-7.92,32.44-31.33,17.49,39.29,51.16,39.29,21.21,0,42.84-15.67A212.45,212.45,0,0,0,2320,359.63a80.81,80.81,0,0,0,8.56,9.89q25.61,25.16,71.91,25.15a127.76,127.76,0,0,0,63.74-16.77q29.77-16.83,46.11-36.72,8.38-9.71,8.39-27.36A27.48,27.48,0,0,0,2515.36,299.26ZM2249.78,133c2.89-26.27,3.19-34.37,9.84-59.95h0q8.41-29.78,16.8-29.68c2.66,0,4.93,3.06,6.85,9.18,2.19,8.49,3.85,17.3,2.88,26-5.16,46.15-12,78.78-44.94,150.57C2242.83,194.11,2245.7,165.06,2249.78,133ZM1976.52,308.1a74.15,74.15,0,0,1-12.82,30.42l-.1.15c-5.87,7.53-12,11.32-18.26,11.32a18.72,18.72,0,0,1-15.3-6.61q-5.52-6.6-5.51-20.28a119.59,119.59,0,0,1,9.18-46.79,93.28,93.28,0,0,1,24.94-35.5,53.47,53.47,0,0,1,34.18-13.92Zm194.07,35.07h0a26.59,26.59,0,0,1-16.74,6.82q-22.07,0-22.07-32.19a100,100,0,0,1,16.1-55.38Q2164,237.51,2188.21,230q-.86,23.81-.85,34.42a295,295,0,0,0,4.4,53.4A129.67,129.67,0,0,1,2170.59,343.17Zm197-94.22q11.24-19,27.57-18.88a16.29,16.29,0,0,1,12.58,5.08,19.2,19.2,0,0,1,4.62,13.46q0,16.26-15,28.68t-41,18.54v-1A88.83,88.83,0,0,1,2367.56,249Z" fill="#242731"/>
        <path d="M1551.37,220.74c-1.84-17.75-17.65-28.91-33.49-28.8-24.87.19-38.22,12.52-58.27,38.93a250.69,250.69,0,0,0-32.71,61.63,308.86,308.86,0,0,1,4.41-32.65q2.65-13.26,7.07-30.91,6.6-24.69,6.61-31.77a9.2,9.2,0,0,0-3.52-8.38,24.91,24.91,0,0,0-12.24-2.2q-16.18,0-25.37,6.12a33.13,33.13,0,0,0-13,18.76,359.19,359.19,0,0,0-15.94,90.33,367.61,367.61,0,0,1-30.79,33.32c-8,7.22-14.71,10.84-20.28,10.84a10.71,10.71,0,0,1-8.6-4,16.05,16.05,0,0,1-3.31-10.59q0-19.89,10.13-70.6,6.64-34.94,6.64-44.12,0-15.3-21.63-15.3a104.26,104.26,0,0,0-19.4,1.77,32.24,32.24,0,0,0-5.54-13.46q-3.32-3.77-13-3.77a98.2,98.2,0,0,0-57.59,19.22,139.47,139.47,0,0,0-43.45,50.74,143,143,0,0,0-14.83,45.87c-26,26.34-42.53,39.17-50.33,39.17-8.6,0-13-6.2-13-18.43,0-6.44,1.39-15.57,4.13-27.14,3-11.79,7.62-31.24,13.66-57.84,6.33-26.84,9.54-50.51,9.54-70.36,0-45.84-18.41-68.13-56.28-68.13-26.52,0-49.81,13.64-69.24,40.54l-2,2.81v-7.11a166.67,166.67,0,0,0-2.26-33.06c-5.42-35.56-26.07-52.83-63.13-52.83-33.71,0-62,21.11-84.19,62.73l-1.83,3.43-.28-3.88c-.6-8.43-1.52-16.52-2.72-24-4.78-25.1-20.22-37.32-47.18-37.32-20.92,0-38.93,5.45-53.55,16.18-15.12,10.38-22.77,23.87-22.77,40.1,0,11.18,4.3,11.18,5.71,11.18a21.4,21.4,0,0,0,12.13-3.46c3.6-2.4,7.1-5,10.39-7.68,3.69-2.76,7.18-5.35,10.53-7.78A22.16,22.16,0,0,1,763.09,95c13.14,0,19.8,12.79,19.8,38,0,3.75-2.84,20.51-8.67,51.23-16,84-24.13,141.21-24.13,170.16,0,28,7.29,42.16,21.66,42.16A38.13,38.13,0,0,0,788.13,393c5.35-2.38,11-5,16.85-7.74,12-5.84,18-17.46,18-34.52,0-8.39-2.9-26.7-8.63-54.44l0-.14.47-8.8c1.84-9.56,4.45-20.77,7.78-33.48C835.33,204.76,849.94,168,866,144.64c16.24-23.6,33-35.57,49.67-35.57,9.56,0,16,3.91,19.26,11.63,3.37,7.36,5.09,17.63,5.09,30.49-.3,25.2-7.83,63.93-22.36,115.11-5.44,19.34-10.5,37.88-15,55.09s-6.8,30.84-6.8,40.72,1.65,18.22,4.9,25c3.16,6.31,7.9,9.39,14.48,9.39a47.45,47.45,0,0,0,31.17-11.58c9.41-7.94,14.18-16.7,14.18-26a95.83,95.83,0,0,0-.9-13.51l-1.83-12.75c1.21-37.25,12.44-75.73,33.38-114.58,9.11-17,19-31.19,29.33-42.15,10.5-11.11,20.58-16.75,30-16.75,5.61,0,9.48,2.21,11.49,6.57,1.88,3.76,2.84,9.29,2.84,16.42-.31,16.44-6.3,45.2-17.81,85.49-4.24,15.14-8.22,29.85-11.84,43.71s-5.43,26.44-5.43,37.53c0,10.61,3.75,20.48,11.13,29.34,7.61,8.49,18.21,12.81,31.48,12.81a92.49,92.49,0,0,0,39.16-8.55A139.6,139.6,0,0,0,1145,360.81a141.34,141.34,0,0,0,10.47-10.26,67.93,67.93,0,0,0,12.6,24.17,53.68,53.68,0,0,0,43.79,19.83q34.89,0,57.77-37.06A60.45,60.45,0,0,0,1288,384.6a41.07,41.07,0,0,0,26.69,9.95q19,0,39.26-15.45a223.07,223.07,0,0,0,22.91-20.41,86.81,86.81,0,0,0,4.51,18.23c4.53,11.75,12.42,17.66,23.5,17.66,9.12,0,15.82-2.45,20.07-7.28s8-14.2,11.26-28a317.27,317.27,0,0,1,17.2-51.2c5.73-13.73,17.4-26.81,25.91-39,9.42-13,15.48-18.95,31-21,9.52-1.25,9.52-1.25,19.77-1C1539.16,247.27,1553.27,239.1,1551.37,220.74ZM1259,308.1a74,74,0,0,1-12.79,30.42v.15c-5.87,7.53-12.05,11.32-18.36,11.32a18.75,18.75,0,0,1-15.3-6.61q-5.51-6.6-5.51-20.28a119.59,119.59,0,0,1,9.18-46.79,93.8,93.8,0,0,1,24.91-35.5,53.65,53.65,0,0,1,34.21-13.92Z" fill="#242731"/>
      </g>
      <path d="M409.46,13.34C334.29,26.64,281,77.25,227.62,127.91c-17,16.13-34,32.26-51.69,47.2-7.22-3.3-17.16-4.68-25.27-5.81-3.78-.52-7.15-1-9.68-1.57-39.31-3.25-84.06,6.83-111.69,36.57-43.93,49.36-43,125.62,34.06,136.44a130.07,130.07,0,0,0,54.36-1.84,38.06,38.06,0,0,0,2.45,6.92c.61,1.41,1.21,2.82,1.7,4.26A230,230,0,0,1,129.53,373h0c3.36,11.28,6.71,22.56,12.43,32.74a9.44,9.44,0,0,0,7,3.83,9.37,9.37,0,0,0,6.71,3.11,771.49,771.49,0,0,1,182.22-54c35.16-6.66,70.37-9.93,105.8-13.22h0c20.15-1.87,40.38-3.75,60.71-6.27,10.35.23,14.18-8.87,11.68-15.49a10.4,10.4,0,0,0,1-6.91c-1.78-7.44-4-14.77-6.17-22.09h0L509.8,291q-.84-2.89-1.7-5.81c-2.45-8.35-4.91-16.72-6.84-25.23v0c9-4.94,18.31-16.28,24.67-24,1.73-2.1,3.23-3.93,4.46-5.3a140,140,0,0,0,24.91-51C584.28,77,513.28.22,409.46,13.34ZM511,220.44A115.2,115.2,0,0,1,490.53,241a48.32,48.32,0,0,0-9.38-1.44h0c-1.2-.1-2.38-.21-3.49-.34,9.6-16.09,14.55-41.45,14-52.23,1.14-13.93-19.75-16-21.23-2.11A126.38,126.38,0,0,1,466.87,210,64.17,64.17,0,0,1,455,233a10.9,10.9,0,0,0-4.66,3.41,10.13,10.13,0,0,0-1,1.51q-12.3-.22-24.58.12c6.26-14.18,9.72-30.93,8.17-38a128.62,128.62,0,0,0-5.32-25.75c-4.39-13.33-24.38-6.93-20.43,6.46,7,19.19,5,42.47-8.34,58.6q-23.88,1.8-47.55,5.67a436.37,436.37,0,0,0-57.67,16.1,10.73,10.73,0,0,0,6.36,20.5c4.14-1.25,8.27-2.55,12.4-3.84h0c10.21-3.2,20.4-6.4,30.8-8.95,19.62-4.62,38.64-6.62,58.51-7.82a10.14,10.14,0,0,0,4-.23c4.77-.26,9.59-.49,14.49-.69,19.82-1.63,39.63-.53,59.34.77.2,5.07,2,10.82,3.64,16h0a85.63,85.63,0,0,1,2.35,8.4c1.7,5.63,3.24,11.31,4.78,17h0c1.44,5.29,2.88,10.58,4.44,15.82-17.7,2.06-35.46,3.81-53.22,5.55h0c-45.12,4.43-90.29,8.86-134.63,18.61a795,795,0,0,0-96.18,25.82l-.09,0h0c-17.94,5.74-36.06,11.54-52.53,20.71-2.54-6.88-4.78-13.88-7-20.89-3.89-12.14-7.77-24.29-13.16-35.76,12.38-4.28,26.78-10.29,22.16-22.43a11,11,0,0,0-14.5-5.26C111.11,322.92,62.52,330,30.9,302.59,9.64,276,28.36,235.75,49.66,214.72c28.6-24.4,68.66-29.45,105-22.61q-8.72,6.55-17.75,12.56c-11.93,8-.24,25.58,11.72,18.28,33.39-21,61.77-48.32,90.17-75.66h0c17.87-17.21,35.76-34.43,54.9-50.08,43.34-36.7,99.63-70.73,158.54-62,29.37,6,60.95,19.32,74.85,47.65C550.45,125.73,540.54,182.87,511,220.44Z" fill="#242731"/>
      <path d="M260.57,303.29a396,396,0,0,0-65,20.1l-2.71,1.07c-9.61,3.74-23.72,9.23-17,21.27,6.35,8.28,14.88,3.79,23.18-.59,3.91-2.05,7.76-4.09,11.31-4.74a297.4,297.4,0,0,1,29.81-10c6.43-1.69,12.91-3.28,19.36-4.86h0l7.43-1.83C280.26,319.5,274,299.21,260.57,303.29Z" fill="#242731"/>
    </g>
  </g>
</svg>
