<svg xmlns:xlink="http://www.w3.org/1999/xlink" xmlns="http://www.w3.org/2000/svg" width="24" height="24" fill="none"><path d="M24 12c0 6.627-5.373 12-12 12S0 18.627 0 12 5.373 0 12 0s12 5.373 12 12z" fill="#FFD15C"/><path d="M6.188 16.917a.621.621 0 00.245-.718c0-.003-.002-.006-.003-.008l.02-.117c.055.031.119.073.191.124l.067.047.092.066c.04.027.097.066.158.099 1.6.994 2.924 1.404 3.975 1.353 1.086-.052 1.848-.599 2.242-1.397.38-.77.393-1.726.127-2.612a4.495 4.495 0 00-1.672-2.356c-1.416-1.01-2.713-2.545-3.369-3.85-.333-.663-.466-1.198-.43-1.547a.529.529 0 01.125-.324c.06-.063.168-.133.377-.167.443-.073.956-.233 1.476-.395.202-.063.405-.126.605-.185.75-.219 1.543-.403 2.377-.401 1.618.003 3.517.705 5.515 3.627 2.568 3.753 1.158 7.947-1.8 10.15-1.475 1.1-3.316 1.682-5.207 1.46-1.703-.199-3.487-1.056-5.111-2.849zm.298-.971l-.002.003a.016.016 0 01.002-.003zm-.161.073l.005.001h-.005z" fill="#fff" stroke="#000" stroke-width="1.657"/><path d="M7.658 5.701s4.587-1.221 5.591-1.221c1.005 0 5.018 1.949 6.189 5.51 1.66 5.049-2.856 8.36-3.366 8.035C20.931 14.007 12.978 6.582 9.07 7.14c-.488.07-.217.489-.217.489l-.109 1.085-.814-1.357-.271-1.656z" fill="#000"/><path d="M18.77 8.471c1.448 2.55 1.147 1.09.826 4.005.595-.962 1.525-.241 1.91.127.068.066.182.025.179-.07-.015-.433-.139-1.367-.854-2.37-.982-1.374-2.061-1.692-2.061-1.692z" fill="#000"/><path d="M19.596 12.476l.142-.35m-.142.35c.321-2.915.622-1.455-.826-4.005 0 0 1.079.318 2.06 1.692.716 1.003.84 1.937.855 2.37.003.095-.11.136-.18.07-.384-.368-1.314-1.09-1.91-.127z" stroke="#000" stroke-width=".093"/><path d="M7.115 12.088c-.611 1.034-1.865.957-1.841 2.191 1.12 2.488 1.127 2.31 1.127 2.31 2.074-1.165 1.222-3.74.914-4.496-.035-.086-.153-.085-.2-.005z" fill="#000"/><path d="M2.412 14.376c1.192.155 1.903-.881 2.86-.102 1.272 2.414 1.127 2.31 1.127 2.31-2.196.917-3.699-1.34-4.106-2.048-.046-.08.027-.172.119-.16zM12.408 12.84s1.194 1.222.57 1.412c-.779-.48-2.174-.107-2.857.123-.169.057-.334-.092-.273-.26.232-.639.807-1.823 1.908-1.98.652-.163.652.705.652.705z" fill="#000"/><path d="M13.14 6.868c-.135-.19-.406-.705.435-.705s2.127.952 2.389 1.305c-.082.215-.625.263-.896.242-.271-.021-.733-.066-1.086-.242-.353-.176-.706-.41-.841-.6z" fill="#fff"/></svg>