<?xml version="1.0" encoding="utf-8"?>
<!-- Generator: Adobe Illustrator 27.5.0, SVG Export Plug-In . SVG Version: 6.00 Build 0)  -->
<svg version="1.1" id="Layer_1" xmlns="http://www.w3.org/2000/svg" xmlns:xlink="http://www.w3.org/1999/xlink" x="0px" y="0px"
	 viewBox="0 0 86 86" style="enable-background:new 0 0 86 86;" xml:space="preserve">
<style type="text/css">
	.st0{fill:#FFFFFF;}
	.st1{fill:#EA783F;}
</style>
<path class="st0" d="M-8.18,91.7c0-32.66,0-65.32,0-98c35.65,0,71.31,0,107,0c0,32.65,0,65.33,0,98C63.17,91.7,27.5,91.7-8.18,91.7z
	 M73.72,5.38c-0.05-0.07-0.1-0.13-0.15-0.2c-0.11,0.05-0.22,0.08-0.31,0.15c-4.33,3.25-8.68,6.47-12.97,9.75
	c-5.56,4.25-11.77,6.56-18.81,5.94c-5.45-0.48-10.59-2.11-15.06-5.45c-3.27-2.44-6.53-4.89-9.8-7.33c-1.34-1-2.69-1.99-4.25-3.15
	c0.15,0.39,0.17,0.52,0.24,0.6c2.71,3.11,5.44,6.19,8.12,9.31c7.17,8.33,14.32,16.68,21.45,25.03c0.59,0.69,0.98,0.84,1.65,0.06
	C49.5,33.4,55.18,26.7,60.9,20.04C65.14,15.12,69.44,10.26,73.72,5.38z M42.98,45.62c-10.31,11.85-20.5,23.57-30.7,35.28
	c4.44-3.04,8.83-6.12,13.11-9.33c5.9-4.42,12.35-6.94,19.85-6.25c4.3,0.39,8.37,1.58,11.95,3.98c4.45,3,8.76,6.21,13.12,9.34
	c0.98,0.71,1.94,1.45,2.91,2.17c0.06-0.07,0.13-0.15,0.19-0.22C63.31,68.97,53.19,57.34,42.98,45.62z"/>
<path class="st1" d="M73.72,5.3c-4.27,4.88-8.58,9.74-12.81,14.66c-5.73,6.66-11.41,13.36-17.08,20.06
	c-0.67,0.79-1.06,0.64-1.65-0.06c-7.14-8.36-14.29-16.7-21.45-25.03c-2.69-3.12-5.42-6.21-8.12-9.31c-0.07-0.08-0.09-0.21-0.24-0.6
	c1.57,1.16,2.91,2.15,4.25,3.15c3.27,2.44,6.53,4.89,9.8,7.33c4.47,3.34,9.6,4.96,15.06,5.45c7.04,0.62,13.24-1.68,18.81-5.94
	c4.3-3.29,8.64-6.51,12.97-9.75c0.09-0.07,0.21-0.1,0.31-0.15C73.62,5.17,73.67,5.23,73.72,5.3z M12.28,80.82
	c4.44-3.04,8.83-6.12,13.11-9.33c5.9-4.42,12.35-6.94,19.85-6.25c4.3,0.39,8.37,1.58,11.95,3.98c4.45,3,8.76,6.21,13.12,9.34
	c0.98,0.71,1.94,1.45,2.91,2.17c0.06-0.07,0.13-0.15,0.19-0.22C63.31,68.89,53.19,57.27,42.98,45.54
	C32.67,57.39,22.48,69.11,12.28,80.82z"/>
</svg>
