<svg xmlns:xlink="http://www.w3.org/1999/xlink" xmlns="http://www.w3.org/2000/svg" width="28" height="28" fill="none"><path d="M22.873 11.108v8.087l-8.948 5.193-8.952-5.193V8.809l8.956-5.2 6.877 3.994 1.04-.601-7.917-4.596-9.992 5.798v11.592l9.992 5.798 9.991-5.798v-9.289l-1.047.601z" fill="url(#paint0_linear)"/><path d="M11.423 19.202H9.927v-5.048h4.99c.471-.004.924-.196 1.257-.536a1.82 1.82 0 00.521-1.267 1.749 1.749 0 00-.525-1.26 1.771 1.771 0 00-.572-.392 1.68 1.68 0 00-.68-.134h-4.99V9.03h4.993a3.312 3.312 0 012.329.978c.619.622.966 1.463.974 2.343a3.25 3.25 0 01-.583 1.879 3.277 3.277 0 01-1.438 1.184c-.58.185-1.18.275-1.785.272h-2.995v3.516z" fill="url(#paint1_linear)"/><path d="M18.187 19.076H16.44l-1.347-2.362a5.624 5.624 0 001.561-.322l1.532 2.684z" fill="url(#paint2_linear)"/><path d="M21.83 9.428l1.032.576 1.032-.576v-1.22l-1.032-.602-1.032.602v1.22z" fill="url(#paint3_linear)"/><defs><linearGradient id="paint0_linear" x1="24.526" y1="9.786" x2="3.311" y2="18.225" gradientUnits="userSpaceOnUse"><stop stop-color="#C200FB"/><stop offset=".49" stop-color="#3772FF"/><stop offset=".49" stop-color="#3773FE"/><stop offset="1" stop-color="#5AC4BE"/></linearGradient><linearGradient id="paint1_linear" x1="24.121" y1="8.768" x2="2.906" y2="17.207" gradientUnits="userSpaceOnUse"><stop stop-color="#C200FB"/><stop offset=".49" stop-color="#3772FF"/><stop offset=".49" stop-color="#3773FE"/><stop offset="1" stop-color="#5AC4BE"/></linearGradient><linearGradient id="paint2_linear" x1="26.233" y1="14.08" x2="5.018" y2="22.518" gradientUnits="userSpaceOnUse"><stop stop-color="#C200FB"/><stop offset=".49" stop-color="#3772FF"/><stop offset=".49" stop-color="#3773FE"/><stop offset="1" stop-color="#5AC4BE"/></linearGradient><linearGradient id="paint3_linear" x1="23.961" y1="8.371" x2="2.746" y2="16.809" gradientUnits="userSpaceOnUse"><stop stop-color="#C200FB"/><stop offset=".49" stop-color="#3772FF"/><stop offset=".49" stop-color="#3773FE"/><stop offset="1" stop-color="#5AC4BE"/></linearGradient></defs></svg>