<svg xmlns:xlink="http://www.w3.org/1999/xlink" xmlns="http://www.w3.org/2000/svg" width="232" height="232" fill="none"><circle cx="116" cy="116" r="109.04" fill="#161523" stroke="#6764FB" stroke-width="13.92"/><path fill-rule="evenodd" clip-rule="evenodd" d="M162.4 74.24a4.64 4.64 0 00-4.64-4.64H87.988c-3.049 0-5.716.442-8.003 1.327-2.287.952-4.192 2.21-5.717 3.776-1.588 1.633-2.763 3.47-3.525 5.51a19.071 19.071 0 00-1.143 6.532v10.284c0 5.352 4.339 9.691 9.69 9.691h55.27l-27.84-18.56h51.04a4.64 4.64 0 004.64-4.64v-9.28zm-92.8 83.52a4.64 4.64 0 004.64 4.64h69.771c3.049 0 5.717-.442 8.003-1.327 2.287-.952 4.193-2.211 5.717-3.776 1.588-1.632 2.763-3.469 3.525-5.51a19.087 19.087 0 001.144-6.532v-10.284c0-5.352-4.339-9.691-9.692-9.691H97.44l27.84 18.56H74.24a4.64 4.64 0 00-4.64 4.64v9.28z" fill="#6764FB"/></svg>