<svg width="500" height="500" viewBox="0 0 500 500" fill="none" xmlns="http://www.w3.org/2000/svg">
<rect width="500" height="500" rx="250" fill="#6DC4FE"/>
<path fill-rule="evenodd" clip-rule="evenodd" d="M183.469 366.79C128.122 366.79 83.2539 321.923 83.2539 266.576C83.2539 218.596 116.972 178.491 162.005 168.665C184.731 136.932 221.91 116.254 263.919 116.254C328.669 116.254 381.945 165.381 388.507 228.395C405.762 242.743 416.746 264.373 416.746 288.567C416.746 331.769 381.725 366.791 338.523 366.791C338.495 366.791 338.466 366.79 338.438 366.79H264.058C264.012 366.791 263.965 366.791 263.919 366.791C263.872 366.791 263.826 366.791 263.779 366.79H183.469ZM323.634 217.727C335.512 217.727 345.141 208.098 345.141 196.22C345.141 184.342 335.512 174.713 323.634 174.713C311.756 174.713 302.127 184.342 302.127 196.22C302.127 208.098 311.756 217.727 323.634 217.727ZM237.611 217.727C249.489 217.727 259.118 208.098 259.118 196.22C259.118 184.342 249.489 174.713 237.611 174.713C225.733 174.713 216.104 184.342 216.104 196.22C216.104 208.098 225.733 217.727 237.611 217.727ZM319.787 237.203C327.953 236.053 334.845 235.084 338.994 235.084C349.174 235.084 357.428 243.337 357.428 253.518C357.428 295.936 323.041 330.324 280.622 330.324C238.203 330.324 203.816 295.936 203.816 253.518C203.816 243.337 212.07 235.084 222.25 235.084C226.399 235.084 233.291 236.053 241.457 237.203C253.324 238.873 267.883 240.921 280.622 240.921C293.361 240.921 307.92 238.873 319.787 237.203ZM280.619 314.963C297.452 314.963 312.705 308.193 323.801 297.228H323.795C328.733 292.348 327.116 284.002 320.744 281.252C309.979 276.606 295.955 273.794 280.616 273.794C265.278 273.794 251.254 276.606 240.489 281.252C234.117 284.002 232.499 292.351 237.438 297.228C248.537 308.193 263.786 314.963 280.619 314.963Z" fill="#F7F9FB"/>
</svg>
