<svg xmlns:xlink="http://www.w3.org/1999/xlink" xmlns="http://www.w3.org/2000/svg" data-name="Layer 1" viewBox="0 0 221.21 221.21" width="221.21"  height="221.21" ><defs><linearGradient id="a" x1="110.61" y1="220.45" x2="110.61" y2="-.29" gradientUnits="userSpaceOnUse"><stop offset="0" stop-color="#7d5df2"/><stop offset="1" stop-color="#60f9b6"/></linearGradient></defs><path d="M110.61 24.58a86 86 0 1086 86 86 86 0 00-86-86zm0 159.78a73.74 73.74 0 1173.73-73.75 73.74 73.74 0 01-73.73 73.75zm0-184.36a110.61 110.61 0 10110.6 110.61A110.61 110.61 0 00110.61 0zm0 208.94a98.32 98.32 0 1198.3-98.33 98.33 98.33 0 01-98.3 98.33zm0-184.36a86 86 0 1086 86 86 86 0 00-86-86zm0 159.78a73.74 73.74 0 1173.73-73.75 73.74 73.74 0 01-73.73 73.75zm0-159.78a86 86 0 1086 86 86 86 0 00-86-86zm0 159.78a73.74 73.74 0 1173.73-73.75 73.74 73.74 0 01-73.73 73.75z" fill="url(#a)"/></svg>