<svg xmlns:xlink="http://www.w3.org/1999/xlink" xmlns="http://www.w3.org/2000/svg" width="14" height="16" fill="none"><g clip-path="url(#clip0_1545_16102)"><path fill-rule="evenodd" clip-rule="evenodd" d="M13.65 11.855V4.146L6.967.288V8l-6.68 3.857 6.683 3.857 6.676-3.854.004.003v-.005l.002-.002h-.002z" fill="#64C557"/><path d="M.29 4.146L6.971.288v7.716L.288 11.863V4.146z" fill="#118AB2"/><path d="M6.973.28l6.682 3.858-2.227 1.286-6.683-3.858L6.973.281z" fill="#00F8B7"/><path d="M11.422 5.422v2.572L4.74 4.136V1.564l6.682 3.858z" fill="#09BD8E"/><path d="M4.736 4.14l6.683 3.857L9.19 9.283 2.51 5.426 4.736 4.14z" fill="#FFE3A3"/><path d="M9.217 9.297v2.572L2.535 8.01V5.438l6.682 3.859z" fill="#FFBB1D"/><path d="M2.515 7.998l6.682 3.858-2.227 1.286L.287 9.284l2.228-1.286z" fill="#FF965E"/><path d="M6.965 13.14v2.572L.284 11.854V9.282l6.682 3.858z" fill="#D94C00"/><path d="M11.426 5.423l2.227-1.286v7.716l-2.227 1.286V5.423z" fill="#06D6A0"/><path d="M9.194 9.282l2.227-1.286v5.144l-2.228 1.286V9.282z" fill="#FFD166"/><path d="M6.961 13.14l2.227-1.285v2.572l-2.227 1.286V13.14z" fill="#F3722C"/></g><defs><clipPath id="clip0_1545_16102"><path fill="#fff" transform="translate(.23)" d="M0 0h13.539v16H0z"/></clipPath></defs></svg>