<?xml version="1.0" encoding="utf-8"?>
<!-- Generator: Adobe Illustrator 26.0.1, SVG Export Plug-In . SVG Version: 6.00 Build 0)  -->
<svg version="1.1" id="Layer_1" xmlns="http://www.w3.org/2000/svg" xmlns:xlink="http://www.w3.org/1999/xlink" x="0px" y="0px"
	 viewBox="0 0 82.6 82.6" style="enable-background:new 0 0 82.6 82.6;" xml:space="preserve">
<style type="text/css">
	.st0{fill-rule:evenodd;clip-rule:evenodd;fill:#56FF97;}
	.st1{fill-rule:evenodd;clip-rule:evenodd;fill:#232323;}
</style>
<g>
	<path class="st0" d="M67.4,0H15.2C6.8,0,0,6.8,0,15.2v52.2c0,8.4,6.8,15.2,15.2,15.2h52.2c8.4,0,15.2-6.8,15.2-15.2V15.2
		C82.6,6.8,75.8,0,67.4,0z"/>
	<g>
		<g>
			<path class="st1" d="M18,37.7c0-0.7-0.6-1.2-1.2-1.2H7.2C6.6,36.5,6,37,6,37.7l0,0c0,0.7,0.6,1.2,1.2,1.2h9.6
				C17.5,38.9,18,38.4,18,37.7L18,37.7L18,37.7z"/>
			<path class="st1" d="M26,48.3c0-0.7-0.6-1.2-1.2-1.2h-9.6c-0.7,0-1.2,0.6-1.2,1.2l0,0c0,0.7,0.6,1.2,1.2,1.2h9.6
				C25.5,49.5,26,49,26,48.3L26,48.3L26,48.3z"/>
			<path class="st1" d="M23.3,43c0,0.7-0.6,1.2-1.2,1.2H11.4c-0.7,0-1.2-0.6-1.2-1.2c0-0.7,0.6-1.2,1.2-1.2h10.6
				C22.7,41.8,23.3,42.3,23.3,43z"/>
			<path class="st1" d="M7.8,41.8c-0.7,0-1.2,0.6-1.2,1.2l0,0c0,0.7,0.6,1.2,1.2,1.2h0.5c0.7,0,1.2-0.6,1.2-1.2l0,0
				c0-0.7-0.6-1.2-1.2-1.2L7.8,41.8z"/>
			<path class="st1" d="M30.2,53.6c0-0.7-0.6-1.2-1.2-1.2H8.3c-0.7,0-1.2,0.6-1.2,1.2l0,0c0,0.7,0.6,1.2,1.2,1.2H29
				C29.6,54.8,30.2,54.2,30.2,53.6L30.2,53.6L30.2,53.6z"/>
			<path class="st1" d="M68.2,52.2c-3.8-1.5-5.6-2.4-7.2-1c0.8-1.6,0.5-1.7-0.2-2.8c-1.3-2.3-4.8-6.1-6-13.4c0,0,1.9-5.2,2.1-8.5
				c0,0,0.7-2.1-2.5-1.1c0,0-4.1,2.5-6.3,3.1c-4-0.5-9.9-3.4-12.1-7.8c0,0,1.8-3.8,0.2-4.7c-1.1-0.6-4.4,2.8-4.4,2.8L21.3,31.2
				l-0.8,1.5c-0.3,0.6-0.3,1.4,0.2,2.1c2.8,3.8,13.9,18.5,20.3,26.4C22.8,61.4,13,64.1,20,65.1c5.7,0.8,18.5,0.6,28.2,0.5
				c1.2,0.4,2.4,0.7,3.7,0.8l16.4,0.1c2.1-0.1,4-0.3,5.6-0.4c1-0.1,1.9-0.8,2.2-1.7C77.8,59.7,75,54.9,68.2,52.2z M39.1,50.4
				l0.4-7.3l-4.3,0l6.1-11.5l-0.9,7.5h4.1L39.1,50.4z"/>
		</g>
	</g>
</g>
</svg>
