<svg width="100" height="18" viewBox="0 0 100 18" fill="none" xmlns="http://www.w3.org/2000/svg">
<path fill-rule="evenodd" clip-rule="evenodd" d="M92.0019 17.7368C89.1785 17.7368 85.0317 17.8312 83.283 17.5877C81.2378 17.3036 84.2535 16.4707 89.7176 16.4707C95.1817 16.4707 92.0019 17.7368 92.0019 17.7368Z" fill="#73F795"/>
<path fill-rule="evenodd" clip-rule="evenodd" d="M82.7164 9.74843C82.7164 9.65483 82.6792 9.56506 82.613 9.49888C82.5468 9.43269 82.4571 9.39551 82.3635 9.39551H79.6239C79.5303 9.39551 79.4405 9.43269 79.3744 9.49888C79.3082 9.56506 79.271 9.65483 79.271 9.74843C79.271 9.84203 79.3082 9.9318 79.3744 9.99798C79.4405 10.0642 79.5303 10.1014 79.6239 10.1014H82.3644C82.458 10.1014 82.5477 10.0642 82.6139 9.99798C82.6801 9.9318 82.7173 9.84203 82.7173 9.74843" fill="#73F795"/>
<path fill-rule="evenodd" clip-rule="evenodd" d="M85.0124 12.7611C85.0124 12.6675 84.9752 12.5778 84.909 12.5116C84.8428 12.4454 84.7531 12.4082 84.6595 12.4082H81.9208C81.8272 12.4082 81.7374 12.4454 81.6712 12.5116C81.6051 12.5778 81.5679 12.6675 81.5679 12.7611C81.5679 12.8547 81.6051 12.9445 81.6712 13.0107C81.7374 13.0769 81.8272 13.114 81.9208 13.114H84.6612C84.7548 13.114 84.8446 13.0769 84.9108 13.0107C84.977 12.9445 85.0141 12.8547 85.0141 12.7611" fill="#73F795"/>
<path fill-rule="evenodd" clip-rule="evenodd" d="M80.8305 10.9072C80.7369 10.9072 80.6471 10.9444 80.5809 11.0106C80.5147 11.0768 80.4775 11.1665 80.4775 11.2601C80.4775 11.3537 80.5147 11.4435 80.5809 11.5097C80.6471 11.5759 80.7369 11.6131 80.8305 11.6131H83.248C83.3416 11.6131 83.4313 11.5759 83.4975 11.5097C83.5637 11.4435 83.6009 11.3537 83.6009 11.2601C83.6009 11.1665 83.5637 11.0768 83.4975 11.0106C83.4313 10.9444 83.3416 10.9072 83.248 10.9072H80.8305Z" fill="#73F795"/>
<path fill-rule="evenodd" clip-rule="evenodd" d="M84.2252 11.2494C84.2252 11.1558 84.188 11.066 84.1218 10.9999C84.0556 10.9337 83.9659 10.8965 83.8723 10.8965H81.1327C81.0391 10.8965 80.9493 10.9337 80.8832 10.9999C80.817 11.066 80.7798 11.1558 80.7798 11.2494C80.7798 11.343 80.817 11.4328 80.8832 11.499C80.9493 11.5651 81.0391 11.6023 81.1327 11.6023H83.8731C83.9667 11.6023 84.0565 11.5651 84.1227 11.499C84.1889 11.4328 84.2261 11.343 84.2261 11.2494" fill="#73F795"/>
<path fill-rule="evenodd" clip-rule="evenodd" d="M79.7904 10.9072C79.6968 10.9072 79.6071 10.9444 79.5409 11.0106C79.4747 11.0768 79.4375 11.1665 79.4375 11.2601C79.4375 11.3537 79.4747 11.4435 79.5409 11.5097C79.6071 11.5759 79.6968 11.6131 79.7904 11.6131H79.9184C80.012 11.6131 80.1017 11.5759 80.1679 11.5097C80.2341 11.4435 80.2713 11.3537 80.2713 11.2601C80.2713 11.1665 80.2341 11.0768 80.1679 11.0106C80.1017 10.9444 80.012 10.9072 79.9184 10.9072H79.7904Z" fill="#73F795"/>
<path fill-rule="evenodd" clip-rule="evenodd" d="M86.1993 14.2728C86.1993 14.1792 86.1621 14.0895 86.0959 14.0233C86.0298 13.9571 85.94 13.9199 85.8464 13.9199H79.935C79.8414 13.9199 79.7516 13.9571 79.6854 14.0233C79.6192 14.0895 79.582 14.1792 79.582 14.2728C79.582 14.3664 79.6192 14.4562 79.6854 14.5224C79.7516 14.5886 79.8414 14.6258 79.935 14.6258H85.8464C85.94 14.6258 86.0298 14.5886 86.0959 14.5224C86.1621 14.4562 86.1993 14.3664 86.1993 14.2728Z" fill="#73F795"/>
<path fill-rule="evenodd" clip-rule="evenodd" d="M97.0881 13.8737C96.0064 13.4414 95.4753 13.1891 95.0332 13.6037C95.2591 13.1529 95.1691 13.1255 94.9794 12.792C94.6009 12.1259 93.6004 11.0336 93.2536 8.95048C93.2536 8.95048 93.8103 7.47086 93.8712 6.52062C93.8712 6.52062 94.083 5.92418 93.1574 6.21622C93.1574 6.21622 91.9919 6.92206 91.3567 7.09852C90.2097 6.96353 88.5209 6.13328 87.898 4.84689C87.898 4.84689 88.4168 3.7643 87.9651 3.51461C87.651 3.33815 86.7219 4.30868 86.7219 4.30868L83.6709 7.86613L83.4353 8.30728C83.3861 8.39966 83.3642 8.50414 83.3722 8.60851C83.3802 8.71287 83.4177 8.81282 83.4803 8.89666C84.3547 10.056 87.9721 14.8831 89.6794 16.9424C90.5081 17.4722 91.4408 17.8179 92.4145 17.9562L97.0987 17.9994C97.7101 17.9685 98.258 17.9226 98.6939 17.8741C98.8361 17.8585 98.9713 17.8039 99.0843 17.7162C99.1974 17.6285 99.284 17.5112 99.3345 17.3774C99.8277 16.0424 99.0336 14.6519 97.0881 13.8737ZM88.8695 10.738L87.7322 11.2912L87.5733 7.65791L88.6383 9.87954L89.7853 9.42075L90.0817 12.9217L88.8695 10.738Z" fill="#73F795"/>
<path d="M0.0595703 17.8551L0.853643 14.4458H9.00348L9.45786 14.0673L9.64756 13.253L9.40139 12.9309H3.77142L1.57448 10.0705L2.31297 6.85097L5.09752 4.59668H15.1558L14.3617 8.0059H6.59744L6.12364 8.38529L5.95335 9.19966L6.19952 9.5217H11.8251L14.022 12.3812L13.2641 15.6017L10.499 17.8551H0.0595703Z" fill="#73F795"/>
<path d="M17.9587 17.8551L20.2315 8.0059H15.4009L16.195 4.59668H30.0233L29.2292 8.0059H24.3986L22.1249 17.8551H17.9587Z" fill="#73F795"/>
<path d="M28.0923 17.8551L31.1609 4.59668H43.2829L42.4888 8.0059H34.5322L34.1511 9.61699H40.0228L39.3214 12.6477H33.4532L33.0552 14.4467H41.1998L40.4057 17.8559L28.0923 17.8551Z" fill="#73F795"/>
<path d="M42.0132 17.8551L45.0818 4.59668H55.291L57.4085 7.36182L56.2968 12.1924L53.3967 14.5402H46.9382L46.1803 17.8551H42.0132ZM47.7385 11.131H51.8059L52.5064 10.5628L52.9802 8.51764L52.5823 8.0059H48.4531L47.7385 11.131Z" fill="#73F795"/>
<path d="M60.6992 17.8551L63.767 4.59668H69.6581L71.6874 13.3094H72.2556L74.2849 4.59668H78.1671L75.0914 17.8551H69.2029L67.1736 9.14231H66.5868L64.5787 17.8551H60.6992Z" fill="#73F795"/>
<path fill-rule="evenodd" clip-rule="evenodd" d="M58.144 0L58.0249 7.23312L60.1257 6.13554L61.7976 9.83239L61.6715 2.90542L59.628 3.95713L58.144 0Z" fill="#73F795"/>
</svg>
