<svg width="200" height="200" viewBox="0 0 200 200" fill="none" xmlns="http://www.w3.org/2000/svg">
<rect width="200" height="200" rx="100" fill="url(#paint0_radial_2735_24399)"/>
<path d="M113.322 116.527L83.2684 116.527C71.7838 116.527 65.0278 120.762 59.4589 126.331C52.8387 132.951 51.6781 141.295 51.5527 145.499C51.507 147.027 52.7722 148.18 54.3009 148.18L115.079 148.18C115.875 148.18 116.638 147.864 117.2 147.301L146.133 118.368C147.305 117.197 147.305 115.297 146.133 114.126L121.443 89.4355C119.553 87.5456 116.322 88.8841 116.322 91.5568L116.322 113.527C116.322 115.184 114.978 116.527 113.322 116.527Z" fill="white"/>
<path d="M86.4733 83.7533L116.527 83.7533C128.011 83.7533 134.767 79.5182 140.336 73.9493C146.956 67.3291 148.117 58.9848 148.242 54.7816C148.288 53.2536 147.023 52.1006 145.494 52.1006L84.7159 52.1006C83.9203 52.1006 83.1572 52.4167 82.5946 52.9793L53.6618 81.912C52.4903 83.0836 52.4903 84.9831 53.6618 86.1547L78.352 110.845C80.2419 112.735 83.4733 111.396 83.4733 108.723L83.4733 86.7533C83.4733 85.0964 84.8164 83.7533 86.4733 83.7533Z" fill="white"/>
<defs>
<radialGradient id="paint0_radial_2735_24399" cx="0" cy="0" r="1" gradientUnits="userSpaceOnUse" gradientTransform="translate(133.191 28.2526) rotate(105.191) scale(126.303)">
<stop stop-color="#778DFF"/>
<stop offset="1" stop-color="#1A3EFF"/>
</radialGradient>
</defs>
</svg>
