<svg width="101" height="23" viewBox="0 0 101 23" fill="none" xmlns="http://www.w3.org/2000/svg">
<g clip-path="url(#clip0_24_3445)">
<path d="M40.3173 3.38531H38.5803V16.3209H43.0314V14.5367H40.3173V3.38531Z" fill="#66DDDD"/>
<path d="M46.6148 3.38531H44.8777V16.3209H49.3288V14.5367H46.6148V3.38531Z" fill="#66DDDD"/>
<path d="M60.8366 16.3208H62.5736V8.96086H66.1564V7.06512H60.7283V16.3208H60.8366Z" fill="white"/>
<path d="M69.8481 7.06512H68.1111V16.3208H69.8481V7.06512Z" fill="white"/>
<path d="M54.9745 7.06528C53.889 7.06528 53.0203 7.39981 52.2604 8.06893V3.38531H50.5234V11.7489C50.5234 14.3137 52.586 16.3209 54.9745 16.3209C57.363 16.3209 59.4259 14.2022 59.4259 11.7489C59.5343 9.18404 57.4713 7.06528 54.9745 7.06528ZM54.9745 14.5367C53.4547 14.5367 52.2604 13.3101 52.2604 11.7489C52.2604 10.1877 53.4547 8.96101 54.9745 8.96101C56.4943 8.96101 57.6885 10.1877 57.6885 11.7489C57.6885 13.3101 56.4943 14.5367 54.9745 14.5367Z" fill="white"/>
<path d="M78.751 8.0685C77.9911 7.5109 77.014 7.06485 76.0369 7.06485C73.54 7.06485 71.5854 9.18361 71.5854 11.6369C71.5854 14.2017 73.6484 16.209 76.0369 16.209C78.4254 16.209 80.4879 14.0902 80.4879 11.6369V3.27338H78.751V8.0685ZM75.9281 14.5363C74.4083 14.5363 73.2141 13.3097 73.2141 11.7485C73.2141 10.1873 74.4083 8.96059 75.9281 8.96059C77.4479 8.96059 78.6422 10.1873 78.6422 11.7485C78.6422 13.3097 77.4479 14.5363 75.9281 14.5363Z" fill="white"/>
<path d="M86.1332 7.06512C83.6363 7.06512 81.6821 9.18388 81.6821 11.6372C81.6821 14.202 83.7446 16.2093 86.1332 16.2093C87.1102 16.2093 88.0873 15.8747 88.8472 15.3172V17.5474C88.7388 18.9971 87.5446 20.1122 86.1332 20.1122C84.6134 20.1122 83.4191 18.8856 83.4191 17.3244H81.6821C81.6821 19.8892 83.7446 21.8965 86.1332 21.8965C88.5217 21.8965 90.4758 20.0007 90.5846 17.5474V11.6372C90.693 9.18388 88.63 7.06512 86.1332 7.06512ZM86.1332 14.5366C84.6134 14.5366 83.4191 13.3099 83.4191 11.7487C83.4191 10.1875 84.6134 8.96086 86.1332 8.96086C87.653 8.96086 88.8472 10.1875 88.8472 11.7487V12.0833C88.7388 13.4214 87.5446 14.5366 86.1332 14.5366Z" fill="white"/>
<path d="M96.2298 14.5366C95.3611 14.5366 94.6012 14.0905 94.0585 13.4214L100.681 11.0796C100.355 8.84935 98.5095 7.06512 96.2298 7.06512C93.7325 7.06512 91.7788 9.18388 91.7788 11.6372C91.7788 14.202 93.8413 16.2093 96.2298 16.2093C97.858 16.2093 99.3782 15.3172 100.138 13.8675L98.4012 13.3099C97.858 14.0905 97.0981 14.5366 96.2298 14.5366ZM96.2298 8.96086C97.0981 8.96086 97.858 9.4069 98.4012 10.076L93.5153 11.7487C93.5153 10.1875 94.7096 8.96086 96.2298 8.96086Z" fill="white"/>
<path d="M17.8443 8.96078L14.2615 5.28082H8.8332L7.09632 7.06505V0.70874H5.25049V11.9717V14.425L8.8332 18.1049H14.2615L15.9987 16.3207V22.677H17.953V12.0832L17.8443 8.96078ZM13.393 16.2092H9.8105L7.20473 13.5329V11.9717V9.85292L9.8105 7.17656H13.393L15.9987 9.85292V12.1947V13.5329L13.393 16.2092Z" fill="white"/>
<path d="M30.4387 7.06512L27.7246 9.85295V13.6445L30.4387 16.4323H34.1299L34.9985 15.5402V16.4323H36.8441V13.6445V10.299V9.85295L34.1299 7.06512H30.4387ZM33.37 14.5366H31.1986L29.5702 12.8638V10.6336L31.1986 8.96086H33.37L34.9985 10.6336V12.9754L33.37 14.5366Z" fill="#66DDDD"/>
<path d="M2.64538 15.4285V5.2807H0.799805V16.3206L7.09671 22.7884H13.3933V20.8927H7.96502L2.64538 15.4285Z" fill="#66DDDD"/>
<path d="M9.81079 0.59729V2.49303H15.2391L20.5587 7.95721V18.105H22.4043V7.06512L16.1074 0.59729H9.81079Z" fill="#66DDDD"/>
</g>
<defs>
<clipPath id="clip0_24_3445">
<rect width="99.9634" height="22.3918" fill="white" transform="translate(0.799805 0.597229)"/>
</clipPath>
</defs>
</svg>
