<svg width="49" height="50" viewBox="0 0 49 50" fill="none" xmlns="http://www.w3.org/2000/svg">
<path d="M38.5349 18.6745L30.4349 10.4573H18.1624L14.2356 14.4414V0.248047H10.0625V25.3977V30.8758L18.1624 39.093H30.4349L34.3623 35.1089V49.3023H38.7806V25.6467L38.5349 18.6745ZM28.4712 34.8599H20.3719L14.4807 28.8838V25.3977V20.6666L20.3719 14.6904H28.4712L34.3623 20.6666V25.8957V28.8838L28.4712 34.8599Z" fill="white"/>
<path d="M4.17252 33.1166V10.457H0V35.1087L14.2362 49.551H28.4718V45.3179H16.1993L4.17252 33.1166Z" fill="#66DDDD"/>
<path d="M20.373 0V4.23311H32.6454L44.6722 16.4344V39.094H48.8447V14.4424L34.6086 0H20.373Z" fill="#66DDDD"/>
</svg>
