<svg width="540" height="540" viewBox="0 0 540 540" fill="none" xmlns="http://www.w3.org/2000/svg">
<path d="M222.571 215.398L384.179 125.211C384.179 125.211 401.686 114.443 416.501 123.865C431.315 133.287 429.968 152.133 429.968 152.133L429.968 389.04C429.968 389.04 429.968 399.982 421.888 409.231C415.624 416.401 408.844 420 398.993 420C389.585 420 383.426 418.182 376.099 409.231C368.905 400.443 369.365 389.287 369.365 389.287V196.552C320.275 224.265 301.597 235.135 257.568 259.991C250.652 263.896 237.367 272.105 226.593 272.106C215.819 272.106 199.658 258.645 199.658 258.645L149.848 222.301V342.691C149.848 342.691 149.829 350.178 144.461 358.081C138.044 367.526 125.974 367.506 124.327 367.503L124.26 367.503C122.913 367.503 112.825 367.925 105.405 358.081C99.3927 350.103 100.019 340.582 100.019 340.582L100.019 173.669C100.019 173.669 100.019 158.286 110.792 152.132C126.038 143.425 140.421 153.478 140.421 153.478L222.571 215.398Z" fill="black"/>
</svg>
