<svg width="128" height="32" viewBox="0 0 128 32" fill="none" xmlns="http://www.w3.org/2000/svg"><path d="M53.615 16.002a7.79 7.79 0 0 1-.186 1.72 6.86 6.86 0 0 1-.538 1.525c-.23.474-.511.912-.846 1.313a6.131 6.131 0 0 1-1.142 1.045l3.409 3.698H52.25c-.297 0-.567-.04-.808-.12a1.574 1.574 0 0 1-.65-.444l-1.97-2.164c-.315.087-.64.151-.974.195a7.9 7.9 0 0 1-1.031.064c-1.016 0-1.944-.17-2.786-.508a6.422 6.422 0 0 1-2.155-1.433 6.458 6.458 0 0 1-1.384-2.164A7.419 7.419 0 0 1 40 16.002c0-.98.164-1.886.492-2.718a6.438 6.438 0 0 1 1.384-2.173 6.311 6.311 0 0 1 2.155-1.424c.842-.345 1.77-.518 2.786-.518 1.015 0 1.94.173 2.777.518.835.345 1.55.823 2.145 1.433a6.337 6.337 0 0 1 1.384 2.164c.328.832.492 1.738.492 2.718Zm-2.563 0c0-.734-.1-1.39-.297-1.97a4.112 4.112 0 0 0-.836-1.488 3.61 3.61 0 0 0-1.338-.934c-.52-.216-1.108-.324-1.764-.324-.657 0-1.248.108-1.774.324a3.696 3.696 0 0 0-1.347.934 4.22 4.22 0 0 0-.845 1.488c-.198.58-.297 1.236-.297 1.97 0 .733.099 1.393.297 1.978.198.58.48 1.073.845 1.48.372.4.82.708 1.347.924.526.216 1.117.324 1.774.324.656 0 1.244-.108 1.764-.324a3.662 3.662 0 0 0 1.338-.924c.365-.407.644-.9.836-1.48.198-.585.297-1.245.297-1.978Zm5.764-2.802v6.028c0 .58.133 1.03.399 1.35.272.315.678.472 1.216.472.397 0 .768-.087 1.115-.26a3.99 3.99 0 0 0 .984-.73V13.2h2.294v9.486h-1.402c-.297 0-.492-.138-.585-.416l-.158-.758a7.22 7.22 0 0 1-.613.546 4 4 0 0 1-.678.416 3.65 3.65 0 0 1-.77.259 3.646 3.646 0 0 1-.883.101c-.52 0-.981-.086-1.384-.259a2.818 2.818 0 0 1-1.003-.748 3.32 3.32 0 0 1-.622-1.138 4.96 4.96 0 0 1-.204-1.46V13.2h2.294Zm10.157 0v9.486h-2.294V13.2h2.294Zm.344-2.764c0 .197-.04.382-.121.555-.08.172-.189.323-.325.453a1.54 1.54 0 0 1-.465.314 1.49 1.49 0 0 1-.575.11c-.198 0-.387-.036-.567-.11a1.57 1.57 0 0 1-.77-.767 1.478 1.478 0 0 1 0-1.128 1.45 1.45 0 0 1 .77-.768c.18-.08.369-.12.567-.12.204 0 .396.04.575.12.18.074.335.176.465.305.136.13.244.284.325.463.08.178.12.37.12.573Zm8.209 4.771a1.057 1.057 0 0 1-.204.203c-.062.05-.155.074-.279.074a.653.653 0 0 1-.343-.102 6.118 6.118 0 0 0-.4-.24 2.6 2.6 0 0 0-.557-.24 2.407 2.407 0 0 0-.79-.111 2.39 2.39 0 0 0-1.058.221 2.003 2.003 0 0 0-.762.62c-.198.271-.346.6-.445.99-.1.381-.149.816-.149 1.303 0 .505.053.955.158 1.35.111.394.27.727.474.998.204.265.451.469.742.61.291.136.62.204.985.204s.66-.043.882-.13c.23-.092.421-.19.576-.296.155-.11.288-.21.4-.295a.617.617 0 0 1 .39-.139c.185 0 .325.07.417.213l.66.832c-.254.296-.53.545-.827.749a4.744 4.744 0 0 1-.928.48c-.316.117-.644.2-.985.25-.34.05-.678.074-1.012.074a4.296 4.296 0 0 1-1.663-.324 3.98 3.98 0 0 1-1.365-.961c-.384-.42-.69-.93-.92-1.535-.222-.61-.334-1.304-.334-2.08 0-.697.1-1.34.298-1.933a4.388 4.388 0 0 1 .891-1.544c.39-.437.873-.78 1.449-1.026.576-.246 1.238-.37 1.987-.37.712 0 1.335.114 1.867.342a4.559 4.559 0 0 1 1.449.98l-.604.833Zm3.734-6.26v7.868h.428a.827.827 0 0 0 .362-.064.94.94 0 0 0 .279-.24l2.368-2.913c.105-.123.217-.219.334-.287a.862.862 0 0 1 .465-.11h2.099l-2.963 3.522c-.105.13-.214.25-.325.36a2.25 2.25 0 0 1-.362.278c.13.092.244.2.344.323.099.124.198.256.297.398l3.176 4.604H83.69c-.18 0-.331-.03-.455-.092a.89.89 0 0 1-.335-.315l-2.423-3.596c-.093-.142-.186-.234-.28-.277-.092-.044-.231-.065-.417-.065h-.52v4.345h-2.294V8.947h2.294Zm8.624.37c.112 0 .204.006.279.019a.477.477 0 0 1 .195.055c.062.025.12.065.176.12.056.05.118.117.186.204l7.049 8.94a11.89 11.89 0 0 1-.056-.629c-.006-.21-.01-.403-.01-.582V9.317h2.202v13.37h-1.29a1.16 1.16 0 0 1-.493-.093 1.093 1.093 0 0 1-.38-.333l-7.022-8.904c.019.198.03.395.037.592.012.191.019.367.019.527v8.21h-2.201V9.317h1.31Zm15.925 3.735c.712 0 1.356.114 1.932.342a4.173 4.173 0 0 1 1.486.971c.408.42.724.93.947 1.535.223.604.334 1.279.334 2.025 0 .752-.111 1.43-.334 2.034a4.399 4.399 0 0 1-.947 1.544 4.112 4.112 0 0 1-1.486.98c-.576.228-1.22.342-1.932.342a5.278 5.278 0 0 1-1.941-.342 4.2 4.2 0 0 1-1.495-.98 4.497 4.497 0 0 1-.957-1.544c-.223-.604-.334-1.282-.334-2.034 0-.746.111-1.421.334-2.025a4.41 4.41 0 0 1 .957-1.535 4.262 4.262 0 0 1 1.495-.97 5.28 5.28 0 0 1 1.941-.343Zm0 8.016c.793 0 1.378-.265 1.755-.795.384-.53.576-1.306.576-2.33 0-1.023-.192-1.803-.576-2.339-.377-.536-.962-.804-1.755-.804-.805 0-1.399.271-1.783.813-.384.537-.576 1.313-.576 2.33 0 1.017.192 1.794.576 2.33.384.53.978.795 1.783.795Zm12.452 1.618c-.298 0-.493-.138-.586-.416l-.185-.915a5.657 5.657 0 0 1-.623.6 3.868 3.868 0 0 1-.705.463 3.41 3.41 0 0 1-.808.296 3.691 3.691 0 0 1-.929.111 3.16 3.16 0 0 1-1.43-.324 3.241 3.241 0 0 1-1.124-.933c-.31-.413-.551-.922-.724-1.526-.168-.604-.251-1.294-.251-2.071 0-.703.096-1.356.288-1.96a4.764 4.764 0 0 1 .826-1.572c.359-.444.79-.789 1.291-1.035a3.705 3.705 0 0 1 1.69-.38c.533 0 .988.087 1.366.26.377.166.715.39 1.012.674v-5.01h2.294v13.738h-1.402Zm-3.056-1.673c.477 0 .882-.099 1.217-.296a3.61 3.61 0 0 0 .947-.841v-4.253c-.26-.315-.545-.537-.854-.666a2.487 2.487 0 0 0-.985-.194c-.347 0-.662.065-.947.194-.279.13-.517.327-.715.592-.192.258-.341.591-.446.998-.105.4-.158.875-.158 1.424 0 .555.043 1.026.13 1.415.093.382.223.696.39.943.167.24.372.416.613.527.242.104.511.157.808.157Zm10.138-7.961c.601 0 1.152.096 1.653.287a3.6 3.6 0 0 1 1.31.841c.365.364.65.814.854 1.35.205.53.307 1.137.307 1.822 0 .172-.01.317-.028.434a.623.623 0 0 1-.084.268.346.346 0 0 1-.158.139.77.77 0 0 1-.26.037h-5.888c.068.974.331 1.689.79 2.145.458.456 1.065.684 1.82.684.371 0 .69-.043.957-.13a4.24 4.24 0 0 0 .705-.286c.205-.105.381-.2.53-.287a.912.912 0 0 1 .445-.129.5.5 0 0 1 .242.055c.068.037.127.09.176.158l.669.832a3.938 3.938 0 0 1-.854.749 5.088 5.088 0 0 1-.994.48c-.341.117-.69.2-1.05.25a7.43 7.43 0 0 1-1.03.074 5.18 5.18 0 0 1-1.849-.324 4.223 4.223 0 0 1-1.485-.97 4.589 4.589 0 0 1-.994-1.59c-.242-.636-.362-1.369-.362-2.201 0-.647.105-1.254.315-1.821.211-.574.511-1.07.901-1.49a4.285 4.285 0 0 1 1.44-1.007c.569-.246 1.21-.37 1.922-.37Zm.047 1.637c-.669 0-1.192.188-1.57.564-.378.376-.619.909-.724 1.6h4.309c0-.297-.04-.574-.121-.833a1.916 1.916 0 0 0-.371-.693 1.71 1.71 0 0 0-.632-.463 2.11 2.11 0 0 0-.891-.175Z" fill="#10151B"/><g clip-path="url(#clip0_14795_111996)"><path fill-rule="evenodd" clip-rule="evenodd" d="M16 26a9.967 9.967 0 0 0 6.982-2.841.126.126 0 0 1 .178 0l4.154 4.155 4.312 4.311c.093.094-.003.25-.128.207l-6.882-2.293a.125.125 0 0 0-.106.013A15.925 15.925 0 0 1 16 32C7.163 32 0 24.837 0 16S7.163 0 16 0s16 7.163 16 16c0 3.774-1.307 7.243-3.493 9.98a.124.124 0 0 1-.184.01l-8.449-8.449c-.093-.093.003-.249.128-.207l5.369 1.79a.124.124 0 0 0 .157-.08c.307-.96.472-1.983.472-3.044 0-5.523-4.477-10-10-10S6 10.477 6 16s4.477 10 10 10Z" fill="#009FD1"/></g><defs><clipPath id="clip0_14795_111996"><path fill="#fff" d="M0 0h32v32H0z"/></clipPath></defs></svg>