<svg width="30" height="30" viewBox="0 0 30 30" fill="none" xmlns="http://www.w3.org/2000/svg">
<path d="M14.591 30.0005C6.56345 30.0005 0.0546875 23.4917 0.0546875 15.4641C0.0546875 7.4365 6.56345 0.927734 14.591 0.927734C22.6187 0.927734 29.1274 7.4365 29.1274 15.4641C29.1191 23.4897 22.6166 29.9922 14.591 30.0005ZM14.591 1.57153C6.91972 1.57153 0.700558 7.79068 0.700558 15.4641C0.700558 23.1376 6.91972 29.3546 14.5931 29.3546C22.2645 29.3546 28.4836 23.1355 28.4836 15.4641C28.4753 7.79485 22.2603 1.58195 14.591 1.57153Z" fill="black"/>
<path d="M15.78 28.5796C8.56705 28.5796 2.71875 22.7313 2.71875 15.5163C2.71875 8.30337 8.56705 2.45508 15.7821 2.45508C22.9951 2.45508 28.8413 8.30337 28.8434 15.5163C28.835 22.7293 22.993 28.5734 15.78 28.5796ZM15.78 3.01762C8.8754 3.01762 3.27712 8.6159 3.2792 15.5205C3.2792 22.4251 8.87748 28.0234 15.7821 28.0213C22.6867 28.0192 28.285 22.423 28.2829 15.5184C28.2767 8.61589 22.6825 3.02387 15.78 3.01762Z" fill="black"/>
<path d="M16.9728 27.1565C10.5744 27.1565 5.38867 21.9686 5.38867 15.5724C5.38867 9.17402 10.5765 3.98828 16.9728 3.98828C23.369 3.98828 28.5569 9.17611 28.5569 15.5724C28.5506 21.9666 23.3669 27.1502 16.9728 27.1565ZM16.9728 4.45914C10.8369 4.45914 5.86162 9.43445 5.86162 15.5703C5.86162 21.7061 10.8369 26.6814 16.9728 26.6814C23.1086 26.6814 28.0839 21.7061 28.0839 15.5703C28.0756 9.43654 23.1065 4.46539 16.9728 4.45914Z" fill="black"/>
<path d="M18.1618 25.7357C12.5782 25.7357 8.05078 21.2104 8.05078 15.6267C8.05078 10.043 12.5761 5.51562 18.1598 5.51562C23.7435 5.51562 28.2709 10.0409 28.2709 15.6246C28.2646 21.2062 23.7435 25.7295 18.1618 25.7357ZM18.1618 5.90105C12.7927 5.90105 8.4383 10.2535 8.4383 15.6246C8.4383 20.9958 12.7907 25.3482 18.1618 25.3482C23.5309 25.3482 27.8854 20.9958 27.8854 15.6246C27.8771 10.2576 23.5289 5.9073 18.1618 5.90105Z" fill="black"/>
<path d="M19.3508 24.3149C14.5818 24.3149 10.7148 20.448 10.7148 15.6789C10.7148 10.9099 14.5818 7.04297 19.3508 7.04297C24.1199 7.04297 27.9868 10.9099 27.9868 15.6789C27.9805 20.4459 24.1178 24.3086 19.3508 24.3149ZM19.3508 7.34508C14.7484 7.34508 11.0169 11.0765 11.0169 15.6789C11.0169 20.2813 14.7484 24.0128 19.3508 24.0128C23.9532 24.0128 27.6847 20.2813 27.6847 15.6789C27.6784 11.0786 23.9511 7.34925 19.3508 7.34508Z" fill="black"/>
<path d="M20.5398 22.8919C16.5854 22.8919 13.3789 19.6875 13.3789 15.7331C13.3789 11.7787 16.5833 8.57227 20.5377 8.57227C24.4921 8.57227 27.6986 11.7766 27.6986 15.731C27.6944 19.6854 24.4921 22.8877 20.5398 22.8919ZM20.5398 8.78894C16.7041 8.78894 13.5956 11.8974 13.5956 15.7331C13.5956 19.5688 16.7041 22.6773 20.5398 22.6773C24.3755 22.6773 27.484 19.5688 27.484 15.7331C27.4819 11.8995 24.3734 8.7931 20.5398 8.78894Z" fill="black"/>
</svg>
